<?xml version="1.0" encoding="UTF-8"?>
<svg id="_圖層_1" data-name="圖層 1" xmlns="http://www.w3.org/2000/svg" viewBox="0 0 900 900">
  <defs>
    <style>
      .cls-1 {
        fill: #685e68;
      }

      .cls-1, .cls-2, .cls-3, .cls-4, .cls-5, .cls-6, .cls-7, .cls-8, .cls-9 {
        fill-rule: evenodd;
      }

      .cls-1, .cls-2, .cls-3, .cls-4, .cls-5, .cls-6, .cls-7, .cls-8, .cls-9, .cls-10, .cls-11, .cls-12 {
        stroke-width: 0px;
      }

      .cls-2 {
        fill: #837683;
      }

      .cls-3 {
        fill: #d1d1d6;
      }

      .cls-4 {
        fill: #ffc338;
      }

      .cls-5 {
        fill: #ffd064;
      }

      .cls-6 {
        fill: #65788e;
      }

      .cls-7 {
        fill: #8192a5;
      }

      .cls-8 {
        fill: #9facba;
      }

      .cls-9 {
        fill: #8d9ca8;
      }

      .cls-10 {
        fill: #455c84;
      }

      .cls-11 {
        fill: #3078c8;
      }

      .cls-12 {
        fill: #eceff1;
      }
    </style>
  </defs>
  <g>
    <g>
      <path class="cls-8" d="m589.11,192.09h40.96v253.44h-40.96v-253.44Zm-327.97,0h40.96v253.44h-40.96v-253.44Z"/>
      <path class="cls-9" d="m618.29,192.09h11.78v253.44h-11.78v-253.44Zm-327.97,0h11.78v253.44h-11.78v-253.44Z"/>
      <path class="cls-9" d="m445.61,72.83l205,119.25v14.97c0,4.9-4,8.89-8.89,8.89H249.5c-4.9,0-8.89-3.99-8.89-8.89v-14.97l205-119.25Z"/>
      <path class="cls-7" d="m445.61,72.83l205,119.25v14.97c0,4.9-4,8.89-8.89,8.89h-11.78c4.9,0,8.89-4,8.89-8.89v-14.97l-199.11-115.83,5.89-3.43Z"/>
      <path class="cls-7" d="m445.61,72.83l205,119.25H240.61l205-119.25Z"/>
      <path class="cls-6" d="m445.61,72.83l205,119.25h-11.78l-199.11-115.83,5.89-3.43Z"/>
      <circle class="cls-12" cx="445.57" cy="141.17" r="25.34"/>
      <path class="cls-3" d="m445.61,115.9c1.5,0,2.97.13,4.39.38-11.9,2.08-20.95,12.47-20.95,24.97s9.05,22.89,20.95,24.97c-1.43.25-2.9.38-4.39.38-14,0-25.35-11.35-25.35-25.35s11.35-25.34,25.35-25.34Z"/>
      <path class="cls-9" d="m249.15,423.49h64.95c4.7,0,8.54,3.84,8.54,8.54v14.84c0,4.7-3.84,8.54-8.54,8.54h-64.95c-4.7,0-8.54-3.84-8.54-8.54v-14.84c0-4.7,3.84-8.54,8.54-8.54h0Z"/>
      <path class="cls-7" d="m302.71,423.49h11.39c4.71,0,8.54,3.84,8.54,8.54v14.84c0,4.7-3.84,8.54-8.54,8.54h-11.39c4.7,0,8.54-3.84,8.54-8.54v-14.84c0-4.7-3.84-8.54-8.54-8.54h0Z"/>
      <path class="cls-9" d="m577.11,423.49h64.95c4.7,0,8.54,3.84,8.54,8.54v14.84c0,4.7-3.84,8.54-8.54,8.54h-64.95c-4.7,0-8.54-3.84-8.54-8.54v-14.84c0-4.7,3.84-8.54,8.54-8.54h0Z"/>
      <path class="cls-7" d="m630.67,423.49h11.39c4.7,0,8.54,3.84,8.54,8.54v14.84c0,4.7-3.84,8.54-8.54,8.54h-11.39c4.7,0,8.54-3.84,8.54-8.54v-14.84c0-4.7-3.84-8.54-8.54-8.54h0Z"/>
    </g>
    <g>
      <path class="cls-5" d="m543.93,332.38l16.2,7.88v41.63l-16.2-10.26-16.2,10.26v-41.63l16.2-7.88Z"/>
      <path class="cls-5" d="m535.93,271.07h16v82.46h-16v-82.46Z"/>
      <path class="cls-4" d="m560.14,377.54v4.35l-16.2-10.26,3.43-2.17,12.77,8.09Zm-25.54,0l-6.86,4.35v-41.63l8.2-3.99v-65.19h6.86v65.19l-8.2,3.99v37.28Z"/>
      <path class="cls-2" d="m442.37,265.81l81.19,2v72.22c0,3.44-2.4,6.33-5.79,6.95-88.02,16.3-62.79,16.3-150.82,0-3.38-.62-5.79-3.51-5.79-6.95v-72.22l81.19-2Z"/>
      <path class="cls-1" d="m523.57,327.4v12.63c0,3.44-2.4,6.33-5.79,6.95-88.02,16.3-62.79,16.3-150.82,0-3.38-.62-5.79-3.51-5.79-6.95v-72.22l10.9-.27v67.76c81.93,15.34,59.43,15.02,145.7-.95,3.38-.62,5.79-3.51,5.79-6.95h0Z"/>
      <path class="cls-2" d="m442.37,239.53l113.59,30.17c1.4.37,1.4,2.37,0,2.74l-113.59,30.17-113.59-30.17c-1.4-.37-1.4-2.37,0-2.74l113.59-30.17Z"/>
      <path class="cls-1" d="m534.52,264.01l21.44,5.7c1.4.37,1.4,2.37,0,2.74l-113.59,30.17-113.59-30.17c-1.4-.37-1.4-2.37,0-2.74l21.44-5.7,92.15,24.48,92.15-24.48Z"/>
    </g>
  </g>
  <g>
    <path class="cls-10" d="m247.42,627.98c-3.88,2.74-8.89,6.16-15.16,10.15v36.37c0,9.01-1.82,14.02-15.73,15.28-.23-3.99-.68-7.07-2.05-9.12-1.48-1.94-3.65-3.31-8.32-4.1v-1.6s9.23.57,11.29.57c1.71,0,2.17-.46,2.17-1.94v-27.82c-2.51,1.48-5.24,3.08-8.09,4.67-.46,1.6-1.6,2.85-3.08,3.31l-5.13-15.73c3.31-.57,9.23-1.94,16.3-3.76v-21.32h-13.79l-.91-3.31h14.71v-27.02l16.87,1.71c-.23,1.6-1.37,2.74-4.22,3.19v22.12h.57l5.81-8.89s6.5,6.27,10.15,10.37c-.34,1.25-1.48,1.82-3.08,1.82h-13.45v17.9c4.79-1.25,9.92-2.62,14.82-4.1l.34,1.25Zm64.52-34.31c-.8.91-2.17,1.6-4.45,1.94-.8,22.69-2.62,32.95-7.75,36.94-3.31,2.51-7.52,3.76-13.57,3.76,0-3.76-.34-6.84-2.05-8.55-1.6-1.82-5.02-3.31-9.23-4.1l.11-1.48c3.88.23,10.15.68,12.31.68,1.71,0,2.62-.23,3.42-1.03,2.17-1.94,3.31-11.29,3.99-28.27h-15.85c-3.31,21.09-13.34,36.71-35.8,45.6l-.68-1.25c15.28-11.29,20.75-26.79,22-44.34h-17.33l-1.03-3.19h47.65l6.61-6.38,11.63,9.69Zm-15.28,44.23l12.54,9.69c-.68.91-2.28,1.82-4.56,2.28v36.14c-.23.68-6.5,3.08-10.72,3.08h-2.17v-8.32h-29.3v5.02c0,1.25-5.59,3.99-10.94,3.99h-1.82v-50.62l13.45,5.36h27.47l6.04-6.61Zm-4.9,39.56v-29.64h-29.3v29.64h29.3Z"/>
    <path class="cls-10" d="m422.3,670.38s9.23,7.07,14.93,11.86c-.34,1.25-1.6,1.82-3.31,1.82h-102.83l-.91-3.31h45.71v-34.2h-31.35l-.91-3.31h32.26v-29.18h-20.18c-7.07,11.74-15.5,21.09-25.31,27.93l-1.25-1.03c8.78-13,17.21-33.63,21.2-54.26l19.15,5.7c-.34,1.37-1.82,2.39-4.45,2.39-2.28,5.81-4.67,11.17-7.52,16.07h18.35v-27.59l18.92,1.82c-.34,1.71-1.14,2.85-4.22,3.31v22.46h18.01l7.87-9.69s8.78,6.38,14.36,11.06c-.34,1.25-1.6,1.82-3.42,1.82h-36.82v29.18h14.25l7.98-9.92s9.12,6.73,14.59,11.4c-.34,1.25-1.48,1.82-3.08,1.82h-33.74v34.2h23.48l8.21-10.37Z"/>
    <path class="cls-10" d="m534.82,636.87c20.06,2.62,22.57,10.03,19.49,14.14,2.51,2.05,5.93,5.02,8.55,7.41-.34,1.25-1.48,1.82-3.08,1.82h-24.74v14.36c0,8.89-1.94,13.79-16.76,15.16-.34-3.88-.91-6.95-2.74-8.78-1.82-1.94-4.56-3.42-10.37-4.33v-1.6s12.65.8,15.05.8c1.82,0,2.39-.57,2.39-1.94v-13.68h-65.55l-.91-3.31h66.46v-8.66l16.3,1.37c-.23,1.71-1.37,2.51-3.88,2.96v4.33h9.69l2.62-3.53c-1.37-.23-2.74-.91-3.88-2.17-1.37-2.17-3.31-4.56-6.16-6.84-15.28,2.39-36.02,4.9-65.66,8.09-.91,1.37-2.17,2.17-3.31,2.39l-6.38-13.45c8.44.23,22.91.23,40.58.23v-7.98h-17.56v.91c0,1.03-5.47,3.53-10.6,3.53h-1.71v-37.62l13.11,5.13h16.76v-8.21h-43.21l-1.03-3.19h44.23v-11.51l16.87,1.48c-.23,1.6-1.25,2.74-4.22,3.19v6.84h25.65l6.73-8.89s7.64,6.04,12.2,10.26c-.34,1.25-1.6,1.82-3.19,1.82h-41.38v8.21h17.44l5.81-6.27,12.31,9.12c-.68.91-2.39,1.82-4.56,2.39v22.57c-.11,1.03-6.16,3.42-10.37,3.42h-1.03Zm-59.28,25.54c33.63-.23,25.99,24.97,13,18.24-2.17-6.5-8.32-13.57-13.91-17.44l.91-.8Zm9.46-53.58v9.23h17.56v-9.23h-17.56Zm17.56,21.66v-9.23h-17.56v9.23h17.56Zm12.65-21.66v9.23h18.58v-9.23h-18.58Zm18.58,12.43h-18.58v9.23h18.58v-9.23Zm-.46,20.29c-2.28-1.48-5.02-2.85-8.21-3.99l.46-1.48c2.96.11,5.7.34,8.21.68v-3.08h-18.58v7.98l18.13-.11Z"/>
    <path class="cls-10" d="m677.66,673.8c6.38,1.14,7.87,2.96,7.87,5.24,0,6.27-7.64,7.41-46.06,7.41h-25.19c-18.47,0-26.68-1.94-26.68-14.93v-77.41h-3.99l-1.03-3.19h80.6l6.84-9.12s7.64,6.27,12.31,10.49c-.34,1.25-1.6,1.82-3.19,1.82h-79.23v75.7c0,5.13,3.08,6.73,13,6.73h27.59c9.8,0,18.58-.23,22-.57,2.17-.11,4.9-.46,6.73-.68,1.6-.23,3.99-.8,6.5-1.6h1.25l.68.11Zm-50.96-3.08v-5.59h-9.46v4.79c0,.91-4.79,3.42-9.35,3.42h-1.6v-38.65l11.4,4.56h7.98l5.13-5.36,10.72,8.09c-.57.68-1.94,1.6-3.76,1.82v23.94c-.11.8-5.59,2.96-9.23,2.96h-1.82Zm25.76-44.12h-22.69v3.19c0,1.14-5.7,3.88-10.83,3.88h-1.82v-35.34l13.22,5.13h21.09l5.81-6.27,12.2,9.23c-.68.8-2.05,1.71-4.1,2.17v20.06c-.11.8-6.61,3.08-10.6,3.08h-2.28v-5.13Zm-25.76,35.22v-19.27h-9.46v19.27h9.46Zm25.76-38.53v-16.53h-22.69v16.53h22.69Zm12.54,46.97v-5.13h-9.8v2.96c0,1.03-4.9,3.42-9.46,3.42h-1.6v-36.82l11.51,4.56h8.32l5.24-5.47,10.94,8.32c-.57.68-1.94,1.48-3.76,1.82v23.37c-.11.68-5.81,2.96-9.46,2.96h-1.94Zm0-8.44v-19.27h-9.8v19.27h9.8Z"/>
  </g>
  <g>
    <path class="cls-11" d="m286.52,782.72h-15.38l-2.7,6.27c-.66,1.54-1,2.7-1,3.46,0,.61.29,1.14.86,1.6.58.46,1.82.76,3.74.89v1.08h-12.51v-1.08c1.66-.29,2.73-.67,3.22-1.14,1-.94,2.1-2.84,3.31-5.71l13.97-32.7h1.03l13.83,33.05c1.11,2.66,2.12,4.38,3.03,5.17s2.17,1.24,3.79,1.33v1.08h-15.67v-1.08c1.58-.08,2.65-.34,3.21-.79s.83-1,.83-1.64c0-.86-.39-2.22-1.17-4.07l-2.4-5.71Zm-.82-2.17l-6.74-16.05-6.91,16.05h13.65Z"/>
    <path class="cls-11" d="m304.02,796.02v-1.08h1.49c1.68,0,2.87-.54,3.57-1.61.43-.64.64-2.09.64-4.34v-25.66c0-2.48-.27-4.03-.82-4.66-.76-.86-1.89-1.29-3.4-1.29h-1.49v-1.08h16.17c5.94,0,10.45.67,13.55,2.02,3.1,1.35,5.59,3.59,7.47,6.74,1.88,3.14,2.83,6.78,2.83,10.9,0,5.53-1.68,10.15-5.04,13.86-3.77,4.14-9.51,6.21-17.23,6.21h-17.75Zm11.34-2.87c2.48.55,4.56.82,6.24.82,4.53,0,8.29-1.59,11.28-4.78s4.48-7.5,4.48-12.95-1.49-9.81-4.48-12.98-6.83-4.75-11.51-4.75c-1.76,0-3.76.28-6.01.85v33.78Z"/>
    <path class="cls-11" d="m371.48,796.02l-15.35-33.43v26.54c0,2.44.26,3.96.79,4.57.72.82,1.86,1.23,3.43,1.23h1.41v1.08h-13.83v-1.08h1.41c1.68,0,2.87-.51,3.57-1.52.43-.62.64-2.05.64-4.28v-25.96c0-1.76-.2-3.03-.59-3.81-.27-.57-.78-1.04-1.51-1.42s-1.91-.57-3.53-.57v-1.08h11.25l14.41,31.08,14.18-31.08h11.25v1.08h-1.38c-1.7,0-2.9.51-3.6,1.52-.43.62-.64,2.05-.64,4.28v25.96c0,2.44.27,3.96.82,4.57.72.82,1.86,1.23,3.43,1.23h1.38v1.08h-16.88v-1.08h1.41c1.7,0,2.89-.51,3.57-1.52.43-.62.64-2.05.64-4.28v-26.54l-15.32,33.43h-.97Z"/>
    <path class="cls-11" d="m419.39,794.94v1.08h-17.02v-1.08h1.41c1.64,0,2.83-.48,3.57-1.44.47-.62.7-2.13.7-4.51v-25.66c0-2.01-.13-3.34-.38-3.98-.2-.49-.6-.91-1.2-1.26-.86-.47-1.76-.7-2.7-.7h-1.41v-1.08h17.02v1.08h-1.44c-1.62,0-2.8.48-3.54,1.44-.49.62-.73,2.13-.73,4.51v25.66c0,2.01.13,3.34.38,3.98.2.49.61.91,1.23,1.26.84.47,1.73.7,2.67.7h1.44Z"/>
    <path class="cls-11" d="m448.97,755.39v13.74h-1.08c-.35-2.64-.98-4.74-1.89-6.3s-2.2-2.8-3.88-3.72c-1.68-.92-3.42-1.38-5.21-1.38-2.03,0-3.71.62-5.04,1.86-1.33,1.24-1.99,2.65-1.99,4.23,0,1.21.42,2.31,1.26,3.31,1.21,1.46,4.09,3.42,8.64,5.86,3.71,1.99,6.24,3.52,7.6,4.58,1.36,1.06,2.4,2.32,3.13,3.77s1.1,2.96,1.1,4.54c0,3.01-1.17,5.6-3.5,7.78-2.33,2.18-5.34,3.27-9.01,3.27-1.15,0-2.24-.09-3.25-.26-.61-.1-1.86-.46-3.76-1.07s-3.11-.92-3.62-.92-.87.15-1.16.44c-.28.29-.49.9-.63,1.82h-1.08v-13.62h1.08c.51,2.85,1.19,4.98,2.05,6.4.86,1.42,2.17,2.59,3.94,3.53,1.77.94,3.71,1.41,5.82,1.41,2.44,0,4.37-.64,5.79-1.93,1.42-1.29,2.12-2.81,2.12-4.57,0-.98-.27-1.96-.81-2.96-.54-1-1.37-1.92-2.5-2.78-.76-.59-2.84-1.83-6.24-3.74s-5.82-3.42-7.25-4.55-2.52-2.38-3.27-3.75c-.74-1.37-1.11-2.87-1.11-4.51,0-2.85,1.09-5.31,3.28-7.37,2.19-2.06,4.97-3.09,8.35-3.09,2.11,0,4.35.52,6.71,1.55,1.09.49,1.86.73,2.31.73.51,0,.92-.15,1.25-.46s.58-.91.78-1.83h1.08Z"/>
    <path class="cls-11" d="m482.94,755.39v13.74h-1.08c-.35-2.64-.98-4.74-1.89-6.3s-2.2-2.8-3.88-3.72c-1.68-.92-3.42-1.38-5.21-1.38-2.03,0-3.71.62-5.04,1.86-1.33,1.24-1.99,2.65-1.99,4.23,0,1.21.42,2.31,1.26,3.31,1.21,1.46,4.09,3.42,8.64,5.86,3.71,1.99,6.24,3.52,7.6,4.58,1.36,1.06,2.4,2.32,3.13,3.77s1.1,2.96,1.1,4.54c0,3.01-1.17,5.6-3.5,7.78-2.33,2.18-5.34,3.27-9.01,3.27-1.15,0-2.24-.09-3.25-.26-.61-.1-1.86-.46-3.76-1.07s-3.11-.92-3.62-.92-.87.15-1.16.44c-.28.29-.49.9-.63,1.82h-1.08v-13.62h1.08c.51,2.85,1.19,4.98,2.05,6.4.86,1.42,2.17,2.59,3.94,3.53,1.77.94,3.71,1.41,5.82,1.41,2.44,0,4.37-.64,5.79-1.93,1.42-1.29,2.12-2.81,2.12-4.57,0-.98-.27-1.96-.81-2.96-.54-1-1.37-1.92-2.5-2.78-.76-.59-2.84-1.83-6.24-3.74s-5.82-3.42-7.25-4.55-2.52-2.38-3.27-3.75c-.74-1.37-1.11-2.87-1.11-4.51,0-2.85,1.09-5.31,3.28-7.37,2.19-2.06,4.97-3.09,8.35-3.09,2.11,0,4.35.52,6.71,1.55,1.09.49,1.86.73,2.31.73.51,0,.92-.15,1.25-.46s.58-.91.78-1.83h1.08Z"/>
    <path class="cls-11" d="m507.91,794.94v1.08h-17.02v-1.08h1.41c1.64,0,2.83-.48,3.57-1.44.47-.62.7-2.13.7-4.51v-25.66c0-2.01-.13-3.34-.38-3.98-.2-.49-.6-.91-1.2-1.26-.86-.47-1.76-.7-2.7-.7h-1.41v-1.08h17.02v1.08h-1.44c-1.62,0-2.8.48-3.54,1.44-.49.62-.73,2.13-.73,4.51v25.66c0,2.01.13,3.34.38,3.98.2.49.61.91,1.23,1.26.84.47,1.73.7,2.67.7h1.44Z"/>
    <path class="cls-11" d="m531.92,755.39c5.16,0,9.62,1.96,13.4,5.87s5.67,8.8,5.67,14.66-1.9,11.04-5.71,15.03-8.42,5.98-13.83,5.98-10.06-1.94-13.78-5.83-5.58-8.92-5.58-15.09,2.15-11.46,6.45-15.44c3.73-3.46,8.19-5.19,13.39-5.19Zm-.56,2.14c-3.55,0-6.41,1.32-8.55,3.96-2.68,3.28-4.01,8.09-4.01,14.41s1.39,11.47,4.16,14.97c2.13,2.66,4.94,3.98,8.44,3.98,3.73,0,6.81-1.46,9.24-4.37s3.65-7.5,3.65-13.77c0-6.8-1.34-11.87-4.01-15.21-2.15-2.66-5.12-3.98-8.91-3.98Z"/>
    <path class="cls-11" d="m553.12,756.3h10.78l24.29,29.79v-22.91c0-2.44-.27-3.96-.82-4.57-.72-.82-1.87-1.23-3.43-1.23h-1.38v-1.08h13.83v1.08h-1.41c-1.68,0-2.87.51-3.57,1.52-.43.62-.64,2.05-.64,4.28v33.49h-1.05l-26.19-31.99v24.46c0,2.44.26,3.96.79,4.57.74.82,1.88,1.23,3.43,1.23h1.41v1.08h-13.83v-1.08h1.38c1.7,0,2.9-.51,3.6-1.52.43-.62.64-2.05.64-4.28v-27.63c-1.15-1.35-2.03-2.24-2.62-2.67-.6-.43-1.47-.83-2.62-1.2-.57-.18-1.43-.26-2.58-.26v-1.08Z"/>
    <path class="cls-11" d="m625.35,755.39v13.74h-1.08c-.35-2.64-.98-4.74-1.89-6.3s-2.2-2.8-3.88-3.72c-1.68-.92-3.42-1.38-5.21-1.38-2.03,0-3.71.62-5.04,1.86-1.33,1.24-1.99,2.65-1.99,4.23,0,1.21.42,2.31,1.26,3.31,1.21,1.46,4.09,3.42,8.64,5.86,3.71,1.99,6.24,3.52,7.6,4.58,1.36,1.06,2.4,2.32,3.13,3.77s1.1,2.96,1.1,4.54c0,3.01-1.17,5.6-3.5,7.78-2.33,2.18-5.34,3.27-9.01,3.27-1.15,0-2.24-.09-3.25-.26-.61-.1-1.86-.46-3.76-1.07s-3.11-.92-3.62-.92-.87.15-1.16.44c-.28.29-.49.9-.63,1.82h-1.08v-13.62h1.08c.51,2.85,1.19,4.98,2.05,6.4.86,1.42,2.17,2.59,3.94,3.53,1.77.94,3.71,1.41,5.82,1.41,2.44,0,4.37-.64,5.79-1.93,1.42-1.29,2.12-2.81,2.12-4.57,0-.98-.27-1.96-.81-2.96-.54-1-1.37-1.92-2.5-2.78-.76-.59-2.84-1.83-6.24-3.74s-5.82-3.42-7.25-4.55-2.52-2.38-3.27-3.75c-.74-1.37-1.11-2.87-1.11-4.51,0-2.85,1.09-5.31,3.28-7.37,2.19-2.06,4.97-3.09,8.35-3.09,2.11,0,4.35.52,6.71,1.55,1.09.49,1.86.73,2.31.73.51,0,.92-.15,1.25-.46s.58-.91.78-1.83h1.08Z"/>
  </g>
</svg>