<?xml version="1.0" encoding="UTF-8"?>
<svg id="_圖層_1" data-name="圖層 1" xmlns="http://www.w3.org/2000/svg" viewBox="0 0 900 900">
  <defs>
    <style>
      .cls-1 {
        fill: #f9b938;
      }

      .cls-1, .cls-2, .cls-3, .cls-4, .cls-5, .cls-6, .cls-7, .cls-8 {
        stroke-width: 0px;
      }

      .cls-2 {
        fill: #f99c16;
      }

      .cls-3 {
        fill: #4eacf2;
      }

      .cls-4 {
        fill: #455c84;
      }

      .cls-5 {
        fill: #8c3717;
      }

      .cls-6 {
        fill: #1366a5;
      }

      .cls-7 {
        fill: #3078c8;
      }

      .cls-8 {
        fill: #e86a38;
      }
    </style>
  </defs>
  <g>
    <g>
      <path class="cls-4" d="m238.83,583.4s9.23,6.73,14.71,11.4c-.34,1.25-1.6,1.82-3.31,1.82h-33.06v20.06h14.14l6.61-7.64,12.31,9.69c-.8,1.03-2.05,1.94-4.79,2.39v63.16c0,.68-4.33,3.53-11.29,3.53h-2.28v-9.69h-64.98v6.73c0,.8-4.1,3.42-10.72,3.42h-2.39v-77.06l14.36,5.47h12.65v-20.06h-33.97l-1.03-3.31h85.16l7.87-9.92Zm-6.95,91.43v-19.27c-2.51.57-5.81.8-10.15.8h-6.5c-9.01,0-10.49-2.74-10.49-10.6v-25.76h-11.29c-.23,15.05-2.96,32.49-25.54,43.43l-.91-1.14c12.08-11.97,13.68-27.36,13.79-42.29h-13.91v54.83h64.98Zm-27.13-78.2h-11.29v20.06h11.29v-20.06Zm12.43,23.37v22.23c0,1.71.34,2.17,2.28,2.17h7.64c.68,0,1.94-.11,2.62-.23.57,0,1.37-.11,2.17-.34v-23.83h-14.71Z"/>
      <path class="cls-4" d="m344.39,645.87c8.55,6.73,22.8,11.29,34.77,13.22l-.11,1.25c-4.56,1.25-7.52,5.24-8.78,11.17-12.43-5.59-23.37-14.14-29.41-25.65h-25.31c-10.03,12.88-27.25,22.12-44.46,27.36l-.8-1.48c12.31-6.27,24.17-16.19,30.44-25.88h-27.47l-.91-3.31h30.89v-11.29h-15.62l-.91-3.31h16.53v-9.92h-16.99l-.91-3.31h17.9v-11.17l16.53,1.48c-.23,1.48-1.03,2.51-3.76,2.96v6.73h15.85v-11.17l16.64,1.48c-.11,1.48-1.03,2.51-3.65,2.96v6.73h5.24l5.7-5.93s1.48.91,3.31,2.28c.8-2.96,1.71-6.84,2.28-10.03h-72.96c.8,7.64-2.05,13-5.81,15.28-3.65,2.28-9.01,1.25-10.49-2.85-1.14-3.99,1.25-6.95,4.67-8.66,3.88-1.94,8.09-7.3,7.75-13h1.6c.8,2.05,1.37,4.1,1.82,5.93h36.25c-1.37-.23-2.85-.91-4.33-2.05.23-4.67-2.17-9.8-5.36-12.43l.8-.68c23.26-.23,20.18,13.57,12.08,15.16h33.17l6.61-6.73,11.86,11.17c-.8.91-2.05,1.14-4.33,1.37-3.42,2.85-8.89,6.5-13.57,8.89,1.71,1.25,3.53,2.51,5.02,3.76-.34,1.25-1.48,1.82-3.08,1.82h-18.24v9.92h3.19l5.93-7.18s6.5,5.02,10.6,8.66c-.34,1.25-1.37,1.82-2.96,1.82h-16.76v11.29h13.57l6.61-8.32s7.64,5.7,12.31,9.8c-.23,1.25-1.48,1.82-3.08,1.82h-29.87Zm16.3,28.73s7.98,5.7,12.77,9.8c-.34,1.25-1.48,1.82-3.19,1.82h-92.68l-.91-3.19h41.15v-15.05h-20.98l-.91-3.19h21.89v-15.39l17.1,1.48c-.23,1.48-1.03,2.51-3.65,2.96v10.94h6.27l6.04-7.18s6.61,4.9,10.94,8.55c-.34,1.25-1.48,1.82-3.08,1.82h-20.18v15.05h22.46l6.95-8.44Zm-44.69-46.63h15.85v-9.92h-15.85v9.92Zm15.85,14.59v-11.29h-15.85v11.29h15.85Z"/>
      <path class="cls-4" d="m491.57,671.07s6.95,5.47,11.17,9.35c-.34,1.25-1.48,1.82-3.08,1.82h-41.15v3.76c0,.91-3.76,3.76-10.03,3.76h-2.17v-47.99c-2.05,1.6-4.33,3.08-6.5,4.45l-1.37-1.03c2.51-3.42,5.02-7.75,7.3-12.77-.8.34-2.05.46-3.42,0-6.73,6.5-19.38,15.5-31.24,21.66,6.04-.46,13.45-1.14,21.09-1.94-.46-3.08-1.37-6.16-2.39-8.32l1.25-.57c21.43,9.8,9.46,25.31,1.82,16.99.11-1.71,0-3.53-.23-5.24-6.5,2.51-15.85,6.16-26.11,9.58-.8.91-1.6,1.48-2.51,1.82l-4.22-12.2s2.62-.46,3.76-1.14c5.93-3.31,13-9.58,19.04-16.19-4.45,1.48-10.03,3.19-15.62,4.9-.68,1.03-1.48,1.71-2.28,2.05l-4.9-10.72s1.48-.34,2.51-.91c5.47-2.74,12.2-11.29,15.16-16.64-2.05,1.14-5.93,2.39-9.35,2.39h-1.82v-33.52l13.91,5.47h59.85l5.93-6.5,12.65,9.58c-.68.8-2.17,1.82-4.45,2.28v18.35c-.11.91-6.5,3.42-10.83,3.42h-2.17v-3.65h-25.31l12.54,4.79c-.57-1.48-1.25-2.85-1.82-3.99l1.14-.46c22.46,6.04,10.6,21.32,2.39,13.57.11-2.85-.57-6.04-1.6-8.89-.68,1.14-2.05,2.05-4.33,1.82-1.71,3.08-3.53,5.93-5.59,8.66l1.48.57h23.03l5.81-7.18s6.61,4.9,10.72,8.55c-.34,1.25-1.48,1.82-3.08,1.82h-16.07v13.11h2.51l5.36-6.95s6.16,4.9,9.8,8.32c-.34,1.25-1.48,1.82-3.08,1.82h-14.59v13.34h2.17l5.7-7.3s6.38,5.13,10.26,8.78c-.34,1.25-1.48,1.82-3.08,1.82h-15.05v13.34h4.9l6.16-7.87Zm-79.23-6.16c3.19,10.83,1.48,18.92-1.94,22.8-2.51,2.62-7.98,2.74-9.8-.8-1.48-3.08.11-6.27,3.08-8.09,2.96-2.51,6.95-8.78,6.95-14.02l1.71.11Zm33.97-33.63c2.51-5.59,4.79-11.74,6.38-17.9h-33.63v.91l14.02,5.59c-.34,1.03-1.71,2.05-3.99,1.82-4.67,3.65-11.74,8.09-18.58,11.4,4.67-.23,10.37-.46,16.07-.8,3.31-3.88,5.93-7.75,7.64-10.6l12.08,9.58Zm-26.22,32.26c18.13,14.93,5.24,31.24-1.94,21.43,1.82-6.84,1.71-15.05.46-21.09l1.48-.34Zm-1.03-70.34v16.99h12.65v-16.99h-12.65Zm10.72,67.94c23.71,11.06,13,29.07,4.45,20.75.11-6.73-2.85-14.71-5.7-20.06l1.25-.68Zm13.79-67.94v16.99h13.22v-16.99h-13.22Zm14.93,39.44v13.11h10.49v-13.11h-10.49Zm10.49,16.3h-10.49v13.34h10.49v-13.34Zm-10.49,29.98h10.49v-13.34h-10.49v13.34Zm10.26-85.73v16.99h12.43v-16.99h-12.43Z"/>
      <path class="cls-4" d="m542.87,600.96h-20.06l-.91-3.31h20.63l-1.71-14.48,16.76,1.14c-.11,1.37-1.03,2.39-3.31,3.08l1.25,10.26h3.19l6.38-8.89s7.3,6.16,11.51,10.37c-.34,1.25-1.48,1.82-3.08,1.82h-17.56l1.14,9.12c-1.82,2.62-6.73,3.76-12.77,3.53l-1.48-12.65Zm74.1,41.15s7.52,6.5,11.86,10.83c-.34,1.25-1.48,1.82-3.08,1.82h-47.77c-5.93,15.28-20.41,27.93-54.38,34.2l-.57-1.48c25.31-8.21,36.82-19.61,41.72-32.72h-40.24l-.8-3.31h14.25v-34.2l13.91,5.24h16.42v-14.14l17.44,1.71c-.23,1.48-1.14,2.62-3.99,3.08v9.35h15.96l5.81-7.18,13.79,9.46c-.8,1.14-2.17,1.82-5.13,2.28v21.89l4.79-6.84Zm-51.07,9.35c1.82-6.27,2.39-12.88,2.39-19.49v-6.16h-17.56v25.65h15.16Zm12.77-53.81h13.34l1.94-14.59,16.53,3.08c-.23,1.37-1.25,2.51-4.22,2.74l-1.25,8.78h5.7l6.5-8.89s7.18,6.16,11.4,10.37c-.34,1.25-1.48,1.82-3.08,1.82h-20.98l-1.25,9.35c-2.28,1.94-7.52,2.74-13.22,1.71l1.48-11.06h-11.97l-.91-3.31Zm3.08,34.43c-.11,6.61-.68,13.22-2.62,19.38h19.72v-25.65h-17.1v6.27Zm.57,27.59c56.09,6.84,45.03,36.02,31.46,28.5-4.45-6.84-16.3-18.58-31.92-27.13l.46-1.37Z"/>
      <path class="cls-4" d="m737.24,631.97v17.44h.11l5.59-8.21s6.5,5.81,10.15,9.69c-.34,1.25-1.48,1.82-2.96,1.82h-12.88v33.06c0,.68-3.53,2.85-9.23,2.85h-2.05v-35.91h-8.09l-.34-1.14c-.68.34-1.71.8-2.85,1.03v26.79c0,.8-5.24,2.85-8.66,2.85h-1.71v-6.73h-8.44v6.04c0,1.03-4.67,3.53-9.35,3.53h-1.6v-33.97c-.34.11-.8.11-1.25.11h-12.43c-.57,12.88-3.88,28.61-22.57,38.65l-1.03-1.14c10.49-11.17,12.43-24.97,12.77-37.51h-12.31l-.91-3.19h13.22v-16.19h-13.57l-.91-3.31h20.63c1.94-7.07,3.42-16.3,4.1-23.26l14.14,3.99c-.34,1.37-1.71,2.28-4.1,2.17-2.51,5.02-6.73,11.51-11.4,17.1h4.1l5.24-7.64s5.93,5.36,9.46,9.12c-.34,1.25-1.48,1.82-2.96,1.82h-13.79v16.19h.11l5.47-8.09s4.45,3.99,7.98,7.52v-3.88l11.51,4.56h6.95l4.79-5.13,8.78,6.73-.11-.34h9.12v-17.44h-13.11l-.91-3.31h20.86c2.51-7.18,4.56-16.53,5.47-23.6l14.59,3.99c-.34,1.37-1.6,2.28-3.99,2.28-2.96,5.13-7.87,11.74-13,17.33h3.31l5.7-7.75s6.27,5.36,9.8,9.23c-.23,1.25-1.37,1.82-2.96,1.82h-14.48Zm-90.51-31.01h16.3c-.91-.46-1.82-1.03-2.74-1.94.46-5.24-1.25-11.29-3.42-15.39l1.14-.46c16.64,5.36,15.28,15.28,10.03,17.78h4.22l5.7-7.52s6.38,5.24,10.15,8.89c-.34,1.25-1.48,1.82-2.96,1.82h-37.39l-1.03-3.19Zm6.04,4.33c20.86,11.97,9.8,28.16,2.17,19.72.57-6.27-1.37-14.02-3.53-19.15l1.37-.57Zm55.75-6.73s2.17,1.71,4.67,3.76l-.57-1.48h17.56c-1.37-.23-2.85-.91-4.33-2.17.11-5.36-2.28-11.51-5.02-15.39l1.14-.68c20.18,4.67,17.1,17.21,10.03,18.24h6.16l5.47-7.52s6.16,5.24,9.92,9.01c-.34,1.25-1.48,1.82-3.08,1.82h-35.34l2.17,1.94.68-.23c22.57,10.94,10.94,28.16,2.74,19.49.34-5.59-1.25-11.86-3.08-16.87-.57.34-1.25.46-2.05.46h-31.58l-.91-3.19h19.95l5.47-7.18Zm-3.31,14.82s6.04,4.56,9.8,7.98c-.23,1.25-1.37,1.82-2.96,1.82h-25.31l-.91-3.19h14.02l5.36-6.61Zm-18.92,20.29h13.91l5.47-6.73s6.04,4.67,9.8,8.09c-.23,1.25-1.37,1.82-2.85,1.82h-25.42l-.91-3.19Zm3.65-50.39c25.99,6.5,13.57,25.65,3.99,16.76.11-5.59-2.28-12.08-5.02-16.19l1.03-.57Zm14.36,88.92v-20.75h-8.44v20.75h8.44Z"/>
    </g>
    <g>
      <path class="cls-7" d="m246.88,755.39l.91,13.51h-.91c-1.21-4.04-2.94-6.95-5.19-8.73s-4.94-2.67-8.09-2.67c-2.64,0-5.02.67-7.15,2.01s-3.8,3.47-5.02,6.4-1.83,6.57-1.83,10.93c0,3.59.58,6.71,1.73,9.35s2.89,4.66,5.2,6.06,4.96,2.11,7.92,2.11c2.58,0,4.85-.55,6.83-1.66s4.14-3.29,6.5-6.58l.91.59c-1.99,3.54-4.32,6.12-6.97,7.76s-5.81,2.46-9.46,2.46c-6.58,0-11.68-2.44-15.29-7.32-2.7-3.63-4.04-7.91-4.04-12.83,0-3.96.89-7.61,2.67-10.93s4.22-5.89,7.34-7.72,6.52-2.74,10.21-2.74c2.87,0,5.7.7,8.5,2.11.82.43,1.41.64,1.76.64.53,0,.99-.19,1.38-.56.51-.53.87-1.26,1.08-2.2h1.03Z"/>
      <path class="cls-7" d="m269.89,794.94v1.08h-17.02v-1.08h1.41c1.64,0,2.83-.48,3.57-1.44.47-.62.7-2.13.7-4.51v-25.66c0-2.01-.13-3.34-.38-3.98-.2-.49-.6-.91-1.2-1.26-.86-.47-1.76-.7-2.7-.7h-1.41v-1.08h17.02v1.08h-1.44c-1.62,0-2.8.48-3.54,1.44-.49.62-.73,2.13-.73,4.51v25.66c0,2.01.13,3.34.38,3.98.19.49.6.91,1.23,1.26.84.47,1.73.7,2.67.7h1.44Z"/>
      <path class="cls-7" d="m308.08,755.39l.91,13.51h-.91c-1.21-4.04-2.94-6.95-5.19-8.73-2.25-1.78-4.94-2.67-8.09-2.67-2.64,0-5.02.67-7.15,2.01-2.13,1.34-3.8,3.47-5.02,6.4-1.22,2.93-1.83,6.57-1.83,10.93,0,3.59.58,6.71,1.73,9.35,1.15,2.64,2.89,4.66,5.2,6.06s4.96,2.11,7.92,2.11c2.58,0,4.85-.55,6.83-1.66,1.97-1.1,4.14-3.29,6.5-6.58l.91.59c-1.99,3.54-4.32,6.12-6.97,7.76-2.66,1.64-5.81,2.46-9.46,2.46-6.58,0-11.68-2.44-15.29-7.32-2.7-3.63-4.04-7.91-4.04-12.83,0-3.96.89-7.61,2.67-10.93,1.78-3.32,4.22-5.89,7.34-7.72,3.11-1.83,6.52-2.74,10.21-2.74,2.87,0,5.7.7,8.5,2.11.82.43,1.41.64,1.76.64.53,0,.99-.19,1.38-.56.51-.53.87-1.26,1.08-2.2h1.03Z"/>
      <path class="cls-7" d="m325.11,758.47v15.7h8.73c2.27,0,3.78-.34,4.54-1.03,1.02-.9,1.58-2.48,1.7-4.75h1.08v13.83h-1.08c-.27-1.93-.55-3.17-.82-3.72-.35-.68-.93-1.22-1.73-1.61s-2.03-.59-3.69-.59h-8.73v13.1c0,1.76.08,2.83.23,3.21s.43.68.82.91,1.13.34,2.23.34h6.74c2.25,0,3.88-.16,4.89-.47s1.99-.93,2.93-1.85c1.21-1.21,2.45-3.04,3.72-5.48h1.17l-3.43,9.96h-30.62v-1.08h1.41c.94,0,1.83-.22,2.67-.67.62-.31,1.05-.78,1.27-1.41s.34-1.9.34-3.84v-25.81c0-2.52-.25-4.07-.76-4.66-.7-.78-1.88-1.17-3.52-1.17h-1.41v-1.08h30.62l.44,8.7h-1.14c-.41-2.09-.86-3.53-1.36-4.31s-1.24-1.38-2.21-1.79c-.78-.29-2.16-.44-4.13-.44h-10.9Z"/>
      <path class="cls-7" d="m390.37,796.02h-10.61l-13.45-18.57c-1,.04-1.81.06-2.43.06-.25,0-.53,0-.82-.02s-.6-.02-.91-.04v11.54c0,2.5.27,4.05.82,4.66.74.86,1.85,1.29,3.34,1.29h1.55v1.08h-17.02v-1.08h1.49c1.68,0,2.88-.55,3.6-1.64.41-.61.62-2.04.62-4.31v-25.66c0-2.5-.27-4.05-.82-4.66-.76-.86-1.9-1.29-3.4-1.29h-1.49v-1.08h14.47c4.22,0,7.33.31,9.33.92,2,.62,3.7,1.75,5.1,3.4,1.4,1.65,2.09,3.62,2.09,5.9,0,2.44-.8,4.56-2.39,6.36-1.59,1.8-4.06,3.07-7.4,3.81l8.2,11.4c1.88,2.62,3.49,4.36,4.83,5.21s3.11,1.41,5.27,1.64v1.08Zm-28.21-20.42c.37,0,.69,0,.97.01.27,0,.5.02.67.02,3.79,0,6.65-.82,8.57-2.46,1.92-1.64,2.89-3.73,2.89-6.27s-.78-4.5-2.33-6.05-3.61-2.33-6.17-2.33c-1.13,0-2.67.19-4.6.56v16.52Z"/>
      <path class="cls-7" d="m412.39,755.39c5.16,0,9.62,1.96,13.4,5.87s5.67,8.8,5.67,14.66-1.9,11.04-5.71,15.03-8.42,5.98-13.83,5.98-10.06-1.94-13.78-5.83-5.58-8.92-5.58-15.09,2.15-11.46,6.45-15.44c3.73-3.46,8.19-5.19,13.39-5.19Zm-.56,2.14c-3.55,0-6.41,1.32-8.55,3.96-2.68,3.28-4.01,8.09-4.01,14.41s1.39,11.47,4.16,14.97c2.13,2.66,4.94,3.98,8.44,3.98,3.73,0,6.81-1.46,9.24-4.37s3.65-7.5,3.65-13.77c0-6.8-1.34-11.87-4.01-15.21-2.15-2.66-5.12-3.98-8.91-3.98Z"/>
      <path class="cls-7" d="m451,796.02v-1.08h1.49c1.68,0,2.87-.54,3.57-1.61.43-.64.64-2.09.64-4.34v-25.66c0-2.48-.27-4.03-.82-4.66-.76-.86-1.9-1.29-3.4-1.29h-1.49v-1.08h16.17c5.94,0,10.45.67,13.55,2.02,3.1,1.35,5.59,3.59,7.47,6.74,1.88,3.14,2.83,6.78,2.83,10.9,0,5.53-1.68,10.15-5.04,13.86-3.77,4.14-9.51,6.21-17.23,6.21h-17.75Zm11.34-2.87c2.48.55,4.56.82,6.24.82,4.53,0,8.29-1.59,11.28-4.78s4.48-7.5,4.48-12.95-1.49-9.81-4.48-12.98-6.83-4.75-11.51-4.75c-1.76,0-3.76.28-6.01.85v33.78Z"/>
      <path class="cls-7" d="m506.44,758.47v15.7h8.73c2.27,0,3.78-.34,4.54-1.03,1.02-.9,1.58-2.48,1.7-4.75h1.08v13.83h-1.08c-.27-1.93-.55-3.17-.82-3.72-.35-.68-.93-1.22-1.73-1.61s-2.03-.59-3.69-.59h-8.73v13.1c0,1.76.08,2.83.23,3.21s.43.68.82.91,1.13.34,2.23.34h6.74c2.25,0,3.88-.16,4.89-.47s1.99-.93,2.93-1.85c1.21-1.21,2.45-3.04,3.72-5.48h1.17l-3.43,9.96h-30.62v-1.08h1.41c.94,0,1.83-.22,2.67-.67.62-.31,1.05-.78,1.27-1.41s.34-1.9.34-3.84v-25.81c0-2.52-.25-4.07-.76-4.66-.7-.78-1.88-1.17-3.52-1.17h-1.41v-1.08h30.62l.44,8.7h-1.14c-.41-2.09-.86-3.53-1.36-4.31s-1.24-1.38-2.21-1.79c-.78-.29-2.16-.44-4.13-.44h-10.9Z"/>
      <path class="cls-7" d="m558.87,775.75c2.75.59,4.81,1.52,6.18,2.81,1.89,1.8,2.84,3.99,2.84,6.59,0,1.97-.63,3.86-1.88,5.67-1.25,1.81-2.96,3.12-5.14,3.96-2.18.83-5.5,1.25-9.98,1.25h-18.75v-1.08h1.49c1.66,0,2.85-.53,3.57-1.58.45-.68.67-2.14.67-4.37v-25.66c0-2.46-.28-4.01-.85-4.66-.76-.86-1.9-1.29-3.4-1.29h-1.49v-1.08h17.17c3.2,0,5.77.23,7.71.7,2.93.7,5.17,1.95,6.71,3.73,1.54,1.79,2.31,3.84,2.31,6.17,0,1.99-.61,3.77-1.82,5.35-1.21,1.57-3,2.74-5.36,3.5Zm-15.35-1.58c.72.14,1.55.24,2.48.31.93.07,1.95.1,3.06.1,2.85,0,5-.31,6.43-.92s2.53-1.56,3.3-2.83,1.14-2.66,1.14-4.16c0-2.32-.95-4.31-2.84-5.95-1.9-1.64-4.66-2.46-8.29-2.46-1.95,0-3.71.21-5.27.64v15.26Zm0,18.98c2.27.53,4.5.79,6.71.79,3.53,0,6.23-.8,8.09-2.39,1.85-1.59,2.78-3.56,2.78-5.9,0-1.54-.42-3.03-1.26-4.45-.84-1.43-2.21-2.55-4.1-3.37-1.9-.82-4.24-1.23-7.03-1.23-1.21,0-2.25.02-3.11.06-.86.04-1.55.11-2.08.21v16.29Z"/>
      <path class="cls-7" d="m599.22,782.72h-15.38l-2.7,6.27c-.66,1.54-1,2.7-1,3.46,0,.61.29,1.14.86,1.6s1.82.76,3.74.89v1.08h-12.51v-1.08c1.66-.29,2.73-.67,3.22-1.14,1-.94,2.1-2.84,3.31-5.71l13.97-32.7h1.03l13.83,33.05c1.11,2.66,2.12,4.38,3.03,5.17s2.17,1.24,3.79,1.33v1.08h-15.67v-1.08c1.58-.08,2.65-.34,3.21-.79s.83-1,.83-1.64c0-.86-.39-2.22-1.17-4.07l-2.4-5.71Zm-.82-2.17l-6.74-16.05-6.91,16.05h13.65Z"/>
      <path class="cls-7" d="m643.77,756.3l.44,9.32h-1.11c-.21-1.64-.51-2.81-.88-3.52-.61-1.13-1.41-1.97-2.42-2.51s-2.33-.8-3.97-.8h-5.6v30.35c0,2.44.26,3.96.79,4.57.74.82,1.88,1.23,3.43,1.23h1.38v1.08h-16.85v-1.08h1.41c1.68,0,2.87-.51,3.57-1.52.43-.62.64-2.05.64-4.28v-30.35h-4.78c-1.86,0-3.17.14-3.96.41-1.02.37-1.88,1.08-2.61,2.14s-1.15,2.48-1.29,4.28h-1.11l.47-9.32h32.43Z"/>
      <path class="cls-7" d="m658.84,758.47v15.7h8.73c2.27,0,3.78-.34,4.54-1.03,1.02-.9,1.58-2.48,1.7-4.75h1.08v13.83h-1.08c-.27-1.93-.55-3.17-.82-3.72-.35-.68-.93-1.22-1.73-1.61-.8-.39-2.03-.59-3.69-.59h-8.73v13.1c0,1.76.08,2.83.23,3.21.16.38.43.68.82.91.39.22,1.13.34,2.23.34h6.74c2.25,0,3.88-.16,4.89-.47,1.02-.31,1.99-.93,2.93-1.85,1.21-1.21,2.45-3.04,3.72-5.48h1.17l-3.43,9.96h-30.62v-1.08h1.41c.94,0,1.83-.22,2.67-.67.62-.31,1.05-.78,1.27-1.41.22-.62.34-1.9.34-3.84v-25.81c0-2.52-.25-4.07-.76-4.66-.7-.78-1.88-1.17-3.52-1.17h-1.41v-1.08h30.62l.44,8.7h-1.14c-.41-2.09-.86-3.53-1.36-4.31s-1.24-1.38-2.21-1.79c-.78-.29-2.16-.44-4.13-.44h-10.9Z"/>
    </g>
  </g>
  <g>
    <path class="cls-1" d="m578.25,114.93h-46.37l-40.06-35.05c-5.66-4.96-14.53-.93-14.53,6.59v28.46h-100.96c-8.31,0-15.04,6.73-15.04,15.04v121.43h216.95c8.31,0,15.04-6.73,15.04-15.04v-106.39c0-8.31-6.73-15.04-15.04-15.04Z"/>
    <path class="cls-2" d="m381.77,230.93v-116h-5.43c-8.31,0-15.04,6.73-15.04,15.04v106.39c0,8.31,6.73,15.04,15.04,15.04h201.91c8.31,0,15.04-6.73,15.04-15.04v-5.43h-211.52Z"/>
    <path class="cls-3" d="m457.18,346.92h-48.12l-44.21,38.69c-4.04,3.54-10.37.67-10.37-4.71v-33.98h-102.7c-7.34,0-13.29-5.95-13.29-13.29v-109.88c0-7.34,5.95-13.29,13.29-13.29h205.41c7.34,0,13.29,5.95,13.29,13.29v109.88c0,7.34-5.95,13.29-13.29,13.29Z"/>
    <path class="cls-6" d="m374.94,376.77v-38.41c0-6.58-5.33-11.91-11.91-11.91h-92.17c-6.58,0-11.91-5.33-11.91-11.91v-104.08h-7.18c-7.34,0-13.29,5.95-13.29,13.29v109.88c0,7.34,5.95,13.29,13.29,13.29h102.7v33.98c0,5.37,6.33,8.25,10.37,4.71l10.1-8.83Z"/>
    <path class="cls-8" d="m443.79,415.15h47.15l42.57,37.25c4.69,4.1,12.02.77,12.02-5.45v-31.79h101.73c7.88,0,14.26-6.39,14.26-14.26v-107.94c0-7.88-6.39-14.26-14.26-14.26h-203.47c-7.88,0-14.26,6.39-14.26,14.26v107.94c0,7.88,6.39,14.26,14.26,14.26Z"/>
    <path class="cls-5" d="m503.94,394.68h-35.89c-9.97,0-18.05-8.08-18.05-18.05h0v-97.95h-6.21c-7.88,0-14.26,6.39-14.26,14.26v107.94c0,7.88,6.39,14.26,14.26,14.26h47.15l42.57,37.25c4.69,4.1,12.02.77,12.02-5.45v-18.15l-28.83-28.83c-3.38-3.38-7.97-5.29-12.76-5.29Z"/>
  </g>
</svg>