<?xml version="1.0" encoding="UTF-8"?>
<svg id="_圖層_1" data-name="圖層 1" xmlns="http://www.w3.org/2000/svg" viewBox="0 0 900 900">
  <defs>
    <style>
      .cls-1 {
        fill: #fab400;
      }

      .cls-1, .cls-2, .cls-3, .cls-4, .cls-5, .cls-6, .cls-7, .cls-8, .cls-9, .cls-10, .cls-11 {
        stroke-width: 0px;
      }

      .cls-2 {
        fill: #455c84;
      }

      .cls-3 {
        fill: #0a5078;
      }

      .cls-4 {
        fill: #c80a50;
      }

      .cls-5 {
        fill: #d2aa82;
      }

      .cls-6 {
        fill: #dc9600;
      }

      .cls-7 {
        fill: #a00028;
      }

      .cls-8 {
        fill: #3078c8;
      }

      .cls-9 {
        fill: #f0c8a0;
      }

      .cls-10 {
        fill: #00325a;
      }

      .cls-11 {
        fill: #00143c;
      }
    </style>
  </defs>
  <g id="Icons">
    <g>
      <path class="cls-4" d="m676.31,404.45c3.52,5.28-.24,12.4-6.64,12.4h-88v-88c0-4.44,3.56-8,8-8h80c6.4,0,10.16,7.12,6.64,12.4l-23.68,35.6,23.68,35.6Z"/>
      <path class="cls-4" d="m325.67,328.85v88h-88c-6.4,0-10.16-7.12-6.64-12.4l23.68-35.6-23.68-35.6c-3.52-5.28.24-12.4,6.64-12.4h80c4.44,0,8,3.56,8,8Z"/>
      <path class="cls-7" d="m325.67,328.85v88h-40v-64l32-32c2.24,0,4.16.88,5.68,2.32,1.44,1.52,2.32,3.44,2.32,5.68Z"/>
      <path class="cls-7" d="m621.67,352.85v64h-40v-88c0-2.24.88-4.16,2.32-5.68,1.52-1.44,3.44-2.32,5.68-2.32l32,32Z"/>
      <path class="cls-3" d="m564.55,384.85h-221.76c2-14.4,6.88-27.92,13.84-40,19.36-33.44,55.6-56,97.04-56s77.68,22.56,97.04,56c6.96,12.08,11.84,25.6,13.84,40Z"/>
      <path class="cls-10" d="m564.55,384.85h-221.76c2-14.4,6.88-27.92,13.84-40h194.08c6.96,12.08,11.84,25.6,13.84,40Z"/>
      <path class="cls-10" d="m497.51,297.81c-12.16,9.44-27.44,15.12-44.08,15.12s-31.76-5.6-43.92-15.04c13.52-5.76,28.48-9.04,44.16-9.04s30.4,3.2,43.84,8.96h0Z"/>
      <path class="cls-5" d="m405.67,192.96v48h-24c-13.28,0-24-10.72-24-24s10.78-24,24-24h24Z"/>
      <path class="cls-5" d="m549.67,216.96c0,13.35-10.98,24-24,24h-24v-48h24c13.42,0,24,10.82,24,24Z"/>
      <path class="cls-9" d="m453.42,304.96c-39.77,0-72-32.23-72-72v-56h144v56c0,39.76-32.23,72-72,72h0Z"/>
      <path class="cls-5" d="m453.42,240.96c-4.42,0-8-3.58-8-8v-16c0-4.42,3.58-8,8-8s8,3.58,8,8v16c0,4.42-3.58,8-8,8h0Z"/>
      <circle class="cls-11" cx="421.42" cy="216.96" r="8"/>
      <circle class="cls-11" cx="485.42" cy="216.96" r="8"/>
      <path class="cls-3" d="m381.5,96.96h144v96h-144v-96Z"/>
      <path class="cls-10" d="m525.5,96.96v31.36l-68.45,23.43c-1.68.58-3.5.58-5.18,0l-70.37-24.07v-30.72h144Z"/>
      <g>
        <path class="cls-1" d="m545.7,96.96h8v96.48h-8v-96.48Z"/>
        <path class="cls-6" d="m553.7,96.96v19.04l-8,2.72v-21.76h8Z"/>
        <path class="cls-10" d="m557.67,224.85h-16c-4.42,0-8-3.58-8-8v-24.94c0-8.84,7.16-16,16-16s16,7.16,16,16v24.94c0,4.42-3.58,8-8,8Z"/>
      </g>
      <path class="cls-11" d="m476.22,240.96c-3.32,0-6.57,1.9-7.62,5.04-2.13,6.35-8.14,10.96-15.18,10.96s-13.06-4.61-15.18-10.96c-1.06-3.15-4.3-5.04-7.62-5.04-5.26,0-9.23,5.12-7.58,10.1,4.22,12.73,16.22,21.9,30.38,21.9s26.14-9.17,30.38-21.9c1.66-4.98-2.32-10.1-7.58-10.1Z"/>
      <path class="cls-3" d="m456.22,65.05c-1.18-.26-2.39-.26-3.56,0l-110.77,25.3c-8.17,1.63-8.71,13.11-.73,15.5l110.69,37.9c1.68.58,3.5.58,5.18,0l110.69-37.9c7.98-2.39,7.44-13.87-.73-15.5l-110.78-25.3Z"/>
      <path class="cls-4" d="m605.67,448.85h-304c-4.42,0-8-3.58-8-8v-88h320v88c0,4.42-3.58,8-8,8Z"/>
      <path class="cls-1" d="m325.67,328.85v24h-32l29.68-29.68c1.44,1.52,2.32,3.44,2.32,5.68Z"/>
      <path class="cls-1" d="m613.67,352.85h-32v-24c0-2.24.88-4.16,2.32-5.68l29.68,29.68Z"/>
      <path class="cls-1" d="m363.58,372.7l4.78,10.14c.96,2.04,2.82,3.45,4.97,3.78l10.69,1.62c5.41.82,7.57,7.78,3.66,11.78l-7.74,7.9c-1.55,1.58-2.26,3.87-1.9,6.11l1.82,11.14c.93,5.64-4.73,9.94-9.57,7.28l-9.56-5.26c-1.92-1.06-4.22-1.06-6.14,0l-9.56,5.26c-4.84,2.66-10.5-1.64-9.57-7.28l1.82-11.14c.37-2.24-.34-4.53-1.9-6.11l-7.74-7.9c-3.91-3.99-1.75-10.96,3.66-11.78l10.69-1.62c2.15-.33,4.01-1.74,4.97-3.78l4.78-10.14c2.42-5.13,9.42-5.13,11.83,0h0Z"/>
      <path class="cls-1" d="m459.58,372.7l4.78,10.14c.96,2.04,2.82,3.45,4.97,3.78l10.69,1.62c5.41.82,7.57,7.78,3.66,11.78l-7.74,7.9c-1.55,1.58-2.26,3.87-1.9,6.11l1.82,11.14c.93,5.64-4.73,9.94-9.57,7.28l-9.56-5.26c-1.92-1.06-4.22-1.06-6.14,0l-9.56,5.26c-4.84,2.66-10.5-1.64-9.57-7.28l1.82-11.14c.37-2.24-.34-4.53-1.9-6.11l-7.74-7.9c-3.91-3.99-1.75-10.96,3.66-11.78l10.69-1.62c2.15-.33,4.01-1.74,4.97-3.78l4.78-10.14c2.42-5.13,9.42-5.13,11.83,0h0Z"/>
      <path class="cls-1" d="m555.58,372.7l4.78,10.14c.96,2.04,2.82,3.45,4.97,3.78l10.69,1.62c5.41.82,7.57,7.78,3.66,11.78l-7.74,7.9c-1.55,1.58-2.26,3.87-1.9,6.11l1.82,11.14c.93,5.64-4.73,9.94-9.57,7.28l-9.56-5.26c-1.92-1.06-4.22-1.06-6.14,0l-9.56,5.26c-4.84,2.66-10.5-1.64-9.57-7.28l1.82-11.14c.37-2.24-.34-4.53-1.9-6.11l-7.74-7.9c-3.91-3.99-1.75-10.96,3.66-11.78l10.69-1.62c2.15-.33,4.01-1.74,4.97-3.78l4.78-10.14c2.42-5.13,9.42-5.13,11.83,0h0Z"/>
      <path class="cls-1" d="m269.67,208.85h32c4.42,0,8,3.58,8,8s-3.58,8-8,8h-32c-4.42,0-8-3.58-8-8s3.58-8,8-8Z"/>
      <g>
        <path class="cls-1" d="m300.7,156.56l22.62,22.62c3.13,3.13,3.13,8.19,0,11.31-3.13,3.13-8.19,3.13-11.31,0l-22.62-22.62c-3.13-3.13-3.13-8.19,0-11.31,3.12-3.12,8.18-3.12,11.31,0h0Z"/>
        <path class="cls-1" d="m300.7,277.14l22.62-22.62c3.13-3.13,3.13-8.19,0-11.31-3.13-3.13-8.19-3.13-11.31,0l-22.62,22.62c-3.13,3.13-3.13,8.19,0,11.31,3.12,3.12,8.18,3.12,11.31,0h0Z"/>
      </g>
      <path class="cls-1" d="m637.67,224.85h-32c-4.42,0-8-3.58-8-8s3.58-8,8-8h32c4.42,0,8,3.58,8,8s-3.58,8-8,8Z"/>
      <g>
        <path class="cls-1" d="m606.64,277.14l-22.62-22.62c-3.13-3.13-3.13-8.19,0-11.31,3.13-3.13,8.19-3.13,11.31,0l22.62,22.62c3.13,3.13,3.13,8.19,0,11.31-3.12,3.12-8.18,3.12-11.31,0h0Z"/>
        <path class="cls-1" d="m606.64,156.56l-22.62,22.62c-3.13,3.13-3.13,8.19,0,11.31,3.13,3.13,8.19,3.13,11.31,0l22.62-22.62c3.13-3.13,3.13-8.19,0-11.31-3.12-3.12-8.18-3.12-11.31,0h0Z"/>
      </g>
    </g>
  </g>
  <g>
    <path class="cls-2" d="m311.4,621.71s8.32,6.73,13.34,11.29c-.34,1.25-1.48,1.82-3.19,1.82h-23.83v50.16c0,1.48-5.93,4.79-11.06,4.79h-2.51v-54.95h-24.85c-1.03,20.06-7.07,41.84-37.51,54.95l-.8-1.14c19.49-15.5,24.28-34.31,25.08-53.81h-27.59l-1.03-3.19h28.73v-29.98c-7.98,1.48-16.3,2.62-24.28,3.31l-.46-1.6c16.42-4.67,36.14-13.45,45.94-20.06l13.45,11.4c-1.14,1.14-3.53,1.25-6.95.11-4.1,1.37-9.01,2.74-14.36,3.99v28.5c0,1.48,0,2.85-.11,4.33h24.74v-47.77l17.78,1.71c-.34,1.6-1.14,2.74-4.22,3.19v42.86h6.16l7.52-9.92Z"/>
    <path class="cls-2" d="m358.6,629.34c1.03,6.61-.91,11.86-6.04,14.14-8.66,3.65-14.48-7.3-4.9-12.31,3.19-1.6,6.27-5.93,6.16-12.43l1.37-.11c1.25,2.62,2.17,5.13,2.85,7.52h1.6l-1.14-38.42,10.37,2.05c3.53-2.51,7.07-5.36,9.01-7.18l9.12,6.95.34-.34c3.42.11,6.38.57,8.78,1.14,1.71-2.28,3.08-4.67,4.1-6.84l10.49,5.36c-.46,1.03-1.6,1.25-3.65.8-1.03,1.37-2.39,2.62-3.88,3.99,5.7,4.56,3.08,10.6-2.28,8.78-.91-1.25-2.28-2.74-3.76-4.1-3.76,2.51-7.98,4.79-11.97,6.38l-.23-.34c-.34.91-1.37,1.25-2.62,1.25h-11.63l.34,8.78h2.62l4.22-5.59s4.79,3.99,7.75,7.07c-.34,1.25-1.37,1.82-2.85,1.82h-11.74l.34,8.44h49.02l.34-8.44h-9.35l-.91-3.31h10.49l.34-8.78h-9.46l-1.03-3.19h10.72l.46-8.89h-11.29l-.91-3.31h11.17l5.02-5.93,11.97,9.12c-.91.91-1.82,1.37-3.99,1.6l-1.48,29.98,5.81-5.7,11.86,11.4c-.91.91-2.05,1.14-4.33,1.25-4.33,2.62-11.63,6.38-16.42,8.55l-1.03-.8c.91-2.62,2.28-6.95,3.31-10.37h-73.07Zm75.7,19.84s7.98,6.61,12.65,11.06c-.34,1.25-1.48,1.82-3.19,1.82h-40.58v11.86c0,9.35-2.05,14.48-17.44,15.85-.34-4.22-1.03-7.18-2.85-9.35-1.82-2.05-4.45-3.53-10.49-4.45v-1.6s12.88.8,15.39.8c1.71,0,2.28-.46,2.28-1.94v-11.17h-43.66l-.91-3.31h44.57v-9.12l10.15.91c2.85-2.51,5.81-5.36,8.21-7.87h-40.7l-1.03-3.31h43.55l7.18-6.84,12.31,10.83c-1.03.91-2.17,1.25-4.67,1.37-5.02,1.94-11.63,4.45-18.13,6.38-.23,1.71-1.37,2.51-3.76,2.85v4.79h23.94l7.18-9.58Zm-56.77-51.98s3.88,2.96,6.73,5.7c2.96-2.28,5.93-5.24,8.55-8.32-1.82-1.37-3.76-2.62-5.47-3.65-.68.23-1.71.11-2.85-.23-3.19,1.03-8.55,2.17-14.14,2.96l.23,8.78h2.85l4.1-5.24Zm34.88,11.4c-.57,1.14-1.82,1.37-3.65.91-1.14,1.6-2.74,3.08-4.45,4.67,5.81,5.24,2.74,11.86-3.08,9.46-.8-1.48-1.94-3.19-3.42-4.79-4.33,2.74-9.23,5.02-14.02,6.5l-.91-1.71c3.76-2.39,7.52-5.47,10.72-8.89-2.28-1.94-4.79-3.76-6.95-5.13l1.14-1.14c3.88.34,7.07.91,9.69,1.82,1.82-2.17,3.19-4.56,4.33-6.73l10.6,5.02Z"/>
    <path class="cls-2" d="m572.92,644.39c-.68,1.03-1.71,1.71-4.22,1.14-6.27,3.53-15.62,7.87-24.74,10.94,8.78,7.64,19.72,11.86,31.81,14.02l-.23,1.6c-6.16,3.19-10.03,8.09-10.72,14.48-20.29-8.55-32.6-25.65-38.53-53.81-4.22,5.59-9.8,10.72-16.3,15.16v25.42c7.07-1.94,15.62-4.22,24.17-6.61l.46,1.25c-6.61,4.45-18.58,12.43-32.95,20.75-.8,1.03-1.71,1.82-2.51,2.39l-8.78-13.45c5.24-2.85,6.04-4.1,6.04-6.16v-15.73c-8.66,4.33-18.13,7.87-28.39,10.6l-.68-1.48c16.87-7.98,31.35-20.52,39.9-32.6h-36.48l-.91-3.31h44.92v-13.34h-32.72l-.91-3.19h33.63v-12.65h-38.19l-1.03-3.31h39.22v-14.25l18.01,1.48c-.23,1.6-1.25,2.74-4.22,3.19v9.58h21.89l6.95-9.35s7.87,6.38,12.54,10.83c-.34,1.25-1.48,1.82-3.08,1.82h-38.3v12.65h18.01l6.73-9.23s7.75,6.27,12.31,10.6c-.34,1.25-1.6,1.82-3.19,1.82h-33.86v13.34h25.76l7.18-9.58s7.98,6.5,12.77,11.06c-.34,1.25-1.6,1.82-3.19,1.82h-42.64c3.08,9.01,7.41,16.07,12.88,21.66,6.27-6.27,13-14.25,16.3-19.61l15.28,10.03Z"/>
    <path class="cls-2" d="m636.99,652.14c-7.52,5.24-19.27,13-35.91,22.46-.34,1.37-1.6,2.74-2.96,3.08l-5.7-15.05c3.19-.57,8.66-1.94,15.39-3.76v-29.98h-12.08l-.91-3.31h13v-28.96h-12.77l-.91-3.19h25.42l6.84-9.46s7.75,6.5,12.2,10.83c-.23,1.25-1.48,1.82-3.08,1.82h-14.71v28.96h1.14l5.59-8.89s6.16,6.27,9.69,10.37c-.34,1.25-1.48,1.82-3.08,1.82h-13.34v26.45c5.13-1.48,10.49-2.96,15.85-4.56l.34,1.37Zm61.56,22.12c2.96,1.6,3.53,3.08,3.53,5.59,0,5.02-4.22,7.75-17.1,7.75h-6.95c-9.69,0-11.06-2.62-11.06-10.94v-28.73h-5.13c-2.51,23.48-15.39,36.14-46.06,41.84l-.57-1.48c21.43-7.87,29.75-18.7,32.26-35.45-1.94.68-4.22,1.25-6.61,1.25h-1.94v-68.74l13.57,5.59h25.88l6.38-7.18,13.22,10.26c-.8,1.03-2.51,2.17-5.02,2.62v51.98c-.23.8-6.61,3.42-11.17,3.42h-1.6v21.32c0,1.37.23,1.71,2.17,1.71h7.87c.91,0,1.37-.23,1.94-1.37,1.03-1.82,2.74-7.64,4.79-14.14h1.25l.34,14.71Zm-46.63-80.03v14.14h27.7v-14.14h-27.7Zm27.7,32.26v-14.93h-27.7v14.93h27.7Zm-27.7,3.19v14.93h27.7v-14.93h-27.7Z"/>
  </g>
  <g>
    <path class="cls-8" d="m353.5,755.39l.91,13.51h-.91c-1.21-4.04-2.94-6.95-5.19-8.73-2.25-1.78-4.94-2.67-8.09-2.67-2.64,0-5.02.67-7.15,2.01-2.13,1.34-3.8,3.47-5.02,6.4-1.22,2.93-1.83,6.57-1.83,10.93,0,3.59.58,6.71,1.73,9.35,1.15,2.64,2.89,4.66,5.2,6.06s4.96,2.11,7.92,2.11c2.58,0,4.85-.55,6.83-1.66,1.97-1.1,4.14-3.29,6.5-6.58l.91.59c-1.99,3.54-4.32,6.12-6.97,7.76-2.66,1.64-5.81,2.46-9.46,2.46-6.58,0-11.68-2.44-15.29-7.32-2.7-3.63-4.04-7.91-4.04-12.83,0-3.96.89-7.61,2.67-10.93,1.78-3.32,4.22-5.89,7.34-7.72,3.11-1.83,6.52-2.74,10.21-2.74,2.87,0,5.7.7,8.5,2.11.82.43,1.41.64,1.76.64.53,0,.99-.19,1.38-.56.51-.53.87-1.26,1.08-2.2h1.03Z"/>
    <path class="cls-8" d="m379.94,755.39c5.16,0,9.62,1.96,13.4,5.87s5.67,8.8,5.67,14.66-1.9,11.04-5.71,15.03-8.42,5.98-13.83,5.98-10.06-1.94-13.78-5.83-5.58-8.92-5.58-15.09,2.15-11.46,6.45-15.44c3.73-3.46,8.19-5.19,13.39-5.19Zm-.56,2.14c-3.55,0-6.41,1.32-8.55,3.96-2.68,3.28-4.01,8.09-4.01,14.41s1.39,11.47,4.16,14.97c2.13,2.66,4.94,3.98,8.44,3.98,3.73,0,6.81-1.46,9.24-4.37s3.65-7.5,3.65-13.77c0-6.8-1.34-11.87-4.01-15.21-2.15-2.66-5.12-3.98-8.91-3.98Z"/>
    <path class="cls-8" d="m436.32,785.04l.97.21-3.4,10.78h-30.76v-1.08h1.49c1.68,0,2.88-.55,3.6-1.64.41-.62.62-2.07.62-4.34v-25.63c0-2.48-.27-4.03-.82-4.66-.76-.86-1.89-1.29-3.4-1.29h-1.49v-1.08h17.99v1.08c-2.11-.02-3.59.18-4.44.59s-1.43.93-1.74,1.55c-.31.62-.47,2.12-.47,4.48v24.96c0,1.62.16,2.73.47,3.34.23.41.6.71,1.08.91.49.2,2.01.29,4.57.29h2.9c3.05,0,5.19-.22,6.42-.67s2.35-1.25,3.37-2.39c1.02-1.14,2.03-2.94,3.05-5.4Z"/>
    <path class="cls-8" d="m473.57,785.04l.97.21-3.4,10.78h-30.76v-1.08h1.49c1.68,0,2.88-.55,3.6-1.64.41-.62.62-2.07.62-4.34v-25.63c0-2.48-.27-4.03-.82-4.66-.76-.86-1.89-1.29-3.4-1.29h-1.49v-1.08h17.99v1.08c-2.11-.02-3.59.18-4.44.59s-1.43.93-1.74,1.55c-.31.62-.47,2.12-.47,4.48v24.96c0,1.62.16,2.73.47,3.34.23.41.6.71,1.08.91.49.2,2.01.29,4.57.29h2.9c3.05,0,5.19-.22,6.42-.67s2.35-1.25,3.37-2.39c1.02-1.14,2.03-2.94,3.05-5.4Z"/>
    <path class="cls-8" d="m488.96,758.47v15.7h8.73c2.27,0,3.78-.34,4.54-1.03,1.02-.9,1.58-2.48,1.7-4.75h1.08v13.83h-1.08c-.27-1.93-.55-3.17-.82-3.72-.35-.68-.93-1.22-1.73-1.61-.8-.39-2.03-.59-3.69-.59h-8.73v13.1c0,1.76.08,2.83.23,3.21.16.38.43.68.82.91.39.22,1.13.34,2.23.34h6.74c2.25,0,3.88-.16,4.89-.47,1.02-.31,1.99-.93,2.93-1.85,1.21-1.21,2.45-3.04,3.72-5.48h1.17l-3.43,9.96h-30.62v-1.08h1.41c.94,0,1.83-.22,2.67-.67.62-.31,1.05-.78,1.27-1.41.22-.62.34-1.9.34-3.84v-25.81c0-2.52-.25-4.07-.76-4.66-.7-.78-1.88-1.17-3.52-1.17h-1.41v-1.08h30.62l.44,8.7h-1.14c-.41-2.09-.86-3.53-1.36-4.31s-1.24-1.38-2.21-1.79c-.78-.29-2.16-.44-4.13-.44h-10.9Z"/>
    <path class="cls-8" d="m550.5,755.39l1.03,12.54h-1.03c-1.04-3.12-2.37-5.48-4.01-7.06-2.36-2.29-5.4-3.43-9.11-3.43-5.06,0-8.91,2-11.54,6.01-2.21,3.38-3.31,7.4-3.31,12.07,0,3.79.73,7.25,2.2,10.37s3.38,5.41,5.76,6.87,4.81,2.18,7.31,2.18c1.46,0,2.88-.19,4.25-.56,1.37-.37,2.69-.92,3.96-1.64v-11.48c0-1.99-.15-3.3-.45-3.91-.3-.62-.77-1.08-1.41-1.41-.64-.32-1.75-.48-3.35-.48v-1.11h15.38v1.11h-.73c-1.52,0-2.57.51-3.13,1.52-.39.72-.59,2.15-.59,4.28v12.16c-2.25,1.21-4.46,2.1-6.65,2.67-2.19.57-4.62.85-7.29.85-7.68,0-13.51-2.46-17.49-7.38-2.99-3.69-4.48-7.95-4.48-12.77,0-3.5.84-6.85,2.52-10.05,1.99-3.81,4.73-6.74,8.2-8.79,2.91-1.7,6.35-2.55,10.31-2.55,1.45,0,2.76.12,3.94.35,1.18.23,2.86.75,5.02,1.55,1.09.41,1.83.62,2.2.62s.69-.17.95-.51.42-1.01.48-2.01h1.08Z"/>
    <path class="cls-8" d="m570.14,758.47v15.7h8.73c2.27,0,3.78-.34,4.54-1.03,1.02-.9,1.58-2.48,1.7-4.75h1.08v13.83h-1.08c-.27-1.93-.55-3.17-.82-3.72-.35-.68-.93-1.22-1.73-1.61-.8-.39-2.03-.59-3.69-.59h-8.73v13.1c0,1.76.08,2.83.23,3.21.16.38.43.68.82.91.39.22,1.13.34,2.23.34h6.74c2.25,0,3.88-.16,4.89-.47,1.02-.31,1.99-.93,2.93-1.85,1.21-1.21,2.45-3.04,3.72-5.48h1.17l-3.43,9.96h-30.62v-1.08h1.41c.94,0,1.83-.22,2.67-.67.62-.31,1.05-.78,1.27-1.41.22-.62.34-1.9.34-3.84v-25.81c0-2.52-.25-4.07-.76-4.66-.7-.78-1.88-1.17-3.52-1.17h-1.41v-1.08h30.62l.44,8.7h-1.14c-.41-2.09-.86-3.53-1.36-4.31s-1.24-1.38-2.21-1.79c-.78-.29-2.16-.44-4.13-.44h-10.9Z"/>
    <path class="cls-8" d="m218.19,854.72h-15.38l-2.7,6.27c-.66,1.54-1,2.7-1,3.46,0,.61.29,1.14.86,1.6.58.46,1.82.76,3.74.89v1.08h-12.51v-1.08c1.66-.29,2.73-.67,3.22-1.14,1-.94,2.1-2.84,3.31-5.71l13.97-32.7h1.03l13.83,33.05c1.11,2.66,2.12,4.38,3.03,5.17s2.17,1.24,3.79,1.33v1.08h-15.67v-1.08c1.58-.08,2.65-.34,3.21-.79s.83-1,.83-1.64c0-.86-.39-2.22-1.17-4.07l-2.4-5.71Zm-.82-2.17l-6.74-16.05-6.91,16.05h13.65Z"/>
    <path class="cls-8" d="m235.7,868.02v-1.08h1.49c1.68,0,2.87-.54,3.57-1.61.43-.64.64-2.09.64-4.34v-25.66c0-2.48-.27-4.03-.82-4.66-.76-.86-1.89-1.29-3.4-1.29h-1.49v-1.08h16.17c5.94,0,10.45.67,13.55,2.02,3.1,1.35,5.59,3.59,7.47,6.74,1.88,3.14,2.83,6.78,2.83,10.9,0,5.53-1.68,10.15-5.04,13.86-3.77,4.14-9.51,6.21-17.23,6.21h-17.75Zm11.34-2.87c2.48.55,4.56.82,6.24.82,4.53,0,8.29-1.59,11.28-4.78s4.48-7.5,4.48-12.95-1.49-9.81-4.48-12.98-6.83-4.75-11.51-4.75c-1.76,0-3.76.28-6.01.85v33.78Z"/>
    <path class="cls-8" d="m303.15,868.02l-15.35-33.43v26.54c0,2.44.26,3.96.79,4.57.72.82,1.86,1.23,3.43,1.23h1.41v1.08h-13.83v-1.08h1.41c1.68,0,2.87-.51,3.57-1.52.43-.62.64-2.05.64-4.28v-25.96c0-1.76-.2-3.03-.59-3.81-.27-.57-.78-1.04-1.51-1.42s-1.91-.57-3.53-.57v-1.08h11.25l14.41,31.08,14.18-31.08h11.25v1.08h-1.38c-1.7,0-2.9.51-3.6,1.52-.43.62-.64,2.05-.64,4.28v25.96c0,2.44.27,3.96.82,4.57.72.82,1.86,1.23,3.43,1.23h1.38v1.08h-16.88v-1.08h1.41c1.7,0,2.89-.51,3.57-1.52.43-.62.64-2.05.64-4.28v-26.54l-15.32,33.43h-.97Z"/>
    <path class="cls-8" d="m351.07,866.94v1.08h-17.02v-1.08h1.41c1.64,0,2.83-.48,3.57-1.44.47-.62.7-2.13.7-4.51v-25.66c0-2.01-.13-3.34-.38-3.98-.2-.49-.6-.91-1.2-1.26-.86-.47-1.76-.7-2.7-.7h-1.41v-1.08h17.02v1.08h-1.44c-1.62,0-2.8.48-3.54,1.44-.49.62-.73,2.13-.73,4.51v25.66c0,2.01.13,3.34.38,3.98.2.49.61.91,1.23,1.26.84.47,1.73.7,2.67.7h1.44Z"/>
    <path class="cls-8" d="m380.64,827.39v13.74h-1.08c-.35-2.64-.98-4.74-1.89-6.3s-2.2-2.8-3.88-3.72c-1.68-.92-3.42-1.38-5.21-1.38-2.03,0-3.71.62-5.04,1.86-1.33,1.24-1.99,2.65-1.99,4.23,0,1.21.42,2.31,1.26,3.31,1.21,1.46,4.09,3.42,8.64,5.86,3.71,1.99,6.24,3.52,7.6,4.58,1.36,1.06,2.4,2.32,3.13,3.77s1.1,2.96,1.1,4.54c0,3.01-1.17,5.6-3.5,7.78-2.33,2.18-5.34,3.27-9.01,3.27-1.15,0-2.24-.09-3.25-.26-.61-.1-1.86-.46-3.76-1.07s-3.11-.92-3.62-.92-.87.15-1.16.44c-.28.29-.49.9-.63,1.82h-1.08v-13.62h1.08c.51,2.85,1.19,4.98,2.05,6.4.86,1.42,2.17,2.59,3.94,3.53,1.77.94,3.71,1.41,5.82,1.41,2.44,0,4.37-.64,5.79-1.93,1.42-1.29,2.12-2.81,2.12-4.57,0-.98-.27-1.96-.81-2.96-.54-1-1.37-1.92-2.5-2.78-.76-.59-2.84-1.83-6.24-3.74s-5.82-3.42-7.25-4.55-2.52-2.38-3.27-3.75c-.74-1.37-1.11-2.87-1.11-4.51,0-2.85,1.09-5.31,3.28-7.37,2.19-2.06,4.97-3.09,8.35-3.09,2.11,0,4.35.52,6.71,1.55,1.09.49,1.86.73,2.31.73.51,0,.92-.15,1.25-.46s.58-.91.78-1.83h1.08Z"/>
    <path class="cls-8" d="m414.61,827.39v13.74h-1.08c-.35-2.64-.98-4.74-1.89-6.3s-2.2-2.8-3.88-3.72c-1.68-.92-3.42-1.38-5.21-1.38-2.03,0-3.71.62-5.04,1.86-1.33,1.24-1.99,2.65-1.99,4.23,0,1.21.42,2.31,1.26,3.31,1.21,1.46,4.09,3.42,8.64,5.86,3.71,1.99,6.24,3.52,7.6,4.58,1.36,1.06,2.4,2.32,3.13,3.77s1.1,2.96,1.1,4.54c0,3.01-1.17,5.6-3.5,7.78-2.33,2.18-5.34,3.27-9.01,3.27-1.15,0-2.24-.09-3.25-.26-.61-.1-1.86-.46-3.76-1.07s-3.11-.92-3.62-.92-.87.15-1.16.44c-.28.29-.49.9-.63,1.82h-1.08v-13.62h1.08c.51,2.85,1.19,4.98,2.05,6.4.86,1.42,2.17,2.59,3.94,3.53,1.77.94,3.71,1.41,5.82,1.41,2.44,0,4.37-.64,5.79-1.93,1.42-1.29,2.12-2.81,2.12-4.57,0-.98-.27-1.96-.81-2.96-.54-1-1.37-1.92-2.5-2.78-.76-.59-2.84-1.83-6.24-3.74s-5.82-3.42-7.25-4.55-2.52-2.38-3.27-3.75c-.74-1.37-1.11-2.87-1.11-4.51,0-2.85,1.09-5.31,3.28-7.37,2.19-2.06,4.97-3.09,8.35-3.09,2.11,0,4.35.52,6.71,1.55,1.09.49,1.86.73,2.31.73.51,0,.92-.15,1.25-.46s.58-.91.78-1.83h1.08Z"/>
    <path class="cls-8" d="m439.58,866.94v1.08h-17.02v-1.08h1.41c1.64,0,2.83-.48,3.57-1.44.47-.62.7-2.13.7-4.51v-25.66c0-2.01-.13-3.34-.38-3.98-.2-.49-.6-.91-1.2-1.26-.86-.47-1.76-.7-2.7-.7h-1.41v-1.08h17.02v1.08h-1.44c-1.62,0-2.8.48-3.54,1.44-.49.62-.73,2.13-.73,4.51v25.66c0,2.01.13,3.34.38,3.98.2.49.61.91,1.23,1.26.84.47,1.73.7,2.67.7h1.44Z"/>
    <path class="cls-8" d="m463.59,827.39c5.16,0,9.62,1.96,13.4,5.87s5.67,8.8,5.67,14.66-1.9,11.04-5.71,15.03-8.42,5.98-13.83,5.98-10.06-1.94-13.78-5.83-5.58-8.92-5.58-15.09,2.15-11.46,6.45-15.44c3.73-3.46,8.19-5.19,13.39-5.19Zm-.56,2.14c-3.55,0-6.41,1.32-8.55,3.96-2.68,3.28-4.01,8.09-4.01,14.41s1.39,11.47,4.16,14.97c2.13,2.66,4.94,3.98,8.44,3.98,3.73,0,6.81-1.46,9.24-4.37s3.65-7.5,3.65-13.77c0-6.8-1.34-11.87-4.01-15.21-2.15-2.66-5.12-3.98-8.91-3.98Z"/>
    <path class="cls-8" d="m484.79,828.3h10.78l24.29,29.79v-22.91c0-2.44-.27-3.96-.82-4.57-.72-.82-1.87-1.23-3.43-1.23h-1.38v-1.08h13.83v1.08h-1.41c-1.68,0-2.87.51-3.57,1.52-.43.62-.64,2.05-.64,4.28v33.49h-1.05l-26.19-31.99v24.46c0,2.44.26,3.96.79,4.57.74.82,1.88,1.23,3.43,1.23h1.41v1.08h-13.83v-1.08h1.38c1.7,0,2.9-.51,3.6-1.52.43-.62.64-2.05.64-4.28v-27.63c-1.15-1.35-2.03-2.24-2.62-2.67-.6-.43-1.47-.83-2.62-1.2-.57-.18-1.43-.26-2.58-.26v-1.08Z"/>
    <path class="cls-8" d="m557.02,827.39v13.74h-1.08c-.35-2.64-.98-4.74-1.89-6.3s-2.2-2.8-3.88-3.72c-1.68-.92-3.42-1.38-5.21-1.38-2.03,0-3.71.62-5.04,1.86-1.33,1.24-1.99,2.65-1.99,4.23,0,1.21.42,2.31,1.26,3.31,1.21,1.46,4.09,3.42,8.64,5.86,3.71,1.99,6.24,3.52,7.6,4.58,1.36,1.06,2.4,2.32,3.13,3.77s1.1,2.96,1.1,4.54c0,3.01-1.17,5.6-3.5,7.78-2.33,2.18-5.34,3.27-9.01,3.27-1.15,0-2.24-.09-3.25-.26-.61-.1-1.86-.46-3.76-1.07s-3.11-.92-3.62-.92-.87.15-1.16.44c-.28.29-.49.9-.63,1.82h-1.08v-13.62h1.08c.51,2.85,1.19,4.98,2.05,6.4.86,1.42,2.17,2.59,3.94,3.53,1.77.94,3.71,1.41,5.82,1.41,2.44,0,4.37-.64,5.79-1.93,1.42-1.29,2.12-2.81,2.12-4.57,0-.98-.27-1.96-.81-2.96-.54-1-1.37-1.92-2.5-2.78-.76-.59-2.84-1.83-6.24-3.74s-5.82-3.42-7.25-4.55-2.52-2.38-3.27-3.75c-.74-1.37-1.11-2.87-1.11-4.51,0-2.85,1.09-5.31,3.28-7.37,2.19-2.06,4.97-3.09,8.35-3.09,2.11,0,4.35.52,6.71,1.55,1.09.49,1.86.73,2.31.73.51,0,.92-.15,1.25-.46s.58-.91.78-1.83h1.08Z"/>
    <path class="cls-8" d="m597.59,866.94v1.08h-17.02v-1.08h1.41c1.64,0,2.83-.48,3.57-1.44.47-.62.7-2.13.7-4.51v-25.66c0-2.01-.13-3.34-.38-3.98-.2-.49-.6-.91-1.2-1.26-.86-.47-1.76-.7-2.7-.7h-1.41v-1.08h17.02v1.08h-1.44c-1.62,0-2.8.48-3.54,1.44-.49.62-.73,2.13-.73,4.51v25.66c0,2.01.13,3.34.38,3.98.2.49.61.91,1.23,1.26.84.47,1.73.7,2.67.7h1.44Z"/>
    <path class="cls-8" d="m598.87,828.3h10.78l24.29,29.79v-22.91c0-2.44-.27-3.96-.82-4.57-.72-.82-1.87-1.23-3.43-1.23h-1.38v-1.08h13.83v1.08h-1.41c-1.68,0-2.87.51-3.57,1.52-.43.62-.64,2.05-.64,4.28v33.49h-1.05l-26.19-31.99v24.46c0,2.44.26,3.96.79,4.57.74.82,1.88,1.23,3.43,1.23h1.41v1.08h-13.83v-1.08h1.38c1.7,0,2.9-.51,3.6-1.52.43-.62.64-2.05.64-4.28v-27.63c-1.15-1.35-2.03-2.24-2.62-2.67-.6-.43-1.47-.83-2.62-1.2-.57-.18-1.43-.26-2.58-.26v-1.08Z"/>
    <path class="cls-8" d="m655.87,830.47v15.62h7.24c1.66,0,2.88-.37,3.65-1.1.77-.73,1.28-2.18,1.54-4.35h1.08v13.45h-1.08c-.02-1.54-.22-2.68-.6-3.4s-.91-1.27-1.58-1.63-1.68-.54-3-.54h-7.24v12.48c0,2.01.13,3.34.38,3.98.2.49.61.91,1.23,1.26.86.47,1.76.7,2.7.7h1.44v1.08h-17.05v-1.08h1.41c1.64,0,2.83-.48,3.57-1.44.47-.62.7-2.13.7-4.51v-25.66c0-2.01-.13-3.34-.38-3.98-.2-.49-.6-.91-1.2-1.26-.84-.47-1.74-.7-2.7-.7h-1.41v-1.08h29.56l.38,8.73h-1.03c-.51-1.86-1.1-3.22-1.77-4.09s-1.5-1.5-2.49-1.89c-.99-.39-2.51-.59-4.58-.59h-8.76Z"/>
    <path class="cls-8" d="m699.5,827.39c5.16,0,9.62,1.96,13.4,5.87s5.67,8.8,5.67,14.66-1.9,11.04-5.71,15.03-8.42,5.98-13.83,5.98-10.06-1.94-13.78-5.83-5.58-8.92-5.58-15.09,2.15-11.46,6.45-15.44c3.73-3.46,8.19-5.19,13.39-5.19Zm-.56,2.14c-3.55,0-6.41,1.32-8.55,3.96-2.68,3.28-4.01,8.09-4.01,14.41s1.39,11.47,4.16,14.97c2.13,2.66,4.94,3.98,8.44,3.98,3.73,0,6.81-1.46,9.24-4.37s3.65-7.5,3.65-13.77c0-6.8-1.34-11.87-4.01-15.21-2.15-2.66-5.12-3.98-8.91-3.98Z"/>
  </g>
</svg>