<?xml version="1.0" encoding="UTF-8"?>
<svg id="_圖層_1" data-name="圖層 1" xmlns="http://www.w3.org/2000/svg" viewBox="0 0 900 900">
  <defs>
    <style>
      .cls-1 {
        fill: #f9a58d;
      }

      .cls-1, .cls-2, .cls-3, .cls-4, .cls-5, .cls-6, .cls-7, .cls-8, .cls-9, .cls-10, .cls-11, .cls-12, .cls-13, .cls-14, .cls-15, .cls-16, .cls-17, .cls-18, .cls-19, .cls-20, .cls-21 {
        stroke-width: 0px;
      }

      .cls-2 {
        fill: #606074;
      }

      .cls-3 {
        fill: #455c84;
      }

      .cls-4 {
        fill: #2681ff;
      }

      .cls-5 {
        fill: #454553;
      }

      .cls-6 {
        fill: #cfcfdd;
      }

      .cls-7 {
        fill: #c73c50;
      }

      .cls-8 {
        fill: #ce5668;
      }

      .cls-9 {
        fill: #d5985c;
      }

      .cls-10 {
        fill: #a55d4e;
      }

      .cls-11 {
        fill: #c38858;
      }

      .cls-12 {
        fill: #905041;
      }

      .cls-13 {
        fill: #3078c8;
      }

      .cls-14 {
        fill: #ffea98;
      }

      .cls-15 {
        fill: #ffccbd;
      }

      .cls-16 {
        fill: #ffbda9;
      }

      .cls-17 {
        fill: #f5f5f8;
      }

      .cls-18 {
        fill: #fd5;
      }

      .cls-19 {
        fill: #00cb76;
      }

      .cls-20 {
        fill: #00dc80;
      }

      .cls-21 {
        fill: #005fe0;
      }
    </style>
  </defs>
  <g>
    <path class="cls-14" d="m444.48,357.58l152.6,41.05c35.85-37.74,57.85-88.76,57.85-144.92,0-116.23-94.22-210.45-210.45-210.45s-210.45,94.22-210.45,210.45c0,56.16,22,107.18,57.85,144.92l152.6-41.05Z"/>
    <path class="cls-18" d="m560.21,157.39l-45.08-45.08-70.65,35.47,31.37,218.23,121.23,32.61c35.85-37.74,57.85-88.76,57.85-144.92,0-17.2-2.08-33.91-5.97-49.91l-68.92-68.92-19.83,22.52Z"/>
    <g>
      <path class="cls-2" d="m446.64,328.18h-137.71v-193.3h137.71l35.15,99.7-35.15,93.6Z"/>
      <path class="cls-5" d="m444.48,134.88h135.56v193.3h-135.56v-193.3Z"/>
    </g>
    <g>
      <path class="cls-10" d="m444.48,110.66s-76.3,14.41-76.3,56.55v39.85c0,42.14,34.16,76.3,76.3,76.3l37.32-76.3v-39.85l-37.32-56.55Z"/>
      <path class="cls-12" d="m444.48,110.66v172.7c42.14,0,76.3-34.16,76.3-76.3v-39.85c0-42.14-76.3-56.54-76.3-56.54Z"/>
    </g>
    <path class="cls-20" d="m396.86,310.64l-33.66-.45-46.2,10.67c-15.14,5.89-25.11,20.48-25.11,36.72v41.05c9.41,9.9,19.77,18.89,30.93,26.82l22.58,13.97c29.53,15.79,63.26,24.74,99.09,24.74,1.85,0,3.69-.03,5.53-.07l88.29-118.62-93.82-35.04-47.62.21Z"/>
    <path class="cls-19" d="m597.08,357.58c0-16.25-9.97-30.83-25.11-36.72l-46.2-10.67-33.66.45-47.62-.21v153.73c60.07,0,114.26-25.17,152.6-65.53v-41.05Z"/>
    <g>
      <path class="cls-16" d="m396.86,302.42l47.62,42.2,30.95-90.01-30.95-35.15h-47.62v82.96Z"/>
      <path class="cls-1" d="m444.48,344.62l47.62-42.2v-82.96h-47.62v125.16Z"/>
    </g>
    <path class="cls-15" d="m444.48,96.34c-39.76,0-72,32.23-72,72v16.93c-1-.24-2.04-.38-3.11-.38-7.4,0-13.4,6-13.4,13.4s6,13.4,13.4,13.4c1.15,0,2.25-.16,3.31-.43,2.72,37.28,33.83,66.67,71.8,66.67l35.21-72v-37.61l-35.21-72Z"/>
    <path class="cls-16" d="m519.59,184.88c-1.07,0-2.11.14-3.11.38v-16.93c0-39.76-32.23-72-72-72v181.6c37.97,0,69.07-29.4,71.8-66.67,1.06.27,2.17.43,3.31.43,7.4,0,13.4-6,13.4-13.4,0-7.4-6-13.4-13.4-13.4h0Z"/>
    <path class="cls-4" d="m444.48,201.46h-6.16v-12.33h6.17l1.94,6.4-1.94,5.93Z"/>
    <g>
      <circle class="cls-2" cx="412.24" cy="195.3" r="7.36"/>
      <circle class="cls-5" cx="476.73" cy="195.3" r="7.36"/>
    </g>
    <path class="cls-8" d="m444.48,240.17c-4.76,0-9.19-2.56-11.58-6.68l-10.67,6.18c4.58,7.92,13.11,12.84,22.25,12.84l8.22-6.55-8.22-5.78Z"/>
    <path class="cls-7" d="m466.73,239.66l-10.67-6.18c-2.39,4.12-6.82,6.68-11.58,6.68v12.33c9.14,0,17.67-4.92,22.25-12.84Z"/>
    <path class="cls-21" d="m444.35,189.13h6.29v12.33h-6.29v-12.33Z"/>
    <path class="cls-6" d="m444.48,336.4l-3.8,12.56,3.8,19.22,81.29-57.99-33.66-7.77-47.62,33.98Z"/>
    <path class="cls-17" d="m444.48,336.4v31.78l-81.29-57.99,33.66-7.77,47.62,33.98Z"/>
    <path class="cls-12" d="m499.67,103.6l-55.19-8.78-8.34,27.07,8.34,25.89h64.11v39.35h12.19v-58.79c0-12.32-8.95-22.8-21.12-24.74Z"/>
    <path class="cls-10" d="m444.48,94.82l-47.31-7.53c-15.21-2.42-28.99,9.33-28.99,24.74v75.1h12.19v-39.35h64.11v-52.96Z"/>
    <path class="cls-4" d="m380.82,198.38l-1.28-2.22-18.9-14.79,7.6-9.71,20.78,16.26,2.48,4.28-10.67,6.18Z"/>
    <path class="cls-4" d="m412.24,227.54c-17.78,0-32.25-14.47-32.25-32.25s14.47-32.25,32.25-32.25,32.25,14.47,32.25,32.25-14.47,32.25-32.25,32.25h0Zm0-52.17c-10.98,0-19.92,8.94-19.92,19.92s8.94,19.92,19.92,19.92,19.92-8.94,19.92-19.92-8.94-19.92-19.92-19.92Z"/>
    <path class="cls-21" d="m508.15,198.38l-10.67-6.18,2.48-4.28,20.78-16.26,7.6,9.71-18.9,14.79-1.28,2.21Z"/>
    <path class="cls-21" d="m476.73,227.54c-17.78,0-32.25-14.47-32.25-32.25s14.47-32.25,32.25-32.25,32.25,14.47,32.25,32.25-14.47,32.25-32.25,32.25Zm0-52.17c-10.98,0-19.92,8.94-19.92,19.92s8.94,19.92,19.92,19.92,19.92-8.94,19.92-19.92-8.94-19.92-19.92-19.92Z"/>
    <g>
      <path class="cls-9" d="m331.04,193.33l-8.22,232.11c4.2,2.98,8.51,5.81,12.93,8.48l5.76-59.62-7.36-180.97h-3.11,0Z"/>
      <path class="cls-11" d="m334.15,432.93c3.7,2.28,7.48,4.46,11.33,6.51l-8.22-246.11h-3.11v239.6Z"/>
    </g>
  </g>
  <g>
    <g>
      <path class="cls-3" d="m309.15,611.67c-1.94,17.56-6.27,33.06-14.93,46.06,6.38,7.98,14.59,14.48,24.74,19.27l-.34,1.14c-6.27,1.25-10.03,4.79-11.63,10.83-8.44-5.93-14.71-13.68-19.38-22.91-9.23,10.03-22.12,18.01-39.9,23.48l-.8-1.14c17.1-8.89,28.5-20.18,35.91-33.29-2.96-8.55-5.13-18.01-6.61-28.16-3.88,6.5-8.44,12.2-13.68,16.99l-1.48-.91c3.31-6.61,6.38-14.71,9.01-23.6-.34.11-.68.11-1.14.11h-18.47c-3.53,4.1-7.3,8.09-11.4,11.86h8.32l6.04-6.27,11.17,9.69c-.91.91-2.17,1.14-4.45,1.37-3.65,2.17-8.09,4.9-12.54,7.07l3.65.34c-.34,1.71-1.37,2.51-3.76,2.85v4.67c6.84-.91,14.25-1.94,21.55-2.96l.23,1.6c-5.81,2.28-13,4.9-21.77,7.87v16.99c0,9.01-1.94,13.79-16.53,15.16-.34-3.99-.91-6.95-2.62-8.78-1.82-1.94-4.22-3.31-9.69-4.22v-1.6s11.74.68,14.02.68c1.71,0,2.28-.46,2.28-1.82v-12.31c-4.79,1.6-10.03,3.19-15.62,4.9-.57,1.37-1.82,2.39-3.08,2.74l-5.59-13.79c5.13-.46,13.79-1.37,24.28-2.74v-10.72l6.73.57c1.82-2.51,3.65-5.47,5.13-7.98h-11.51c-7.64,6.5-16.19,12.43-25.88,17.1l-1.14-1.25c6.5-4.56,12.65-10.03,18.24-15.85h-10.94l-1.03-3.31h14.93c3.42-3.76,6.61-7.75,9.58-11.86h-28.73l-.91-3.31h18.92v-14.71h-13.45l-.91-3.19h14.36v-15.39l16.87,1.37c-.23,1.71-1.14,2.74-4.22,3.19v10.83h.34l5.36-7.3s3.19,2.62,6.27,5.47c2.17-4.22,3.88-8.32,5.36-12.2l14.93,7.18c-.68,1.25-1.82,1.94-4.67,1.48-3.99,7.52-9.12,15.5-15.39,23.26h3.53l5.36-7.07s5.02,3.99,8.78,7.52c2.85-10.6,5.13-22.12,6.16-33.52l18.35,4.33c-.34,1.48-1.71,2.51-4.45,2.62-1.6,6.5-3.53,12.54-5.7,18.24h13.22l7.07-9.12s7.98,6.38,12.65,10.6c-.34,1.25-1.48,1.82-3.08,1.82h-5.93Zm-68.17,4.56h.46c3.31-4.9,6.27-9.8,9.01-14.71h-9.46v14.71Zm42.98-4.56c-1.71,4.1-3.65,7.98-5.59,11.63,2.05,8.66,4.79,16.42,8.55,23.37,4.45-10.72,6.73-22.46,7.64-35h-10.6Z"/>
      <path class="cls-3" d="m368.2,639.03l11.63,8.89c-.68.8-2.17,1.71-4.45,2.17v29.75c-.11.8-5.81,3.08-9.58,3.08h-2.05v-7.41h-12.54v7.52c0,.91-3.65,3.76-9.58,3.76h-2.05v-90.17l11.63,4.56c.46-5.24.91-13,1.03-18.47l17.33,2.96c-.34,1.82-1.82,2.74-4.33,2.96-2.39,3.76-6.16,9.12-8.89,13.11h5.81l5.59-6.04,11.63,8.89c-.68.8-2.17,1.71-4.33,2.17v25.19c-.11.8-5.93,2.96-9.69,2.96h-2.05v-5.59h-12.08v15.73h11.4l5.59-6.04Zm-16.99-34.09v21.09h12.08v-21.09h-12.08Zm12.54,67.37v-24.05h-12.54v24.05h12.54Zm51.87-75.35v16.3h8.44l5.47-6.16,11.97,9.01c-.57.8-2.05,1.71-4.22,2.17v41.61c0,8.44-1.48,13.11-13.34,14.25-.11-3.88-.34-6.95-1.14-8.78-.8-1.71-2.17-2.96-5.24-3.65v-1.71s4.45.34,5.93.34c1.37,0,1.71-.57,1.71-1.82v-42.07h-9.58v69.54c0,.8-3.99,3.53-10.37,3.53h-2.28v-73.07h-9.01v54.95c0,.8-3.65,3.65-9.92,3.65h-2.05v-66.92l13.45,5.13h7.52v-16.3h-22.57l-.91-3.19h43.32l7.07-9.35s7.75,6.38,12.43,10.72c-.34,1.25-1.48,1.82-3.08,1.82h-23.6Z"/>
      <path class="cls-3" d="m565.65,605.52c-.68.8-2.05,1.6-3.88,1.94v31.46c-.11.8-6.27,3.19-10.37,3.19h-1.48l9.69,7.41c-.68.91-2.17,1.82-4.56,2.17v34.2c-.11.8-6.5,3.19-10.72,3.19h-2.05v-6.95h-25.88v3.53c0,1.25-5.36,3.99-10.72,3.99h-1.82v-45.71c-1.03.23-2.17.34-3.19.34h-1.82v-25.42c-.57.46-1.37.68-2.28.68h-11.86v33.63c4.9-1.14,10.03-2.28,15.28-3.42l.34,1.14c-6.38,4.67-16.07,11.4-30.55,19.84-.57,1.37-1.71,2.51-3.08,2.96l-6.84-15.73c2.62-.46,6.95-1.25,12.31-2.28v-36.14h-11.06l-.91-3.31h11.97v-31.35l16.76,1.6c-.23,1.6-1.03,2.74-4.22,3.19v26.56h.23l5.36-9.01s5.24,5.59,8.55,9.58v-19.27l12.77,5.13h23.83c1.82-6.04,3.99-14.14,5.36-19.83l18.13,4.67c-.46,1.37-1.82,2.28-4.45,2.17-3.99,3.65-10.37,8.78-15.85,13h9.58l5.7-5.93,11.74,8.78Zm-57.8-22c28.5,3.31,18.58,24.62,7.52,17.21-1.03-5.93-5.02-12.54-8.55-16.64l1.03-.57Zm41.38,58.14v-4.56h-38.3v3.42c0,.57-1.25,1.48-3.19,2.28l9.23,3.65h24.05l5.93-6.5,2.28,1.71Zm-38.3-35.68v27.82h14.02v-27.82h-14.02Zm1.6,5.02c19.15,8.78,10.49,22.57,3.53,16.07-.11-5.13-2.62-11.4-4.9-15.39l1.37-.68Zm29.75,51.41v-12.65h-25.88v12.65h25.88Zm0,16.42v-13.11h-25.88v13.11h25.88Zm-6.73-72.84v27.82h13.68v-17.21c-.46.11-1.03.11-1.6.11-2.51,3.99-5.47,8.78-8.44,11.97l-2.05-.68c1.25-4.56,2.62-11.51,3.76-17.67l8.32,3.31v-7.64h-13.68Z"/>
      <path class="cls-3" d="m688.09,632.42c0,.34-1.71,1.37-4.67,2.05,2.05,1.48,7.64,5.7,11.29,8.89-.23,1.25-1.48,1.82-3.08,1.82h-34.09c-1.25,2.96-2.96,6.84-4.56,10.03h19.95l6.5-6.04,11.51,9.46c-.91.91-2.17,1.6-4.56,1.94-1.71,13.57-4.79,22.57-10.15,26.11-3.53,2.17-7.87,3.19-14.25,3.19,0-3.31-.46-6.27-2.39-8.09-2.17-1.82-6.73-3.42-11.74-4.33v-1.48c5.24.34,14.25,1.03,16.64,1.03,1.94,0,2.85-.23,3.88-.91,2.17-1.6,4.22-8.09,5.47-17.56h-21.55l-4.67,5.13-11.51-7.64c1.25-1.03,3.08-1.94,5.02-2.62,1.25-2.74,2.62-5.81,3.53-8.21h-14.82l-.91-3.31h47.31l5.81-7.18c-1.14.23-2.51.34-3.99.34h-2.05v-3.88h-30.44v3.08c0,.8-3.53,2.85-9.58,2.85h-1.94v-42.52c-.46.11-1.03.23-1.6.23h-6.5v91.54c0,.68-3.53,3.19-9.35,3.19h-1.94v-26.56c-5.59,3.53-12.54,7.3-20.98,11.63-.46,1.37-1.6,2.62-2.96,2.96l-5.81-14.82c2.17-.23,4.79-.68,7.98-1.14v-66.8h-6.5l-.91-3.19h31.35l6.61-8.21s7.41,5.59,12.08,9.58l11.17,4.33h8.21v-14.82l16.07,1.48c-.34,1.6-1.25,2.74-4.33,3.19v10.15h8.89l5.59-6.38,11.17,8.32c-.68.91-1.82,1.71-4.22,2.17v31.01Zm-73.42-37.62h-10.72v18.92h10.72v-18.92Zm0,22.23h-10.72v19.27h10.72v-19.27Zm-10.72,42.52c3.42-.68,7.07-1.48,10.72-2.28v-17.67h-10.72v19.95Zm41.61-59.05v11.86h9.35v-11.86h-9.35Zm0,27.36h9.35v-12.2h-9.35v12.2Zm21.09-27.36v11.86h9.35v-11.86h-9.35Zm9.35,27.36v-12.2h-9.35v12.2h9.35Z"/>
    </g>
    <g>
      <path class="cls-13" d="m250.14,758.47v15.7h8.73c2.27,0,3.78-.34,4.54-1.03,1.02-.9,1.58-2.48,1.7-4.75h1.08v13.83h-1.08c-.27-1.93-.55-3.17-.82-3.72-.35-.68-.93-1.22-1.73-1.61s-2.03-.59-3.69-.59h-8.73v13.1c0,1.76.08,2.83.23,3.21s.43.68.82.91,1.13.34,2.23.34h6.74c2.25,0,3.88-.16,4.89-.47s1.99-.93,2.93-1.85c1.21-1.21,2.45-3.04,3.72-5.48h1.17l-3.43,9.96h-30.62v-1.08h1.41c.94,0,1.83-.22,2.67-.67.62-.31,1.05-.78,1.27-1.41s.34-1.9.34-3.84v-25.81c0-2.52-.25-4.07-.76-4.66-.7-.78-1.88-1.17-3.52-1.17h-1.41v-1.08h30.62l.44,8.7h-1.14c-.41-2.09-.86-3.53-1.36-4.31s-1.24-1.38-2.21-1.79c-.78-.29-2.16-.44-4.13-.44h-10.9Z"/>
      <path class="cls-13" d="m299.41,796.02l-15.35-33.43v26.54c0,2.44.26,3.96.79,4.57.72.82,1.86,1.23,3.43,1.23h1.41v1.08h-13.83v-1.08h1.41c1.68,0,2.87-.51,3.57-1.52.43-.62.64-2.05.64-4.28v-25.96c0-1.76-.2-3.03-.59-3.81-.27-.57-.78-1.04-1.51-1.42s-1.91-.57-3.53-.57v-1.08h11.25l14.41,31.08,14.18-31.08h11.25v1.08h-1.38c-1.7,0-2.9.51-3.6,1.52-.43.62-.64,2.05-.64,4.28v25.96c0,2.44.27,3.96.82,4.57.72.82,1.86,1.23,3.43,1.23h1.38v1.08h-16.88v-1.08h1.41c1.7,0,2.89-.51,3.57-1.52.43-.62.64-2.05.64-4.28v-26.54l-15.32,33.43h-.97Z"/>
      <path class="cls-13" d="m341.11,777.42v11.57c0,2.5.27,4.05.82,4.66.74.86,1.87,1.29,3.37,1.29h1.52v1.08h-17.02v-1.08h1.49c1.68,0,2.88-.55,3.6-1.64.39-.61.59-2.04.59-4.31v-25.66c0-2.5-.26-4.05-.79-4.66-.76-.86-1.89-1.29-3.4-1.29h-1.49v-1.08h14.56c3.55,0,6.36.37,8.41,1.1s3.78,1.97,5.19,3.71,2.11,3.8,2.11,6.18c0,3.24-1.07,5.88-3.21,7.91s-5.16,3.05-9.07,3.05c-.96,0-1.99-.07-3.11-.21s-2.3-.34-3.57-.62Zm0-1.67c1.04.2,1.95.34,2.75.44s1.48.15,2.05.15c2.03,0,3.78-.79,5.26-2.36s2.21-3.61,2.21-6.11c0-1.72-.35-3.32-1.05-4.79s-1.7-2.58-2.99-3.31-2.75-1.1-4.39-1.1c-1,0-2.28.19-3.84.56v16.52Z"/>
      <path class="cls-13" d="m397.17,785.04l.97.21-3.4,10.78h-30.76v-1.08h1.49c1.68,0,2.88-.55,3.6-1.64.41-.62.62-2.07.62-4.34v-25.63c0-2.48-.27-4.03-.82-4.66-.76-.86-1.9-1.29-3.4-1.29h-1.49v-1.08h17.99v1.08c-2.11-.02-3.59.18-4.44.59s-1.43.93-1.74,1.55c-.31.62-.47,2.12-.47,4.48v24.96c0,1.62.16,2.73.47,3.34.23.41.6.71,1.08.91.49.2,2.01.29,4.57.29h2.9c3.05,0,5.19-.22,6.42-.67s2.35-1.25,3.37-2.39c1.02-1.14,2.03-2.94,3.05-5.4Z"/>
      <path class="cls-13" d="m421.97,755.39c5.16,0,9.62,1.96,13.4,5.87s5.67,8.8,5.67,14.66-1.9,11.04-5.71,15.03-8.42,5.98-13.83,5.98-10.06-1.94-13.78-5.83-5.58-8.92-5.58-15.09,2.15-11.46,6.45-15.44c3.73-3.46,8.19-5.19,13.39-5.19Zm-.56,2.14c-3.56,0-6.41,1.32-8.55,3.96-2.68,3.28-4.01,8.09-4.01,14.41s1.39,11.47,4.16,14.97c2.13,2.66,4.94,3.98,8.44,3.98,3.73,0,6.81-1.46,9.24-4.37s3.65-7.5,3.65-13.77c0-6.8-1.34-11.87-4.01-15.21-2.15-2.66-5.12-3.98-8.91-3.98Z"/>
      <path class="cls-13" d="m472.55,756.3h13.86v1.08h-.76c-.51,0-1.25.22-2.23.67s-1.87,1.09-2.67,1.93-1.79,2.21-2.96,4.1l-9.58,15.09v9.96c0,2.44.27,3.96.82,4.57.74.82,1.91,1.23,3.52,1.23h1.29v1.08h-16.88v-1.08h1.41c1.68,0,2.87-.51,3.57-1.52.43-.62.64-2.05.64-4.28v-9.4l-10.9-16.64c-1.29-1.95-2.16-3.17-2.62-3.66s-1.41-1.07-2.86-1.76c-.39-.2-.96-.29-1.7-.29v-1.08h16.99v1.08h-.88c-.92,0-1.76.21-2.53.64s-1.16,1.07-1.16,1.93c0,.7.6,1.97,1.79,3.81l8.29,12.8,7.79-12.25c1.17-1.84,1.76-3.2,1.76-4.1,0-.55-.14-1.04-.42-1.46s-.69-.77-1.22-1.01-1.32-.37-2.37-.37v-1.08Z"/>
      <path class="cls-13" d="m512.44,796.02l-15.35-33.43v26.54c0,2.44.26,3.96.79,4.57.72.82,1.86,1.23,3.43,1.23h1.41v1.08h-13.83v-1.08h1.41c1.68,0,2.87-.51,3.57-1.52.43-.62.64-2.05.64-4.28v-25.96c0-1.76-.2-3.03-.59-3.81-.27-.57-.78-1.04-1.51-1.42s-1.91-.57-3.53-.57v-1.08h11.25l14.41,31.08,14.18-31.08h11.25v1.08h-1.38c-1.7,0-2.9.51-3.6,1.52-.43.62-.64,2.05-.64,4.28v25.96c0,2.44.27,3.96.82,4.57.72.82,1.86,1.23,3.43,1.23h1.38v1.08h-16.88v-1.08h1.41c1.7,0,2.89-.51,3.57-1.52.43-.62.64-2.05.64-4.28v-26.54l-15.32,33.43h-.97Z"/>
      <path class="cls-13" d="m554.37,758.47v15.7h8.73c2.27,0,3.78-.34,4.54-1.03,1.02-.9,1.58-2.48,1.7-4.75h1.08v13.83h-1.08c-.27-1.93-.55-3.17-.82-3.72-.35-.68-.93-1.22-1.73-1.61s-2.03-.59-3.69-.59h-8.73v13.1c0,1.76.08,2.83.23,3.21s.43.68.82.91,1.13.34,2.23.34h6.74c2.25,0,3.88-.16,4.89-.47s1.99-.93,2.93-1.85c1.21-1.21,2.45-3.04,3.72-5.48h1.17l-3.43,9.96h-30.62v-1.08h1.41c.94,0,1.83-.22,2.67-.67.62-.31,1.05-.78,1.27-1.41s.34-1.9.34-3.84v-25.81c0-2.52-.25-4.07-.76-4.66-.7-.78-1.88-1.17-3.52-1.17h-1.41v-1.08h30.62l.44,8.7h-1.14c-.41-2.09-.86-3.53-1.36-4.31s-1.24-1.38-2.21-1.79c-.78-.29-2.16-.44-4.13-.44h-10.9Z"/>
      <path class="cls-13" d="m578.29,756.3h10.78l24.29,29.79v-22.91c0-2.44-.27-3.96-.82-4.57-.72-.82-1.87-1.23-3.43-1.23h-1.38v-1.08h13.83v1.08h-1.41c-1.68,0-2.87.51-3.57,1.52-.43.62-.64,2.05-.64,4.28v33.49h-1.05l-26.19-31.99v24.46c0,2.44.26,3.96.79,4.57.74.82,1.88,1.23,3.43,1.23h1.41v1.08h-13.83v-1.08h1.38c1.7,0,2.9-.51,3.6-1.52.43-.62.64-2.05.64-4.28v-27.63c-1.15-1.35-2.03-2.24-2.62-2.67-.6-.43-1.47-.83-2.62-1.2-.57-.18-1.43-.26-2.58-.26v-1.08Z"/>
      <path class="cls-13" d="m657.73,756.3l.44,9.32h-1.11c-.22-1.64-.51-2.81-.88-3.52-.61-1.13-1.41-1.97-2.42-2.51-1.01-.54-2.33-.8-3.97-.8h-5.6v30.35c0,2.44.26,3.96.79,4.57.74.82,1.88,1.23,3.43,1.23h1.38v1.08h-16.85v-1.08h1.41c1.68,0,2.87-.51,3.57-1.52.43-.62.64-2.05.64-4.28v-30.35h-4.78c-1.86,0-3.17.14-3.96.41-1.02.37-1.89,1.08-2.61,2.14-.72,1.05-1.15,2.48-1.29,4.28h-1.11l.47-9.32h32.43Z"/>
      <path class="cls-13" d="m236.56,827.39c5.16,0,9.62,1.96,13.4,5.87s5.67,8.8,5.67,14.66-1.9,11.04-5.71,15.03-8.42,5.98-13.83,5.98-10.06-1.94-13.78-5.83-5.58-8.92-5.58-15.09,2.15-11.46,6.45-15.44c3.73-3.46,8.19-5.19,13.39-5.19Zm-.56,2.14c-3.56,0-6.41,1.32-8.55,3.96-2.68,3.28-4.01,8.09-4.01,14.41s1.39,11.47,4.16,14.97c2.13,2.66,4.94,3.98,8.44,3.98,3.73,0,6.81-1.46,9.24-4.37s3.65-7.5,3.65-13.77c0-6.8-1.34-11.87-4.01-15.21-2.15-2.66-5.12-3.98-8.91-3.98Z"/>
      <path class="cls-13" d="m270.85,849.42v11.57c0,2.5.27,4.05.82,4.66.74.86,1.87,1.29,3.37,1.29h1.52v1.08h-17.02v-1.08h1.49c1.68,0,2.88-.55,3.6-1.64.39-.61.59-2.04.59-4.31v-25.66c0-2.5-.26-4.05-.79-4.66-.76-.86-1.89-1.29-3.4-1.29h-1.49v-1.08h14.56c3.55,0,6.36.37,8.41,1.1s3.78,1.97,5.19,3.71,2.11,3.8,2.11,6.18c0,3.24-1.07,5.88-3.21,7.91s-5.16,3.05-9.07,3.05c-.96,0-1.99-.07-3.11-.21s-2.3-.34-3.57-.62Zm0-1.67c1.04.2,1.95.34,2.75.44s1.48.15,2.05.15c2.03,0,3.78-.79,5.26-2.36s2.21-3.61,2.21-6.11c0-1.72-.35-3.32-1.05-4.79s-1.7-2.58-2.99-3.31-2.75-1.1-4.39-1.1c-1,0-2.28.19-3.84.56v16.52Z"/>
      <path class="cls-13" d="m304.82,849.42v11.57c0,2.5.27,4.05.82,4.66.74.86,1.87,1.29,3.37,1.29h1.52v1.08h-17.02v-1.08h1.49c1.68,0,2.88-.55,3.6-1.64.39-.61.59-2.04.59-4.31v-25.66c0-2.5-.26-4.05-.79-4.66-.76-.86-1.89-1.29-3.4-1.29h-1.49v-1.08h14.56c3.55,0,6.36.37,8.41,1.1s3.78,1.97,5.19,3.71,2.11,3.8,2.11,6.18c0,3.24-1.07,5.88-3.21,7.91s-5.16,3.05-9.07,3.05c-.96,0-1.99-.07-3.11-.21s-2.3-.34-3.57-.62Zm0-1.67c1.04.2,1.95.34,2.75.44s1.48.15,2.05.15c2.03,0,3.78-.79,5.26-2.36s2.21-3.61,2.21-6.11c0-1.72-.35-3.32-1.05-4.79s-1.7-2.58-2.99-3.31-2.75-1.1-4.39-1.1c-1,0-2.28.19-3.84.56v16.52Z"/>
      <path class="cls-13" d="m348.43,827.39c5.16,0,9.62,1.96,13.4,5.87s5.67,8.8,5.67,14.66-1.9,11.04-5.71,15.03-8.42,5.98-13.83,5.98-10.06-1.94-13.78-5.83-5.58-8.92-5.58-15.09,2.15-11.46,6.45-15.44c3.73-3.46,8.19-5.19,13.39-5.19Zm-.56,2.14c-3.56,0-6.41,1.32-8.55,3.96-2.68,3.28-4.01,8.09-4.01,14.41s1.39,11.47,4.16,14.97c2.13,2.66,4.94,3.98,8.44,3.98,3.73,0,6.81-1.46,9.24-4.37s3.65-7.5,3.65-13.77c0-6.8-1.34-11.87-4.01-15.21-2.15-2.66-5.12-3.98-8.91-3.98Z"/>
      <path class="cls-13" d="m410.96,868.02h-10.61l-13.45-18.57c-1,.04-1.81.06-2.43.06-.25,0-.53,0-.82-.02s-.6-.02-.91-.04v11.54c0,2.5.27,4.05.82,4.66.74.86,1.86,1.29,3.34,1.29h1.55v1.08h-17.02v-1.08h1.49c1.68,0,2.88-.55,3.6-1.64.41-.61.62-2.04.62-4.31v-25.66c0-2.5-.27-4.05-.82-4.66-.76-.86-1.89-1.29-3.4-1.29h-1.49v-1.08h14.47c4.22,0,7.33.31,9.33.92s3.7,1.75,5.1,3.4,2.09,3.62,2.09,5.9c0,2.44-.8,4.56-2.39,6.36s-4.06,3.07-7.4,3.81l8.2,11.4c1.88,2.62,3.49,4.36,4.83,5.21s3.11,1.41,5.27,1.64v1.08Zm-28.21-20.42c.37,0,.69,0,.97.01s.5.02.67.02c3.79,0,6.65-.82,8.57-2.46s2.89-3.73,2.89-6.27-.78-4.5-2.33-6.05-3.61-2.33-6.17-2.33c-1.13,0-2.67.19-4.6.56v16.52Z"/>
      <path class="cls-13" d="m442.15,828.3l.44,9.32h-1.11c-.22-1.64-.51-2.81-.88-3.52-.61-1.13-1.41-1.97-2.42-2.51-1.01-.54-2.33-.8-3.97-.8h-5.6v30.35c0,2.44.26,3.96.79,4.57.74.82,1.88,1.23,3.43,1.23h1.38v1.08h-16.85v-1.08h1.41c1.68,0,2.87-.51,3.57-1.52.43-.62.64-2.05.64-4.28v-30.35h-4.78c-1.86,0-3.17.14-3.96.41-1.02.37-1.89,1.08-2.61,2.14-.72,1.05-1.15,2.48-1.29,4.28h-1.11l.47-9.32h32.43Z"/>
      <path class="cls-13" d="m473.3,829.38v-1.08h14.06v1.08h-1.49c-1.56,0-2.76.65-3.6,1.96-.41.61-.62,2.01-.62,4.22v16.11c0,3.98-.4,7.07-1.19,9.27s-2.34,4.08-4.66,5.65-5.46,2.36-9.45,2.36c-4.34,0-7.63-.75-9.87-2.26s-3.84-3.53-4.78-6.06c-.62-1.74-.94-5-.94-9.79v-15.53c0-2.44-.34-4.04-1.01-4.8s-1.76-1.14-3.27-1.14h-1.49v-1.08h17.17v1.08h-1.52c-1.64,0-2.81.52-3.52,1.55-.49.7-.73,2.17-.73,4.39v17.31c0,1.54.14,3.31.42,5.3s.8,3.54,1.54,4.66,1.81,2.03,3.21,2.75,3.11,1.08,5.14,1.08c2.6,0,4.92-.57,6.97-1.7s3.45-2.58,4.2-4.35,1.13-4.76,1.13-8.98v-16.08c0-2.48-.27-4.03-.82-4.66-.76-.86-1.89-1.29-3.4-1.29h-1.49Z"/>
      <path class="cls-13" d="m487.82,828.3h10.78l24.29,29.79v-22.91c0-2.44-.27-3.96-.82-4.57-.72-.82-1.87-1.23-3.43-1.23h-1.38v-1.08h13.83v1.08h-1.41c-1.68,0-2.87.51-3.57,1.52-.43.62-.64,2.05-.64,4.28v33.49h-1.05l-26.19-31.99v24.46c0,2.44.26,3.96.79,4.57.74.82,1.88,1.23,3.43,1.23h1.41v1.08h-13.83v-1.08h1.38c1.7,0,2.9-.51,3.6-1.52.43-.62.64-2.05.64-4.28v-27.63c-1.15-1.35-2.03-2.24-2.62-2.67s-1.47-.83-2.62-1.2c-.57-.18-1.43-.26-2.58-.26v-1.08Z"/>
      <path class="cls-13" d="m551.06,866.94v1.08h-17.02v-1.08h1.41c1.64,0,2.83-.48,3.57-1.44.47-.62.7-2.13.7-4.51v-25.66c0-2.01-.13-3.34-.38-3.98-.2-.49-.6-.91-1.2-1.26-.86-.47-1.76-.7-2.7-.7h-1.41v-1.08h17.02v1.08h-1.44c-1.62,0-2.8.48-3.54,1.44-.49.62-.73,2.13-.73,4.51v25.66c0,2.01.13,3.34.38,3.98.19.49.6.91,1.23,1.26.84.47,1.73.7,2.67.7h1.44Z"/>
      <path class="cls-13" d="m587.84,828.3l.44,9.32h-1.11c-.21-1.64-.51-2.81-.88-3.52-.61-1.13-1.41-1.97-2.42-2.51s-2.33-.8-3.97-.8h-5.6v30.35c0,2.44.26,3.96.79,4.57.74.82,1.88,1.23,3.43,1.23h1.38v1.08h-16.85v-1.08h1.41c1.68,0,2.87-.51,3.57-1.52.43-.62.64-2.05.64-4.28v-30.35h-4.78c-1.86,0-3.17.14-3.96.41-1.02.37-1.88,1.08-2.61,2.14s-1.15,2.48-1.29,4.28h-1.11l.47-9.32h32.43Z"/>
      <path class="cls-13" d="m608.89,866.94v1.08h-17.02v-1.08h1.41c1.64,0,2.83-.48,3.57-1.44.47-.62.7-2.13.7-4.51v-25.66c0-2.01-.13-3.34-.38-3.98-.2-.49-.6-.91-1.2-1.26-.86-.47-1.76-.7-2.7-.7h-1.41v-1.08h17.02v1.08h-1.44c-1.62,0-2.8.48-3.54,1.44-.49.62-.73,2.13-.73,4.51v25.66c0,2.01.13,3.34.38,3.98.19.49.6.91,1.23,1.26.84.47,1.73.7,2.67.7h1.44Z"/>
      <path class="cls-13" d="m623.49,830.47v15.7h8.73c2.27,0,3.78-.34,4.54-1.03,1.02-.9,1.58-2.48,1.7-4.75h1.08v13.83h-1.08c-.27-1.93-.55-3.17-.82-3.72-.35-.68-.93-1.22-1.73-1.61-.8-.39-2.03-.59-3.69-.59h-8.73v13.1c0,1.76.08,2.83.23,3.21.16.38.43.68.82.91.39.22,1.13.34,2.23.34h6.74c2.25,0,3.88-.16,4.89-.47,1.02-.31,1.99-.93,2.93-1.85,1.21-1.21,2.45-3.04,3.72-5.48h1.17l-3.43,9.96h-30.62v-1.08h1.41c.94,0,1.83-.22,2.67-.67.62-.31,1.05-.78,1.27-1.41.22-.62.34-1.9.34-3.84v-25.81c0-2.52-.25-4.07-.76-4.66-.7-.78-1.88-1.17-3.52-1.17h-1.41v-1.08h30.62l.44,8.7h-1.14c-.41-2.09-.86-3.53-1.36-4.31s-1.24-1.38-2.21-1.79c-.78-.29-2.16-.44-4.13-.44h-10.9Z"/>
      <path class="cls-13" d="m675.71,827.39v13.74h-1.08c-.35-2.64-.98-4.74-1.89-6.3s-2.2-2.8-3.88-3.72-3.42-1.38-5.21-1.38c-2.03,0-3.71.62-5.04,1.86s-1.99,2.65-1.99,4.23c0,1.21.42,2.31,1.26,3.31,1.21,1.46,4.09,3.42,8.64,5.86,3.71,1.99,6.25,3.52,7.6,4.58s2.4,2.32,3.13,3.77,1.1,2.96,1.1,4.54c0,3.01-1.17,5.6-3.5,7.78s-5.34,3.27-9.01,3.27c-1.15,0-2.24-.09-3.25-.26-.61-.1-1.86-.46-3.76-1.07s-3.11-.92-3.62-.92-.87.15-1.16.44-.49.9-.63,1.82h-1.08v-13.62h1.08c.51,2.85,1.19,4.98,2.05,6.4s2.17,2.59,3.94,3.53,3.71,1.41,5.82,1.41c2.44,0,4.37-.64,5.79-1.93s2.12-2.81,2.12-4.57c0-.98-.27-1.96-.81-2.96s-1.37-1.92-2.5-2.78c-.76-.59-2.84-1.83-6.24-3.74s-5.82-3.42-7.25-4.55-2.52-2.38-3.27-3.75-1.11-2.87-1.11-4.51c0-2.85,1.09-5.31,3.28-7.37s4.97-3.09,8.35-3.09c2.11,0,4.35.52,6.71,1.55,1.09.49,1.87.73,2.31.73.51,0,.92-.15,1.25-.46s.58-.91.78-1.83h1.08Z"/>
    </g>
  </g>
</svg>