<svg id="Layer_1" enable-background="new 0 0 512 498.7" height="512" viewBox="0 0 512 498.7" width="512" xmlns="http://www.w3.org/2000/svg" xmlns:xlink="http://www.w3.org/1999/xlink"><linearGradient id="lg1"><stop offset="0" stop-color="#4d526e"/><stop offset=".2727" stop-color="#434862"/><stop offset=".7668" stop-color="#292d42"/><stop offset="1" stop-color="#1b1e30"/></linearGradient><linearGradient id="SVGID_1_" gradientUnits="userSpaceOnUse" x1="171.516" x2="206.579" xlink:href="#lg1" y1="419.495" y2="490.643"/><linearGradient id="SVGID_2_" gradientUnits="userSpaceOnUse" x1="305.028" x2="483.497" xlink:href="#lg1" y1="19.962" y2="396.047"/><linearGradient id="SVGID_3_" gradientUnits="userSpaceOnUse" x1="298.971" x2="453.695" y1="219.235" y2="167.15"><stop offset=".00000133025" stop-color="#ff941f"/><stop offset=".2962" stop-color="#ffad2d"/><stop offset=".7497" stop-color="#ffcd3e"/><stop offset="1" stop-color="#ffd945"/></linearGradient><linearGradient id="lg2"><stop offset="0" stop-color="#ffd945"/><stop offset=".2503" stop-color="#ffcd3e"/><stop offset=".7038" stop-color="#ffad2d"/><stop offset="1" stop-color="#ff941f"/></linearGradient><linearGradient id="SVGID_4_" gradientUnits="userSpaceOnUse" x1="159.798" x2="226.437" xlink:href="#lg2" y1="152.877" y2="359.685"/><linearGradient id="lg3"><stop offset="0" stop-color="#ff5c5c"/><stop offset=".1773" stop-color="#fc5659"/><stop offset=".4166" stop-color="#f3454f"/><stop offset=".6911" stop-color="#e4293f"/><stop offset=".9899" stop-color="#cf0129"/><stop offset="1" stop-color="#ce0028"/></linearGradient><linearGradient id="SVGID_5_" gradientUnits="userSpaceOnUse" x1="71.203" x2="154.692" xlink:href="#lg3" y1="197.861" y2="391.648"/><linearGradient id="SVGID_6_" gradientUnits="userSpaceOnUse" x1="304.164" x2="351.653" xlink:href="#lg3" y1="178.353" y2="238.609"/><linearGradient id="SVGID_7_" gradientUnits="userSpaceOnUse" x1="10.05" x2="44.093" xlink:href="#lg1" y1="285.816" y2="364.454"/><linearGradient id="SVGID_8_" gradientUnits="userSpaceOnUse" x1="157.769" x2="170.365" xlink:href="#lg2" y1="385.477" y2="417.477"/><linearGradient id="SVGID_9_" gradientUnits="userSpaceOnUse" x1="79.553" x2="87.213" xlink:href="#lg2" y1="290.936" y2="311.361"/><linearGradient id="SVGID_10_" gradientUnits="userSpaceOnUse" x1="72.429" x2="79.578" xlink:href="#lg2" y1="230.682" y2="253.406"/><linearGradient id="SVGID_11_" gradientUnits="userSpaceOnUse" x1="113.317" x2="121.487" xlink:href="#lg2" y1="342.664" y2="364.111"/><g><path d="m216 487.7-16.8 10.1c-2.9 1.7-6.7.8-8.5-2.1l-42.9-71.9c8.6 1.1 17.5-.5 25.6-5.1 6.8-3.9 12.2-9.4 15.7-15.9 2.1 16 9 41.6 29.1 76.5 1.7 3 .7 6.7-2.2 8.4z" fill="url(#SVGID_1_)"/><path d="m491.5 150.8c38.1 102.7 21.7 203.5-36.7 225.1s-136.6-44-174.7-146.6-21.8-203.5 36.6-225.2 136.6 44 174.8 146.7z" fill="url(#SVGID_2_)"/><path d="m460.7 162.2c31.4 84.6 23.3 165.6-18.1 181s-100.4-40.7-131.8-125.3-23.3-165.6 18.1-181 100.4 40.7 131.8 125.3z" fill="url(#SVGID_3_)"/><path d="m280 229.3c-27.4-73.8-26.6-146.6-2.3-189.8-.3.4-.5.8-.8 1.2-17.5 25.7-38.5 49.2-61.6 70.1-35.9 32.6-77.9 57.2-123.2 74.4-12.3 4.6-23 9.8-32.3 19.4-28.8 29.2-31.4 76-17.7 113s46.2 70.8 87.2 74.2c13.3 1.1 24.8-1.9 37.1-6.4 45.5-16.6 93.4-25.4 141.9-24.1 31.1.8 62.3 4.8 92.4 12.9.5.1.9.2 1.4.4-46.6-16.9-94.7-71.5-122.1-145.3z" fill="url(#SVGID_4_)"/><path d="m122.9 287.6c-18.3-49.2-11.2-99 14.8-122.9-14.7 7.7-30 14.5-45.6 20.4-12.3 4.6-23 9.8-32.3 19.4-28.8 29.3-31.4 76.1-17.7 113.1s46.2 70.8 87.2 74.2c13.3 1.1 24.8-1.9 37.1-6.4 15.7-5.7 31.7-10.5 47.9-14.3-35.3-1.2-73.2-34.3-91.4-83.5z" fill="url(#SVGID_5_)"/><path d="m302.1 175.6c-1.2.5-2.4 1-3.6 1.5 3 13.3 7.1 27 12.2 40.7 5.1 13.8 10.9 26.8 17.3 38.8 1.2-.3 2.5-.7 3.7-1.2 22.1-8.2 33.3-32.7 25.1-54.8-8-22-32.6-33.2-54.7-25z" fill="url(#SVGID_6_)"/><path d="m34.2 277.6-7.9 2.9c-10.4 3.9-18.3 11.6-22.6 21-4.3 9.4-5 20.4-1.2 30.8 7.7 20.8 30.9 31.5 51.7 23.7l7.9-2.9c-8.6-10.8-15.4-22.9-20.1-35.5-4.5-12.6-7.3-26.3-7.8-40z" fill="url(#SVGID_7_)"/><path d="m166.5 385.4c-12.3 4.5-23.8 7.5-37.1 6.4-12.5-1.1-24.2-4.9-34.9-10.9 9.2 5.1 17 12.6 22.2 21.8l.3.5c11.3 19.9 36.6 26.8 56.5 15.5 10.4-5.9 17.3-15.7 19.8-26.5 2.4-10.3 10.1-18.5 20.4-21-16 3.8-31.8 8.5-47.2 14.2z" fill="url(#SVGID_8_)"/><path d="m61.9 310.2c-2.3-6.2.9-13 7-15.3l21.3-7.9c6.2-2.3 13 .9 15.3 7 2.3 6.2-.9 13-7 15.3l-21.3 7.9c-6.1 2.3-13-.8-15.3-7z" fill="url(#SVGID_9_)"/><path d="m53.8 248.9c-2.3-6.2.9-13 7-15.3l21.3-7.9c6.2-2.3 13 .9 15.3 7 2.3 6.2-.9 13-7 15.3l-21.3 7.9c-6.2 2.3-13-.9-15.3-7z" fill="url(#SVGID_10_)"/><path d="m95.8 362c-2.3-6.2.9-13 7-15.3l21.3-7.9c6.2-2.3 13 .9 15.3 7 2.3 6.2-.9 13-7 15.3l-21.3 7.9c-6.2 2.4-13-.8-15.3-7z" fill="url(#SVGID_11_)"/></g></svg>