<?xml version="1.0" encoding="UTF-8"?>
<svg id="_圖層_1" data-name="圖層 1" xmlns="http://www.w3.org/2000/svg" viewBox="0 0 900 900">
  <defs>
    <style>
      .cls-1 {
        fill: #f7e969;
      }

      .cls-2 {
        fill: #005daf;
      }

      .cls-3 {
        fill: #fdc072;
      }

      .cls-4 {
        fill: #ff6e80;
      }

      .cls-5 {
        fill: #3078c8;
      }

      .cls-6 {
        fill: #455c84;
      }

      .cls-7 {
        fill: #59d5ff;
      }

      .cls-8 {
        fill: #38d39a;
      }

      .cls-9 {
        fill: #4677d4;
      }
    </style>
  </defs>
  <g>
    <path class="cls-8" d="m524.36,294.1h-158.03l-2.47-67.74h136.49c13.26,0,24.02,10.75,24.02,24.02v43.73Z"/>
    <path class="cls-4" d="m594.56,361.94h-158.03v-70.23h138.95c10.54,0,19.09,8.55,19.09,19.09v51.14h0Z"/>
    <path class="cls-7" d="m645.67,427.19h-141.4v-67.74h141.4c10.54,0,19.09,8.55,19.09,19.09v29.57c0,10.54-8.55,19.09-19.09,19.09Z"/>
    <path class="cls-9" d="m504.26,359.45h-48.65v-48.65c0-10.54-8.55-19.09-19.09-19.09h-48.65v-41.33c0-13.26-10.75-24.02-24.02-24.02h-87.45c-13.26,0-24.02,10.75-24.02,24.02v157.72c0,10.54,8.55,19.09,19.09,19.09h232.79c10.54,0,19.09-8.55,19.09-19.09v-29.57c0-10.54-8.55-19.09-19.09-19.09h0Z"/>
    <path class="cls-2" d="m332.9,226.36h-56.49c-13.26,0-24.02,10.75-24.02,24.02v157.72c0,10.54,8.55,19.09,19.09,19.09h135.92c-80.89-28.59-113.64-129.36-74.49-200.83h0Z"/>
    <g>
      <path class="cls-1" d="m333.61,52.85c-9.19.9-19.55,3.41-28.69,6.43-12.31,4.07-17.17,19.02-9.6,29.55,5.61,7.8,12.5,15.9,19.39,22.03,2.23,1.98,3.26,5,2.62,7.91-1.99,9.03-2.81,19.67-2.76,29.3.06,12.97,12.79,22.21,25.14,18.26,9.18-2.93,19.05-7,27.02-11.68,2.55-1.5,5.7-1.5,8.25,0,7.97,4.68,17.84,8.75,27.02,11.68,12.35,3.95,25.07-5.3,25.14-18.26.05-9.64-.77-20.28-2.76-29.3-.64-2.91.39-5.93,2.62-7.91,6.89-6.13,13.78-14.23,19.39-22.03,7.57-10.53,2.71-25.48-9.6-29.55-9.14-3.02-19.49-5.53-28.69-6.43-2.95-.29-5.54-2.17-6.73-4.89-3.7-8.46-9.28-17.54-14.98-25.3-7.67-10.45-23.4-10.45-31.07,0-5.69,7.76-11.28,16.83-14.98,25.3-1.19,2.72-3.78,4.6-6.73,4.89Z"/>
      <path class="cls-3" d="m424.64,157.43c-84.61-25.69-80.49-98.79-73.65-128.58-4.11,6.18-7.9,12.81-10.65,19.11-1.19,2.72-3.78,4.6-6.73,4.89-9.19.9-19.55,3.41-28.69,6.43-12.31,4.07-17.17,19.02-9.6,29.55,5.61,7.8,12.5,15.9,19.39,22.03,2.23,1.98,3.26,5,2.62,7.91-1.99,9.03-2.81,19.67-2.76,29.3.06,12.97,12.79,22.21,25.14,18.26,9.18-2.93,19.05-7,27.02-11.68,2.55-1.5,5.7-1.5,8.25,0,7.97,4.68,17.84,8.75,27.02,11.68,9.07,2.9,18.33-1.32,22.64-8.9h0Z"/>
    </g>
  </g>
  <g>
    <g>
      <path class="cls-6" d="m271.88,608.78s10.19,8.23,16.33,13.82c-.42,1.54-1.81,2.23-3.91,2.23h-29.17v61.41c0,1.81-7.26,5.86-13.54,5.86h-3.07v-67.27h-30.43c-1.26,24.56-8.65,51.22-45.92,67.27l-.98-1.4c23.87-18.98,29.73-42.01,30.71-65.88h-33.78l-1.26-3.91h35.17v-36.71c-9.77,1.81-19.96,3.21-29.73,4.05l-.56-1.95c20.1-5.72,44.24-16.47,56.25-24.56l16.47,13.96c-1.4,1.4-4.33,1.54-8.51.14-5.02,1.67-11.03,3.35-17.59,4.88v34.89c0,1.81,0,3.49-.14,5.3h30.29v-58.48l21.77,2.09c-.42,1.95-1.4,3.35-5.16,3.91v52.48h7.54l9.21-12.14Z"/>
      <path class="cls-6" d="m329.65,618.13c1.26,8.1-1.12,14.52-7.4,17.31-10.61,4.47-17.73-8.93-6-15.07,3.91-1.95,7.68-7.26,7.54-15.21l1.67-.14c1.54,3.21,2.65,6.28,3.49,9.21h1.95l-1.4-47.04,12.7,2.51c4.33-3.07,8.65-6.56,11.03-8.79l11.17,8.51.42-.42c4.19.14,7.82.7,10.75,1.4,2.09-2.79,3.77-5.72,5.02-8.37l12.84,6.56c-.56,1.26-1.95,1.54-4.47.98-1.26,1.67-2.93,3.21-4.75,4.88,6.98,5.58,3.77,12.98-2.79,10.75-1.12-1.54-2.79-3.35-4.61-5.02-4.61,3.07-9.77,5.86-14.66,7.82l-.28-.42c-.42,1.12-1.67,1.54-3.21,1.54h-14.24l.42,10.75h3.21l5.16-6.84s5.86,4.88,9.49,8.65c-.42,1.54-1.67,2.23-3.49,2.23h-14.38l.42,10.33h60.02l.42-10.33h-11.45l-1.12-4.05h12.84l.42-10.75h-11.58l-1.26-3.91h13.12l.56-10.89h-13.82l-1.12-4.05h13.68l6.14-7.26,14.66,11.17c-1.12,1.12-2.23,1.67-4.88,1.95l-1.81,36.71,7.12-6.98,14.52,13.96c-1.12,1.12-2.51,1.4-5.3,1.54-5.3,3.21-14.24,7.82-20.1,10.47l-1.26-.98c1.12-3.21,2.79-8.51,4.05-12.7h-89.47Zm92.68,24.29s9.77,8.09,15.49,13.54c-.42,1.54-1.81,2.23-3.91,2.23h-49.69v14.52c0,11.45-2.51,17.73-21.35,19.4-.42-5.16-1.26-8.79-3.49-11.45-2.23-2.51-5.44-4.33-12.84-5.44v-1.95s15.77.98,18.84.98c2.09,0,2.79-.56,2.79-2.37v-13.68h-53.46l-1.12-4.05h54.57v-11.17l12.42,1.12c3.49-3.07,7.12-6.56,10.05-9.63h-49.83l-1.26-4.05h53.32l8.79-8.38,15.07,13.26c-1.26,1.12-2.65,1.54-5.72,1.67-6.14,2.37-14.24,5.44-22.19,7.82-.28,2.09-1.68,3.07-4.61,3.49v5.86h29.31l8.79-11.72Zm-69.51-63.65s4.75,3.63,8.23,6.98c3.63-2.79,7.26-6.42,10.47-10.19-2.23-1.67-4.61-3.21-6.7-4.47-.84.28-2.09.14-3.49-.28-3.91,1.26-10.47,2.65-17.31,3.63l.28,10.75h3.49l5.02-6.42Zm42.71,13.96c-.7,1.4-2.23,1.67-4.47,1.12-1.4,1.95-3.35,3.77-5.44,5.72,7.12,6.42,3.35,14.52-3.77,11.58-.98-1.81-2.37-3.91-4.19-5.86-5.3,3.35-11.31,6.14-17.17,7.96l-1.12-2.09c4.61-2.93,9.21-6.7,13.12-10.89-2.79-2.37-5.86-4.61-8.51-6.28l1.4-1.4c4.75.42,8.65,1.12,11.86,2.23,2.23-2.65,3.91-5.58,5.3-8.24l12.98,6.14Z"/>
      <path class="cls-6" d="m560.92,627.35c24.56,3.21,27.64,12.28,23.87,17.31,3.07,2.51,7.26,6.14,10.47,9.07-.42,1.54-1.81,2.23-3.77,2.23h-30.29v17.59c0,10.89-2.37,16.89-20.52,18.56-.42-4.75-1.12-8.51-3.35-10.75-2.23-2.37-5.58-4.19-12.7-5.3v-1.95s15.49.98,18.42.98c2.23,0,2.93-.7,2.93-2.37v-16.75h-80.25l-1.12-4.05h81.37v-10.61l19.96,1.68c-.28,2.09-1.67,3.07-4.75,3.63v5.3h11.86l3.21-4.33c-1.68-.28-3.35-1.12-4.75-2.65-1.67-2.65-4.05-5.58-7.54-8.37-18.7,2.93-44.1,6-80.39,9.91-1.12,1.67-2.65,2.65-4.05,2.93l-7.82-16.47c10.33.28,28.05.28,49.69.28v-9.77h-21.49v1.12c0,1.26-6.7,4.33-12.98,4.33h-2.09v-46.06l16.05,6.28h20.52v-10.05h-52.9l-1.26-3.91h54.15v-14.1l20.66,1.81c-.28,1.95-1.54,3.35-5.16,3.91v8.38h31.4l8.23-10.89s9.35,7.4,14.93,12.56c-.42,1.54-1.95,2.23-3.91,2.23h-50.66v10.05h21.35l7.12-7.68,15.07,11.17c-.84,1.12-2.93,2.23-5.58,2.93v27.64c-.14,1.26-7.54,4.19-12.7,4.19h-1.26Zm-72.58,31.26c41.17-.28,31.82,30.57,15.91,22.33-2.65-7.96-10.19-16.61-17.03-21.35l1.12-.98Zm11.58-65.6v11.3h21.49v-11.3h-21.49Zm21.49,26.52v-11.31h-21.49v11.31h21.49Zm15.49-26.52v11.3h22.75v-11.3h-22.75Zm22.75,15.21h-22.75v11.31h22.75v-11.31Zm-.56,24.84c-2.79-1.81-6.14-3.49-10.05-4.88l.56-1.81c3.63.14,6.98.42,10.05.84v-3.77h-22.75v9.77l22.19-.14Z"/>
      <path class="cls-6" d="m735.8,672.57c7.82,1.4,9.63,3.63,9.63,6.42,0,7.68-9.35,9.07-56.39,9.07h-30.85c-22.61,0-32.66-2.37-32.66-18.28v-94.77h-4.89l-1.26-3.91h98.68l8.37-11.17s9.35,7.68,15.07,12.84c-.42,1.54-1.95,2.23-3.91,2.23h-97v92.68c0,6.28,3.77,8.23,15.91,8.23h33.78c12,0,22.75-.28,26.94-.7,2.65-.14,6-.56,8.23-.84,1.95-.28,4.88-.98,7.96-1.95h1.54l.84.14Zm-62.39-3.77v-6.84h-11.58v5.86c0,1.12-5.86,4.19-11.44,4.19h-1.95v-47.31l13.96,5.58h9.77l6.28-6.56,13.12,9.91c-.7.84-2.37,1.95-4.61,2.23v29.31c-.14.98-6.84,3.63-11.31,3.63h-2.23Zm31.54-54.01h-27.77v3.91c0,1.4-6.98,4.75-13.26,4.75h-2.23v-43.27l16.19,6.28h25.82l7.12-7.68,14.93,11.31c-.84.98-2.51,2.09-5.02,2.65v24.56c-.14.98-8.1,3.77-12.98,3.77h-2.79v-6.28Zm-31.54,43.13v-23.59h-11.58v23.59h11.58Zm31.54-47.17v-20.24h-27.77v20.24h27.77Zm15.35,57.5v-6.28h-12v3.63c0,1.26-6,4.19-11.58,4.19h-1.95v-45.08l14.1,5.58h10.19l6.42-6.7,13.4,10.19c-.7.84-2.37,1.81-4.61,2.23v28.61c-.14.84-7.12,3.63-11.58,3.63h-2.37Zm0-10.33v-23.59h-12v23.59h12Z"/>
    </g>
    <g>
      <path class="cls-5" d="m257.78,777.49v11.57c0,2.5.27,4.05.82,4.66.74.86,1.87,1.29,3.37,1.29h1.52v1.08h-17.02v-1.08h1.49c1.68,0,2.88-.55,3.6-1.64.39-.61.59-2.04.59-4.31v-25.66c0-2.5-.26-4.05-.79-4.66-.76-.86-1.89-1.29-3.4-1.29h-1.49v-1.08h14.56c3.55,0,6.36.37,8.41,1.1s3.78,1.97,5.19,3.71,2.11,3.8,2.11,6.18c0,3.24-1.07,5.88-3.21,7.91s-5.16,3.05-9.07,3.05c-.96,0-1.99-.07-3.11-.21s-2.3-.34-3.57-.62Zm0-1.67c1.04.2,1.95.34,2.75.44s1.48.15,2.05.15c2.03,0,3.78-.79,5.26-2.36s2.21-3.61,2.21-6.11c0-1.72-.35-3.32-1.05-4.79s-1.7-2.58-2.99-3.31-2.75-1.1-4.39-1.1c-1,0-2.28.19-3.84.56v16.52Z"/>
      <path class="cls-5" d="m301.39,782.79h-15.38l-2.7,6.27c-.66,1.54-1,2.7-1,3.46,0,.61.29,1.14.86,1.6.58.46,1.82.76,3.74.89v1.08h-12.51v-1.08c1.66-.29,2.73-.67,3.22-1.14,1-.94,2.1-2.84,3.31-5.71l13.97-32.7h1.03l13.83,33.05c1.11,2.66,2.12,4.38,3.03,5.17s2.17,1.24,3.79,1.33v1.08h-15.67v-1.08c1.58-.08,2.65-.34,3.21-.79s.83-1,.83-1.64c0-.86-.39-2.22-1.17-4.07l-2.4-5.71Zm-.82-2.17l-6.74-16.05-6.91,16.05h13.65Z"/>
      <path class="cls-5" d="m345.93,756.36l.44,9.32h-1.11c-.22-1.64-.51-2.81-.88-3.52-.61-1.13-1.41-1.97-2.42-2.5-1.01-.54-2.33-.81-3.97-.81h-5.6v30.35c0,2.44.26,3.96.79,4.57.74.82,1.88,1.23,3.43,1.23h1.38v1.08h-16.85v-1.08h1.41c1.68,0,2.87-.51,3.57-1.52.43-.62.64-2.05.64-4.28v-30.35h-4.78c-1.86,0-3.17.14-3.96.41-1.02.37-1.89,1.08-2.61,2.14-.72,1.05-1.15,2.48-1.29,4.28h-1.11l.47-9.32h32.43Z"/>
      <path class="cls-5" d="m360.8,774.79h18.46v-11.37c0-2.03-.13-3.37-.38-4.01-.2-.49-.61-.91-1.23-1.26-.84-.47-1.73-.7-2.67-.7h-1.41v-1.08h16.99v1.08h-1.41c-.94,0-1.83.22-2.67.67-.62.31-1.05.79-1.27,1.42s-.34,1.93-.34,3.88v25.63c0,2.01.13,3.34.38,3.98.2.49.6.91,1.2,1.26.86.47,1.76.7,2.7.7h1.41v1.08h-16.99v-1.08h1.41c1.62,0,2.8-.48,3.54-1.44.49-.62.73-2.13.73-4.51v-12.1h-18.46v12.1c0,2.01.13,3.34.38,3.98.2.49.61.91,1.23,1.26.84.47,1.73.7,2.67.7h1.44v1.08h-17.02v-1.08h1.41c1.64,0,2.83-.48,3.57-1.44.47-.62.7-2.13.7-4.51v-25.63c0-2.03-.13-3.37-.38-4.01-.2-.49-.6-.91-1.2-1.26-.86-.47-1.76-.7-2.7-.7h-1.41v-1.08h17.02v1.08h-1.44c-.94,0-1.83.22-2.67.67-.61.31-1.03.79-1.26,1.42s-.35,1.93-.35,3.88v11.37Z"/>
      <path class="cls-5" d="m448.56,756.36v1.08c-1.04,0-1.88.19-2.52.56s-1.26,1.06-1.85,2.08c-.39.68-1.01,2.31-1.85,4.89l-11.07,32.02h-1.17l-9.05-25.4-8.99,25.4h-1.05l-11.81-32.99c-.88-2.46-1.44-3.92-1.67-4.37-.39-.74-.92-1.29-1.6-1.66s-1.59-.54-2.74-.54v-1.08h14.71v1.08h-.7c-1.04,0-1.83.23-2.37.7-.55.47-.82,1.04-.82,1.7s.43,2.26,1.29,4.72l7.82,22.29,6.59-18.96-1.17-3.34-.94-2.67c-.41-.98-.87-1.84-1.38-2.58-.25-.37-.57-.68-.94-.94-.49-.35-.98-.61-1.46-.76-.37-.12-.96-.18-1.76-.18v-1.08h15.47v1.08h-1.05c-1.09,0-1.9.23-2.4.7-.51.47-.76,1.1-.76,1.9,0,1,.44,2.73,1.32,5.21l7.62,21.59,7.56-21.88c.86-2.42,1.29-4.1,1.29-5.04,0-.45-.14-.87-.42-1.26-.28-.39-.64-.66-1.07-.82-.74-.27-1.71-.41-2.9-.41v-1.08h11.87Z"/>
      <path class="cls-5" d="m470.43,782.79h-15.38l-2.7,6.27c-.66,1.54-1,2.7-1,3.46,0,.61.29,1.14.86,1.6s1.82.76,3.74.89v1.08h-12.51v-1.08c1.66-.29,2.73-.67,3.22-1.14,1-.94,2.1-2.84,3.31-5.71l13.97-32.7h1.03l13.83,33.05c1.11,2.66,2.12,4.38,3.03,5.17s2.17,1.24,3.79,1.33v1.08h-15.67v-1.08c1.58-.08,2.65-.34,3.21-.79s.83-1,.83-1.64c0-.86-.39-2.22-1.17-4.07l-2.4-5.71Zm-.82-2.17l-6.74-16.05-6.91,16.05h13.65Z"/>
      <path class="cls-5" d="m509.99,756.36h13.86v1.08h-.76c-.51,0-1.25.22-2.23.67-.98.45-1.87,1.09-2.67,1.93-.8.84-1.79,2.21-2.96,4.1l-9.58,15.09v9.96c0,2.44.27,3.96.82,4.57.74.82,1.91,1.23,3.52,1.23h1.29v1.08h-16.88v-1.08h1.41c1.68,0,2.87-.51,3.57-1.52.43-.62.64-2.05.64-4.28v-9.4l-10.9-16.64c-1.29-1.95-2.16-3.17-2.62-3.66-.46-.49-1.41-1.07-2.86-1.76-.39-.2-.96-.29-1.7-.29v-1.08h16.99v1.08h-.88c-.92,0-1.76.21-2.53.64-.77.43-1.16,1.07-1.16,1.93,0,.7.6,1.97,1.79,3.81l8.29,12.8,7.79-12.25c1.17-1.84,1.76-3.2,1.76-4.1,0-.55-.14-1.04-.42-1.46-.28-.43-.69-.77-1.22-1.01s-1.32-.37-2.37-.37v-1.08Z"/>
      <path class="cls-5" d="m552.84,755.46v13.74h-1.08c-.35-2.64-.98-4.74-1.89-6.3s-2.2-2.8-3.88-3.72c-1.68-.92-3.42-1.38-5.21-1.38-2.03,0-3.71.62-5.04,1.86-1.33,1.24-1.99,2.65-1.99,4.23,0,1.21.42,2.31,1.26,3.31,1.21,1.46,4.09,3.42,8.64,5.86,3.71,1.99,6.24,3.52,7.6,4.58,1.36,1.06,2.4,2.32,3.13,3.76s1.1,2.96,1.1,4.54c0,3.01-1.17,5.6-3.5,7.78-2.33,2.18-5.34,3.27-9.01,3.27-1.15,0-2.24-.09-3.25-.26-.61-.1-1.86-.45-3.76-1.07s-3.11-.92-3.62-.92-.87.15-1.16.44c-.28.29-.49.9-.63,1.82h-1.08v-13.62h1.08c.51,2.85,1.19,4.99,2.05,6.4.86,1.42,2.17,2.59,3.94,3.53,1.77.94,3.71,1.41,5.82,1.41,2.44,0,4.37-.64,5.79-1.93,1.42-1.29,2.12-2.81,2.12-4.57,0-.98-.27-1.96-.81-2.96-.54-1-1.37-1.92-2.5-2.78-.76-.59-2.84-1.83-6.24-3.74s-5.82-3.42-7.25-4.56-2.52-2.38-3.27-3.75c-.74-1.37-1.11-2.87-1.11-4.51,0-2.85,1.09-5.31,3.28-7.37,2.19-2.06,4.97-3.09,8.35-3.09,2.11,0,4.35.52,6.71,1.55,1.09.49,1.86.73,2.31.73.51,0,.92-.15,1.25-.45s.58-.91.78-1.83h1.08Z"/>
      <path class="cls-5" d="m608.53,756.36l.44,9.32h-1.11c-.22-1.64-.51-2.81-.88-3.52-.61-1.13-1.41-1.97-2.42-2.5-1.01-.54-2.33-.81-3.97-.81h-5.6v30.35c0,2.44.26,3.96.79,4.57.74.82,1.88,1.23,3.43,1.23h1.38v1.08h-16.85v-1.08h1.41c1.68,0,2.87-.51,3.57-1.52.43-.62.64-2.05.64-4.28v-30.35h-4.78c-1.86,0-3.17.14-3.96.41-1.02.37-1.89,1.08-2.61,2.14-.72,1.05-1.15,2.48-1.29,4.28h-1.11l.47-9.32h32.43Z"/>
      <path class="cls-5" d="m631.92,755.46c5.16,0,9.62,1.96,13.4,5.87s5.67,8.8,5.67,14.66-1.9,11.04-5.71,15.03-8.42,5.98-13.83,5.98-10.06-1.94-13.78-5.83-5.58-8.92-5.58-15.09,2.15-11.46,6.45-15.44c3.73-3.46,8.19-5.19,13.39-5.19Zm-.56,2.14c-3.55,0-6.41,1.32-8.55,3.96-2.68,3.28-4.01,8.09-4.01,14.41s1.39,11.47,4.16,14.97c2.13,2.66,4.94,3.98,8.44,3.98,3.73,0,6.81-1.46,9.24-4.37s3.65-7.5,3.65-13.77c0-6.8-1.34-11.87-4.01-15.21-2.15-2.66-5.12-3.98-8.91-3.98Z"/>
      <path class="cls-5" d="m164.75,846.79h18.46v-11.37c0-2.03-.13-3.37-.38-4.01-.2-.49-.61-.91-1.23-1.26-.84-.47-1.73-.7-2.67-.7h-1.41v-1.08h16.99v1.08h-1.41c-.94,0-1.83.22-2.67.67-.62.31-1.05.79-1.27,1.42s-.34,1.93-.34,3.88v25.63c0,2.01.13,3.34.38,3.98.2.49.6.91,1.2,1.26.86.47,1.76.7,2.7.7h1.41v1.08h-16.99v-1.08h1.41c1.62,0,2.8-.48,3.54-1.44.49-.62.73-2.13.73-4.51v-12.1h-18.46v12.1c0,2.01.13,3.34.38,3.98.2.49.61.91,1.23,1.26.84.47,1.73.7,2.67.7h1.44v1.08h-17.02v-1.08h1.41c1.64,0,2.83-.48,3.57-1.44.47-.62.7-2.13.7-4.51v-25.63c0-2.03-.13-3.37-.38-4.01-.2-.49-.6-.91-1.2-1.26-.86-.47-1.76-.7-2.7-.7h-1.41v-1.08h17.02v1.08h-1.44c-.94,0-1.83.22-2.67.67-.61.31-1.03.79-1.26,1.42s-.35,1.93-.35,3.88v11.37Z"/>
      <path class="cls-5" d="m214.87,867.01v1.08h-17.02v-1.08h1.41c1.64,0,2.83-.48,3.57-1.44.47-.62.7-2.13.7-4.51v-25.66c0-2.01-.13-3.34-.38-3.98-.2-.49-.6-.91-1.2-1.26-.86-.47-1.76-.7-2.7-.7h-1.41v-1.08h17.02v1.08h-1.44c-1.62,0-2.8.48-3.54,1.44-.49.62-.73,2.13-.73,4.51v25.66c0,2.01.13,3.34.38,3.98.19.49.6.91,1.23,1.26.84.47,1.73.7,2.67.7h1.44Z"/>
      <path class="cls-5" d="m253.76,827.46l1.03,12.54h-1.03c-1.04-3.12-2.37-5.48-4.01-7.06-2.36-2.29-5.4-3.43-9.11-3.43-5.06,0-8.91,2-11.54,6.01-2.21,3.38-3.31,7.4-3.31,12.07,0,3.79.73,7.25,2.2,10.37s3.38,5.42,5.76,6.87,4.81,2.18,7.31,2.18c1.46,0,2.88-.19,4.25-.56,1.37-.37,2.69-.92,3.96-1.64v-11.48c0-1.99-.15-3.3-.45-3.91-.3-.62-.77-1.08-1.41-1.41-.64-.32-1.75-.48-3.35-.48v-1.11h15.38v1.11h-.73c-1.52,0-2.57.51-3.13,1.52-.39.72-.59,2.15-.59,4.28v12.16c-2.25,1.21-4.46,2.1-6.65,2.67-2.19.57-4.62.85-7.29.85-7.68,0-13.51-2.46-17.49-7.38-2.99-3.69-4.48-7.95-4.48-12.77,0-3.5.84-6.85,2.52-10.05,1.99-3.81,4.73-6.74,8.2-8.79,2.91-1.7,6.35-2.55,10.31-2.55,1.44,0,2.76.12,3.94.35,1.18.23,2.86.75,5.02,1.55,1.09.41,1.83.62,2.2.62s.69-.17.95-.51.42-1.01.48-2.01h1.08Z"/>
      <path class="cls-5" d="m273.2,846.79h18.46v-11.37c0-2.03-.13-3.37-.38-4.01-.2-.49-.61-.91-1.23-1.26-.84-.47-1.73-.7-2.67-.7h-1.41v-1.08h16.99v1.08h-1.41c-.94,0-1.83.22-2.67.67-.62.31-1.05.79-1.27,1.42s-.34,1.93-.34,3.88v25.63c0,2.01.13,3.34.38,3.98.2.49.6.91,1.2,1.26.86.47,1.76.7,2.7.7h1.41v1.08h-16.99v-1.08h1.41c1.62,0,2.8-.48,3.54-1.44.49-.62.73-2.13.73-4.51v-12.1h-18.46v12.1c0,2.01.13,3.34.38,3.98.2.49.61.91,1.23,1.26.84.47,1.73.7,2.67.7h1.44v1.08h-17.02v-1.08h1.41c1.64,0,2.83-.48,3.57-1.44.47-.62.7-2.13.7-4.51v-25.63c0-2.03-.13-3.37-.38-4.01-.2-.49-.6-.91-1.2-1.26-.86-.47-1.76-.7-2.7-.7h-1.41v-1.08h17.02v1.08h-1.44c-.94,0-1.83.22-2.67.67-.61.31-1.03.79-1.26,1.42s-.35,1.93-.35,3.88v11.37Z"/>
      <path class="cls-5" d="m317.33,830.53v15.7h8.73c2.27,0,3.78-.34,4.54-1.03,1.02-.9,1.58-2.48,1.7-4.75h1.08v13.83h-1.08c-.27-1.93-.55-3.17-.82-3.72-.35-.68-.93-1.22-1.73-1.61-.8-.39-2.03-.59-3.69-.59h-8.73v13.1c0,1.76.08,2.83.23,3.21.16.38.43.68.82.91.39.22,1.13.34,2.23.34h6.74c2.25,0,3.88-.16,4.89-.47,1.02-.31,1.99-.93,2.93-1.85,1.21-1.21,2.45-3.04,3.72-5.48h1.17l-3.43,9.96h-30.62v-1.08h1.41c.94,0,1.83-.22,2.67-.67.62-.31,1.05-.78,1.27-1.41.22-.62.34-1.9.34-3.84v-25.81c0-2.52-.25-4.07-.76-4.66-.7-.78-1.88-1.17-3.52-1.17h-1.41v-1.08h30.62l.44,8.7h-1.14c-.41-2.09-.86-3.53-1.36-4.31s-1.24-1.38-2.21-1.79c-.78-.29-2.16-.44-4.13-.44h-10.9Z"/>
      <path class="cls-5" d="m382.59,868.09h-10.61l-13.45-18.57c-1,.04-1.81.06-2.43.06-.25,0-.53,0-.82-.01s-.6-.02-.91-.04v11.54c0,2.5.27,4.05.82,4.66.74.86,1.86,1.29,3.34,1.29h1.55v1.08h-17.02v-1.08h1.49c1.68,0,2.88-.55,3.6-1.64.41-.61.62-2.04.62-4.31v-25.66c0-2.5-.27-4.05-.82-4.66-.76-.86-1.89-1.29-3.4-1.29h-1.49v-1.08h14.47c4.22,0,7.33.31,9.33.92s3.7,1.75,5.1,3.4,2.09,3.62,2.09,5.9c0,2.44-.8,4.56-2.39,6.36s-4.06,3.07-7.4,3.81l8.2,11.4c1.88,2.62,3.49,4.36,4.83,5.21s3.11,1.41,5.27,1.64v1.08Zm-28.21-20.42c.37,0,.69,0,.97.01s.5.01.67.01c3.79,0,6.65-.82,8.57-2.46s2.89-3.73,2.89-6.27-.78-4.5-2.33-6.05-3.61-2.33-6.17-2.33c-1.13,0-2.67.19-4.6.56v16.52Z"/>
      <path class="cls-5" d="m410.8,830.53v15.7h8.73c2.27,0,3.78-.34,4.54-1.03,1.02-.9,1.58-2.48,1.7-4.75h1.08v13.83h-1.08c-.27-1.93-.55-3.17-.82-3.72-.35-.68-.93-1.22-1.73-1.61-.8-.39-2.03-.59-3.69-.59h-8.73v13.1c0,1.76.08,2.83.23,3.21.16.38.43.68.82.91.39.22,1.13.34,2.23.34h6.74c2.25,0,3.88-.16,4.89-.47,1.02-.31,1.99-.93,2.93-1.85,1.21-1.21,2.45-3.04,3.72-5.48h1.17l-3.43,9.96h-30.62v-1.08h1.41c.94,0,1.83-.22,2.67-.67.62-.31,1.05-.78,1.27-1.41.22-.62.34-1.9.34-3.84v-25.81c0-2.52-.25-4.07-.76-4.66-.7-.78-1.88-1.17-3.52-1.17h-1.41v-1.08h30.62l.44,8.7h-1.14c-.41-2.09-.86-3.53-1.36-4.31s-1.24-1.38-2.21-1.79c-.78-.29-2.16-.44-4.13-.44h-10.9Z"/>
      <path class="cls-5" d="m436.54,868.09v-1.08h1.49c1.68,0,2.87-.54,3.57-1.61.43-.64.64-2.09.64-4.34v-25.66c0-2.48-.27-4.03-.82-4.66-.76-.86-1.89-1.29-3.4-1.29h-1.49v-1.08h16.17c5.94,0,10.45.67,13.55,2.02s5.59,3.59,7.47,6.74,2.83,6.78,2.83,10.9c0,5.53-1.68,10.15-5.04,13.86-3.77,4.14-9.51,6.21-17.23,6.21h-17.75Zm11.34-2.87c2.48.55,4.56.82,6.24.82,4.53,0,8.29-1.59,11.28-4.78s4.48-7.5,4.48-12.95-1.49-9.81-4.48-12.98-6.83-4.75-11.51-4.75c-1.76,0-3.76.28-6.01.85v33.78Z"/>
      <path class="cls-5" d="m508.07,829.45v-1.08h14.06v1.08h-1.49c-1.56,0-2.76.65-3.6,1.96-.41.61-.62,2.01-.62,4.22v16.11c0,3.98-.4,7.08-1.19,9.27s-2.34,4.08-4.66,5.65-5.46,2.36-9.45,2.36c-4.34,0-7.63-.75-9.87-2.26-2.25-1.5-3.84-3.53-4.78-6.06-.63-1.74-.94-5-.94-9.79v-15.53c0-2.44-.34-4.04-1.01-4.8s-1.76-1.14-3.27-1.14h-1.49v-1.08h17.17v1.08h-1.52c-1.64,0-2.81.52-3.52,1.55-.49.7-.73,2.17-.73,4.39v17.31c0,1.54.14,3.31.42,5.3.28,1.99.8,3.54,1.54,4.66.74,1.11,1.81,2.03,3.21,2.75,1.4.72,3.11,1.08,5.14,1.08,2.6,0,4.92-.57,6.97-1.7s3.45-2.58,4.2-4.35c.75-1.77,1.13-4.76,1.13-8.98v-16.08c0-2.48-.27-4.03-.82-4.66-.76-.86-1.9-1.29-3.4-1.29h-1.49Z"/>
      <path class="cls-5" d="m559.5,827.46l.91,13.51h-.91c-1.21-4.04-2.94-6.95-5.19-8.73s-4.94-2.67-8.09-2.67c-2.64,0-5.02.67-7.15,2.01s-3.8,3.47-5.02,6.4-1.83,6.57-1.83,10.93c0,3.59.58,6.71,1.73,9.35s2.89,4.66,5.2,6.06,4.96,2.11,7.92,2.11c2.58,0,4.85-.55,6.83-1.66s4.14-3.3,6.5-6.58l.91.59c-1.99,3.54-4.32,6.12-6.97,7.76s-5.81,2.46-9.46,2.46c-6.58,0-11.68-2.44-15.29-7.32-2.7-3.63-4.04-7.91-4.04-12.83,0-3.96.89-7.61,2.67-10.93s4.22-5.89,7.34-7.72,6.52-2.74,10.21-2.74c2.87,0,5.7.7,8.5,2.11.82.43,1.41.64,1.76.64.53,0,.99-.19,1.38-.56.51-.53.87-1.26,1.08-2.2h1.03Z"/>
      <path class="cls-5" d="m591.44,854.79h-15.38l-2.7,6.27c-.66,1.54-1,2.7-1,3.46,0,.61.29,1.14.86,1.6s1.82.76,3.74.89v1.08h-12.51v-1.08c1.66-.29,2.73-.67,3.22-1.14,1-.94,2.1-2.84,3.31-5.71l13.97-32.7h1.03l13.83,33.05c1.11,2.66,2.12,4.38,3.03,5.17s2.17,1.24,3.79,1.33v1.08h-15.67v-1.08c1.58-.08,2.65-.34,3.21-.79s.83-1,.83-1.64c0-.86-.39-2.22-1.17-4.07l-2.4-5.71Zm-.82-2.17l-6.74-16.05-6.91,16.05h13.65Z"/>
      <path class="cls-5" d="m635.99,828.36l.44,9.32h-1.11c-.22-1.64-.51-2.81-.88-3.52-.61-1.13-1.41-1.97-2.42-2.5-1.01-.54-2.33-.81-3.97-.81h-5.6v30.35c0,2.44.26,3.96.79,4.57.74.82,1.88,1.23,3.43,1.23h1.38v1.08h-16.85v-1.08h1.41c1.68,0,2.87-.51,3.57-1.52.43-.62.64-2.05.64-4.28v-30.35h-4.78c-1.86,0-3.17.14-3.96.41-1.02.37-1.89,1.08-2.61,2.14-.72,1.05-1.15,2.48-1.29,4.28h-1.11l.47-9.32h32.43Z"/>
      <path class="cls-5" d="m657.04,867.01v1.08h-17.02v-1.08h1.41c1.64,0,2.83-.48,3.57-1.44.47-.62.7-2.13.7-4.51v-25.66c0-2.01-.13-3.34-.38-3.98-.2-.49-.6-.91-1.2-1.26-.86-.47-1.76-.7-2.7-.7h-1.41v-1.08h17.02v1.08h-1.44c-1.62,0-2.8.48-3.54,1.44-.49.62-.73,2.13-.73,4.51v25.66c0,2.01.13,3.34.38,3.98.2.49.61.91,1.23,1.26.84.47,1.73.7,2.67.7h1.44Z"/>
      <path class="cls-5" d="m681.05,827.46c5.16,0,9.62,1.96,13.4,5.87s5.67,8.8,5.67,14.66-1.9,11.04-5.71,15.03-8.42,5.98-13.83,5.98-10.06-1.94-13.78-5.83-5.58-8.92-5.58-15.09,2.15-11.46,6.45-15.44c3.73-3.46,8.19-5.19,13.39-5.19Zm-.56,2.14c-3.56,0-6.41,1.32-8.55,3.96-2.68,3.28-4.01,8.09-4.01,14.41s1.39,11.47,4.16,14.97c2.13,2.66,4.94,3.98,8.44,3.98,3.73,0,6.81-1.46,9.24-4.37s3.65-7.5,3.65-13.77c0-6.8-1.34-11.87-4.01-15.21-2.15-2.66-5.12-3.98-8.91-3.98Z"/>
      <path class="cls-5" d="m702.24,828.36h10.78l24.29,29.79v-22.91c0-2.44-.27-3.96-.82-4.57-.72-.82-1.87-1.23-3.43-1.23h-1.38v-1.08h13.83v1.08h-1.41c-1.68,0-2.87.51-3.57,1.52-.43.62-.64,2.05-.64,4.28v33.49h-1.05l-26.19-31.99v24.46c0,2.44.26,3.96.79,4.57.74.82,1.88,1.23,3.43,1.23h1.41v1.08h-13.83v-1.08h1.38c1.7,0,2.9-.51,3.6-1.52.43-.62.64-2.05.64-4.28v-27.63c-1.15-1.35-2.03-2.24-2.62-2.67s-1.47-.83-2.62-1.2c-.57-.18-1.43-.26-2.58-.26v-1.08Z"/>
    </g>
  </g>
</svg>