<?xml version="1.0" encoding="UTF-8"?>
<svg id="_圖層_1" data-name="圖層 1" xmlns="http://www.w3.org/2000/svg" viewBox="0 0 900 900">
  <defs>
    <style>
      .cls-1 {
        fill: #fab400;
      }

      .cls-2 {
        fill: #00325a;
      }

      .cls-3 {
        fill: #00143c;
      }

      .cls-4 {
        fill: #f0c8a0;
      }

      .cls-5 {
        fill: #a00028;
      }

      .cls-6 {
        fill: #3078c8;
      }

      .cls-7 {
        fill: #d2aa82;
      }

      .cls-8 {
        fill: #c80a50;
      }

      .cls-9 {
        fill: #dc9600;
      }

      .cls-10 {
        fill: #0a5078;
      }

      .cls-11 {
        fill: #455c84;
      }
    </style>
  </defs>
  <g id="Icons">
    <g>
      <path class="cls-8" d="m664.87,404.52c3.52,5.28-.24,12.4-6.64,12.4h-88v-88c0-4.44,3.56-8,8-8h80c6.4,0,10.16,7.12,6.64,12.4l-23.68,35.6,23.68,35.6Z"/>
      <path class="cls-8" d="m314.23,328.92v88h-88c-6.4,0-10.16-7.12-6.64-12.4l23.68-35.6-23.68-35.6c-3.52-5.28.24-12.4,6.64-12.4h80c4.44,0,8,3.56,8,8Z"/>
      <path class="cls-5" d="m314.23,328.92v88h-40v-64l32-32c2.24,0,4.16.88,5.68,2.32,1.44,1.52,2.32,3.44,2.32,5.68Z"/>
      <path class="cls-5" d="m610.23,352.92v64h-40v-88c0-2.24.88-4.16,2.32-5.68,1.52-1.44,3.44-2.32,5.68-2.32l32,32Z"/>
      <path class="cls-10" d="m553.11,384.92h-221.76c2-14.4,6.88-27.92,13.84-40,19.36-33.44,55.6-56,97.04-56s77.68,22.56,97.04,56c6.96,12.08,11.84,25.6,13.84,40Z"/>
      <path class="cls-2" d="m553.11,384.92h-221.76c2-14.4,6.88-27.92,13.84-40h194.08c6.96,12.08,11.84,25.6,13.84,40Z"/>
      <path class="cls-2" d="m486.07,297.88c-12.16,9.44-27.44,15.12-44.08,15.12s-31.76-5.6-43.92-15.04c13.52-5.76,28.48-9.04,44.16-9.04s30.4,3.2,43.84,8.96h0Z"/>
      <path class="cls-7" d="m394.23,193.03v48h-24c-13.28,0-24-10.72-24-24s10.78-24,24-24h24Z"/>
      <path class="cls-7" d="m538.23,217.03c0,13.35-10.98,24-24,24h-24v-48h24c13.42,0,24,10.82,24,24Z"/>
      <path class="cls-4" d="m441.98,305.03c-39.77,0-72-32.23-72-72v-56h144v56c0,39.76-32.23,72-72,72h0Z"/>
      <path class="cls-7" d="m441.98,241.03c-4.42,0-8-3.58-8-8v-16c0-4.42,3.58-8,8-8s8,3.58,8,8v16c0,4.42-3.58,8-8,8h0Z"/>
      <circle class="cls-3" cx="409.98" cy="217.03" r="8"/>
      <circle class="cls-3" cx="473.98" cy="217.03" r="8"/>
      <path class="cls-10" d="m370.06,97.03h144v96h-144v-96Z"/>
      <path class="cls-2" d="m514.06,97.03v31.36l-68.45,23.43c-1.68.58-3.5.58-5.18,0l-70.37-24.07v-30.72h144Z"/>
      <g>
        <path class="cls-1" d="m534.26,97.03h8v96.48h-8v-96.48Z"/>
        <path class="cls-9" d="m542.26,97.03v19.04l-8,2.72v-21.76h8Z"/>
        <path class="cls-2" d="m546.23,224.92h-16c-4.42,0-8-3.58-8-8v-24.94c0-8.84,7.16-16,16-16s16,7.16,16,16v24.94c0,4.42-3.58,8-8,8Z"/>
      </g>
      <path class="cls-3" d="m464.78,241.03c-3.32,0-6.57,1.9-7.62,5.04-2.13,6.35-8.14,10.96-15.18,10.96s-13.06-4.61-15.18-10.96c-1.06-3.15-4.3-5.04-7.62-5.04-5.26,0-9.23,5.12-7.58,10.1,4.22,12.73,16.22,21.9,30.38,21.9s26.14-9.17,30.38-21.9c1.66-4.98-2.32-10.1-7.58-10.1Z"/>
      <path class="cls-10" d="m444.78,65.12c-1.18-.26-2.39-.26-3.56,0l-110.77,25.3c-8.17,1.63-8.71,13.11-.73,15.5l110.69,37.9c1.68.58,3.5.58,5.18,0l110.69-37.9c7.98-2.39,7.44-13.87-.73-15.5l-110.78-25.3Z"/>
      <path class="cls-8" d="m594.23,448.92h-304c-4.42,0-8-3.58-8-8v-88h320v88c0,4.42-3.58,8-8,8Z"/>
      <path class="cls-1" d="m314.23,328.92v24h-32l29.68-29.68c1.44,1.52,2.32,3.44,2.32,5.68Z"/>
      <path class="cls-1" d="m602.23,352.92h-32v-24c0-2.24.88-4.16,2.32-5.68l29.68,29.68Z"/>
      <path class="cls-1" d="m352.14,372.76l4.78,10.14c.96,2.04,2.82,3.45,4.97,3.78l10.69,1.62c5.41.82,7.57,7.78,3.66,11.78l-7.74,7.9c-1.55,1.58-2.26,3.87-1.9,6.11l1.82,11.14c.93,5.64-4.73,9.94-9.57,7.28l-9.56-5.26c-1.92-1.06-4.22-1.06-6.14,0l-9.56,5.26c-4.84,2.66-10.5-1.64-9.57-7.28l1.82-11.14c.37-2.24-.34-4.53-1.9-6.11l-7.74-7.9c-3.91-3.99-1.75-10.96,3.66-11.78l10.69-1.62c2.15-.33,4.01-1.74,4.97-3.78l4.78-10.14c2.42-5.13,9.42-5.13,11.83,0h0Z"/>
      <path class="cls-1" d="m448.14,372.76l4.78,10.14c.96,2.04,2.82,3.45,4.97,3.78l10.69,1.62c5.41.82,7.57,7.78,3.66,11.78l-7.74,7.9c-1.55,1.58-2.26,3.87-1.9,6.11l1.82,11.14c.93,5.64-4.73,9.94-9.57,7.28l-9.56-5.26c-1.92-1.06-4.22-1.06-6.14,0l-9.56,5.26c-4.84,2.66-10.5-1.64-9.57-7.28l1.82-11.14c.37-2.24-.34-4.53-1.9-6.11l-7.74-7.9c-3.91-3.99-1.75-10.96,3.66-11.78l10.69-1.62c2.15-.33,4.01-1.74,4.97-3.78l4.78-10.14c2.42-5.13,9.42-5.13,11.83,0h0Z"/>
      <path class="cls-1" d="m544.14,372.76l4.78,10.14c.96,2.04,2.82,3.45,4.97,3.78l10.69,1.62c5.41.82,7.57,7.78,3.66,11.78l-7.74,7.9c-1.55,1.58-2.26,3.87-1.9,6.11l1.82,11.14c.93,5.64-4.73,9.94-9.57,7.28l-9.56-5.26c-1.92-1.06-4.22-1.06-6.14,0l-9.56,5.26c-4.84,2.66-10.5-1.64-9.57-7.28l1.82-11.14c.37-2.24-.34-4.53-1.9-6.11l-7.74-7.9c-3.91-3.99-1.75-10.96,3.66-11.78l10.69-1.62c2.15-.33,4.01-1.74,4.97-3.78l4.78-10.14c2.42-5.13,9.42-5.13,11.83,0h0Z"/>
      <path class="cls-1" d="m258.23,208.92h32c4.42,0,8,3.58,8,8s-3.58,8-8,8h-32c-4.42,0-8-3.58-8-8s3.58-8,8-8Z"/>
      <g>
        <path class="cls-1" d="m289.26,156.63l22.62,22.62c3.13,3.13,3.13,8.19,0,11.31-3.13,3.13-8.19,3.13-11.31,0l-22.62-22.62c-3.13-3.13-3.13-8.19,0-11.31,3.12-3.12,8.18-3.12,11.31,0h0Z"/>
        <path class="cls-1" d="m289.26,277.2l22.62-22.62c3.13-3.13,3.13-8.19,0-11.31-3.13-3.13-8.19-3.13-11.31,0l-22.62,22.62c-3.13,3.13-3.13,8.19,0,11.31,3.12,3.12,8.18,3.12,11.31,0h0Z"/>
      </g>
      <path class="cls-1" d="m626.23,224.92h-32c-4.42,0-8-3.58-8-8s3.58-8,8-8h32c4.42,0,8,3.58,8,8s-3.58,8-8,8Z"/>
      <g>
        <path class="cls-1" d="m595.2,277.2l-22.62-22.62c-3.13-3.13-3.13-8.19,0-11.31,3.13-3.13,8.19-3.13,11.31,0l22.62,22.62c3.13,3.13,3.13,8.19,0,11.31-3.12,3.12-8.18,3.12-11.31,0h0Z"/>
        <path class="cls-1" d="m595.2,156.63l-22.62,22.62c-3.13,3.13-3.13,8.19,0,11.31,3.13,3.13,8.19,3.13,11.31,0l22.62-22.62c3.13-3.13,3.13-8.19,0-11.31-3.12-3.12-8.18-3.12-11.31,0h0Z"/>
      </g>
    </g>
  </g>
  <g>
    <path class="cls-11" d="m171.11,618.13c1.26,8.1-1.12,14.52-7.4,17.31-10.61,4.47-17.73-8.93-6-15.07,3.91-1.95,7.68-7.26,7.54-15.21l1.68-.14c1.54,3.21,2.65,6.28,3.49,9.21h1.95l-1.4-47.04,12.7,2.51c4.33-3.07,8.65-6.56,11.03-8.79l11.17,8.51.42-.42c4.19.14,7.82.7,10.75,1.4,2.09-2.79,3.77-5.72,5.02-8.37l12.84,6.56c-.56,1.26-1.95,1.54-4.47.98-1.26,1.67-2.93,3.21-4.75,4.88,6.98,5.58,3.77,12.98-2.79,10.75-1.12-1.54-2.79-3.35-4.61-5.02-4.61,3.07-9.77,5.86-14.66,7.82l-.28-.42c-.42,1.12-1.67,1.54-3.21,1.54h-14.24l.42,10.75h3.21l5.16-6.84s5.86,4.88,9.49,8.65c-.42,1.54-1.67,2.23-3.49,2.23h-14.38l.42,10.33h60.02l.42-10.33h-11.45l-1.12-4.05h12.84l.42-10.75h-11.58l-1.26-3.91h13.12l.56-10.89h-13.82l-1.12-4.05h13.68l6.14-7.26,14.66,11.17c-1.12,1.12-2.23,1.67-4.89,1.95l-1.81,36.71,7.12-6.98,14.52,13.96c-1.12,1.12-2.51,1.4-5.3,1.54-5.3,3.21-14.24,7.82-20.1,10.47l-1.26-.98c1.12-3.21,2.79-8.51,4.05-12.7h-89.47Zm92.68,24.29s9.77,8.09,15.49,13.54c-.42,1.54-1.81,2.23-3.91,2.23h-49.69v14.52c0,11.45-2.51,17.73-21.35,19.4-.42-5.16-1.26-8.79-3.49-11.45-2.23-2.51-5.44-4.33-12.84-5.44v-1.95s15.77.98,18.84.98c2.09,0,2.79-.56,2.79-2.37v-13.68h-53.46l-1.12-4.05h54.57v-11.17l12.42,1.12c3.49-3.07,7.12-6.56,10.05-9.63h-49.83l-1.26-4.05h53.32l8.79-8.38,15.07,13.26c-1.26,1.12-2.65,1.54-5.72,1.67-6.14,2.37-14.24,5.44-22.19,7.82-.28,2.09-1.68,3.07-4.61,3.49v5.86h29.31l8.79-11.72Zm-69.51-63.65s4.75,3.63,8.23,6.98c3.63-2.79,7.26-6.42,10.47-10.19-2.23-1.67-4.61-3.21-6.7-4.47-.84.28-2.09.14-3.49-.28-3.91,1.26-10.47,2.65-17.31,3.63l.28,10.75h3.49l5.02-6.42Zm42.71,13.96c-.7,1.4-2.23,1.67-4.47,1.12-1.4,1.95-3.35,3.77-5.44,5.72,7.12,6.42,3.35,14.52-3.77,11.58-.98-1.81-2.37-3.91-4.19-5.86-5.3,3.35-11.31,6.14-17.17,7.96l-1.12-2.09c4.61-2.93,9.21-6.7,13.12-10.89-2.79-2.37-5.86-4.61-8.51-6.28l1.4-1.4c4.75.42,8.65,1.12,11.86,2.23,2.23-2.65,3.91-5.58,5.3-8.24l12.98,6.14Z"/>
    <path class="cls-11" d="m418.15,668.38s11.31,8.65,18.28,14.52c-.42,1.54-1.95,2.23-4.05,2.23h-125.89l-1.12-4.05h55.97v-41.87h-38.38l-1.12-4.05h39.5v-35.73h-24.7c-8.65,14.38-18.98,25.82-30.98,34.2l-1.54-1.26c10.75-15.91,21.08-41.17,25.96-66.44l23.45,6.98c-.42,1.67-2.23,2.93-5.44,2.93-2.79,7.12-5.72,13.68-9.21,19.68h22.47v-33.78l23.17,2.23c-.42,2.09-1.4,3.49-5.16,4.05v27.5h22.05l9.63-11.86s10.75,7.82,17.59,13.54c-.42,1.54-1.95,2.23-4.19,2.23h-45.08v35.73h17.45l9.77-12.14s11.17,8.23,17.87,13.96c-.42,1.54-1.81,2.23-3.77,2.23h-41.31v41.87h28.75l10.05-12.7Z"/>
    <path class="cls-11" d="m585.21,673.27c5.02,8.23,5.72,12.42,3.35,14.65-6.28,6.14-18,.28-24.56-5.58-6.42-5.44-11.72-11.72-16.19-18.56-11.17,11.17-25.26,20.52-43.27,27.08l-.98-1.67c16.19-9.49,28.75-22.19,38.1-36.29-8.23-17.17-12.28-37.27-13.96-59.18h-39.22v22.33h16.47l7.82-7.82,14.1,11.72c-.98,1.12-2.65,1.95-5.44,2.37-.84,29.87-2.65,40.62-8.79,45.5-3.77,2.93-8.51,4.47-15.07,4.47,0-4.47-.28-8.09-1.95-10.33-1.67-1.95-4.61-3.35-8.65-4.47v-1.81c3.21.28,8.93.56,11.31.56,1.95,0,2.93-.28,3.77-1.12,2.51-2.23,3.63-12.7,4.19-35.17h-17.73c0,22.33-1.95,53.18-29.73,72.86l-1.26-1.26c13.4-21.21,14.66-48.15,14.66-71.74v-36.71l18.84,6.7h36.29c-.56-9.35-.84-18.84-.84-28.61l21.22,2.09c-.14,1.81-1.4,3.49-5.02,4.05-.14,7.54,0,15.07.42,22.47h20.94l5.02-6.28c-1.67.14-3.49-.14-5.44-1.12-2.23-6.14-8.79-12.98-14.1-16.61l.98-1.12c22.33-1.4,27.22,9.07,24.29,14.93,3.07,2.37,10.05,7.96,14.66,12-.28,1.4-1.81,2.09-3.91,2.09h-42.29c1.12,14.93,3.49,29.45,8.23,42.01,4.75-10.05,8.23-20.52,10.61-30.57l21.77,7.26c-.56,1.67-1.81,2.79-5.58,2.65-4.47,12.14-10.61,24.56-19.26,36.01,3.91,6.14,8.79,11.45,14.66,15.91,2.09,1.95,3.07,1.95,4.61-.56,2.23-3.49,6.14-11.03,8.79-17.03l1.4.28-3.21,23.59Z"/>
    <path class="cls-11" d="m690.02,641.3c12,14.93,34.06,25.82,53.87,30.29l-.28,1.54c-6.14,1.4-10.89,6.56-12.84,14.38-19.96-9.21-34.89-24.57-43.97-46.2h-1.26v46.2c-.14,1.12-5.02,4.61-13.54,4.61h-2.93v-38.24c-13.68,14.66-33.08,26.24-56.25,33.92l-1.12-1.67c19.96-10.89,36.57-28.05,46.34-44.8h-43.27l-1.12-3.91h55.41v-16.75h-22.19v3.63c0,1.54-6.98,5.02-13.68,5.02h-2.37v-65.32l17.03,6.7h59.46l7.4-7.96,15.35,11.72c-.84.98-2.51,2.09-5.02,2.51v45.22c-.14,1.12-7.96,4.75-13.68,4.75h-2.79v-6.28h-23.03v16.75h30.98l9.49-11.58s10.61,7.68,17.17,13.26c-.42,1.54-2.09,2.23-4.05,2.23h-49.13Zm-43.13-66.58v18.7h22.19v-18.7h-22.19Zm22.19,42.01v-19.4h-22.19v19.4h22.19Zm16.47-42.01v18.7h23.03v-18.7h-23.03Zm23.03,42.01v-19.4h-23.03v19.4h23.03Z"/>
  </g>
  <g>
    <path class="cls-6" d="m262.63,774.79h18.46v-11.37c0-2.03-.13-3.37-.38-4.01-.2-.49-.61-.91-1.23-1.26-.84-.47-1.73-.7-2.67-.7h-1.41v-1.08h16.99v1.08h-1.41c-.94,0-1.83.22-2.67.67-.63.31-1.05.79-1.27,1.42-.22.63-.34,1.93-.34,3.88v25.63c0,2.01.13,3.34.38,3.98.2.49.6.91,1.2,1.26.86.47,1.76.7,2.7.7h1.41v1.08h-16.99v-1.08h1.41c1.62,0,2.8-.48,3.54-1.44.49-.62.73-2.13.73-4.51v-12.1h-18.46v12.1c0,2.01.13,3.34.38,3.98.2.49.61.91,1.23,1.26.84.47,1.73.7,2.67.7h1.44v1.08h-17.02v-1.08h1.41c1.64,0,2.83-.48,3.57-1.44.47-.62.7-2.13.7-4.51v-25.63c0-2.03-.13-3.37-.38-4.01-.2-.49-.6-.91-1.2-1.26-.86-.47-1.76-.7-2.7-.7h-1.41v-1.08h17.02v1.08h-1.44c-.94,0-1.83.22-2.67.67-.61.31-1.03.79-1.26,1.42s-.35,1.93-.35,3.88v11.37Z"/>
    <path class="cls-6" d="m316.17,755.46c5.16,0,9.62,1.96,13.4,5.87s5.67,8.8,5.67,14.66-1.9,11.04-5.71,15.03-8.42,5.98-13.83,5.98-10.06-1.94-13.78-5.83-5.58-8.92-5.58-15.09,2.15-11.46,6.45-15.44c3.73-3.46,8.19-5.19,13.39-5.19Zm-.56,2.14c-3.55,0-6.41,1.32-8.55,3.96-2.68,3.28-4.01,8.09-4.01,14.41s1.39,11.47,4.16,14.97c2.13,2.66,4.94,3.98,8.44,3.98,3.73,0,6.81-1.46,9.24-4.37s3.65-7.5,3.65-13.77c0-6.8-1.34-11.87-4.01-15.21-2.15-2.66-5.12-3.98-8.91-3.98Z"/>
    <path class="cls-6" d="m337.36,756.36h10.78l24.29,29.79v-22.91c0-2.44-.27-3.96-.82-4.57-.72-.82-1.87-1.23-3.43-1.23h-1.38v-1.08h13.83v1.08h-1.41c-1.68,0-2.87.51-3.57,1.52-.43.62-.64,2.05-.64,4.28v33.49h-1.05l-26.19-31.99v24.46c0,2.44.26,3.96.79,4.57.74.82,1.88,1.23,3.43,1.23h1.41v1.08h-13.83v-1.08h1.38c1.7,0,2.9-.51,3.6-1.52.43-.62.64-2.05.64-4.28v-27.63c-1.15-1.35-2.03-2.24-2.62-2.67-.6-.43-1.47-.83-2.62-1.2-.57-.18-1.43-.26-2.58-.26v-1.08Z"/>
    <path class="cls-6" d="m404.03,755.46c5.16,0,9.62,1.96,13.4,5.87s5.67,8.8,5.67,14.66-1.9,11.04-5.71,15.03-8.42,5.98-13.83,5.98-10.06-1.94-13.78-5.83-5.58-8.92-5.58-15.09,2.15-11.46,6.45-15.44c3.73-3.46,8.19-5.19,13.39-5.19Zm-.56,2.14c-3.55,0-6.41,1.32-8.55,3.96-2.68,3.28-4.01,8.09-4.01,14.41s1.39,11.47,4.16,14.97c2.13,2.66,4.94,3.98,8.44,3.98,3.73,0,6.81-1.46,9.24-4.37s3.65-7.5,3.65-13.77c0-6.8-1.34-11.87-4.01-15.21-2.15-2.66-5.12-3.98-8.91-3.98Z"/>
    <path class="cls-6" d="m466.56,796.09h-10.61l-13.45-18.57c-1,.04-1.81.06-2.43.06-.25,0-.53,0-.82-.01s-.6-.02-.91-.04v11.54c0,2.5.27,4.05.82,4.66.74.86,1.86,1.29,3.34,1.29h1.55v1.08h-17.02v-1.08h1.49c1.68,0,2.88-.55,3.6-1.64.41-.61.62-2.04.62-4.31v-25.66c0-2.5-.27-4.05-.82-4.66-.76-.86-1.89-1.29-3.4-1.29h-1.49v-1.08h14.47c4.22,0,7.33.31,9.33.92,2,.62,3.7,1.75,5.1,3.4,1.4,1.65,2.09,3.62,2.09,5.9,0,2.44-.8,4.56-2.39,6.36-1.59,1.8-4.06,3.07-7.4,3.81l8.2,11.4c1.88,2.62,3.49,4.36,4.83,5.21s3.11,1.41,5.27,1.64v1.08Zm-28.21-20.42c.37,0,.69,0,.97.01.27,0,.5.01.67.01,3.79,0,6.65-.82,8.57-2.46,1.92-1.64,2.89-3.73,2.89-6.27s-.78-4.5-2.33-6.05-3.61-2.33-6.17-2.33c-1.13,0-2.67.19-4.6.56v16.52Z"/>
    <path class="cls-6" d="m522.78,796.09h-10.61l-13.45-18.57c-1,.04-1.81.06-2.43.06-.25,0-.53,0-.82-.01s-.6-.02-.91-.04v11.54c0,2.5.27,4.05.82,4.66.74.86,1.86,1.29,3.34,1.29h1.55v1.08h-17.02v-1.08h1.49c1.68,0,2.88-.55,3.6-1.64.41-.61.62-2.04.62-4.31v-25.66c0-2.5-.27-4.05-.82-4.66-.76-.86-1.89-1.29-3.4-1.29h-1.49v-1.08h14.47c4.22,0,7.33.31,9.33.92,2,.62,3.7,1.75,5.1,3.4,1.4,1.65,2.09,3.62,2.09,5.9,0,2.44-.8,4.56-2.39,6.36-1.59,1.8-4.06,3.07-7.4,3.81l8.2,11.4c1.88,2.62,3.49,4.36,4.83,5.21s3.11,1.41,5.27,1.64v1.08Zm-28.21-20.42c.37,0,.69,0,.97.01.27,0,.5.01.67.01,3.79,0,6.65-.82,8.57-2.46,1.92-1.64,2.89-3.73,2.89-6.27s-.78-4.5-2.33-6.05-3.61-2.33-6.17-2.33c-1.13,0-2.67.19-4.6.56v16.52Z"/>
    <path class="cls-6" d="m544.8,755.46c5.16,0,9.62,1.96,13.4,5.87s5.67,8.8,5.67,14.66-1.9,11.04-5.71,15.03-8.42,5.98-13.83,5.98-10.06-1.94-13.78-5.83-5.58-8.92-5.58-15.09,2.15-11.46,6.45-15.44c3.73-3.46,8.19-5.19,13.39-5.19Zm-.56,2.14c-3.55,0-6.41,1.32-8.55,3.96-2.68,3.28-4.01,8.09-4.01,14.41s1.39,11.47,4.16,14.97c2.13,2.66,4.94,3.98,8.44,3.98,3.73,0,6.81-1.46,9.24-4.37s3.65-7.5,3.65-13.77c0-6.8-1.34-11.87-4.01-15.21-2.15-2.66-5.12-3.98-8.91-3.98Z"/>
    <path class="cls-6" d="m601.18,785.11l.97.21-3.4,10.78h-30.76v-1.08h1.49c1.68,0,2.88-.55,3.6-1.64.41-.62.62-2.07.62-4.34v-25.63c0-2.48-.27-4.03-.82-4.66-.76-.86-1.89-1.29-3.4-1.29h-1.49v-1.08h17.99v1.08c-2.11-.02-3.59.18-4.44.59s-1.43.93-1.74,1.55c-.31.62-.47,2.12-.47,4.48v24.96c0,1.62.16,2.73.47,3.34.23.41.6.71,1.08.91.49.2,2.01.29,4.57.29h2.9c3.05,0,5.19-.22,6.42-.67s2.35-1.25,3.37-2.39c1.02-1.14,2.03-2.94,3.05-5.41Z"/>
    <path class="cls-6" d="m638.43,785.11l.97.21-3.4,10.78h-30.76v-1.08h1.49c1.68,0,2.88-.55,3.6-1.64.41-.62.62-2.07.62-4.34v-25.63c0-2.48-.27-4.03-.82-4.66-.76-.86-1.89-1.29-3.4-1.29h-1.49v-1.08h17.99v1.08c-2.11-.02-3.59.18-4.44.59s-1.43.93-1.74,1.55c-.31.62-.47,2.12-.47,4.48v24.96c0,1.62.16,2.73.47,3.34.23.41.6.71,1.08.91.49.2,2.01.29,4.57.29h2.9c3.05,0,5.19-.22,6.42-.67s2.35-1.25,3.37-2.39c1.02-1.14,2.03-2.94,3.05-5.41Z"/>
  </g>
</svg>