<?xml version="1.0" encoding="UTF-8"?>
<svg id="_圖層_1" data-name="圖層 1" xmlns="http://www.w3.org/2000/svg" viewBox="0 0 900 900">
  <defs>
    <style>
      .cls-1 {
        fill: #eceff1;
      }

      .cls-2 {
        fill: #3078c8;
      }

      .cls-3 {
        fill: #455c84;
      }

      .cls-4 {
        fill: #837683;
      }

      .cls-4, .cls-5, .cls-6, .cls-7, .cls-8, .cls-9, .cls-10, .cls-11, .cls-12 {
        fill-rule: evenodd;
      }

      .cls-5 {
        fill: #d1d1d6;
      }

      .cls-6 {
        fill: #65788e;
      }

      .cls-7 {
        fill: #8192a5;
      }

      .cls-8 {
        fill: #8d9ca8;
      }

      .cls-9 {
        fill: #9facba;
      }

      .cls-10 {
        fill: #ffd064;
      }

      .cls-11 {
        fill: #ffc338;
      }

      .cls-12 {
        fill: #685e68;
      }
    </style>
  </defs>
  <g>
    <g>
      <path class="cls-9" d="m589.11,192.16h40.96v253.44h-40.96v-253.44Zm-327.97,0h40.96v253.44h-40.96v-253.44Z"/>
      <path class="cls-8" d="m618.29,192.15h11.78v253.44h-11.78v-253.44Zm-327.97,0h11.78v253.44h-11.78v-253.44Z"/>
      <path class="cls-8" d="m445.61,72.9l205,119.25v14.97c0,4.9-4,8.89-8.89,8.89H249.5c-4.9,0-8.89-3.99-8.89-8.89v-14.97l205-119.25Z"/>
      <path class="cls-7" d="m445.61,72.9l205,119.25v14.97c0,4.9-4,8.89-8.89,8.89h-11.78c4.9,0,8.89-4,8.89-8.89v-14.97l-199.11-115.83,5.89-3.43Z"/>
      <path class="cls-7" d="m445.61,72.9l205,119.25H240.61l205-119.25Z"/>
      <path class="cls-6" d="m445.61,72.9l205,119.25h-11.78l-199.11-115.83,5.89-3.43Z"/>
      <circle class="cls-1" cx="445.57" cy="141.24" r="25.34"/>
      <path class="cls-5" d="m445.61,115.97c1.5,0,2.97.13,4.39.38-11.9,2.08-20.95,12.47-20.95,24.97s9.05,22.89,20.95,24.97c-1.43.25-2.9.38-4.39.38-14,0-25.35-11.35-25.35-25.35s11.35-25.34,25.35-25.34Z"/>
      <path class="cls-8" d="m249.15,423.56h64.95c4.7,0,8.54,3.84,8.54,8.54v14.84c0,4.7-3.84,8.54-8.54,8.54h-64.95c-4.7,0-8.54-3.84-8.54-8.54v-14.84c0-4.7,3.84-8.54,8.54-8.54h0Z"/>
      <path class="cls-7" d="m302.71,423.56h11.39c4.71,0,8.54,3.84,8.54,8.54v14.84c0,4.7-3.84,8.54-8.54,8.54h-11.39c4.7,0,8.54-3.84,8.54-8.54v-14.84c0-4.7-3.84-8.54-8.54-8.54h0Z"/>
      <path class="cls-8" d="m577.11,423.56h64.95c4.7,0,8.54,3.84,8.54,8.54v14.84c0,4.7-3.84,8.54-8.54,8.54h-64.95c-4.7,0-8.54-3.84-8.54-8.54v-14.84c0-4.7,3.84-8.54,8.54-8.54h0Z"/>
      <path class="cls-7" d="m630.67,423.56h11.39c4.7,0,8.54,3.84,8.54,8.54v14.84c0,4.7-3.84,8.54-8.54,8.54h-11.39c4.7,0,8.54-3.84,8.54-8.54v-14.84c0-4.7-3.84-8.54-8.54-8.54h0Z"/>
    </g>
    <g>
      <path class="cls-10" d="m543.93,332.44l16.2,7.88v41.63l-16.2-10.26-16.2,10.26v-41.63l16.2-7.88Z"/>
      <path class="cls-10" d="m535.93,271.14h16v82.46h-16v-82.46Z"/>
      <path class="cls-11" d="m560.14,377.61v4.35l-16.2-10.26,3.43-2.17,12.77,8.09Zm-25.54,0l-6.86,4.35v-41.63l8.2-3.99v-65.19h6.86v65.19l-8.2,3.99v37.28Z"/>
      <path class="cls-4" d="m442.37,265.88l81.19,2v72.22c0,3.44-2.4,6.33-5.79,6.95-88.02,16.3-62.79,16.3-150.82,0-3.38-.62-5.79-3.51-5.79-6.95v-72.22l81.19-2Z"/>
      <path class="cls-12" d="m523.57,327.46v12.63c0,3.44-2.4,6.33-5.79,6.95-88.02,16.3-62.79,16.3-150.82,0-3.38-.62-5.79-3.51-5.79-6.95v-72.22l10.9-.27v67.76c81.93,15.34,59.43,15.02,145.7-.95,3.38-.62,5.79-3.51,5.79-6.95h0Z"/>
      <path class="cls-4" d="m442.37,239.6l113.59,30.17c1.4.37,1.4,2.37,0,2.74l-113.59,30.17-113.59-30.17c-1.4-.37-1.4-2.37,0-2.74l113.59-30.17Z"/>
      <path class="cls-12" d="m534.52,264.08l21.44,5.7c1.4.37,1.4,2.37,0,2.74l-113.59,30.17-113.59-30.17c-1.4-.37-1.4-2.37,0-2.74l21.44-5.7,92.15,24.48,92.15-24.48Z"/>
    </g>
  </g>
  <g>
    <path class="cls-3" d="m202.81,616.46c-4.75,3.35-10.89,7.54-18.56,12.42v44.52c0,11.03-2.23,17.17-19.26,18.7-.28-4.88-.84-8.65-2.51-11.17-1.81-2.37-4.47-4.05-10.19-5.02v-1.95s11.31.7,13.82.7c2.09,0,2.65-.56,2.65-2.37v-34.06c-3.07,1.81-6.42,3.77-9.91,5.72-.56,1.95-1.95,3.49-3.77,4.05l-6.28-19.26c4.05-.7,11.31-2.37,19.96-4.61v-26.1h-16.89l-1.12-4.05h18v-33.08l20.66,2.09c-.28,1.95-1.67,3.35-5.16,3.91v27.08h.7l7.12-10.89s7.96,7.68,12.42,12.7c-.42,1.54-1.81,2.23-3.77,2.23h-16.47v21.91c5.86-1.54,12.14-3.21,18.14-5.02l.42,1.54Zm79-42.01c-.98,1.12-2.65,1.95-5.44,2.37-.98,27.77-3.21,40.34-9.49,45.22-4.05,3.07-9.21,4.61-16.61,4.61,0-4.61-.42-8.38-2.51-10.47-1.95-2.23-6.14-4.05-11.31-5.03l.14-1.81c4.75.28,12.42.84,15.07.84,2.09,0,3.21-.28,4.19-1.26,2.65-2.37,4.05-13.82,4.89-34.61h-19.4c-4.05,25.82-16.33,44.94-43.83,55.83l-.84-1.54c18.7-13.82,25.4-32.8,26.94-54.29h-21.22l-1.26-3.91h58.34l8.09-7.82,14.24,11.86Zm-18.7,54.15l15.35,11.86c-.84,1.12-2.79,2.23-5.58,2.79v44.25c-.28.84-7.96,3.77-13.12,3.77h-2.65v-10.19h-35.87v6.14c0,1.54-6.84,4.88-13.4,4.88h-2.23v-61.97l16.47,6.56h33.64l7.4-8.09Zm-6,48.43v-36.29h-35.87v36.29h35.87Z"/>
    <path class="cls-3" d="m416.91,668.38s11.31,8.65,18.28,14.52c-.42,1.54-1.95,2.23-4.05,2.23h-125.89l-1.12-4.05h55.97v-41.87h-38.38l-1.12-4.05h39.5v-35.73h-24.7c-8.65,14.38-18.98,25.82-30.98,34.2l-1.54-1.26c10.75-15.91,21.08-41.17,25.96-66.44l23.45,6.98c-.42,1.67-2.23,2.93-5.44,2.93-2.79,7.12-5.72,13.68-9.21,19.68h22.47v-33.78l23.17,2.23c-.42,2.09-1.4,3.49-5.16,4.05v27.5h22.05l9.63-11.86s10.75,7.82,17.59,13.54c-.42,1.54-1.95,2.23-4.19,2.23h-45.08v35.73h17.45l9.77-12.14s11.17,8.23,17.87,13.96c-.42,1.54-1.81,2.23-3.77,2.23h-41.31v41.87h28.75l10.05-12.7Z"/>
    <path class="cls-3" d="m554.66,627.35c24.56,3.21,27.64,12.28,23.87,17.31,3.07,2.51,7.26,6.14,10.47,9.07-.42,1.54-1.81,2.23-3.77,2.23h-30.29v17.59c0,10.89-2.37,16.89-20.52,18.56-.42-4.75-1.12-8.51-3.35-10.75-2.23-2.37-5.58-4.19-12.7-5.3v-1.95s15.49.98,18.42.98c2.23,0,2.93-.7,2.93-2.37v-16.75h-80.25l-1.12-4.05h81.37v-10.61l19.96,1.68c-.28,2.09-1.67,3.07-4.75,3.63v5.3h11.86l3.21-4.33c-1.68-.28-3.35-1.12-4.75-2.65-1.67-2.65-4.05-5.58-7.54-8.37-18.7,2.93-44.1,6-80.39,9.91-1.12,1.67-2.65,2.65-4.05,2.93l-7.82-16.47c10.33.28,28.05.28,49.69.28v-9.77h-21.49v1.12c0,1.26-6.7,4.33-12.98,4.33h-2.09v-46.06l16.05,6.28h20.52v-10.05h-52.9l-1.26-3.91h54.15v-14.1l20.66,1.81c-.28,1.95-1.54,3.35-5.16,3.91v8.38h31.4l8.23-10.89s9.35,7.4,14.93,12.56c-.42,1.54-1.95,2.23-3.91,2.23h-50.66v10.05h21.35l7.12-7.68,15.07,11.17c-.84,1.12-2.93,2.23-5.58,2.93v27.64c-.14,1.26-7.54,4.19-12.7,4.19h-1.26Zm-72.58,31.26c41.17-.28,31.82,30.57,15.91,22.33-2.65-7.96-10.19-16.61-17.03-21.35l1.12-.98Zm11.58-65.6v11.3h21.49v-11.3h-21.49Zm21.49,26.52v-11.31h-21.49v11.31h21.49Zm15.49-26.52v11.3h22.75v-11.3h-22.75Zm22.75,15.21h-22.75v11.31h22.75v-11.31Zm-.56,24.84c-2.79-1.81-6.14-3.49-10.05-4.88l.56-1.81c3.63.14,6.98.42,10.05.84v-3.77h-22.75v9.77l22.19-.14Z"/>
    <path class="cls-3" d="m729.54,672.57c7.82,1.4,9.63,3.63,9.63,6.42,0,7.68-9.35,9.07-56.39,9.07h-30.85c-22.61,0-32.66-2.37-32.66-18.28v-94.77h-4.89l-1.26-3.91h98.68l8.37-11.17s9.35,7.68,15.07,12.84c-.42,1.54-1.95,2.23-3.91,2.23h-97v92.68c0,6.28,3.77,8.23,15.91,8.23h33.78c12,0,22.75-.28,26.94-.7,2.65-.14,6-.56,8.23-.84,1.95-.28,4.89-.98,7.96-1.95h1.54l.84.14Zm-62.39-3.77v-6.84h-11.58v5.86c0,1.12-5.86,4.19-11.44,4.19h-1.95v-47.31l13.96,5.58h9.77l6.28-6.56,13.12,9.91c-.7.84-2.37,1.95-4.61,2.23v29.31c-.14.98-6.84,3.63-11.31,3.63h-2.23Zm31.54-54.01h-27.77v3.91c0,1.4-6.98,4.75-13.26,4.75h-2.23v-43.27l16.19,6.28h25.82l7.12-7.68,14.93,11.31c-.84.98-2.51,2.09-5.02,2.65v24.56c-.14.98-8.1,3.77-12.98,3.77h-2.79v-6.28Zm-31.54,43.13v-23.59h-11.58v23.59h11.58Zm31.54-47.17v-20.24h-27.77v20.24h27.77Zm15.35,57.5v-6.28h-12v3.63c0,1.26-6,4.19-11.58,4.19h-1.95v-45.08l14.1,5.58h10.19l6.42-6.7,13.4,10.19c-.7.84-2.37,1.81-4.61,2.23v28.61c-.14.84-7.12,3.63-11.58,3.63h-2.37Zm0-10.33v-23.59h-12v23.59h12Z"/>
  </g>
  <g>
    <path class="cls-2" d="m286.52,782.79h-15.38l-2.7,6.27c-.66,1.54-1,2.7-1,3.46,0,.61.29,1.14.86,1.6.58.46,1.82.76,3.74.89v1.08h-12.51v-1.08c1.66-.29,2.73-.67,3.22-1.14,1-.94,2.1-2.84,3.31-5.71l13.97-32.7h1.03l13.83,33.05c1.11,2.66,2.12,4.38,3.03,5.17s2.17,1.24,3.79,1.33v1.08h-15.67v-1.08c1.58-.08,2.65-.34,3.21-.79s.83-1,.83-1.64c0-.86-.39-2.22-1.17-4.07l-2.4-5.71Zm-.82-2.17l-6.74-16.05-6.91,16.05h13.65Z"/>
    <path class="cls-2" d="m304.02,796.09v-1.08h1.49c1.68,0,2.87-.54,3.57-1.61.43-.64.64-2.09.64-4.34v-25.66c0-2.48-.27-4.03-.82-4.66-.76-.86-1.89-1.29-3.4-1.29h-1.49v-1.08h16.17c5.94,0,10.45.67,13.55,2.02,3.1,1.35,5.59,3.59,7.47,6.74,1.88,3.14,2.83,6.78,2.83,10.9,0,5.53-1.68,10.15-5.04,13.86-3.77,4.14-9.51,6.21-17.23,6.21h-17.75Zm11.34-2.87c2.48.55,4.56.82,6.24.82,4.53,0,8.29-1.59,11.28-4.78s4.48-7.5,4.48-12.95-1.49-9.81-4.48-12.98-6.83-4.75-11.51-4.75c-1.76,0-3.76.28-6.01.85v33.78Z"/>
    <path class="cls-2" d="m371.48,796.09l-15.35-33.43v26.54c0,2.44.26,3.96.79,4.57.72.82,1.86,1.23,3.43,1.23h1.41v1.08h-13.83v-1.08h1.41c1.68,0,2.87-.51,3.57-1.52.43-.62.64-2.05.64-4.28v-25.96c0-1.76-.2-3.03-.59-3.81-.27-.57-.78-1.04-1.51-1.42s-1.91-.57-3.53-.57v-1.08h11.25l14.41,31.08,14.18-31.08h11.25v1.08h-1.38c-1.7,0-2.9.51-3.6,1.52-.43.62-.64,2.05-.64,4.28v25.96c0,2.44.27,3.96.82,4.57.72.82,1.86,1.23,3.43,1.23h1.38v1.08h-16.88v-1.08h1.41c1.7,0,2.89-.51,3.57-1.52.43-.62.64-2.05.64-4.28v-26.54l-15.32,33.43h-.97Z"/>
    <path class="cls-2" d="m419.39,795.01v1.08h-17.02v-1.08h1.41c1.64,0,2.83-.48,3.57-1.44.47-.62.7-2.13.7-4.51v-25.66c0-2.01-.13-3.34-.38-3.98-.2-.49-.6-.91-1.2-1.26-.86-.47-1.76-.7-2.7-.7h-1.41v-1.08h17.02v1.08h-1.44c-1.62,0-2.8.48-3.54,1.44-.49.62-.73,2.13-.73,4.51v25.66c0,2.01.13,3.34.38,3.98.2.49.61.91,1.23,1.26.84.47,1.73.7,2.67.7h1.44Z"/>
    <path class="cls-2" d="m448.97,755.46v13.74h-1.08c-.35-2.64-.98-4.74-1.89-6.3s-2.2-2.8-3.88-3.72c-1.68-.92-3.42-1.38-5.21-1.38-2.03,0-3.71.62-5.04,1.86-1.33,1.24-1.99,2.65-1.99,4.23,0,1.21.42,2.31,1.26,3.31,1.21,1.46,4.09,3.42,8.64,5.86,3.71,1.99,6.24,3.52,7.6,4.58,1.36,1.06,2.4,2.32,3.13,3.76s1.1,2.96,1.1,4.54c0,3.01-1.17,5.6-3.5,7.78-2.33,2.18-5.34,3.27-9.01,3.27-1.15,0-2.24-.09-3.25-.26-.61-.1-1.86-.45-3.76-1.07s-3.11-.92-3.62-.92-.87.15-1.16.44c-.28.29-.49.9-.63,1.82h-1.08v-13.62h1.08c.51,2.85,1.19,4.99,2.05,6.4.86,1.42,2.17,2.59,3.94,3.53,1.77.94,3.71,1.41,5.82,1.41,2.44,0,4.37-.64,5.79-1.93,1.42-1.29,2.12-2.81,2.12-4.57,0-.98-.27-1.96-.81-2.96-.54-1-1.37-1.92-2.5-2.78-.76-.59-2.84-1.83-6.24-3.74s-5.82-3.42-7.25-4.56-2.52-2.38-3.27-3.75c-.74-1.37-1.11-2.87-1.11-4.51,0-2.85,1.09-5.31,3.28-7.37,2.19-2.06,4.97-3.09,8.35-3.09,2.11,0,4.35.52,6.71,1.55,1.09.49,1.86.73,2.31.73.51,0,.92-.15,1.25-.45s.58-.91.78-1.83h1.08Z"/>
    <path class="cls-2" d="m482.94,755.46v13.74h-1.08c-.35-2.64-.98-4.74-1.89-6.3s-2.2-2.8-3.88-3.72c-1.68-.92-3.42-1.38-5.21-1.38-2.03,0-3.71.62-5.04,1.86-1.33,1.24-1.99,2.65-1.99,4.23,0,1.21.42,2.31,1.26,3.31,1.21,1.46,4.09,3.42,8.64,5.86,3.71,1.99,6.24,3.52,7.6,4.58,1.36,1.06,2.4,2.32,3.13,3.76s1.1,2.96,1.1,4.54c0,3.01-1.17,5.6-3.5,7.78-2.33,2.18-5.34,3.27-9.01,3.27-1.15,0-2.24-.09-3.25-.26-.61-.1-1.86-.45-3.76-1.07s-3.11-.92-3.62-.92-.87.15-1.16.44c-.28.29-.49.9-.63,1.82h-1.08v-13.62h1.08c.51,2.85,1.19,4.99,2.05,6.4.86,1.42,2.17,2.59,3.94,3.53,1.77.94,3.71,1.41,5.82,1.41,2.44,0,4.37-.64,5.79-1.93,1.42-1.29,2.12-2.81,2.12-4.57,0-.98-.27-1.96-.81-2.96-.54-1-1.37-1.92-2.5-2.78-.76-.59-2.84-1.83-6.24-3.74s-5.82-3.42-7.25-4.56-2.52-2.38-3.27-3.75c-.74-1.37-1.11-2.87-1.11-4.51,0-2.85,1.09-5.31,3.28-7.37,2.19-2.06,4.97-3.09,8.35-3.09,2.11,0,4.35.52,6.71,1.55,1.09.49,1.86.73,2.31.73.51,0,.92-.15,1.25-.45s.58-.91.78-1.83h1.08Z"/>
    <path class="cls-2" d="m507.91,795.01v1.08h-17.02v-1.08h1.41c1.64,0,2.83-.48,3.57-1.44.47-.62.7-2.13.7-4.51v-25.66c0-2.01-.13-3.34-.38-3.98-.2-.49-.6-.91-1.2-1.26-.86-.47-1.76-.7-2.7-.7h-1.41v-1.08h17.02v1.08h-1.44c-1.62,0-2.8.48-3.54,1.44-.49.62-.73,2.13-.73,4.51v25.66c0,2.01.13,3.34.38,3.98.2.49.61.91,1.23,1.26.84.47,1.73.7,2.67.7h1.44Z"/>
    <path class="cls-2" d="m531.92,755.46c5.16,0,9.62,1.96,13.4,5.87s5.67,8.8,5.67,14.66-1.9,11.04-5.71,15.03-8.42,5.98-13.83,5.98-10.06-1.94-13.78-5.83-5.58-8.92-5.58-15.09,2.15-11.46,6.45-15.44c3.73-3.46,8.19-5.19,13.39-5.19Zm-.56,2.14c-3.55,0-6.41,1.32-8.55,3.96-2.68,3.28-4.01,8.09-4.01,14.41s1.39,11.47,4.16,14.97c2.13,2.66,4.94,3.98,8.44,3.98,3.73,0,6.81-1.46,9.24-4.37s3.65-7.5,3.65-13.77c0-6.8-1.34-11.87-4.01-15.21-2.15-2.66-5.12-3.98-8.91-3.98Z"/>
    <path class="cls-2" d="m553.12,756.36h10.78l24.29,29.79v-22.91c0-2.44-.27-3.96-.82-4.57-.72-.82-1.87-1.23-3.43-1.23h-1.38v-1.08h13.83v1.08h-1.41c-1.68,0-2.87.51-3.57,1.52-.43.62-.64,2.05-.64,4.28v33.49h-1.05l-26.19-31.99v24.46c0,2.44.26,3.96.79,4.57.74.82,1.88,1.23,3.43,1.23h1.41v1.08h-13.83v-1.08h1.38c1.7,0,2.9-.51,3.6-1.52.43-.62.64-2.05.64-4.28v-27.63c-1.15-1.35-2.03-2.24-2.62-2.67-.6-.43-1.47-.83-2.62-1.2-.57-.18-1.43-.26-2.58-.26v-1.08Z"/>
    <path class="cls-2" d="m625.35,755.46v13.74h-1.08c-.35-2.64-.98-4.74-1.89-6.3s-2.2-2.8-3.88-3.72c-1.68-.92-3.42-1.38-5.21-1.38-2.03,0-3.71.62-5.04,1.86-1.33,1.24-1.99,2.65-1.99,4.23,0,1.21.42,2.31,1.26,3.31,1.21,1.46,4.09,3.42,8.64,5.86,3.71,1.99,6.24,3.52,7.6,4.58,1.36,1.06,2.4,2.32,3.13,3.76s1.1,2.96,1.1,4.54c0,3.01-1.17,5.6-3.5,7.78-2.33,2.18-5.34,3.27-9.01,3.27-1.15,0-2.24-.09-3.25-.26-.61-.1-1.86-.45-3.76-1.07s-3.11-.92-3.62-.92-.87.15-1.16.44c-.28.29-.49.9-.63,1.82h-1.08v-13.62h1.08c.51,2.85,1.19,4.99,2.05,6.4.86,1.42,2.17,2.59,3.94,3.53,1.77.94,3.71,1.41,5.82,1.41,2.44,0,4.37-.64,5.79-1.93,1.42-1.29,2.12-2.81,2.12-4.57,0-.98-.27-1.96-.81-2.96-.54-1-1.37-1.92-2.5-2.78-.76-.59-2.84-1.83-6.24-3.74s-5.82-3.42-7.25-4.56-2.52-2.38-3.27-3.75c-.74-1.37-1.11-2.87-1.11-4.51,0-2.85,1.09-5.31,3.28-7.37,2.19-2.06,4.97-3.09,8.35-3.09,2.11,0,4.35.52,6.71,1.55,1.09.49,1.86.73,2.31.73.51,0,.92-.15,1.25-.45s.58-.91.78-1.83h1.08Z"/>
  </g>
</svg>