<?xml version="1.0" encoding="UTF-8"?>
<svg id="_圖層_1" data-name="圖層 1" xmlns="http://www.w3.org/2000/svg" viewBox="0 0 900 900">
  <defs>
    <style>
      .cls-1 {
        fill: #faac2b;
      }

      .cls-2 {
        fill: #047fa7;
      }

      .cls-3 {
        fill: #0093ba;
      }

      .cls-4 {
        fill: #f5be9a;
      }

      .cls-5 {
        fill: #ffc119;
      }

      .cls-6 {
        fill: #e8493f;
      }

      .cls-7 {
        fill: #ec917f;
      }

      .cls-8 {
        fill: #ef5249;
      }

      .cls-9 {
        fill: #7ca540;
      }

      .cls-10 {
        fill: #3078c8;
      }

      .cls-11 {
        fill: #455c84;
      }

      .cls-12 {
        fill: #88bf40;
      }
    </style>
  </defs>
  <g id="Flat">
    <path class="cls-8" d="m397.7,264.08h177.66v126.9h-177.66v-126.9Z"/>
    <path class="cls-12" d="m321.57,137.18h184v126.9h-184v-126.9Z"/>
    <path class="cls-3" d="m321.57,264.08h46.67c-10.52-9.27-11.53-25.3-2.26-35.82s25.3-11.53,35.82-2.26c10.52,9.27,11.53,25.3,2.26,35.82-.71.8-1.46,1.56-2.26,2.26h46.67v46.67c-9.27-10.52-25.3-11.53-35.82-2.26-10.52,9.27-11.53,25.3-2.26,35.82,9.27,10.52,25.3,11.53,35.82,2.26.8-.71,1.56-1.46,2.26-2.26v46.67h-126.9v-126.9Z"/>
    <path class="cls-5" d="m448.46,137.18v46.67c9.27-10.52,25.3-11.53,35.82-2.26s11.53,25.3,2.26,35.82c-9.27,10.52-25.3,11.53-35.82,2.26-.8-.71-1.56-1.46-2.26-2.26v46.67h46.67c-10.52,9.27-11.53,25.3-2.26,35.82s25.3,11.53,35.82,2.26c10.52-9.27,11.53-25.3,2.26-35.82-.71-.8-1.46-1.56-2.26-2.26h46.67v-126.9h-126.9Z"/>
    <path class="cls-6" d="m511.91,379.06l13.62,11.92h49.83v-28.21c-11.57-2.09-23.42,1.63-31.72,9.94l-28.55-28.55c-5.29-5.22-13.82-5.16-19.03.14-5.17,5.24-5.17,13.66,0,18.9l15.86,15.86Z"/>
    <path class="cls-2" d="m333.49,327.53l-11.92,13.62v49.83h28.21c2.09-11.57-1.63-23.42-9.94-31.72l28.55-28.55c5.22-5.29,5.16-13.82-.14-19.03-5.24-5.17-13.66-5.17-18.9,0l-15.86,15.86Z"/>
    <path class="cls-9" d="m385.01,149.1l-13.62-11.92h-49.83v28.21c11.57,2.09,23.42-1.63,31.72-9.94l28.55,28.55c5.29,5.22,13.82,5.16,19.03-.14,5.17-5.24,5.17-13.66,0-18.9l-15.86-15.86Z"/>
    <path class="cls-1" d="m563.44,200.63l11.92-13.62v-49.83h-28.21c-2.09,11.57,1.63,23.42,9.94,31.72l-28.55,28.55c-5.22,5.29-5.16,13.82.14,19.03,5.24,5.17,13.66,5.17,18.9,0l15.86-15.86Z"/>
    <path class="cls-4" d="m264.46,390.98l12.69-12.69v-57.1c0-10.51,8.52-19.03,19.03-19.03h25.38v25.38l15.86-15.86c5.26-5.26,13.78-5.26,19.03,0,5.26,5.26,5.26,13.78,0,19.03l-28.55,28.55c14.02,14.02,14.02,36.74,0,50.76l-31.72,31.72-31.72-50.76Z"/>
    <path class="cls-7" d="m308.83,331.23l3.72-3.72c2.48-2.48,6.49-2.48,8.97,0h0c2.48,2.48,2.48,6.49,0,8.97l-3.72,3.72c-2.48,2.48-6.49,2.48-8.97,0h0c-2.48-2.48-2.48-6.49,0-8.97Z"/>
    <path class="cls-4" d="m321.57,80.08l12.69,12.69h57.1c10.51,0,19.03,8.52,19.03,19.03v25.38h-25.38l15.86,15.86c5.26,5.26,5.26,13.78,0,19.03-5.26,5.26-13.78,5.26-19.03,0l-28.55-28.55c-14.02,14.02-36.74,14.02-50.76,0l-31.72-31.72,50.76-31.72Z"/>
    <path class="cls-7" d="m372.31,124.51h0c2.48-2.48,6.49-2.48,8.97,0l3.72,3.72c2.48,2.48,2.48,6.49,0,8.97h0c-2.48,2.48-6.49,2.48-8.97,0l-3.72-3.72c-2.48-2.48-2.48-6.49,0-8.97Z"/>
    <path class="cls-4" d="m632.46,137.18l-12.69,12.69v57.1c0,10.51-8.52,19.03-19.03,19.03h-25.38v-25.38l-15.86,15.86c-5.26,5.26-13.78,5.26-19.03,0-5.26-5.26-5.26-13.78,0-19.03l28.55-28.55c-14.02-14.02-14.02-36.74,0-50.76l31.72-31.72,31.72,50.76Z"/>
    <path class="cls-7" d="m575.32,191.69l3.72-3.72c2.48-2.48,6.49-2.48,8.97,0h0c2.48,2.48,2.48,6.49,0,8.97l-3.72,3.72c-2.48,2.48-6.49,2.48-8.97,0h0c-2.48-2.48-2.48-6.49,0-8.97Z"/>
    <path class="cls-4" d="m575.36,448.08l-12.69-12.69h-57.1c-10.51,0-19.03-8.52-19.03-19.03v-25.38h25.38l-15.86-15.86c-5.26-5.26-5.26-13.78,0-19.03,5.26-5.26,13.78-5.26,19.03,0l28.55,28.55c14.02-14.02,36.74-14.02,50.76,0l31.72,31.72-50.76,31.72Z"/>
    <path class="cls-7" d="m511.84,390.99h0c2.48-2.48,6.49-2.48,8.97,0l3.72,3.72c2.48,2.48,2.48,6.49,0,8.97h0c-2.48,2.48-6.49,2.48-8.97,0l-3.72-3.72c-2.48-2.48-2.48-6.49,0-8.97Z"/>
  </g>
  <g>
    <g>
      <path class="cls-11" d="m173.59,618.13c1.26,8.1-1.12,14.52-7.4,17.31-10.61,4.47-17.73-8.93-6-15.07,3.91-1.95,7.68-7.26,7.54-15.21l1.68-.14c1.54,3.21,2.65,6.28,3.49,9.21h1.95l-1.4-47.04,12.7,2.51c4.33-3.07,8.65-6.56,11.03-8.79l11.17,8.51.42-.42c4.19.14,7.82.7,10.75,1.4,2.09-2.79,3.77-5.72,5.02-8.37l12.84,6.56c-.56,1.26-1.95,1.54-4.47.98-1.26,1.67-2.93,3.21-4.75,4.88,6.98,5.58,3.77,12.98-2.79,10.75-1.12-1.54-2.79-3.35-4.61-5.02-4.61,3.07-9.77,5.86-14.66,7.82l-.28-.42c-.42,1.12-1.67,1.54-3.21,1.54h-14.24l.42,10.75h3.21l5.16-6.84s5.86,4.88,9.49,8.65c-.42,1.54-1.67,2.23-3.49,2.23h-14.38l.42,10.33h60.02l.42-10.33h-11.44l-1.12-4.05h12.84l.42-10.75h-11.58l-1.26-3.91h13.12l.56-10.89h-13.82l-1.12-4.05h13.68l6.14-7.26,14.66,11.17c-1.12,1.12-2.23,1.67-4.89,1.95l-1.81,36.71,7.12-6.98,14.52,13.96c-1.12,1.12-2.51,1.4-5.3,1.54-5.3,3.21-14.24,7.82-20.1,10.47l-1.26-.98c1.12-3.21,2.79-8.51,4.05-12.7h-89.47Zm92.68,24.29s9.77,8.09,15.49,13.54c-.42,1.54-1.81,2.23-3.91,2.23h-49.69v14.52c0,11.45-2.51,17.73-21.35,19.4-.42-5.16-1.26-8.79-3.49-11.45-2.23-2.51-5.44-4.33-12.84-5.44v-1.95s15.77.98,18.84.98c2.09,0,2.79-.56,2.79-2.37v-13.68h-53.46l-1.12-4.05h54.57v-11.17l12.42,1.12c3.49-3.07,7.12-6.56,10.05-9.63h-49.83l-1.26-4.05h53.32l8.79-8.38,15.07,13.26c-1.26,1.12-2.65,1.54-5.72,1.67-6.14,2.37-14.24,5.44-22.19,7.82-.28,2.09-1.67,3.07-4.61,3.49v5.86h29.31l8.79-11.72Zm-69.51-63.65s4.75,3.63,8.23,6.98c3.63-2.79,7.26-6.42,10.47-10.19-2.23-1.67-4.61-3.21-6.7-4.47-.84.28-2.09.14-3.49-.28-3.91,1.26-10.47,2.65-17.31,3.63l.28,10.75h3.49l5.02-6.42Zm42.71,13.96c-.7,1.4-2.23,1.67-4.47,1.12-1.4,1.95-3.35,3.77-5.44,5.72,7.12,6.42,3.35,14.52-3.77,11.58-.98-1.81-2.37-3.91-4.19-5.86-5.3,3.35-11.31,6.14-17.17,7.96l-1.12-2.09c4.61-2.93,9.21-6.7,13.12-10.89-2.79-2.37-5.86-4.61-8.51-6.28l1.4-1.4c4.75.42,8.65,1.12,11.86,2.23,2.23-2.65,3.91-5.58,5.3-8.24l12.98,6.14Z"/>
      <path class="cls-11" d="m435.42,573.61c-.84.98-2.79,2.37-5.72,2.93v36.01c0,9.77-2.23,15.21-17.87,16.75l13.12,9.91c-.98,1.12-2.79,2.23-5.58,2.79v45.92c-.14.98-8.37,4.05-13.82,4.05h-2.79v-8.79h-57.36v3.63c0,1.67-7.26,5.3-14.24,5.3h-2.37v-63.64l17.73,6.98h16.89c.56-3.07,1.26-7.26,1.81-10.89-2.65,2.37-7.12,3.91-14.66,4.61-.28-4.33-.7-7.68-2.23-9.77s-3.91-3.77-9.35-4.61v-1.95s9.77.7,12.28.7c1.95,0,2.51-.7,2.51-2.51v-10.05c-7.12,5.16-16.75,11.72-29.17,19.4-.42,1.95-1.67,3.21-3.07,3.91l-9.21-15.77c7.4-1.67,24.01-6.42,41.45-11.72v-22.89h-38.38l-1.26-4.05h38.24l6.84-7.82,15.21,11.58c-.84.98-2.79,2.37-5.72,2.79v36.15c0,3.07-.14,5.58-.98,7.82l20.52,3.49c-.56,2.09-2.51,3.21-5.58,3.35-3.07,2.37-7.68,5.72-11.31,8.24h30.01l7.68-8.38,2.09,1.54c-.28-3.91-.84-7.12-2.37-9.07-1.67-2.09-3.91-3.91-9.49-4.75v-1.95s9.91.7,12.7.7c1.95,0,2.51-.84,2.51-2.51v-10.05c-7.54,4.88-17.17,10.89-29.45,18-.56,1.81-1.81,3.07-3.21,3.63l-9.77-15.63c7.68-1.67,24.29-6.14,42.43-11.17v-21.91h-39.22l-1.26-4.05h39.08l6.84-7.82,15.49,11.58Zm-113.33,3.21c35.17,1.81,26.24,27.5,12.7,19.82-2.09-6.7-8.51-14.38-13.96-18.84l1.26-.98Zm23.31,62.53v17.45h57.36v-17.45h-57.36Zm57.36,39.78v-18.28h-57.36v18.28h57.36Zm-22.89-102.17c35.31.84,26.38,26.94,12.7,19.4-2.23-6.56-8.37-14.1-13.82-18.42l1.12-.98Z"/>
      <path class="cls-11" d="m594.67,635.44c-.98,1.4-2.37,1.81-5.58,2.09-10.19,26.52-30.85,45.64-67.97,54.29l-.98-1.81c16.19-6.56,28.75-15.77,37.82-27.08-2.23.84-5.02.56-7.96-1.4-.56-4.88-3.49-10.33-6.7-14.38-4.75,3.21-9.77,5.86-15.07,7.96l-1.26-1.26c9.49-7.54,17.59-20.52,22.05-33.08-5.72,2.79-12,5.3-18.98,7.26l-.98-1.67c11.44-5.58,20.8-13.12,27.91-21.91-2.37.98-5.3.7-8.37-1.54-.28-4.19-2.37-8.65-5.3-11.86-4.47,3.63-9.49,6.84-14.79,9.35l-1.26-.98v19.82c-.14,1.12-6.84,4.33-11.72,4.33h-2.37v-4.75h-8.51v15.21h8.23l7.4-10.05s8.51,6.84,13.54,11.72c-.28,1.54-1.81,2.23-3.77,2.23h-25.4v7.12c36.43,6.84,25.96,33.08,12.56,24.15-1.67-6.98-7.12-15.21-12.56-20.94v39.64c0,.98-4.61,4.05-12.14,4.05h-2.65v-32.52c-7.82,8.51-17.45,15.91-28.19,21.91l-1.4-1.67c11.44-11.03,20.1-26.8,25.4-41.73h-22.19l-1.12-3.91h27.5v-15.21h-8.65v3.07c0,1.4-6.14,4.75-12.14,4.75h-2.09v-61.83l14.93,6.14h30.01l6.7-7.12,13.82,10.47c-.7,1.12-2.51,2.23-5.16,2.65v22.19c9.35-8.79,17.45-24.42,20.94-38.1l20.1,6.7c-.56,1.54-1.81,2.09-5.3,1.54-1.67,2.51-3.49,5.16-5.58,7.68h12.56l8.1-7.82,13.54,11.72c-.98,1.26-2.37,1.67-5.44,1.95-6,13.54-15.63,25.12-29.59,33.78l15.77,4.89c-.56,1.4-1.67,2.09-5.3,1.54-1.67,2.79-3.77,5.44-6,8.09h10.89l8.51-8.09,14.24,12.42Zm-113.47-60.43v17.73h9.77v-17.73h-9.77Zm0,39.78h9.77v-18.14h-9.77v18.14Zm22.33-39.78v17.73h9.63v-17.73h-9.63Zm9.63,39.78v-18.14h-9.63v18.14h9.63Zm41.03-33.92c-2.37,2.65-4.89,5.16-7.54,7.4,11.17,1.54,14.93,6.28,14.79,10.33,3.77-5.58,6.7-11.44,8.79-17.73h-16.05Zm3.35,54.29c-3.21,3.21-6.56,6.28-10.19,9.07,11.44,2.23,15.49,7.82,15.21,12.42,4.33-6.7,7.54-13.82,9.91-21.49h-14.93Z"/>
      <path class="cls-11" d="m664.45,567.75c-.7,1.81-2.23,3.07-5.44,2.93-4.61,12.14-10.05,23.17-16.33,32.94l9.91,3.63c-.42,1.4-1.67,2.23-4.33,2.65v77.74c-.14,1.26-6.98,4.61-13.4,4.61h-3.07v-73.97c-5.16,6-10.61,11.31-16.47,15.91l-1.81-1.12c11.44-17.45,22.89-44.94,28.47-72.16l22.47,6.84Zm66.3,62.95s10.19,8.38,16.33,14.1c-.42,1.54-1.95,2.23-3.91,2.23h-37.13v39.08c0,1.67-7.12,5.72-13.26,5.72h-3.07v-44.8h-35.31l-1.12-3.91h36.43v-26.94h-32.1l-1.12-3.91h33.22v-50.25l21.49,2.09c-.28,2.09-1.4,3.49-5.16,4.05v44.11h13.54l8.79-11.31s9.63,7.54,15.49,12.98c-.28,1.54-1.81,2.23-3.77,2.23h-34.06v26.94h15.63l9.07-12.42Zm-68.25-58.48c34.75,15.91,19.4,42.43,6.42,29.87-.42-9.63-4.47-20.94-7.96-29.17l1.54-.7Zm79.84,6.14c-.7,1.54-2.51,2.65-5.58,2.51-6.7,8.79-15.07,17.73-23.03,23.73l-1.81-.98c3.07-8.24,6.84-21.63,9.77-33.36l20.66,8.1Z"/>
    </g>
    <g>
      <path class="cls-10" d="m325.84,785.11l.97.21-3.4,10.78h-30.76v-1.08h1.49c1.68,0,2.88-.55,3.6-1.64.41-.62.62-2.07.62-4.34v-25.63c0-2.48-.27-4.03-.82-4.66-.76-.86-1.89-1.29-3.4-1.29h-1.49v-1.08h17.99v1.08c-2.11-.02-3.59.18-4.44.59s-1.43.93-1.74,1.55-.47,2.12-.47,4.48v24.96c0,1.62.16,2.73.47,3.34.23.41.6.71,1.08.91s2.01.29,4.57.29h2.9c3.05,0,5.19-.22,6.42-.67s2.35-1.25,3.37-2.39,2.03-2.94,3.05-5.41Z"/>
      <path class="cls-10" d="m341.23,758.53v15.7h8.73c2.27,0,3.78-.34,4.54-1.03,1.02-.9,1.58-2.48,1.7-4.75h1.08v13.83h-1.08c-.27-1.93-.55-3.17-.82-3.72-.35-.68-.93-1.22-1.73-1.61-.8-.39-2.03-.59-3.69-.59h-8.73v13.1c0,1.76.08,2.83.23,3.21.16.38.43.68.82.91.39.22,1.13.34,2.23.34h6.74c2.25,0,3.88-.16,4.89-.47,1.02-.31,1.99-.93,2.93-1.85,1.21-1.21,2.45-3.04,3.72-5.48h1.17l-3.43,9.96h-30.62v-1.08h1.41c.94,0,1.83-.22,2.67-.67.62-.31,1.05-.78,1.27-1.41.22-.62.34-1.9.34-3.84v-25.81c0-2.52-.25-4.07-.76-4.66-.7-.78-1.88-1.17-3.52-1.17h-1.41v-1.08h30.62l.44,8.7h-1.14c-.41-2.09-.86-3.53-1.36-4.31s-1.24-1.38-2.21-1.79c-.78-.29-2.16-.44-4.13-.44h-10.9Z"/>
      <path class="cls-10" d="m393.39,782.79h-15.38l-2.7,6.27c-.66,1.54-1,2.7-1,3.46,0,.61.29,1.14.86,1.6.58.46,1.82.76,3.74.89v1.08h-12.51v-1.08c1.66-.29,2.73-.67,3.22-1.14,1-.94,2.1-2.84,3.31-5.71l13.97-32.7h1.03l13.83,33.05c1.11,2.66,2.12,4.38,3.03,5.17s2.17,1.24,3.79,1.33v1.08h-15.67v-1.08c1.58-.08,2.65-.34,3.21-.79s.83-1,.83-1.64c0-.86-.39-2.22-1.17-4.07l-2.4-5.71Zm-.82-2.17l-6.74-16.05-6.91,16.05h13.65Z"/>
      <path class="cls-10" d="m450.42,796.09h-10.61l-13.45-18.57c-1,.04-1.81.06-2.43.06-.25,0-.53,0-.82-.01s-.6-.02-.91-.04v11.54c0,2.5.27,4.05.82,4.66.74.86,1.86,1.29,3.34,1.29h1.55v1.08h-17.02v-1.08h1.49c1.68,0,2.88-.55,3.6-1.64.41-.61.62-2.04.62-4.31v-25.66c0-2.5-.27-4.05-.82-4.66-.76-.86-1.89-1.29-3.4-1.29h-1.49v-1.08h14.47c4.22,0,7.33.31,9.33.92s3.7,1.75,5.1,3.4,2.09,3.62,2.09,5.9c0,2.44-.8,4.56-2.39,6.36s-4.06,3.07-7.4,3.81l8.2,11.4c1.88,2.62,3.49,4.36,4.83,5.21s3.11,1.41,5.27,1.64v1.08Zm-28.21-20.42c.37,0,.69,0,.97.01s.5.01.67.01c3.79,0,6.65-.82,8.57-2.46s2.89-3.73,2.89-6.27-.78-4.5-2.33-6.05-3.61-2.33-6.17-2.33c-1.13,0-2.67.19-4.6.56v16.52Z"/>
      <path class="cls-10" d="m449.7,756.36h10.78l24.29,29.79v-22.91c0-2.44-.27-3.96-.82-4.57-.72-.82-1.87-1.23-3.43-1.23h-1.38v-1.08h13.83v1.08h-1.41c-1.68,0-2.87.51-3.57,1.52-.43.62-.64,2.05-.64,4.28v33.49h-1.05l-26.19-31.99v24.46c0,2.44.26,3.96.79,4.57.74.82,1.88,1.23,3.43,1.23h1.41v1.08h-13.83v-1.08h1.38c1.7,0,2.9-.51,3.6-1.52.43-.62.64-2.05.64-4.28v-27.63c-1.15-1.35-2.03-2.24-2.62-2.67-.6-.43-1.47-.83-2.62-1.2-.57-.18-1.43-.26-2.58-.26v-1.08Z"/>
      <path class="cls-10" d="m512.94,795.01v1.08h-17.02v-1.08h1.41c1.64,0,2.83-.48,3.57-1.44.47-.62.7-2.13.7-4.51v-25.66c0-2.01-.13-3.34-.38-3.98-.2-.49-.6-.91-1.2-1.26-.86-.47-1.76-.7-2.7-.7h-1.41v-1.08h17.02v1.08h-1.44c-1.62,0-2.8.48-3.54,1.44-.49.62-.73,2.13-.73,4.51v25.66c0,2.01.13,3.34.38,3.98.2.49.61.91,1.23,1.26.84.47,1.73.7,2.67.7h1.44Z"/>
      <path class="cls-10" d="m514.21,756.36h10.78l24.29,29.79v-22.91c0-2.44-.27-3.96-.82-4.57-.72-.82-1.87-1.23-3.43-1.23h-1.38v-1.08h13.83v1.08h-1.41c-1.68,0-2.87.51-3.57,1.52-.43.62-.64,2.05-.64,4.28v33.49h-1.05l-26.19-31.99v24.46c0,2.44.26,3.96.79,4.57.74.82,1.88,1.23,3.43,1.23h1.41v1.08h-13.83v-1.08h1.38c1.7,0,2.9-.51,3.6-1.52.43-.62.64-2.05.64-4.28v-27.63c-1.15-1.35-2.03-2.24-2.62-2.67-.6-.43-1.47-.83-2.62-1.2-.57-.18-1.43-.26-2.58-.26v-1.08Z"/>
      <path class="cls-10" d="m595.76,755.46l1.03,12.54h-1.03c-1.04-3.12-2.37-5.48-4.01-7.06-2.36-2.29-5.4-3.43-9.11-3.43-5.06,0-8.91,2-11.54,6.01-2.21,3.38-3.31,7.4-3.31,12.07,0,3.79.73,7.25,2.2,10.37s3.38,5.42,5.76,6.87,4.81,2.18,7.31,2.18c1.46,0,2.88-.19,4.25-.56,1.37-.37,2.69-.92,3.96-1.64v-11.48c0-1.99-.15-3.3-.45-3.91-.3-.62-.77-1.08-1.41-1.41-.64-.32-1.75-.48-3.35-.48v-1.11h15.38v1.11h-.73c-1.52,0-2.57.51-3.13,1.52-.39.72-.59,2.15-.59,4.28v12.16c-2.25,1.21-4.46,2.1-6.65,2.67-2.19.57-4.62.85-7.29.85-7.68,0-13.51-2.46-17.49-7.38-2.99-3.69-4.48-7.95-4.48-12.77,0-3.5.84-6.85,2.52-10.05,1.99-3.81,4.73-6.74,8.2-8.79,2.91-1.7,6.35-2.55,10.31-2.55,1.44,0,2.76.12,3.94.35,1.18.23,2.86.75,5.02,1.55,1.09.41,1.83.62,2.2.62s.69-.17.95-.51.42-1.01.48-2.01h1.08Z"/>
      <path class="cls-10" d="m242.02,849.49v11.57c0,2.5.27,4.05.82,4.66.74.86,1.87,1.29,3.37,1.29h1.52v1.08h-17.02v-1.08h1.49c1.68,0,2.88-.55,3.6-1.64.39-.61.59-2.04.59-4.31v-25.66c0-2.5-.26-4.05-.79-4.66-.76-.86-1.89-1.29-3.4-1.29h-1.49v-1.08h14.56c3.55,0,6.36.37,8.41,1.1s3.78,1.97,5.19,3.71,2.11,3.8,2.11,6.18c0,3.24-1.07,5.88-3.21,7.91s-5.16,3.05-9.07,3.05c-.96,0-1.99-.07-3.11-.21s-2.3-.34-3.57-.62Zm0-1.67c1.04.2,1.95.34,2.75.44s1.48.15,2.05.15c2.03,0,3.78-.79,5.26-2.36s2.21-3.61,2.21-6.11c0-1.72-.35-3.32-1.05-4.79s-1.7-2.58-2.99-3.31-2.75-1.1-4.39-1.1c-1,0-2.28.19-3.84.56v16.52Z"/>
      <path class="cls-10" d="m285.63,854.79h-15.38l-2.7,6.27c-.66,1.54-1,2.7-1,3.46,0,.61.29,1.14.86,1.6.58.46,1.82.76,3.74.89v1.08h-12.51v-1.08c1.66-.29,2.73-.67,3.22-1.14,1-.94,2.1-2.84,3.31-5.71l13.97-32.7h1.03l13.83,33.05c1.11,2.66,2.12,4.38,3.03,5.17s2.17,1.24,3.79,1.33v1.08h-15.67v-1.08c1.58-.08,2.65-.34,3.21-.79s.83-1,.83-1.64c0-.86-.39-2.22-1.17-4.07l-2.4-5.71Zm-.82-2.17l-6.74-16.05-6.91,16.05h13.65Z"/>
      <path class="cls-10" d="m342.65,868.09h-10.61l-13.45-18.57c-1,.04-1.81.06-2.43.06-.25,0-.53,0-.82-.01s-.6-.02-.91-.04v11.54c0,2.5.27,4.05.82,4.66.74.86,1.86,1.29,3.34,1.29h1.55v1.08h-17.02v-1.08h1.49c1.68,0,2.88-.55,3.6-1.64.41-.61.62-2.04.62-4.31v-25.66c0-2.5-.27-4.05-.82-4.66-.76-.86-1.89-1.29-3.4-1.29h-1.49v-1.08h14.47c4.22,0,7.33.31,9.33.92s3.7,1.75,5.1,3.4,2.09,3.62,2.09,5.9c0,2.44-.8,4.56-2.39,6.36s-4.06,3.07-7.4,3.81l8.2,11.4c1.88,2.62,3.49,4.36,4.83,5.21s3.11,1.41,5.27,1.64v1.08Zm-28.21-20.42c.37,0,.69,0,.97.01s.5.01.67.01c3.79,0,6.65-.82,8.57-2.46s2.89-3.73,2.89-6.27-.78-4.5-2.33-6.05-3.61-2.33-6.17-2.33c-1.13,0-2.67.19-4.6.56v16.52Z"/>
      <path class="cls-10" d="m373.84,828.36l.44,9.32h-1.11c-.22-1.64-.51-2.81-.88-3.52-.61-1.13-1.41-1.97-2.42-2.5-1.01-.54-2.33-.81-3.97-.81h-5.6v30.35c0,2.44.26,3.96.79,4.57.74.82,1.88,1.23,3.43,1.23h1.38v1.08h-16.85v-1.08h1.41c1.68,0,2.87-.51,3.57-1.52.43-.62.64-2.05.64-4.28v-30.35h-4.78c-1.86,0-3.17.14-3.96.41-1.02.37-1.89,1.08-2.61,2.14-.72,1.05-1.15,2.48-1.29,4.28h-1.11l.47-9.32h32.43Z"/>
      <path class="cls-10" d="m375.58,828.36h10.78l24.29,29.79v-22.91c0-2.44-.27-3.96-.82-4.57-.72-.82-1.87-1.23-3.43-1.23h-1.38v-1.08h13.83v1.08h-1.41c-1.68,0-2.87.51-3.57,1.52-.43.62-.64,2.05-.64,4.28v33.49h-1.05l-26.19-31.99v24.46c0,2.44.26,3.96.79,4.57.74.82,1.88,1.23,3.43,1.23h1.41v1.08h-13.83v-1.08h1.38c1.7,0,2.9-.51,3.6-1.52.43-.62.64-2.05.64-4.28v-27.63c-1.15-1.35-2.03-2.24-2.62-2.67-.6-.43-1.47-.83-2.62-1.2-.57-.18-1.43-.26-2.58-.26v-1.08Z"/>
      <path class="cls-10" d="m432.84,830.53v15.7h8.73c2.27,0,3.78-.34,4.54-1.03,1.02-.9,1.58-2.48,1.7-4.75h1.08v13.83h-1.08c-.27-1.93-.55-3.17-.82-3.72-.35-.68-.93-1.22-1.73-1.61s-2.03-.59-3.69-.59h-8.73v13.1c0,1.76.08,2.83.23,3.21s.43.68.82.91,1.13.34,2.23.34h6.74c2.25,0,3.88-.16,4.89-.47s1.99-.93,2.93-1.85c1.21-1.21,2.45-3.04,3.72-5.48h1.17l-3.43,9.96h-30.62v-1.08h1.41c.94,0,1.83-.22,2.67-.67.62-.31,1.05-.78,1.27-1.41s.34-1.9.34-3.84v-25.81c0-2.52-.25-4.07-.76-4.66-.7-.78-1.88-1.17-3.52-1.17h-1.41v-1.08h30.62l.44,8.7h-1.14c-.41-2.09-.86-3.53-1.36-4.31s-1.24-1.38-2.21-1.79c-.78-.29-2.16-.44-4.13-.44h-10.9Z"/>
      <path class="cls-10" d="m498.1,868.09h-10.61l-13.45-18.57c-1,.04-1.81.06-2.43.06-.25,0-.53,0-.82-.01s-.6-.02-.91-.04v11.54c0,2.5.27,4.05.82,4.66.74.86,1.85,1.29,3.34,1.29h1.55v1.08h-17.02v-1.08h1.49c1.68,0,2.88-.55,3.6-1.64.41-.61.62-2.04.62-4.31v-25.66c0-2.5-.27-4.05-.82-4.66-.76-.86-1.9-1.29-3.4-1.29h-1.49v-1.08h14.47c4.22,0,7.33.31,9.33.92,2,.62,3.7,1.75,5.1,3.4,1.4,1.65,2.09,3.62,2.09,5.9,0,2.44-.8,4.56-2.39,6.36-1.59,1.8-4.06,3.07-7.4,3.81l8.2,11.4c1.88,2.62,3.49,4.36,4.83,5.21s3.11,1.41,5.27,1.64v1.08Zm-28.21-20.42c.37,0,.69,0,.97.01.27,0,.5.01.67.01,3.79,0,6.65-.82,8.57-2.46,1.92-1.64,2.89-3.73,2.89-6.27s-.78-4.5-2.33-6.05-3.61-2.33-6.17-2.33c-1.13,0-2.67.19-4.6.56v16.52Z"/>
      <path class="cls-10" d="m525.68,827.46v13.74h-1.08c-.35-2.64-.98-4.74-1.89-6.3s-2.2-2.8-3.88-3.72-3.42-1.38-5.21-1.38c-2.03,0-3.71.62-5.04,1.86s-1.99,2.65-1.99,4.23c0,1.21.42,2.31,1.26,3.31,1.21,1.46,4.09,3.42,8.64,5.86,3.71,1.99,6.25,3.52,7.6,4.58s2.4,2.32,3.13,3.76,1.1,2.96,1.1,4.54c0,3.01-1.17,5.6-3.5,7.78s-5.34,3.27-9.01,3.27c-1.15,0-2.24-.09-3.25-.26-.61-.1-1.86-.45-3.76-1.07s-3.11-.92-3.62-.92-.87.15-1.16.44-.49.9-.63,1.82h-1.08v-13.62h1.08c.51,2.85,1.19,4.99,2.05,6.4s2.17,2.59,3.94,3.53,3.71,1.41,5.82,1.41c2.44,0,4.37-.64,5.79-1.93s2.12-2.81,2.12-4.57c0-.98-.27-1.96-.81-2.96s-1.37-1.92-2.5-2.78c-.76-.59-2.84-1.83-6.24-3.74s-5.82-3.42-7.25-4.56-2.52-2.38-3.27-3.75-1.11-2.87-1.11-4.51c0-2.85,1.09-5.31,3.28-7.37s4.97-3.09,8.35-3.09c2.11,0,4.35.52,6.71,1.55,1.09.49,1.87.73,2.31.73.51,0,.92-.15,1.25-.45s.58-.91.78-1.83h1.08Z"/>
      <path class="cls-10" d="m544.48,846.79h18.46v-11.37c0-2.03-.13-3.37-.38-4.01-.2-.49-.61-.91-1.23-1.26-.84-.47-1.73-.7-2.67-.7h-1.41v-1.08h16.99v1.08h-1.41c-.94,0-1.83.22-2.67.67-.63.31-1.05.79-1.27,1.42-.23.63-.34,1.93-.34,3.88v25.63c0,2.01.13,3.34.38,3.98.19.49.6.91,1.2,1.26.86.47,1.76.7,2.7.7h1.41v1.08h-16.99v-1.08h1.41c1.62,0,2.8-.48,3.54-1.44.49-.62.73-2.13.73-4.51v-12.1h-18.46v12.1c0,2.01.13,3.34.38,3.98.19.49.6.91,1.23,1.26.84.47,1.73.7,2.67.7h1.44v1.08h-17.02v-1.08h1.41c1.64,0,2.83-.48,3.57-1.44.47-.62.7-2.13.7-4.51v-25.63c0-2.03-.13-3.37-.38-4.01-.2-.49-.6-.91-1.2-1.26-.86-.47-1.76-.7-2.7-.7h-1.41v-1.08h17.02v1.08h-1.44c-.94,0-1.83.22-2.67.67-.61.31-1.03.79-1.26,1.42s-.35,1.93-.35,3.88v11.37Z"/>
      <path class="cls-10" d="m594.59,867.01v1.08h-17.02v-1.08h1.41c1.64,0,2.83-.48,3.57-1.44.47-.62.7-2.13.7-4.51v-25.66c0-2.01-.13-3.34-.38-3.98-.2-.49-.6-.91-1.2-1.26-.86-.47-1.76-.7-2.7-.7h-1.41v-1.08h17.02v1.08h-1.44c-1.62,0-2.8.48-3.54,1.44-.49.62-.73,2.13-.73,4.51v25.66c0,2.01.13,3.34.38,3.98.19.49.6.91,1.23,1.26.84.47,1.73.7,2.67.7h1.44Z"/>
      <path class="cls-10" d="m608.96,849.49v11.57c0,2.5.27,4.05.82,4.66.74.86,1.87,1.29,3.37,1.29h1.52v1.08h-17.02v-1.08h1.49c1.68,0,2.88-.55,3.6-1.64.39-.61.59-2.04.59-4.31v-25.66c0-2.5-.26-4.05-.79-4.66-.76-.86-1.89-1.29-3.4-1.29h-1.49v-1.08h14.56c3.55,0,6.36.37,8.41,1.1s3.78,1.97,5.19,3.71,2.11,3.8,2.11,6.18c0,3.24-1.07,5.88-3.21,7.91s-5.16,3.05-9.07,3.05c-.96,0-1.99-.07-3.11-.21s-2.3-.34-3.57-.62Zm0-1.67c1.04.2,1.95.34,2.75.44s1.48.15,2.05.15c2.03,0,3.78-.79,5.26-2.36s2.21-3.61,2.21-6.11c0-1.72-.35-3.32-1.05-4.79s-1.7-2.58-2.99-3.31-2.75-1.1-4.39-1.1c-1,0-2.28.19-3.84.56v16.52Z"/>
      <path class="cls-10" d="m658.13,827.46v13.74h-1.08c-.35-2.64-.98-4.74-1.89-6.3s-2.2-2.8-3.88-3.72c-1.68-.92-3.42-1.38-5.21-1.38-2.03,0-3.71.62-5.04,1.86-1.33,1.24-1.99,2.65-1.99,4.23,0,1.21.42,2.31,1.26,3.31,1.21,1.46,4.09,3.42,8.64,5.86,3.71,1.99,6.24,3.52,7.6,4.58,1.36,1.06,2.4,2.32,3.13,3.76s1.1,2.96,1.1,4.54c0,3.01-1.17,5.6-3.5,7.78-2.33,2.18-5.34,3.27-9.01,3.27-1.15,0-2.24-.09-3.25-.26-.61-.1-1.86-.45-3.76-1.07s-3.11-.92-3.62-.92-.87.15-1.16.44c-.28.29-.49.9-.63,1.82h-1.08v-13.62h1.08c.51,2.85,1.19,4.99,2.05,6.4.86,1.42,2.17,2.59,3.94,3.53,1.77.94,3.71,1.41,5.82,1.41,2.44,0,4.37-.64,5.79-1.93,1.42-1.29,2.12-2.81,2.12-4.57,0-.98-.27-1.96-.81-2.96-.54-1-1.37-1.92-2.5-2.78-.76-.59-2.84-1.83-6.24-3.74s-5.82-3.42-7.25-4.56-2.52-2.38-3.27-3.75c-.74-1.37-1.11-2.87-1.11-4.51,0-2.85,1.09-5.31,3.28-7.37,2.19-2.06,4.97-3.09,8.35-3.09,2.11,0,4.35.52,6.71,1.55,1.09.49,1.86.73,2.31.73.51,0,.92-.15,1.25-.45s.58-.91.78-1.83h1.08Z"/>
    </g>
  </g>
</svg>