<?xml version="1.0" encoding="UTF-8"?>
<svg id="_圖層_1" data-name="圖層 1" xmlns="http://www.w3.org/2000/svg" viewBox="0 0 900 900">
  <defs>
    <style>
      .cls-1 {
        fill: #fb5858;
      }

      .cls-2 {
        fill: #f29500;
      }

      .cls-3 {
        fill: #fd9a9a;
      }

      .cls-4 {
        fill: #fff;
      }

      .cls-5 {
        fill: #fff04a;
      }

      .cls-6 {
        fill: #fff36c;
      }

      .cls-7 {
        fill: #f44545;
      }

      .cls-8 {
        fill: #ffc14f;
      }

      .cls-9 {
        fill: #fdbcbc;
      }

      .cls-10 {
        fill: #3078c8;
      }

      .cls-11 {
        fill: #a6e0ec;
      }

      .cls-12 {
        fill: #c2eaf2;
      }

      .cls-13 {
        fill: #def4f8;
      }

      .cls-14 {
        fill: #0a4499;
      }

      .cls-15 {
        fill: #0956c6;
      }

      .cls-16 {
        fill: #0a3575;
      }

      .cls-17 {
        fill: #455c84;
      }
    </style>
  </defs>
  <g>
    <path class="cls-13" d="m586.07,93.74v216.85c0,6.37-5.16,11.53-11.53,11.53h-130.73c-6.37,0-11.53-5.16-11.53-11.53V93.74c0-6.37,5.16-11.53,11.53-11.53h130.73c6.37,0,11.53,5.16,11.53,11.53Z"/>
    <path class="cls-12" d="m475.11,322.12h-31.3c-6.37,0-11.53-5.16-11.53-11.53V93.74c0-6.37,5.16-11.53,11.53-11.53h31.3c-6.37,0-11.53,5.16-11.53,11.53v216.85c0,6.37,5.16,11.53,11.53,11.53Z"/>
    <path class="cls-11" d="m458.42,203.31c0-3.19,2.58-5.77,5.77-5.77h57.67c3.19,0,5.77,2.58,5.77,5.77s-2.58,5.77-5.77,5.77h-57.67c-3.19,0-5.77-2.58-5.77-5.77Zm5.77,28.84h73.05c3.19,0,5.77-2.58,5.77-5.77s-2.58-5.77-5.77-5.77h-73.05c-3.19,0-5.77,2.58-5.77,5.77s2.58,5.77,5.77,5.77Zm73.05,34.6h-73.05c-3.19,0-5.77,2.58-5.77,5.77s2.58,5.77,5.77,5.77h73.05c3.19,0,5.77-2.58,5.77-5.77s-2.58-5.77-5.77-5.77Zm-73.05-11.53h49.98c3.19,0,5.77-2.58,5.77-5.77s-2.58-5.77-5.77-5.77h-49.98c-3.19,0-5.77,2.58-5.77,5.77s2.58,5.77,5.77,5.77Z"/>
    <path class="cls-8" d="m567.62,109.12v61.52c0,2.12-1.72,3.84-3.84,3.84h-109.19c-2.12,0-3.84-1.72-3.84-3.84v-61.52c0-2.12,1.72-3.84,3.84-3.84h109.19c2.12,0,3.84,1.72,3.84,3.84Z"/>
    <path class="cls-6" d="m543.01,128.34c0,3.19-2.58,5.77-5.77,5.77h-73.05c-3.19,0-5.77-2.58-5.77-5.77s2.58-5.77,5.77-5.77h73.05c3.19,0,5.77,2.58,5.77,5.77Zm-28.84,17.3h-49.98c-3.19,0-5.77,2.58-5.77,5.77s2.58,5.77,5.77,5.77h49.98c3.19,0,5.77-2.58,5.77-5.77s-2.58-5.77-5.77-5.77Z"/>
    <path class="cls-1" d="m320.01,253.77h189.17c6.37,0,11.53,5.16,11.53,11.53v130.73c0,6.37-5.16,11.53-11.53,11.53h-189.17c-6.37,0-11.53-5.16-11.53-11.53v-130.73c0-6.37,5.16-11.53,11.53-11.53Z"/>
    <path class="cls-7" d="m342.03,407.57h-22.02c-6.37,0-11.53-5.16-11.53-11.53v-130.73c0-6.37,5.16-11.53,11.53-11.53h22.02c-6.37,0-11.53,5.16-11.53,11.53v130.73c0,6.37,5.16,11.53,11.53,11.53Z"/>
    <path class="cls-3" d="m320.01,385.06c0-3.19,2.58-5.77,5.77-5.77h143.5c3.19,0,5.77,2.58,5.77,5.77s-2.58,5.77-5.77,5.77h-143.5c-3.19,0-5.77-2.58-5.77-5.77Z"/>
    <path class="cls-9" d="m320.01,385.06c0-3.19,2.58-5.77,5.77-5.77h35.37c3.19,0,5.77,2.58,5.77,5.77s-2.58,5.77-5.77,5.77h-35.37c-3.19,0-5.77-2.58-5.77-5.77Z"/>
    <path class="cls-15" d="m443.81,180.63v86.13c0,4.25-3.44,7.69-7.69,7.69h-56.63c-2.7,0-4.88,2.19-4.88,4.88v20.99c0,2.7-2.19,4.88-4.88,4.88-1.74,0-3.34-.92-4.22-2.42l-15.12-25.91c-.88-1.5-2.48-2.42-4.22-2.42h-79.22c-4.25,0-7.69-3.44-7.69-7.69v-86.13c0-4.25,3.44-7.69,7.69-7.69h169.17c4.25,0,7.69,3.44,7.69,7.69h0Z"/>
    <path class="cls-14" d="m290.02,274.44h-23.07c-4.25,0-7.69-3.44-7.69-7.69v-86.13c0-4.25,3.44-7.69,7.69-7.69h23.07c-4.25,0-7.69,3.44-7.69,7.69v86.13c0,4.25,3.44,7.69,7.69,7.69Z"/>
    <path class="cls-16" d="m290.02,211.39c0-3.19,2.58-5.77,5.77-5.77h119.19c3.19,0,5.77,2.58,5.77,5.77s-2.58,5.77-5.77,5.77h-119.19c-3.19,0-5.77-2.58-5.77-5.77Z"/>
    <path class="cls-4" d="m290.02,234.46c0-3.19,2.58-5.77,5.77-5.77h78.97c3.19,0,5.77,2.58,5.77,5.77s-2.58,5.77-5.77,5.77h-78.97c-3.19,0-5.77-2.58-5.77-5.77Zm106.89,57.9v57.39c0,2.09,2.33,3.34,4.07,2.18l43.11-28.69c1.56-1.04,1.56-3.32,0-4.36l-43.11-28.69c-1.74-1.16-4.07.09-4.07,2.18h0Zm-22.74,92.82c0,5.95-4.82,10.77-10.77,10.77s-10.77-4.82-10.77-10.77,4.82-10.77,10.77-10.77,10.77,4.82,10.77,10.77Z"/>
    <path class="cls-6" d="m629.9,310.27v142.12c0,4.25-3.44,7.69-7.69,7.69h-150.29c-4.25,0-7.69-3.44-7.69-7.69v-142.12c0-4.25,3.44-7.69,7.69-7.69h150.29c4.25,0,7.69,3.44,7.69,7.69h0Z"/>
    <path class="cls-5" d="m495.38,460.08h-23.45c-4.25,0-7.69-3.44-7.69-7.69v-142.12c0-4.25,3.44-7.69,7.69-7.69h23.45c-4.25,0-7.69,3.44-7.69,7.69v142.12c0,4.25,3.44,7.69,7.69,7.69h0Z"/>
    <path class="cls-8" d="m596.5,338.19v40.71c0,27.3-22.13,49.43-49.43,49.43s-49.43-22.13-49.43-49.43v-40.71c0-2.12,1.72-3.84,3.84-3.84h91.17c2.12,0,3.84,1.72,3.84,3.84h0Z"/>
    <path class="cls-2" d="m566.77,389.07c2.25,2.25,2.25,5.9,0,8.16-5.26,5.27-12.26,8.16-19.7,8.16s-14.43-2.9-19.7-8.16c-2.25-2.25-2.25-5.9,0-8.16,2.25-2.25,5.9-2.25,8.16,0,3.09,3.09,7.19,4.79,11.54,4.79s8.46-1.7,11.54-4.79c2.25-2.25,5.9-2.25,8.16,0Zm15.99-26.7c-3.27-3.27-7.61-5.07-12.23-5.07s-8.96,1.8-12.23,5.07c-2.25,2.25-2.25,5.9,0,8.16,2.25,2.25,5.9,2.25,8.16,0,1.09-1.09,2.54-1.69,4.08-1.69s2.99.6,4.08,1.69,2.6,1.69,4.08,1.69,2.95-.56,4.08-1.69c2.25-2.25,2.25-5.9,0-8.16Zm-50.99,9.85c1.48,0,2.95-.56,4.08-1.69,2.25-2.25,2.25-5.9,0-8.16-3.27-3.27-7.61-5.07-12.23-5.07s-8.96,1.8-12.23,5.07c-2.25,2.25-2.25,5.9,0,8.16,2.25,2.25,5.9,2.25,8.16,0,1.09-1.09,2.54-1.69,4.08-1.69s2.99.6,4.08,1.69,2.6,1.69,4.08,1.69h0Z"/>
  </g>
  <g>
    <g>
      <path class="cls-17" d="m209.34,596.78c-2.51.98-5.3,1.81-8.37,2.93-1.4,18-4.47,35.87-11.44,51.92,21.21,15.21,8.79,28.05-.84,21.49-1.4-2.93-3.49-6-5.72-9.07-6.98,11.03-16.05,20.66-28.75,28.19l-1.67-1.4c10.75-9.77,18.14-21.63,23.45-34.75-6.42-6.56-13.54-12.7-19.96-17.17,1.81-6.98,3.77-17.17,5.58-28.19l-1.95.42c-.84,1.81-2.51,2.93-4.05,3.21l-4.05-16.33c3.07.14,7.26,0,12.14-.14,2.23-14.52,4.05-28.61,4.47-36.99l19.26,3.07c-.42,1.67-1.26,3.07-5.44,3.49-1.12,7.54-2.79,18.28-4.75,29.87,3.07-.14,6.28-.42,9.49-.56.28-5.02.28-9.91.14-14.79l20.24,3.35c-.42,2.23-2.23,3.63-5.44,3.77-.14,2.09-.28,4.33-.42,6.42l8.1-.7v1.95Zm-29.73,48.71c4.05-13.26,6-27.36,6.84-41.31-3.49.98-7.12,1.95-11.03,3.07-2.23,11.72-4.61,23.45-6.98,33.08,4.19,1.67,7.82,3.49,11.17,5.16Zm15.77,37.82c7.68-9.35,13.82-24.01,16.33-33.92l18.56,9.21c-.7,1.26-1.95,2.23-5.3,1.81-6,8.65-16.19,18.56-28.19,24.42l-1.4-1.54Zm5.02-104.96h12.56v-17.31l19.26,1.81c-.42,1.95-1.4,3.35-5.16,3.91v11.58h23.59v-17.45l19.54,1.81c-.28,1.95-1.54,3.35-5.16,3.91v11.72h.7l6.42-9.07s7.12,6.42,11.17,10.89c-.42,1.54-1.68,2.23-3.49,2.23h-14.79v41.31c0,1.26-6.28,3.91-11.86,3.91h-2.51v-4.75h-23.59v3.07c0,1.26-6,3.77-11.58,3.77h-2.51v-47.32h-11.58l-.98-4.05Zm69.51,51.08s8.93,7.12,14.24,12.14c-.28,1.54-1.67,2.23-3.63,2.23h-34.2v43.83c0,1.4-7.12,4.33-12.14,4.33h-3.07v-48.15h-28.47l-1.12-3.91h29.59v-15.21l18.28,1.67c-.28,1.26-.98,2.09-3.07,2.51v11.03h15.77l7.82-10.47Zm-42.85-47.04v16.05h23.59v-16.05h-23.59Zm23.59,36.43v-16.33h-23.59v16.33h23.59Zm-.14,33.64c43.83,8.24,33.22,38.94,17.59,29.17-3.07-9.77-11.72-21.08-18.84-28.19l1.26-.98Z"/>
      <path class="cls-17" d="m363.7,628.32c-.84,1.12-2.93,2.37-5.58,2.79v45.08c0,8.79-1.81,13.54-15.21,14.79-.28-3.63-.7-6.56-2.09-8.24-1.54-1.81-3.49-3.07-8.1-3.91v-2.09s8.51.7,10.75.7c1.95,0,2.37-.84,2.37-2.51v-17.87c-2.37,2.65-5.16,5.72-8.09,9.21-.42,1.67-1.54,3.07-2.93,3.63l-4.89-10.05c-1.54,11.45-6.42,23.31-21.08,31.96l-1.4-1.67c9.77-12,10.33-27.5,10.33-42.29v-27.36c-.56,1.67-1.4,3.07-2.37,3.91-2.65,2.23-7.82,1.95-9.49-1.67-1.4-3.49.7-6.84,3.91-8.65,2.37-2.09,4.47-7.54,3.35-11.58l2.23.14c.84,1.81,1.4,3.63,1.81,5.3h1.54v-42.15l11.86,5.02h14.38l5.3-6.98,13.4,9.63c-1.12,1.4-2.79,2.23-6.42,2.65v30.01l4.05-4.05,7.82,7.68v-37.68l13.82,5.44h4.33v-15.91l12.14,1.4c-.14,1.4-1.12,2.51-3.35,2.93v11.58h6v-15.91l12.7,1.4c-.28,1.67-1.26,2.65-3.91,3.21v11.3h5.58l6-6.98,12.42,9.35c-.84,1.12-2.23,1.95-5.16,2.37v33.5c0,.28-1.26,1.12-3.35,1.95,2.79,2.09,7.12,5.44,10.33,8.23-.42,1.54-1.81,2.23-3.77,2.23h-66.58l-1.12-4.05h51.36l4.47-5.44c-.56.14-1.26.14-1.95.14h-2.23v-2.51h-35.59v1.4c0,.98-3.77,3.35-10.19,3.35h-1.95v-7.82c-.84.14-1.67.28-2.79.28-2.37,2.79-6.28,7.26-8.65,9.63l-1.95-.98c.14-2.51.7-6.84.98-10.33h-38.52c.42,2.93.42,5.58-.14,7.82l14.52,5.58h12l5.58-6.84,13.54,9.91Zm-34.47-20.38h4.89v-25.12l9.35,4.19h3.07v-12.14h-17.31v33.08Zm1.4,40.06c0,2.65,0,5.44-.28,8.37,3.63-1.12,9.35-3.07,15.49-5.16v-5.58c-1.4,1.4-3.63,2.23-6.28,1.4-1.95-2.37-5.58-5.16-8.93-7.26v8.24Zm0-18.84v7.12c8.37-1.26,13.12.28,15.21,2.65v-9.77h-15.21Zm10.89-21.21h5.02v-16.89h-5.02v16.89Zm83.32,64.2s8.51,6.56,13.82,11.31c-.42,1.54-1.81,2.23-3.91,2.23h-73.41l-1.12-4.05h25.96c-1.4-.42-2.79-1.26-4.05-2.51.14-4.61-1.12-9.91-2.65-13.96-1.12.14-2.37.28-3.77.28h-2.37v-35.45l14.93,5.86h21.77l6.42-7.26,12.98,9.63c-.7,1.26-2.09,1.95-5.02,2.51v19.82c0,.56-3.91,2.79-10.33,3.07l10.33,3.49c-.56,1.54-2.23,2.65-5.3,2.37-3.35,3.49-8.23,8.09-13.12,12.14h11.17l7.68-9.49Zm-43.55-90.72v13.4h6v-13.4h-6Zm6,17.45h-6v13.54h6v-13.54Zm-.56,63.37c0,.42-.7,1.12-2.23,1.67,14.24,6.56,11.58,15.91,5.72,17.73h11.31c2.37-6.28,4.89-14.24,6.14-20.24l2.65.84v-2.65h-23.59v2.65Zm0-22.33v15.63h23.59v-15.63h-23.59Zm9.35-58.48v13.4h6v-13.4h-6Zm0,30.99h6v-13.54h-6v13.54Zm14.79-30.99v13.4h6v-13.4h-6Zm6,30.99v-13.54h-6v13.54h6Z"/>
      <path class="cls-17" d="m590.22,622.46c-.84,1.54-2.09,1.95-5.16,2.23-2.37,13.26-6.14,26.38-13.12,38.24,6.42,5.44,13.54,9.77,21.21,13.26l-.42,1.4c-6.14.84-10.89,5.44-13.4,12.42-6.14-4.61-11.31-9.63-15.77-15.63-6,6.84-13.26,12.84-22.75,17.87l-1.26-1.67c8.1-6.84,14.24-15.21,18.56-24.42-6.28-11.45-10.47-25.54-12.98-43.41h-4.19v64.2c0,.98-4.47,4.47-12,4.47h-2.65v-35.87c-.7.42-1.67.7-2.79.7h-24.01v30.71c0,.7-4.75,3.49-12.7,3.49h-2.65v-34.2h-23.59l-1.12-4.05h24.7v-18.28h-19.68l-1.12-3.91h30.01c2.23-7.96,4.33-18.56,5.3-26.38l19.54,5.44c-.56,1.67-2.23,2.79-5.3,2.65-3.49,5.44-9.35,12.42-15.49,18.28h5.02l7.12-8.93s7.82,6,12.7,10.61c-.42,1.54-1.67,2.23-3.63,2.23h-19.12v18.28h5.3l7.96-10.33s7.96,6.28,13.54,11.17v-89.33l16.61,6.56h24.01l7.26-6.98,13.4,10.75c-.98,1.12-2.51,1.81-5.3,2.37-.28,19.26-1.4,26.66-6.28,30.29-3.49,2.51-7.96,3.21-14.52,3.35,0-3.77-.28-6-2.23-8.09-1.67-1.81-4.89-2.93-9.07-3.91v-1.81c3.77.28,10.05.56,12.28.56,1.81,0,2.65-.14,3.35-.84,1.54-1.54,1.95-8.24,2.37-21.63h-27.22v44.38h27.64l7.82-7.82,13.82,11.58Zm-106.21-23.73v-18.42h-17.45l-1.12-4.05h18.56v-15.49l18.84,1.67c-.28,1.81-1.26,3.07-4.61,3.63v10.19h2.93l6.7-8.65s7.82,6.28,12.42,10.47c-.42,1.54-1.68,2.23-3.63,2.23h-18.42v18.42h7.68l6.98-8.93s8.1,6.14,12.98,10.75c-.28,1.54-1.81,2.23-3.77,2.23h-60.71l-1.12-4.05h23.73Zm-14.38,5.72c31.12,10.05,16.33,32.8,4.89,22.19-.14-7.4-3.35-15.91-6.28-21.77l1.4-.42Zm78.02,18.28c3.21,12.56,8.51,22.89,15.49,31.26,3.35-10.05,5.3-20.8,6.56-31.26h-22.05Z"/>
      <path class="cls-17" d="m730.62,648.14s8.65,6.56,13.82,11.3c-.42,1.54-1.81,2.23-3.63,2.23h-28.61v12.84c0,10.75-2.65,16.47-21.77,18-.42-4.47-1.26-7.82-3.49-9.91-2.51-2.23-6-3.91-13.82-5.02v-2.09s17.03,1.12,20.24,1.12c2.23,0,2.93-.56,2.93-2.37v-12.56h-81.37l-1.26-3.91h82.63v-9.91l20.52,1.81c-.28,1.95-1.67,2.93-4.61,3.49v4.61h11.03l7.4-9.63Zm-90.02-21.35c10.05,5.72,27.5,6.98,57.08,6.98,16.33,0,30.57,0,46.9-.84v1.67c-6.14,1.12-9.49,6.7-10.33,12.28h-41.73c-29.87,0-41.87-4.33-53.18-15.07-2.23-2.23-3.91-1.95-5.16.14-1.95,3.07-5.58,8.23-8.37,13.68.28,1.26-.14,2.09-1.4,2.65l-9.77-14.66c6.84-2.37,16.33-7.12,19.82-7.96,4.19-4.88,7.96-11.3,10.05-17.31h-7.4l-5.02,4.33-11.86-9.21c1.4-.98,3.49-1.95,5.58-2.51,3.21-4.05,7.12-9.49,9.91-13.82h-18.42l-1.26-3.91h20.24l4.05-4.05c-.84,0-1.54-.14-2.37-.28-3.77-4.88-12.14-10.89-18.42-13.54l1.12-1.4c25.68-5.44,30.01,9.35,23.73,13.96l11.72,10.47c-1.12,1.4-3.77,1.95-6.84,2.23-2.65,3.77-6.56,9.35-9.91,13.68h5.02l7.4-7.12,11.44,9.49v-22.75l15.91,6.28h9.21c.28-2.79.7-6,.84-8.79h-34.61l-1.12-3.91h25.54c-.7-.28-1.26-.7-1.95-1.12-.42-5.02-3.77-11.03-7.12-14.24l1.12-.84c22.47.14,21.91,12.84,15.21,16.19h16.89c1.4-5.02,3.07-11.86,3.91-16.61l20.24,4.19c-.28,1.81-1.95,2.93-5.16,2.93-3.63,2.93-9.35,6.56-14.52,9.49h13.54l7.68-9.49s8.79,6.42,14.24,11.17c-.42,1.54-1.81,2.23-3.77,2.23h-34.06c-2.79,3.07-6.14,6.28-8.93,8.79h17.45l7.12-7.4,14.52,10.89c-.84.84-2.51,1.95-4.89,2.51v31.68c-.14,1.12-7.54,4.33-12.7,4.33h-2.65v-5.03h-36.85c-.42,1.54-6.7,4.61-12.98,4.61h-2.09v-23.73c-.98.56-2.23.84-4.47.84-3.91,6.56-10.75,12.98-18.7,17.59l.56.28Zm-.14,37.27c39.64-1.4,30.43,28.47,14.79,20.38-2.65-6.84-9.77-14.93-15.77-19.4l.98-.98Zm37.82-69.93v6.98h36.85v-6.98h-36.85Zm36.85,18v-7.12h-36.85v7.12h36.85Zm0,11.17v-7.26h-36.85v7.26h36.85Z"/>
    </g>
    <g>
      <path class="cls-10" d="m232.5,796.09l-15.35-33.43v26.54c0,2.44.26,3.96.79,4.57.72.82,1.86,1.23,3.43,1.23h1.41v1.08h-13.83v-1.08h1.41c1.68,0,2.87-.51,3.57-1.52.43-.62.64-2.05.64-4.28v-25.96c0-1.76-.2-3.03-.59-3.81-.27-.57-.78-1.04-1.51-1.42s-1.91-.57-3.53-.57v-1.08h11.25l14.41,31.08,14.18-31.08h11.25v1.08h-1.38c-1.7,0-2.9.51-3.6,1.52-.43.62-.64,2.05-.64,4.28v25.96c0,2.44.27,3.96.82,4.57.72.82,1.86,1.23,3.43,1.23h1.38v1.08h-16.88v-1.08h1.41c1.7,0,2.89-.51,3.57-1.52.43-.62.64-2.05.64-4.28v-26.54l-15.32,33.43h-.97Z"/>
      <path class="cls-10" d="m274.43,758.53v15.7h8.73c2.27,0,3.78-.34,4.54-1.03,1.02-.9,1.58-2.48,1.7-4.75h1.08v13.83h-1.08c-.27-1.93-.55-3.17-.82-3.72-.35-.68-.93-1.22-1.73-1.61-.8-.39-2.03-.59-3.69-.59h-8.73v13.1c0,1.76.08,2.83.23,3.21.16.38.43.68.82.91.39.22,1.13.34,2.23.34h6.74c2.25,0,3.88-.16,4.89-.47,1.02-.31,1.99-.93,2.93-1.85,1.21-1.21,2.45-3.04,3.72-5.48h1.17l-3.43,9.96h-30.62v-1.08h1.41c.94,0,1.83-.22,2.67-.67.62-.31,1.05-.78,1.27-1.41.22-.62.34-1.9.34-3.84v-25.81c0-2.52-.25-4.07-.76-4.66-.7-.78-1.88-1.17-3.52-1.17h-1.41v-1.08h30.62l.44,8.7h-1.14c-.41-2.09-.86-3.53-1.36-4.31s-1.24-1.38-2.21-1.79c-.78-.29-2.16-.44-4.13-.44h-10.9Z"/>
      <path class="cls-10" d="m300.17,796.09v-1.08h1.49c1.68,0,2.87-.54,3.57-1.61.43-.64.64-2.09.64-4.34v-25.66c0-2.48-.27-4.03-.82-4.66-.76-.86-1.89-1.29-3.4-1.29h-1.49v-1.08h16.17c5.94,0,10.45.67,13.55,2.02,3.1,1.35,5.59,3.59,7.47,6.74,1.88,3.14,2.83,6.78,2.83,10.9,0,5.53-1.68,10.15-5.04,13.86-3.77,4.14-9.51,6.21-17.23,6.21h-17.75Zm11.34-2.87c2.48.55,4.56.82,6.24.82,4.53,0,8.29-1.59,11.28-4.78s4.48-7.5,4.48-12.95-1.49-9.81-4.48-12.98-6.83-4.75-11.51-4.75c-1.76,0-3.76.28-6.01.85v33.78Z"/>
      <path class="cls-10" d="m361.59,795.01v1.08h-17.02v-1.08h1.41c1.64,0,2.83-.48,3.57-1.44.47-.62.7-2.13.7-4.51v-25.66c0-2.01-.13-3.34-.38-3.98-.2-.49-.6-.91-1.2-1.26-.86-.47-1.76-.7-2.7-.7h-1.41v-1.08h17.02v1.08h-1.44c-1.62,0-2.8.48-3.54,1.44-.49.62-.73,2.13-.73,4.51v25.66c0,2.01.13,3.34.38,3.98.2.49.61.91,1.23,1.26.84.47,1.73.7,2.67.7h1.44Z"/>
      <path class="cls-10" d="m391.11,782.79h-15.38l-2.7,6.27c-.66,1.54-1,2.7-1,3.46,0,.61.29,1.14.86,1.6.58.46,1.82.76,3.74.89v1.08h-12.51v-1.08c1.66-.29,2.73-.67,3.22-1.14,1-.94,2.1-2.84,3.31-5.71l13.97-32.7h1.03l13.83,33.05c1.11,2.66,2.12,4.38,3.03,5.17s2.17,1.24,3.79,1.33v1.08h-15.67v-1.08c1.58-.08,2.65-.34,3.21-.79s.83-1,.83-1.64c0-.86-.39-2.22-1.17-4.07l-2.4-5.71Zm-.82-2.17l-6.74-16.05-6.91,16.05h13.65Z"/>
      <path class="cls-10" d="m460.42,796.09h-10.61l-13.45-18.57c-1,.04-1.81.06-2.43.06-.25,0-.53,0-.82-.01s-.6-.02-.91-.04v11.54c0,2.5.27,4.05.82,4.66.74.86,1.86,1.29,3.34,1.29h1.55v1.08h-17.02v-1.08h1.49c1.68,0,2.88-.55,3.6-1.64.41-.61.62-2.04.62-4.31v-25.66c0-2.5-.27-4.05-.82-4.66-.76-.86-1.89-1.29-3.4-1.29h-1.49v-1.08h14.47c4.22,0,7.33.31,9.33.92,2,.62,3.7,1.75,5.1,3.4,1.4,1.65,2.09,3.62,2.09,5.9,0,2.44-.8,4.56-2.39,6.36-1.59,1.8-4.06,3.07-7.4,3.81l8.2,11.4c1.88,2.62,3.49,4.36,4.83,5.21s3.11,1.41,5.27,1.64v1.08Zm-28.21-20.42c.37,0,.69,0,.97.01.27,0,.5.01.67.01,3.79,0,6.65-.82,8.57-2.46,1.92-1.64,2.89-3.73,2.89-6.27s-.78-4.5-2.33-6.05-3.61-2.33-6.17-2.33c-1.13,0-2.67.19-4.6.56v16.52Z"/>
      <path class="cls-10" d="m473.03,758.53v15.7h8.73c2.27,0,3.78-.34,4.54-1.03,1.02-.9,1.58-2.48,1.7-4.75h1.08v13.83h-1.08c-.27-1.93-.55-3.17-.82-3.72-.35-.68-.93-1.22-1.73-1.61-.8-.39-2.03-.59-3.69-.59h-8.73v13.1c0,1.76.08,2.83.23,3.21.16.38.43.68.82.91.39.22,1.13.34,2.23.34h6.74c2.25,0,3.88-.16,4.89-.47,1.02-.31,1.99-.93,2.93-1.85,1.21-1.21,2.45-3.04,3.72-5.48h1.17l-3.43,9.96h-30.62v-1.08h1.41c.94,0,1.83-.22,2.67-.67.62-.31,1.05-.78,1.27-1.41.22-.62.34-1.9.34-3.84v-25.81c0-2.52-.25-4.07-.76-4.66-.7-.78-1.88-1.17-3.52-1.17h-1.41v-1.08h30.62l.44,8.7h-1.14c-.41-2.09-.86-3.53-1.36-4.31s-1.24-1.38-2.21-1.79c-.78-.29-2.16-.44-4.13-.44h-10.9Z"/>
      <path class="cls-10" d="m510.05,777.49v11.57c0,2.5.27,4.05.82,4.66.74.86,1.86,1.29,3.37,1.29h1.52v1.08h-17.02v-1.08h1.49c1.68,0,2.88-.55,3.6-1.64.39-.61.59-2.04.59-4.31v-25.66c0-2.5-.26-4.05-.79-4.66-.76-.86-1.89-1.29-3.4-1.29h-1.49v-1.08h14.56c3.55,0,6.36.37,8.41,1.1s3.78,1.97,5.19,3.71,2.11,3.8,2.11,6.18c0,3.24-1.07,5.88-3.21,7.91s-5.16,3.05-9.07,3.05c-.96,0-1.99-.07-3.11-.21s-2.3-.34-3.57-.62Zm0-1.67c1.03.2,1.95.34,2.75.44.8.1,1.48.15,2.05.15,2.03,0,3.78-.79,5.26-2.36,1.47-1.57,2.21-3.61,2.21-6.11,0-1.72-.35-3.32-1.05-4.79s-1.7-2.58-2.99-3.31-2.75-1.1-4.39-1.1c-1,0-2.28.19-3.84.56v16.52Z"/>
      <path class="cls-10" d="m553.66,755.46c5.16,0,9.62,1.96,13.4,5.87s5.67,8.8,5.67,14.66-1.9,11.04-5.71,15.03-8.42,5.98-13.83,5.98-10.06-1.94-13.78-5.83-5.58-8.92-5.58-15.09,2.15-11.46,6.45-15.44c3.73-3.46,8.19-5.19,13.39-5.19Zm-.56,2.14c-3.55,0-6.41,1.32-8.55,3.96-2.68,3.28-4.01,8.09-4.01,14.41s1.39,11.47,4.16,14.97c2.13,2.66,4.94,3.98,8.44,3.98,3.73,0,6.81-1.46,9.24-4.37s3.65-7.5,3.65-13.77c0-6.8-1.34-11.87-4.01-15.21-2.15-2.66-5.12-3.98-8.91-3.98Z"/>
      <path class="cls-10" d="m616.19,796.09h-10.61l-13.45-18.57c-1,.04-1.81.06-2.43.06-.25,0-.53,0-.82-.01s-.6-.02-.91-.04v11.54c0,2.5.27,4.05.82,4.66.74.86,1.86,1.29,3.34,1.29h1.55v1.08h-17.02v-1.08h1.49c1.68,0,2.88-.55,3.6-1.64.41-.61.62-2.04.62-4.31v-25.66c0-2.5-.27-4.05-.82-4.66-.76-.86-1.89-1.29-3.4-1.29h-1.49v-1.08h14.47c4.22,0,7.33.31,9.33.92,2,.62,3.7,1.75,5.1,3.4,1.4,1.65,2.09,3.62,2.09,5.9,0,2.44-.8,4.56-2.39,6.36-1.59,1.8-4.06,3.07-7.4,3.81l8.2,11.4c1.88,2.62,3.49,4.36,4.83,5.21s3.11,1.41,5.27,1.64v1.08Zm-28.21-20.42c.37,0,.69,0,.97.01.27,0,.5.01.67.01,3.79,0,6.65-.82,8.57-2.46,1.92-1.64,2.89-3.73,2.89-6.27s-.78-4.5-2.33-6.05-3.61-2.33-6.17-2.33c-1.13,0-2.67.19-4.6.56v16.52Z"/>
      <path class="cls-10" d="m647.38,756.36l.44,9.32h-1.11c-.22-1.64-.51-2.81-.88-3.52-.61-1.13-1.41-1.97-2.42-2.5-1.01-.54-2.33-.81-3.97-.81h-5.6v30.35c0,2.44.26,3.96.79,4.57.74.82,1.88,1.23,3.43,1.23h1.38v1.08h-16.85v-1.08h1.41c1.68,0,2.87-.51,3.57-1.52.43-.62.64-2.05.64-4.28v-30.35h-4.78c-1.86,0-3.17.14-3.96.41-1.02.37-1.89,1.08-2.61,2.14-.72,1.05-1.15,2.48-1.29,4.28h-1.11l.47-9.32h32.43Z"/>
      <path class="cls-10" d="m677.42,755.46v13.74h-1.08c-.35-2.64-.98-4.74-1.89-6.3s-2.2-2.8-3.88-3.72c-1.68-.92-3.42-1.38-5.21-1.38-2.03,0-3.71.62-5.04,1.86-1.33,1.24-1.99,2.65-1.99,4.23,0,1.21.42,2.31,1.26,3.31,1.21,1.46,4.09,3.42,8.64,5.86,3.71,1.99,6.24,3.52,7.6,4.58,1.36,1.06,2.4,2.32,3.13,3.76s1.1,2.96,1.1,4.54c0,3.01-1.17,5.6-3.5,7.78-2.33,2.18-5.34,3.27-9.01,3.27-1.15,0-2.24-.09-3.25-.26-.61-.1-1.86-.45-3.76-1.07s-3.11-.92-3.62-.92-.87.15-1.16.44c-.28.29-.49.9-.63,1.82h-1.08v-13.62h1.08c.51,2.85,1.19,4.99,2.05,6.4.86,1.42,2.17,2.59,3.94,3.53,1.77.94,3.71,1.41,5.82,1.41,2.44,0,4.37-.64,5.79-1.93,1.42-1.29,2.12-2.81,2.12-4.57,0-.98-.27-1.96-.81-2.96-.54-1-1.37-1.92-2.5-2.78-.76-.59-2.84-1.83-6.24-3.74s-5.82-3.42-7.25-4.56-2.52-2.38-3.27-3.75c-.74-1.37-1.11-2.87-1.11-4.51,0-2.85,1.09-5.31,3.28-7.37,2.19-2.06,4.97-3.09,8.35-3.09,2.11,0,4.35.52,6.71,1.55,1.09.49,1.86.73,2.31.73.51,0,.92-.15,1.25-.45s.58-.91.78-1.83h1.08Z"/>
    </g>
  </g>
</svg>