<?xml version="1.0" encoding="UTF-8"?>
<svg id="_圖層_1" data-name="圖層 1" xmlns="http://www.w3.org/2000/svg" viewBox="0 0 900 900">
  <defs>
    <style>
      .cls-1 {
        fill: #f9a58d;
      }

      .cls-2 {
        fill: #00dc80;
      }

      .cls-3 {
        fill: #00cb76;
      }

      .cls-4 {
        fill: #005fe0;
      }

      .cls-5 {
        fill: #fd5;
      }

      .cls-6 {
        fill: #f5f5f8;
      }

      .cls-7 {
        fill: #ffea98;
      }

      .cls-8 {
        fill: #ffbda9;
      }

      .cls-9 {
        fill: #ffccbd;
      }

      .cls-10 {
        fill: #c38858;
      }

      .cls-11 {
        fill: #905041;
      }

      .cls-12 {
        fill: #3078c8;
      }

      .cls-13 {
        fill: #a55d4e;
      }

      .cls-14 {
        fill: #ce5668;
      }

      .cls-15 {
        fill: #c73c50;
      }

      .cls-16 {
        fill: #cfcfdd;
      }

      .cls-17 {
        fill: #d5985c;
      }

      .cls-18 {
        fill: #454553;
      }

      .cls-19 {
        fill: #455c84;
      }

      .cls-20 {
        fill: #2681ff;
      }

      .cls-21 {
        fill: #606074;
      }
    </style>
  </defs>
  <g>
    <path class="cls-7" d="m444.48,357.65l152.6,41.05c35.85-37.74,57.85-88.76,57.85-144.92,0-116.23-94.22-210.45-210.45-210.45s-210.45,94.22-210.45,210.45c0,56.16,22,107.18,57.85,144.92l152.6-41.05Z"/>
    <path class="cls-5" d="m560.21,157.46l-45.08-45.08-70.65,35.47,31.37,218.23,121.23,32.61c35.85-37.74,57.85-88.76,57.85-144.92,0-17.2-2.08-33.91-5.97-49.91l-68.92-68.92-19.83,22.52Z"/>
    <g>
      <path class="cls-21" d="m446.64,328.24h-137.71v-193.3h137.71l35.15,99.7-35.15,93.6Z"/>
      <path class="cls-18" d="m444.48,134.95h135.56v193.3h-135.56v-193.3Z"/>
    </g>
    <g>
      <path class="cls-13" d="m444.48,110.73s-76.3,14.41-76.3,56.55v39.85c0,42.14,34.16,76.3,76.3,76.3l37.32-76.3v-39.85l-37.32-56.55Z"/>
      <path class="cls-11" d="m444.48,110.73v172.7c42.14,0,76.3-34.16,76.3-76.3v-39.85c0-42.14-76.3-56.54-76.3-56.54Z"/>
    </g>
    <path class="cls-2" d="m396.86,310.7l-33.66-.45-46.2,10.67c-15.14,5.89-25.11,20.48-25.11,36.72v41.05c9.41,9.9,19.77,18.89,30.93,26.82l22.58,13.97c29.53,15.79,63.26,24.74,99.09,24.74,1.85,0,3.69-.03,5.53-.07l88.29-118.62-93.82-35.04-47.62.21Z"/>
    <path class="cls-3" d="m597.08,357.65c0-16.25-9.97-30.83-25.11-36.72l-46.2-10.67-33.66.45-47.62-.21v153.73c60.07,0,114.26-25.17,152.6-65.53v-41.05Z"/>
    <g>
      <path class="cls-8" d="m396.86,302.48l47.62,42.2,30.95-90.01-30.95-35.15h-47.62v82.96Z"/>
      <path class="cls-1" d="m444.48,344.69l47.62-42.2v-82.96h-47.62v125.16Z"/>
    </g>
    <path class="cls-9" d="m444.48,96.4c-39.76,0-72,32.23-72,72v16.93c-1-.24-2.04-.38-3.11-.38-7.4,0-13.4,6-13.4,13.4s6,13.4,13.4,13.4c1.15,0,2.25-.16,3.31-.43,2.72,37.28,33.83,66.67,71.8,66.67l35.21-72v-37.61l-35.21-72Z"/>
    <path class="cls-8" d="m519.59,184.95c-1.07,0-2.11.14-3.11.38v-16.93c0-39.76-32.23-72-72-72v181.6c37.97,0,69.07-29.4,71.8-66.67,1.06.27,2.17.43,3.31.43,7.4,0,13.4-6,13.4-13.4,0-7.4-6-13.4-13.4-13.4h0Z"/>
    <path class="cls-20" d="m444.48,201.53h-6.16v-12.33h6.17l1.94,6.4-1.94,5.93Z"/>
    <g>
      <circle class="cls-21" cx="412.24" cy="195.36" r="7.36"/>
      <circle class="cls-18" cx="476.73" cy="195.36" r="7.36"/>
    </g>
    <path class="cls-14" d="m444.48,240.24c-4.76,0-9.19-2.56-11.58-6.68l-10.67,6.18c4.58,7.92,13.11,12.84,22.25,12.84l8.22-6.55-8.22-5.78Z"/>
    <path class="cls-15" d="m466.73,239.73l-10.67-6.18c-2.39,4.12-6.82,6.68-11.58,6.68v12.33c9.14,0,17.67-4.92,22.25-12.84Z"/>
    <path class="cls-4" d="m444.35,189.2h6.29v12.33h-6.29v-12.33Z"/>
    <path class="cls-16" d="m444.48,336.47l-3.8,12.56,3.8,19.22,81.29-57.99-33.66-7.77-47.62,33.98Z"/>
    <path class="cls-6" d="m444.48,336.47v31.78l-81.29-57.99,33.66-7.77,47.62,33.98Z"/>
    <path class="cls-11" d="m499.67,103.67l-55.19-8.78-8.34,27.07,8.34,25.89h64.11v39.35h12.19v-58.79c0-12.32-8.95-22.8-21.12-24.74Z"/>
    <path class="cls-13" d="m444.48,94.89l-47.31-7.53c-15.21-2.42-28.99,9.33-28.99,24.74v75.1h12.19v-39.35h64.11v-52.96Z"/>
    <path class="cls-20" d="m380.82,198.45l-1.28-2.22-18.9-14.79,7.6-9.71,20.78,16.26,2.48,4.28-10.67,6.18Z"/>
    <path class="cls-20" d="m412.24,227.61c-17.78,0-32.25-14.47-32.25-32.25s14.47-32.25,32.25-32.25,32.25,14.47,32.25,32.25-14.47,32.25-32.25,32.25h0Zm0-52.17c-10.98,0-19.92,8.94-19.92,19.92s8.94,19.92,19.92,19.92,19.92-8.94,19.92-19.92-8.94-19.92-19.92-19.92Z"/>
    <path class="cls-4" d="m508.15,198.45l-10.67-6.18,2.48-4.28,20.78-16.26,7.6,9.71-18.9,14.79-1.28,2.21Z"/>
    <path class="cls-4" d="m476.73,227.61c-17.78,0-32.25-14.47-32.25-32.25s14.47-32.25,32.25-32.25,32.25,14.47,32.25,32.25-14.47,32.25-32.25,32.25Zm0-52.17c-10.98,0-19.92,8.94-19.92,19.92s8.94,19.92,19.92,19.92,19.92-8.94,19.92-19.92-8.94-19.92-19.92-19.92Z"/>
    <g>
      <path class="cls-17" d="m331.04,193.4l-8.22,232.11c4.2,2.98,8.51,5.81,12.93,8.48l5.76-59.62-7.36-180.97h-3.11,0Z"/>
      <path class="cls-10" d="m334.15,433c3.7,2.28,7.48,4.46,11.33,6.51l-8.22-246.11h-3.11v239.6Z"/>
    </g>
  </g>
  <g>
    <g>
      <path class="cls-19" d="m277.28,596.5c-2.37,21.49-7.68,40.48-18.28,56.39,7.82,9.77,17.87,17.73,30.29,23.59l-.42,1.4c-7.68,1.54-12.28,5.86-14.24,13.26-10.33-7.26-18-16.75-23.73-28.05-11.31,12.28-27.08,22.05-48.85,28.75l-.98-1.4c20.94-10.89,34.89-24.7,43.96-40.75-3.63-10.47-6.28-22.05-8.09-34.47-4.75,7.96-10.33,14.93-16.75,20.8l-1.81-1.12c4.05-8.09,7.82-18,11.03-28.89-.42.14-.84.14-1.4.14h-22.61c-4.33,5.02-8.93,9.91-13.96,14.52h10.19l7.4-7.68,13.68,11.86c-1.12,1.12-2.65,1.4-5.44,1.67-4.47,2.65-9.91,6-15.35,8.65l4.47.42c-.42,2.09-1.67,3.07-4.61,3.49v5.72c8.37-1.12,17.45-2.37,26.38-3.63l.28,1.95c-7.12,2.79-15.91,6-26.66,9.63v20.8c0,11.03-2.37,16.89-20.24,18.56-.42-4.88-1.12-8.51-3.21-10.75-2.23-2.37-5.16-4.05-11.86-5.16v-1.95s14.38.84,17.17.84c2.09,0,2.79-.56,2.79-2.23v-15.07c-5.86,1.95-12.28,3.91-19.12,6-.7,1.67-2.23,2.93-3.77,3.35l-6.84-16.89c6.28-.56,16.89-1.67,29.73-3.35v-13.12l8.23.7c2.23-3.07,4.47-6.7,6.28-9.77h-14.1c-9.35,7.96-19.82,15.21-31.68,20.94l-1.4-1.54c7.96-5.58,15.49-12.28,22.33-19.4h-13.4l-1.26-4.05h18.28c4.19-4.61,8.09-9.49,11.72-14.52h-35.17l-1.12-4.05h23.17v-18h-16.47l-1.12-3.91h17.59v-18.84l20.66,1.67c-.28,2.09-1.4,3.35-5.16,3.91v13.26h.42l6.56-8.93s3.91,3.21,7.68,6.7c2.65-5.16,4.75-10.19,6.56-14.93l18.28,8.79c-.84,1.54-2.23,2.37-5.72,1.81-4.88,9.21-11.17,18.98-18.84,28.47h4.33l6.56-8.65s6.14,4.89,10.75,9.21c3.49-12.98,6.28-27.08,7.54-41.03l22.47,5.3c-.42,1.81-2.09,3.07-5.44,3.21-1.95,7.96-4.33,15.35-6.98,22.33h16.19l8.65-11.17s9.77,7.82,15.49,12.98c-.42,1.54-1.81,2.23-3.77,2.23h-7.26Zm-83.46,5.58h.56c4.05-6,7.68-12,11.03-18h-11.58v18Zm52.62-5.58c-2.09,5.02-4.47,9.77-6.84,14.24,2.51,10.61,5.86,20.1,10.47,28.61,5.44-13.12,8.23-27.5,9.35-42.85h-12.98Z"/>
      <path class="cls-19" d="m349.57,630l14.24,10.89c-.84.98-2.65,2.09-5.44,2.65v36.43c-.14.98-7.12,3.77-11.72,3.77h-2.51v-9.07h-15.35v9.21c0,1.12-4.47,4.61-11.72,4.61h-2.51v-110.4l14.24,5.58c.56-6.42,1.12-15.91,1.26-22.61l21.22,3.63c-.42,2.23-2.23,3.35-5.3,3.63-2.93,4.61-7.54,11.17-10.89,16.05h7.12l6.84-7.4,14.24,10.89c-.84.98-2.65,2.09-5.3,2.65v30.85c-.14.98-7.26,3.63-11.86,3.63h-2.51v-6.84h-14.79v19.26h13.96l6.84-7.4Zm-20.8-41.73v25.82h14.79v-25.82h-14.79Zm15.35,82.49v-29.45h-15.35v29.45h15.35Zm63.5-92.26v19.96h10.33l6.7-7.54,14.65,11.03c-.7.98-2.51,2.09-5.16,2.65v50.94c0,10.33-1.81,16.05-16.33,17.45-.14-4.75-.42-8.51-1.4-10.75-.98-2.09-2.65-3.63-6.42-4.47v-2.09s5.44.42,7.26.42c1.67,0,2.09-.7,2.09-2.23v-51.5h-11.72v85.14c0,.98-4.88,4.33-12.7,4.33h-2.79v-89.47h-11.03v67.27c0,.98-4.47,4.47-12.14,4.47h-2.51v-81.93l16.47,6.28h9.21v-19.96h-27.64l-1.12-3.91h53.04l8.65-11.45s9.49,7.82,15.21,13.12c-.42,1.54-1.81,2.23-3.77,2.23h-28.89Z"/>
      <path class="cls-19" d="m559.62,627.35c24.56,3.21,27.64,12.28,23.87,17.31,3.07,2.51,7.26,6.14,10.47,9.07-.42,1.54-1.81,2.23-3.77,2.23h-30.29v17.59c0,10.89-2.37,16.89-20.52,18.56-.42-4.75-1.12-8.51-3.35-10.75-2.23-2.37-5.58-4.19-12.7-5.3v-1.95s15.49.98,18.42.98c2.23,0,2.93-.7,2.93-2.37v-16.75h-80.25l-1.12-4.05h81.37v-10.61l19.96,1.68c-.28,2.09-1.67,3.07-4.75,3.63v5.3h11.86l3.21-4.33c-1.68-.28-3.35-1.12-4.75-2.65-1.67-2.65-4.05-5.58-7.54-8.37-18.7,2.93-44.1,6-80.39,9.91-1.12,1.67-2.65,2.65-4.05,2.93l-7.82-16.47c10.33.28,28.05.28,49.69.28v-9.77h-21.49v1.12c0,1.26-6.7,4.33-12.98,4.33h-2.09v-46.06l16.05,6.28h20.52v-10.05h-52.9l-1.26-3.91h54.15v-14.1l20.66,1.81c-.28,1.95-1.54,3.35-5.16,3.91v8.38h31.4l8.23-10.89s9.35,7.4,14.93,12.56c-.42,1.54-1.95,2.23-3.91,2.23h-50.66v10.05h21.35l7.12-7.68,15.07,11.17c-.84,1.12-2.93,2.23-5.58,2.93v27.64c-.14,1.26-7.54,4.19-12.7,4.19h-1.26Zm-72.58,31.26c41.17-.28,31.82,30.57,15.91,22.33-2.65-7.96-10.19-16.61-17.03-21.35l1.12-.98Zm11.58-65.6v11.3h21.49v-11.3h-21.49Zm21.49,26.52v-11.31h-21.49v11.31h21.49Zm15.49-26.52v11.3h22.75v-11.3h-22.75Zm22.75,15.21h-22.75v11.31h22.75v-11.31Zm-.56,24.84c-2.79-1.81-6.14-3.49-10.05-4.88l.56-1.81c3.63.14,6.98.42,10.05.84v-3.77h-22.75v9.77l22.19-.14Z"/>
      <path class="cls-19" d="m734.5,672.57c7.82,1.4,9.63,3.63,9.63,6.42,0,7.68-9.35,9.07-56.39,9.07h-30.85c-22.61,0-32.66-2.37-32.66-18.28v-94.77h-4.89l-1.26-3.91h98.68l8.37-11.17s9.35,7.68,15.07,12.84c-.42,1.54-1.95,2.23-3.91,2.23h-97v92.68c0,6.28,3.77,8.23,15.91,8.23h33.78c12,0,22.75-.28,26.94-.7,2.65-.14,6-.56,8.23-.84,1.95-.28,4.88-.98,7.96-1.95h1.54l.84.14Zm-62.39-3.77v-6.84h-11.58v5.86c0,1.12-5.86,4.19-11.44,4.19h-1.95v-47.31l13.96,5.58h9.77l6.28-6.56,13.12,9.91c-.7.84-2.37,1.95-4.61,2.23v29.31c-.14.98-6.84,3.63-11.31,3.63h-2.23Zm31.54-54.01h-27.77v3.91c0,1.4-6.98,4.75-13.26,4.75h-2.23v-43.27l16.19,6.28h25.82l7.12-7.68,14.93,11.31c-.84.98-2.51,2.09-5.02,2.65v24.56c-.14.98-8.1,3.77-12.98,3.77h-2.79v-6.28Zm-31.54,43.13v-23.59h-11.58v23.59h11.58Zm31.54-47.17v-20.24h-27.77v20.24h27.77Zm15.35,57.5v-6.28h-12v3.63c0,1.26-6,4.19-11.58,4.19h-1.95v-45.08l14.1,5.58h10.19l6.42-6.7,13.4,10.19c-.7.84-2.37,1.81-4.61,2.23v28.61c-.14.84-7.12,3.63-11.58,3.63h-2.37Zm0-10.33v-23.59h-12v23.59h12Z"/>
    </g>
    <g>
      <path class="cls-12" d="m315.41,756.36l.44,9.32h-1.11c-.22-1.64-.51-2.81-.88-3.52-.61-1.13-1.41-1.97-2.42-2.5-1.01-.54-2.33-.81-3.97-.81h-5.6v30.35c0,2.44.26,3.96.79,4.57.74.82,1.88,1.23,3.43,1.23h1.38v1.08h-16.85v-1.08h1.41c1.68,0,2.87-.51,3.57-1.52.43-.62.64-2.05.64-4.28v-30.35h-4.78c-1.86,0-3.17.14-3.96.41-1.02.37-1.89,1.08-2.61,2.14-.72,1.05-1.15,2.48-1.29,4.28h-1.11l.47-9.32h32.43Z"/>
      <path class="cls-12" d="m330.48,758.53v15.7h8.73c2.27,0,3.78-.34,4.54-1.03,1.02-.9,1.58-2.48,1.7-4.75h1.08v13.83h-1.08c-.27-1.93-.55-3.17-.82-3.72-.35-.68-.93-1.22-1.73-1.61s-2.03-.59-3.69-.59h-8.73v13.1c0,1.76.08,2.83.23,3.21s.43.68.82.91,1.13.34,2.23.34h6.74c2.25,0,3.88-.16,4.89-.47s1.99-.93,2.93-1.85c1.21-1.21,2.45-3.04,3.72-5.48h1.17l-3.43,9.96h-30.62v-1.08h1.41c.94,0,1.83-.22,2.67-.67.62-.31,1.05-.78,1.27-1.41s.34-1.9.34-3.84v-25.81c0-2.52-.25-4.07-.76-4.66-.7-.78-1.88-1.17-3.52-1.17h-1.41v-1.08h30.62l.44,8.7h-1.14c-.41-2.09-.86-3.53-1.36-4.31s-1.24-1.38-2.21-1.79c-.78-.29-2.16-.44-4.13-.44h-10.9Z"/>
      <path class="cls-12" d="m382.64,782.79h-15.38l-2.7,6.27c-.66,1.54-1,2.7-1,3.46,0,.61.29,1.14.86,1.6s1.82.76,3.74.89v1.08h-12.51v-1.08c1.66-.29,2.73-.67,3.22-1.14,1-.94,2.1-2.84,3.31-5.71l13.97-32.7h1.03l13.83,33.05c1.11,2.66,2.12,4.38,3.03,5.17s2.17,1.24,3.79,1.33v1.08h-15.67v-1.08c1.58-.08,2.65-.34,3.21-.79s.83-1,.83-1.64c0-.86-.39-2.22-1.17-4.07l-2.4-5.71Zm-.82-2.17l-6.74-16.05-6.91,16.05h13.65Z"/>
      <path class="cls-12" d="m435.25,755.46l.91,13.51h-.91c-1.21-4.04-2.94-6.95-5.19-8.73-2.25-1.78-4.94-2.67-8.09-2.67-2.64,0-5.02.67-7.15,2.01-2.13,1.34-3.8,3.47-5.02,6.4-1.22,2.93-1.83,6.57-1.83,10.93,0,3.59.58,6.71,1.73,9.35,1.15,2.64,2.89,4.66,5.2,6.06s4.96,2.11,7.92,2.11c2.58,0,4.85-.55,6.83-1.66,1.97-1.1,4.14-3.3,6.5-6.58l.91.59c-1.99,3.54-4.32,6.12-6.97,7.76-2.66,1.64-5.81,2.46-9.46,2.46-6.58,0-11.68-2.44-15.29-7.32-2.7-3.63-4.04-7.91-4.04-12.83,0-3.96.89-7.61,2.67-10.93,1.78-3.32,4.22-5.89,7.34-7.72,3.11-1.83,6.52-2.74,10.21-2.74,2.87,0,5.7.7,8.5,2.11.82.43,1.41.64,1.76.64.53,0,.99-.19,1.38-.56.51-.53.87-1.26,1.08-2.2h1.03Z"/>
      <path class="cls-12" d="m452.08,774.79h18.46v-11.37c0-2.03-.13-3.37-.38-4.01-.2-.49-.61-.91-1.23-1.26-.84-.47-1.73-.7-2.67-.7h-1.41v-1.08h16.99v1.08h-1.41c-.94,0-1.83.22-2.67.67-.62.31-1.05.79-1.27,1.42s-.34,1.93-.34,3.88v25.63c0,2.01.13,3.34.38,3.98.2.49.6.91,1.2,1.26.86.47,1.76.7,2.7.7h1.41v1.08h-16.99v-1.08h1.41c1.62,0,2.8-.48,3.54-1.44.49-.62.73-2.13.73-4.51v-12.1h-18.46v12.1c0,2.01.13,3.34.38,3.98.2.49.61.91,1.23,1.26.84.47,1.73.7,2.67.7h1.44v1.08h-17.02v-1.08h1.41c1.64,0,2.83-.48,3.57-1.44.47-.62.7-2.13.7-4.51v-25.63c0-2.03-.13-3.37-.38-4.01-.2-.49-.6-.91-1.2-1.26-.86-.47-1.76-.7-2.7-.7h-1.41v-1.08h17.02v1.08h-1.44c-.94,0-1.83.22-2.67.67-.61.31-1.03.79-1.26,1.42s-.35,1.93-.35,3.88v11.37Z"/>
      <path class="cls-12" d="m496.21,758.53v15.7h8.73c2.27,0,3.78-.34,4.54-1.03,1.02-.9,1.58-2.48,1.7-4.75h1.08v13.83h-1.08c-.27-1.93-.55-3.17-.82-3.72-.35-.68-.93-1.22-1.73-1.61-.8-.39-2.03-.59-3.69-.59h-8.73v13.1c0,1.76.08,2.83.23,3.21.16.38.43.68.82.91.39.22,1.13.34,2.23.34h6.74c2.25,0,3.88-.16,4.89-.47,1.02-.31,1.99-.93,2.93-1.85,1.21-1.21,2.45-3.04,3.72-5.48h1.17l-3.43,9.96h-30.62v-1.08h1.41c.94,0,1.83-.22,2.67-.67.62-.31,1.05-.78,1.27-1.41.22-.62.34-1.9.34-3.84v-25.81c0-2.52-.25-4.07-.76-4.66-.7-.78-1.88-1.17-3.52-1.17h-1.41v-1.08h30.62l.44,8.7h-1.14c-.41-2.09-.86-3.53-1.36-4.31s-1.24-1.38-2.21-1.79c-.78-.29-2.16-.44-4.13-.44h-10.9Z"/>
      <path class="cls-12" d="m561.47,796.09h-10.61l-13.45-18.57c-1,.04-1.81.06-2.43.06-.25,0-.53,0-.82-.01s-.6-.02-.91-.04v11.54c0,2.5.27,4.05.82,4.66.74.86,1.86,1.29,3.34,1.29h1.55v1.08h-17.02v-1.08h1.49c1.68,0,2.88-.55,3.6-1.64.41-.61.62-2.04.62-4.31v-25.66c0-2.5-.27-4.05-.82-4.66-.76-.86-1.89-1.29-3.4-1.29h-1.49v-1.08h14.47c4.22,0,7.33.31,9.33.92s3.7,1.75,5.1,3.4,2.09,3.62,2.09,5.9c0,2.44-.8,4.56-2.39,6.36s-4.06,3.07-7.4,3.81l8.2,11.4c1.88,2.62,3.49,4.36,4.83,5.21s3.11,1.41,5.27,1.64v1.08Zm-28.21-20.42c.37,0,.69,0,.97.01s.5.01.67.01c3.79,0,6.65-.82,8.57-2.46s2.89-3.73,2.89-6.27-.78-4.5-2.33-6.05-3.61-2.33-6.17-2.33c-1.13,0-2.67.19-4.6.56v16.52Z"/>
      <path class="cls-12" d="m568.52,770.63v-1.38c2.01-1.19,3.38-2.3,4.1-3.34.51-.74.76-1.63.76-2.67,0-.61-.11-1.05-.32-1.35-.23-.29-.49-.44-.76-.44-.21,0-.5.07-.85.21-.51.18-.93.26-1.26.26-.78,0-1.47-.29-2.08-.88s-.91-1.32-.91-2.2c0-.98.3-1.74.91-2.29.82-.74,1.8-1.11,2.93-1.11,1.31,0,2.49.55,3.53,1.66s1.57,2.48,1.57,4.12c0,2.3-.87,4.4-2.61,6.3-1.15,1.25-2.82,2.29-5.01,3.11Z"/>
      <path class="cls-12" d="m609.63,755.46v13.74h-1.08c-.35-2.64-.98-4.74-1.89-6.3s-2.2-2.8-3.88-3.72c-1.68-.92-3.42-1.38-5.21-1.38-2.03,0-3.71.62-5.04,1.86-1.33,1.24-1.99,2.65-1.99,4.23,0,1.21.42,2.31,1.26,3.31,1.21,1.46,4.09,3.42,8.64,5.86,3.71,1.99,6.24,3.52,7.6,4.58,1.36,1.06,2.4,2.32,3.13,3.76s1.1,2.96,1.1,4.54c0,3.01-1.17,5.6-3.5,7.78-2.33,2.18-5.34,3.27-9.01,3.27-1.15,0-2.24-.09-3.25-.26-.61-.1-1.86-.45-3.76-1.07s-3.11-.92-3.62-.92-.87.15-1.16.44c-.28.29-.49.9-.63,1.82h-1.08v-13.62h1.08c.51,2.85,1.19,4.99,2.05,6.4.86,1.42,2.17,2.59,3.94,3.53,1.77.94,3.71,1.41,5.82,1.41,2.44,0,4.37-.64,5.79-1.93,1.42-1.29,2.12-2.81,2.12-4.57,0-.98-.27-1.96-.81-2.96-.54-1-1.37-1.92-2.5-2.78-.76-.59-2.84-1.83-6.24-3.74s-5.82-3.42-7.25-4.56-2.52-2.38-3.27-3.75c-.74-1.37-1.11-2.87-1.11-4.51,0-2.85,1.09-5.31,3.28-7.37,2.19-2.06,4.97-3.09,8.35-3.09,2.11,0,4.35.52,6.71,1.55,1.09.49,1.86.73,2.31.73.51,0,.92-.15,1.25-.45s.58-.91.78-1.83h1.08Z"/>
      <path class="cls-12" d="m352.59,854.79h-15.38l-2.7,6.27c-.66,1.54-1,2.7-1,3.46,0,.61.29,1.14.86,1.6.58.46,1.82.76,3.74.89v1.08h-12.51v-1.08c1.66-.29,2.73-.67,3.22-1.14,1-.94,2.1-2.84,3.31-5.71l13.97-32.7h1.03l13.83,33.05c1.11,2.66,2.12,4.38,3.03,5.17s2.17,1.24,3.79,1.33v1.08h-15.67v-1.08c1.58-.08,2.65-.34,3.21-.79s.83-1,.83-1.64c0-.86-.39-2.22-1.17-4.07l-2.4-5.71Zm-.82-2.17l-6.74-16.05-6.91,16.05h13.65Z"/>
      <path class="cls-12" d="m381.34,830.53v15.62h7.24c1.66,0,2.88-.37,3.65-1.1s1.28-2.18,1.54-4.35h1.08v13.45h-1.08c-.02-1.54-.22-2.68-.6-3.4s-.91-1.26-1.58-1.63-1.67-.54-3-.54h-7.24v12.48c0,2.01.13,3.34.38,3.98.2.49.61.91,1.23,1.26.86.47,1.76.7,2.7.7h1.44v1.08h-17.05v-1.08h1.41c1.64,0,2.83-.48,3.57-1.44.47-.62.7-2.13.7-4.51v-25.66c0-2.01-.13-3.34-.38-3.98-.2-.49-.6-.91-1.2-1.26-.84-.47-1.74-.7-2.7-.7h-1.41v-1.08h29.56l.38,8.73h-1.03c-.51-1.86-1.1-3.22-1.77-4.09s-1.5-1.5-2.49-1.89-2.51-.59-4.58-.59h-8.76Z"/>
      <path class="cls-12" d="m415.31,830.53v15.62h7.24c1.66,0,2.88-.37,3.65-1.1.77-.73,1.28-2.18,1.54-4.35h1.08v13.45h-1.08c-.02-1.54-.22-2.68-.6-3.4s-.91-1.26-1.58-1.63-1.68-.54-3-.54h-7.24v12.48c0,2.01.13,3.34.38,3.98.19.49.6.91,1.23,1.26.86.47,1.76.7,2.7.7h1.44v1.08h-17.05v-1.08h1.41c1.64,0,2.83-.48,3.57-1.44.47-.62.7-2.13.7-4.51v-25.66c0-2.01-.13-3.34-.38-3.98-.2-.49-.6-.91-1.2-1.26-.84-.47-1.74-.7-2.7-.7h-1.41v-1.08h29.56l.38,8.73h-1.03c-.51-1.86-1.1-3.22-1.77-4.09s-1.5-1.5-2.49-1.89c-.99-.39-2.52-.59-4.58-.59h-8.76Z"/>
      <path class="cls-12" d="m460,854.79h-15.38l-2.7,6.27c-.66,1.54-1,2.7-1,3.46,0,.61.29,1.14.86,1.6s1.82.76,3.74.89v1.08h-12.51v-1.08c1.66-.29,2.73-.67,3.22-1.14,1-.94,2.1-2.84,3.31-5.71l13.97-32.7h1.03l13.83,33.05c1.11,2.66,2.12,4.38,3.03,5.17s2.17,1.24,3.79,1.33v1.08h-15.67v-1.08c1.58-.08,2.65-.34,3.21-.79s.83-1,.83-1.64c0-.86-.39-2.22-1.17-4.07l-2.4-5.71Zm-.82-2.17l-6.74-16.05-6.91,16.05h13.65Z"/>
      <path class="cls-12" d="m495,867.01v1.08h-17.02v-1.08h1.41c1.64,0,2.83-.48,3.57-1.44.47-.62.7-2.13.7-4.51v-25.66c0-2.01-.13-3.34-.38-3.98-.2-.49-.6-.91-1.2-1.26-.86-.47-1.76-.7-2.7-.7h-1.41v-1.08h17.02v1.08h-1.44c-1.62,0-2.8.48-3.54,1.44-.49.62-.73,2.13-.73,4.51v25.66c0,2.01.13,3.34.38,3.98.2.49.61.91,1.23,1.26.84.47,1.73.7,2.67.7h1.44Z"/>
      <path class="cls-12" d="m537.61,868.09h-10.61l-13.45-18.57c-1,.04-1.81.06-2.43.06-.25,0-.53,0-.82-.01s-.6-.02-.91-.04v11.54c0,2.5.27,4.05.82,4.66.74.86,1.85,1.29,3.34,1.29h1.55v1.08h-17.02v-1.08h1.49c1.68,0,2.88-.55,3.6-1.64.41-.61.62-2.04.62-4.31v-25.66c0-2.5-.27-4.05-.82-4.66-.76-.86-1.9-1.29-3.4-1.29h-1.49v-1.08h14.47c4.22,0,7.33.31,9.33.92,2,.62,3.7,1.75,5.1,3.4,1.4,1.65,2.09,3.62,2.09,5.9,0,2.44-.8,4.56-2.39,6.36-1.59,1.8-4.06,3.07-7.4,3.81l8.2,11.4c1.88,2.62,3.49,4.36,4.83,5.21s3.11,1.41,5.27,1.64v1.08Zm-28.21-20.42c.37,0,.69,0,.97.01.27,0,.5.01.67.01,3.79,0,6.65-.82,8.57-2.46,1.92-1.64,2.89-3.73,2.89-6.27s-.78-4.5-2.33-6.05-3.61-2.33-6.17-2.33c-1.13,0-2.67.19-4.6.56v16.52Z"/>
      <path class="cls-12" d="m565.19,827.46v13.74h-1.08c-.35-2.64-.98-4.74-1.89-6.3s-2.2-2.8-3.88-3.72-3.42-1.38-5.21-1.38c-2.03,0-3.71.62-5.04,1.86s-1.99,2.65-1.99,4.23c0,1.21.42,2.31,1.26,3.31,1.21,1.46,4.09,3.42,8.64,5.86,3.71,1.99,6.25,3.52,7.6,4.58s2.4,2.32,3.13,3.76,1.1,2.96,1.1,4.54c0,3.01-1.17,5.6-3.5,7.78s-5.34,3.27-9.01,3.27c-1.15,0-2.24-.09-3.25-.26-.61-.1-1.86-.45-3.76-1.07s-3.11-.92-3.62-.92-.87.15-1.16.44-.49.9-.63,1.82h-1.08v-13.62h1.08c.51,2.85,1.19,4.99,2.05,6.4s2.17,2.59,3.94,3.53,3.71,1.41,5.82,1.41c2.44,0,4.37-.64,5.79-1.93s2.12-2.81,2.12-4.57c0-.98-.27-1.96-.81-2.96s-1.37-1.92-2.5-2.78c-.76-.59-2.84-1.83-6.24-3.74s-5.82-3.42-7.25-4.56-2.52-2.38-3.27-3.75-1.11-2.87-1.11-4.51c0-2.85,1.09-5.31,3.28-7.37s4.97-3.09,8.35-3.09c2.11,0,4.35.52,6.71,1.55,1.09.49,1.87.73,2.31.73.51,0,.92-.15,1.25-.45s.58-.91.78-1.83h1.08Z"/>
    </g>
  </g>
</svg>