<?xml version="1.0" encoding="utf-8"?>
<!-- Generator: Adobe Illustrator 19.0.0, SVG Export Plug-In . SVG Version: 6.00 Build 0)  -->
<svg version="1.1" id="圖層_1" xmlns="http://www.w3.org/2000/svg" xmlns:xlink="http://www.w3.org/1999/xlink" x="0px" y="0px"
	 viewBox="0 0 118 112.3" style="enable-background:new 0 0 118 112.3;" xml:space="preserve">
<style type="text/css">
	.st0{fill:#D3E0F4;}
	.st1{fill:#87D0F4;}
	.st2{fill:#907DF0;}
	.st3{fill:#FFFFFF;}
</style>
<rect id="XMLID_1_" x="3.6" y="4.8" class="st0" width="110.5" height="16.5"/>
<rect id="XMLID_19_" x="3.6" y="91.1" class="st0" width="110.5" height="16.5"/>
<rect id="XMLID_5_" x="3.6" y="26.1" class="st1" width="33.5" height="60.5"/>
<rect id="XMLID_2_" x="41.9" y="26.1" class="st2" width="33.5" height="60.5"/>
<rect id="XMLID_3_" x="80.6" y="26.1" class="st1" width="33.5" height="60.5"/>
<g id="XMLID_17_">
	<path id="XMLID_18_" class="st3" d="M15.3,54h1.1c0.7,0,1.2-0.2,1.6-0.5c0.4-0.3,0.6-0.8,0.6-1.4c0-1.3-0.7-2-2-2
		c-0.6,0-1.1,0.2-1.5,0.5c-0.4,0.4-0.6,0.8-0.6,1.4h-1.4c0-0.9,0.3-1.6,1-2.2c0.7-0.6,1.5-0.9,2.5-0.9c1.1,0,1.9,0.3,2.5,0.9
		c0.6,0.6,0.9,1.4,0.9,2.4c0,0.5-0.2,1-0.5,1.4c-0.3,0.5-0.8,0.8-1.3,1c0.6,0.2,1.1,0.5,1.4,1c0.3,0.5,0.5,1,0.5,1.7
		c0,1-0.3,1.8-1,2.4c-0.7,0.6-1.5,0.9-2.6,0.9c-1.1,0-1.9-0.3-2.6-0.9c-0.7-0.6-1-1.3-1-2.3h1.5c0,0.6,0.2,1.1,0.6,1.4
		s0.9,0.5,1.6,0.5c0.7,0,1.2-0.2,1.6-0.5c0.4-0.4,0.6-0.9,0.6-1.6c0-0.7-0.2-1.2-0.6-1.5c-0.4-0.4-1-0.5-1.8-0.5h-1.1V54z"/>
	<path id="XMLID_21_" class="st3" d="M24.3,54h1.1c0.7,0,1.2-0.2,1.6-0.5c0.4-0.3,0.6-0.8,0.6-1.4c0-1.3-0.7-2-2-2
		c-0.6,0-1.1,0.2-1.5,0.5c-0.4,0.4-0.6,0.8-0.6,1.4h-1.4c0-0.9,0.3-1.6,1-2.2c0.7-0.6,1.5-0.9,2.5-0.9c1.1,0,1.9,0.3,2.5,0.9
		c0.6,0.6,0.9,1.4,0.9,2.4c0,0.5-0.2,1-0.5,1.4c-0.3,0.5-0.8,0.8-1.3,1c0.6,0.2,1.1,0.5,1.4,1c0.3,0.5,0.5,1,0.5,1.7
		c0,1-0.3,1.8-1,2.4c-0.7,0.6-1.5,0.9-2.6,0.9c-1.1,0-1.9-0.3-2.6-0.9c-0.7-0.6-1-1.3-1-2.3h1.5c0,0.6,0.2,1.1,0.6,1.4
		s0.9,0.5,1.6,0.5c0.7,0,1.2-0.2,1.6-0.5c0.4-0.4,0.6-0.9,0.6-1.6c0-0.7-0.2-1.2-0.6-1.5c-0.4-0.4-1-0.5-1.8-0.5h-1.1V54z"/>
</g>
<g id="XMLID_12_">
	<path id="XMLID_13_" class="st3" d="M53.1,54h1.1c0.7,0,1.2-0.2,1.6-0.5c0.4-0.3,0.6-0.8,0.6-1.4c0-1.3-0.7-2-2-2
		c-0.6,0-1.1,0.2-1.5,0.5c-0.4,0.4-0.6,0.8-0.6,1.4h-1.4c0-0.9,0.3-1.6,1-2.2c0.7-0.6,1.5-0.9,2.5-0.9c1.1,0,1.9,0.3,2.5,0.9
		c0.6,0.6,0.9,1.4,0.9,2.4c0,0.5-0.2,1-0.5,1.4c-0.3,0.5-0.8,0.8-1.3,1c0.6,0.2,1.1,0.5,1.4,1c0.3,0.5,0.5,1,0.5,1.7
		c0,1-0.3,1.8-1,2.4c-0.7,0.6-1.5,0.9-2.6,0.9c-1.1,0-1.9-0.3-2.6-0.9c-0.7-0.6-1-1.3-1-2.3h1.5c0,0.6,0.2,1.1,0.6,1.4
		s0.9,0.5,1.6,0.5c0.7,0,1.2-0.2,1.6-0.5c0.4-0.4,0.6-0.9,0.6-1.6c0-0.7-0.2-1.2-0.6-1.5c-0.4-0.4-1-0.5-1.8-0.5h-1.1V54z"/>
	<path id="XMLID_15_" class="st3" d="M62.1,54h1.1c0.7,0,1.2-0.2,1.6-0.5c0.4-0.3,0.6-0.8,0.6-1.4c0-1.3-0.7-2-2-2
		c-0.6,0-1.1,0.2-1.5,0.5c-0.4,0.4-0.6,0.8-0.6,1.4h-1.4c0-0.9,0.3-1.6,1-2.2c0.7-0.6,1.5-0.9,2.5-0.9c1.1,0,1.9,0.3,2.5,0.9
		c0.6,0.6,0.9,1.4,0.9,2.4c0,0.5-0.2,1-0.5,1.4c-0.3,0.5-0.8,0.8-1.3,1c0.6,0.2,1.1,0.5,1.4,1c0.3,0.5,0.5,1,0.5,1.7
		c0,1-0.3,1.8-1,2.4c-0.7,0.6-1.5,0.9-2.6,0.9s-1.9-0.3-2.6-0.9s-1-1.3-1-2.3h1.5c0,0.6,0.2,1.1,0.6,1.4s0.9,0.5,1.6,0.5
		c0.7,0,1.2-0.2,1.6-0.5c0.4-0.4,0.6-0.9,0.6-1.6c0-0.7-0.2-1.2-0.6-1.5c-0.4-0.4-1-0.5-1.8-0.5h-1.1V54z"/>
</g>
<g id="XMLID_7_">
	<path id="XMLID_8_" class="st3" d="M91.6,54h1.1c0.7,0,1.2-0.2,1.6-0.5c0.4-0.3,0.6-0.8,0.6-1.4c0-1.3-0.7-2-2-2
		c-0.6,0-1.1,0.2-1.5,0.5c-0.4,0.4-0.6,0.8-0.6,1.4h-1.4c0-0.9,0.3-1.6,1-2.2c0.7-0.6,1.5-0.9,2.5-0.9c1.1,0,1.9,0.3,2.5,0.9
		c0.6,0.6,0.9,1.4,0.9,2.4c0,0.5-0.2,1-0.5,1.4c-0.3,0.5-0.8,0.8-1.3,1c0.6,0.2,1.1,0.5,1.4,1c0.3,0.5,0.5,1,0.5,1.7
		c0,1-0.3,1.8-1,2.4c-0.7,0.6-1.5,0.9-2.6,0.9s-1.9-0.3-2.6-0.9s-1-1.3-1-2.3h1.5c0,0.6,0.2,1.1,0.6,1.4s0.9,0.5,1.6,0.5
		c0.7,0,1.2-0.2,1.6-0.5c0.4-0.4,0.6-0.9,0.6-1.6c0-0.7-0.2-1.2-0.6-1.5c-0.4-0.4-1-0.5-1.8-0.5h-1.1V54z"/>
	<path id="XMLID_10_" class="st3" d="M100.6,54h1.1c0.7,0,1.2-0.2,1.6-0.5c0.4-0.3,0.6-0.8,0.6-1.4c0-1.3-0.7-2-2-2
		c-0.6,0-1.1,0.2-1.5,0.5c-0.4,0.4-0.6,0.8-0.6,1.4h-1.4c0-0.9,0.3-1.6,1-2.2c0.7-0.6,1.5-0.9,2.5-0.9c1.1,0,1.9,0.3,2.5,0.9
		c0.6,0.6,0.9,1.4,0.9,2.4c0,0.5-0.2,1-0.5,1.4c-0.3,0.5-0.8,0.8-1.3,1c0.6,0.2,1.1,0.5,1.4,1c0.3,0.5,0.5,1,0.5,1.7
		c0,1-0.3,1.8-1,2.4c-0.7,0.6-1.5,0.9-2.6,0.9s-1.9-0.3-2.6-0.9s-1-1.3-1-2.3h1.5c0,0.6,0.2,1.1,0.6,1.4s0.9,0.5,1.6,0.5
		c0.7,0,1.2-0.2,1.6-0.5c0.4-0.4,0.6-0.9,0.6-1.6c0-0.7-0.2-1.2-0.6-1.5c-0.4-0.4-1-0.5-1.8-0.5h-1.1V54z"/>
</g>
</svg>
