<?xml version="1.0" encoding="utf-8"?>
<!-- Generator: Adobe Illustrator 19.0.0, SVG Export Plug-In . SVG Version: 6.00 Build 0)  -->
<svg version="1.1" id="圖層_1" xmlns="http://www.w3.org/2000/svg" xmlns:xlink="http://www.w3.org/1999/xlink" x="0px" y="0px"
	 viewBox="0 0 118 112.3" style="enable-background:new 0 0 118 112.3;" xml:space="preserve">
<style type="text/css">
	.st0{fill:#D3E0F4;}
	.st1{fill:#87D0F4;}
	.st2{fill:#907DF0;}
	.st3{fill:#FFFFFF;}
</style>
<rect id="XMLID_1_" x="3.6" y="4.8" class="st0" width="110.5" height="16.5"/>
<rect id="XMLID_19_" x="3.6" y="91.1" class="st0" width="110.5" height="16.5"/>
<rect id="XMLID_5_" x="3.6" y="26.1" class="st1" width="26.5" height="60.5"/>
<rect id="XMLID_2_" x="35.6" y="26.1" class="st2" width="78.5" height="60.5"/>
<g id="XMLID_9_">
	<path id="XMLID_10_" class="st3" d="M72.5,49.8l-4.7,10.6h-1.5l4.7-10.2h-6.2V49h7.7V49.8z"/>
	<path id="XMLID_12_" class="st3" d="M74.8,54.7l0.6-5.7h5.8v1.3h-4.6l-0.3,3.1c0.6-0.3,1.2-0.5,1.9-0.5c1,0,1.9,0.3,2.5,1
		c0.6,0.7,0.9,1.6,0.9,2.8c0,1.2-0.3,2.1-0.9,2.8c-0.6,0.7-1.5,1-2.7,1c-1,0-1.8-0.3-2.5-0.8c-0.6-0.6-1-1.3-1.1-2.3h1.4
		c0.1,0.7,0.3,1.1,0.7,1.5c0.4,0.3,0.9,0.5,1.5,0.5c0.7,0,1.2-0.2,1.6-0.7c0.4-0.5,0.6-1.1,0.6-1.9c0-0.8-0.2-1.4-0.6-1.8
		s-1-0.7-1.7-0.7c-0.6,0-1.1,0.1-1.5,0.4L75.9,55L74.8,54.7z"/>
</g>
<g id="XMLID_3_">
	<path id="XMLID_4_" class="st3" d="M16.2,60.4H8.7v-1l3.9-4.4c0.6-0.7,1-1.2,1.2-1.6c0.2-0.4,0.3-0.8,0.3-1.3
		c0-0.6-0.2-1.1-0.5-1.5c-0.4-0.4-0.8-0.6-1.4-0.6c-0.7,0-1.3,0.2-1.7,0.6c-0.4,0.4-0.6,1-0.6,1.7H8.5c0-1,0.3-1.9,1-2.5
		c0.7-0.6,1.6-1,2.7-1c1.1,0,1.9,0.3,2.5,0.8c0.6,0.6,0.9,1.3,0.9,2.2c0,1.1-0.7,2.5-2.1,4l-3,3.3h5.7V60.4z"/>
	<path id="XMLID_7_" class="st3" d="M18.4,54.7l0.6-5.7h5.8v1.3h-4.6l-0.3,3.1c0.6-0.3,1.2-0.5,1.9-0.5c1,0,1.9,0.3,2.5,1
		c0.6,0.7,0.9,1.6,0.9,2.8c0,1.2-0.3,2.1-0.9,2.8c-0.6,0.7-1.5,1-2.7,1c-1,0-1.8-0.3-2.5-0.8c-0.6-0.6-1-1.3-1.1-2.3h1.4
		c0.1,0.7,0.3,1.1,0.7,1.5c0.4,0.3,0.9,0.5,1.5,0.5c0.7,0,1.2-0.2,1.6-0.7c0.4-0.5,0.6-1.1,0.6-1.9c0-0.8-0.2-1.4-0.6-1.8
		s-1-0.7-1.7-0.7c-0.6,0-1.1,0.1-1.5,0.4L19.5,55L18.4,54.7z"/>
</g>
</svg>
