<?xml version="1.0" encoding="utf-8"?>
<!-- Generator: Adobe Illustrator 19.0.0, SVG Export Plug-In . SVG Version: 6.00 Build 0)  -->
<svg version="1.1" id="圖層_1" xmlns="http://www.w3.org/2000/svg" xmlns:xlink="http://www.w3.org/1999/xlink" x="0px" y="0px"
	 viewBox="0 0 118 112.3" style="enable-background:new 0 0 118 112.3;" xml:space="preserve">
<style type="text/css">
	.st0{fill:#D3E0F4;}
	.st1{fill:#87D0F4;}
	.st2{fill:#907DF0;}
	.st3{fill:#FFFFFF;}
</style>
<rect id="XMLID_1_" x="3.6" y="4.8" class="st0" width="110.5" height="16.5"/>
<rect id="XMLID_19_" x="3.6" y="91.1" class="st0" width="110.5" height="16.5"/>
<rect id="XMLID_3_" x="70.3" y="26.1" class="st1" width="43.8" height="60.5"/>
<rect id="XMLID_4_" x="3.6" y="26.1" class="st2" width="62" height="60.5"/>
<g id="XMLID_11_">
	<path id="XMLID_12_" class="st3" d="M33.2,49v1.2h-0.3c-1.1,0-2,0.4-2.7,1c-0.7,0.6-1.1,1.6-1.2,2.7c0.6-0.7,1.4-1,2.5-1
		c1,0,1.8,0.3,2.4,1c0.6,0.7,0.9,1.6,0.9,2.7c0,1.2-0.3,2.1-1,2.8c-0.6,0.7-1.5,1.1-2.6,1.1c-1.1,0-2-0.4-2.6-1.3
		c-0.7-0.8-1-1.9-1-3.2v-0.6c0-2.1,0.4-3.7,1.3-4.8c0.9-1.1,2.2-1.7,4-1.7H33.2z M31.3,54.1c-0.5,0-1,0.1-1.4,0.4
		c-0.4,0.3-0.7,0.7-0.9,1.1v0.5c0,0.9,0.2,1.7,0.6,2.3c0.4,0.6,0.9,0.9,1.6,0.9c0.7,0,1.2-0.2,1.5-0.7c0.4-0.5,0.6-1.1,0.6-1.9
		c0-0.8-0.2-1.4-0.6-1.9C32.4,54.4,31.9,54.1,31.3,54.1z"/>
	<path id="XMLID_15_" class="st3" d="M43.6,55.5c0,1.7-0.3,3-0.9,3.8c-0.6,0.8-1.5,1.2-2.7,1.2c-1.2,0-2.1-0.4-2.7-1.2
		c-0.6-0.8-0.9-2-0.9-3.6v-1.9c0-1.7,0.3-2.9,0.9-3.7s1.5-1.2,2.7-1.2c1.2,0,2.1,0.4,2.7,1.2c0.6,0.8,0.9,2,0.9,3.6V55.5z
		 M42.2,53.5c0-1.2-0.2-2.1-0.5-2.7C41.3,50.3,40.8,50,40,50c-0.7,0-1.3,0.3-1.6,0.8c-0.3,0.6-0.5,1.4-0.5,2.6v2.3
		c0,1.2,0.2,2.1,0.5,2.7c0.4,0.6,0.9,0.9,1.6,0.9c0.7,0,1.2-0.3,1.6-0.8c0.3-0.6,0.5-1.4,0.5-2.6V53.5z"/>
</g>
<g id="XMLID_2_">
	<path id="XMLID_5_" class="st3" d="M89.7,56.5h1.6v1.2h-1.6v2.6h-1.5v-2.6H83v-0.9l5.1-7.9h1.5V56.5z M84.7,56.5h3.5V51l-0.2,0.3
		L84.7,56.5z"/>
	<path id="XMLID_8_" class="st3" d="M99.7,55.5c0,1.7-0.3,3-0.9,3.8c-0.6,0.8-1.5,1.2-2.7,1.2c-1.2,0-2.1-0.4-2.7-1.2
		s-0.9-2-0.9-3.6v-1.9c0-1.7,0.3-2.9,0.9-3.7s1.5-1.2,2.7-1.2c1.2,0,2.1,0.4,2.7,1.2c0.6,0.8,0.9,2,0.9,3.6V55.5z M98.2,53.5
		c0-1.2-0.2-2.1-0.5-2.7c-0.3-0.6-0.9-0.8-1.6-0.8c-0.7,0-1.3,0.3-1.6,0.8c-0.3,0.6-0.5,1.4-0.5,2.6v2.3c0,1.2,0.2,2.1,0.5,2.7
		s0.9,0.9,1.6,0.9c0.7,0,1.2-0.3,1.6-0.8c0.3-0.6,0.5-1.4,0.5-2.6V53.5z"/>
</g>
</svg>
