<?xml version="1.0" encoding="utf-8"?>
<!-- Generator: Adobe Illustrator 19.0.0, SVG Export Plug-In . SVG Version: 6.00 Build 0)  -->
<svg version="1.1" id="圖層_1" xmlns="http://www.w3.org/2000/svg" xmlns:xlink="http://www.w3.org/1999/xlink" x="0px" y="0px"
	 viewBox="0 0 118 112.3" style="enable-background:new 0 0 118 112.3;" xml:space="preserve">
<style type="text/css">
	.st0{fill:#D3E0F4;}
	.st1{fill:#907DF0;}
	.st2{fill:#FFFFFF;}
	.st3{fill:#87D0F4;}
</style>
<rect id="XMLID_1_" x="3.6" y="4.8" class="st0" width="110.5" height="16.5"/>
<rect id="XMLID_19_" x="3.6" y="91.1" class="st0" width="110.5" height="16.5"/>
<rect id="XMLID_2_" x="29.4" y="26.1" class="st1" width="58.5" height="60.5"/>
<g id="XMLID_21_">
	<path id="XMLID_22_" class="st2" d="M56.8,49v1.2h-0.3c-1.1,0-2,0.4-2.7,1c-0.7,0.6-1.1,1.6-1.2,2.7c0.6-0.7,1.4-1,2.5-1
		c1,0,1.8,0.3,2.4,1c0.6,0.7,0.9,1.6,0.9,2.7c0,1.2-0.3,2.1-1,2.8c-0.6,0.7-1.5,1.1-2.6,1.1c-1.1,0-2-0.4-2.6-1.3
		c-0.7-0.8-1-1.9-1-3.2v-0.6c0-2.1,0.4-3.7,1.3-4.8c0.9-1.1,2.2-1.7,4-1.7H56.8z M54.9,54.1c-0.5,0-1,0.1-1.4,0.4
		c-0.4,0.3-0.7,0.7-0.9,1.1v0.5c0,0.9,0.2,1.7,0.6,2.3c0.4,0.6,0.9,0.9,1.6,0.9c0.7,0,1.2-0.2,1.5-0.7c0.4-0.5,0.6-1.1,0.6-1.9
		c0-0.8-0.2-1.4-0.6-1.9C56,54.4,55.5,54.1,54.9,54.1z"/>
	<path id="XMLID_25_" class="st2" d="M67,52c0,0.6-0.2,1.1-0.4,1.5c-0.3,0.4-0.7,0.8-1.2,1c0.6,0.3,1.1,0.6,1.4,1.1
		c0.3,0.5,0.5,1,0.5,1.7c0,1-0.3,1.8-1,2.4c-0.7,0.6-1.5,0.9-2.6,0.9c-1.1,0-2-0.3-2.6-0.9c-0.7-0.6-1-1.4-1-2.3
		c0-0.6,0.2-1.2,0.5-1.7c0.3-0.5,0.8-0.9,1.4-1.1c-0.5-0.3-0.9-0.6-1.2-1c-0.3-0.4-0.4-0.9-0.4-1.5c0-1,0.3-1.7,0.9-2.3
		c0.6-0.6,1.4-0.8,2.4-0.8c1,0,1.8,0.3,2.4,0.8S67,51,67,52z M65.8,57.3c0-0.6-0.2-1.2-0.6-1.6c-0.4-0.4-0.9-0.6-1.6-0.6
		c-0.7,0-1.2,0.2-1.6,0.6c-0.4,0.4-0.6,0.9-0.6,1.6c0,0.6,0.2,1.2,0.6,1.5c0.4,0.4,0.9,0.6,1.6,0.6c0.7,0,1.2-0.2,1.6-0.6
		C65.6,58.4,65.8,57.9,65.8,57.3z M63.7,50c-0.6,0-1,0.2-1.4,0.5s-0.5,0.8-0.5,1.4c0,0.6,0.2,1,0.5,1.4c0.3,0.4,0.8,0.5,1.4,0.5
		s1-0.2,1.4-0.5c0.3-0.4,0.5-0.8,0.5-1.4s-0.2-1-0.5-1.4C64.7,50.2,64.2,50,63.7,50z"/>
</g>
<g id="XMLID_6_">
	<rect id="XMLID_5_" x="3.6" y="26.1" class="st3" width="21" height="60.5"/>
	<g id="XMLID_14_">
		<path id="XMLID_15_" class="st2" d="M10.8,60.4H9.4v-9.6l-2.9,1.1v-1.3l4.1-1.6h0.2V60.4z"/>
		<path id="XMLID_17_" class="st2" d="M20.7,49v1.2h-0.3c-1.1,0-2,0.4-2.7,1c-0.7,0.6-1.1,1.6-1.2,2.7c0.6-0.7,1.4-1,2.5-1
			c1,0,1.8,0.3,2.4,1c0.6,0.7,0.9,1.6,0.9,2.7c0,1.2-0.3,2.1-1,2.8c-0.6,0.7-1.5,1.1-2.6,1.1c-1.1,0-2-0.4-2.6-1.3
			c-0.7-0.8-1-1.9-1-3.2v-0.6c0-2.1,0.4-3.7,1.3-4.8c0.9-1.1,2.2-1.7,4-1.7H20.7z M18.8,54.1c-0.5,0-1,0.1-1.4,0.4
			c-0.4,0.3-0.7,0.7-0.9,1.1v0.5c0,0.9,0.2,1.7,0.6,2.3c0.4,0.6,0.9,0.9,1.6,0.9c0.7,0,1.2-0.2,1.5-0.7c0.4-0.5,0.6-1.1,0.6-1.9
			c0-0.8-0.2-1.4-0.6-1.9C20,54.4,19.5,54.1,18.8,54.1z"/>
	</g>
</g>
<g id="XMLID_3_">
	<rect id="XMLID_4_" x="93.1" y="26.1" class="st3" width="21" height="60.5"/>
	<g id="XMLID_8_">
		<path id="XMLID_9_" class="st2" d="M100.3,60.4h-1.5v-9.6L96,51.8v-1.3l4.1-1.6h0.2V60.4z"/>
		<path id="XMLID_11_" class="st2" d="M110.2,49v1.2H110c-1.1,0-2,0.4-2.7,1c-0.7,0.6-1.1,1.6-1.2,2.7c0.6-0.7,1.4-1,2.5-1
			c1,0,1.8,0.3,2.4,1c0.6,0.7,0.9,1.6,0.9,2.7c0,1.2-0.3,2.1-1,2.8s-1.5,1.1-2.6,1.1c-1.1,0-2-0.4-2.6-1.3s-1-1.9-1-3.2v-0.6
			c0-2.1,0.4-3.7,1.3-4.8c0.9-1.1,2.2-1.7,4-1.7H110.2z M108.3,54.1c-0.5,0-1,0.1-1.4,0.4s-0.7,0.7-0.9,1.1v0.5
			c0,0.9,0.2,1.7,0.6,2.3c0.4,0.6,0.9,0.9,1.6,0.9c0.7,0,1.2-0.2,1.5-0.7c0.4-0.5,0.6-1.1,0.6-1.9c0-0.8-0.2-1.4-0.6-1.9
			C109.5,54.4,109,54.1,108.3,54.1z"/>
	</g>
</g>
</svg>
