<?xml version="1.0" encoding="utf-8"?>
<!-- Generator: Adobe Illustrator 19.0.0, SVG Export Plug-In . SVG Version: 6.00 Build 0)  -->
<svg version="1.1" id="圖層_1" xmlns="http://www.w3.org/2000/svg" xmlns:xlink="http://www.w3.org/1999/xlink" x="0px" y="0px"
	 viewBox="0 0 118 112.3" style="enable-background:new 0 0 118 112.3;" xml:space="preserve">
<style type="text/css">
	.st0{fill:#D3E0F4;}
	.st1{fill:#907DF0;}
	.st2{fill:#FFFFFF;}
</style>
<rect id="XMLID_1_" x="3.8" y="4.8" class="st0" width="110.5" height="16.5"/>
<rect id="XMLID_2_" x="3.8" y="25.9" class="st1" width="110.5" height="60.5"/>
<rect id="XMLID_19_" x="3.8" y="91.1" class="st0" width="110.5" height="16.5"/>
<g id="XMLID_3_">
	<path id="XMLID_4_" class="st2" d="M51.2,60.8h-1.5v-9.6l-2.9,1.1V51l4.1-1.6h0.2V60.8z"/>
	<path id="XMLID_8_" class="st2" d="M62.6,56c0,1.7-0.3,3-0.9,3.8C61.1,60.6,60.2,61,59,61c-1.2,0-2.1-0.4-2.7-1.2
		c-0.6-0.8-0.9-2-0.9-3.6v-1.9c0-1.7,0.3-2.9,0.9-3.7s1.5-1.2,2.7-1.2c1.2,0,2.1,0.4,2.7,1.2c0.6,0.8,0.9,2,0.9,3.6V56z M61.1,54
		c0-1.2-0.2-2.1-0.5-2.7c-0.3-0.6-0.9-0.8-1.6-0.8c-0.7,0-1.3,0.3-1.6,0.8c-0.3,0.6-0.5,1.4-0.5,2.6v2.3c0,1.2,0.2,2.1,0.5,2.7
		c0.4,0.6,0.9,0.9,1.6,0.9c0.7,0,1.2-0.3,1.6-0.8c0.3-0.6,0.5-1.4,0.5-2.6V54z"/>
	<path id="XMLID_11_" class="st2" d="M71.6,56c0,1.7-0.3,3-0.9,3.8C70.1,60.6,69.2,61,68,61c-1.2,0-2.1-0.4-2.7-1.2
		c-0.6-0.8-0.9-2-0.9-3.6v-1.9c0-1.7,0.3-2.9,0.9-3.7s1.5-1.2,2.7-1.2c1.2,0,2.1,0.4,2.7,1.2c0.6,0.8,0.9,2,0.9,3.6V56z M70.1,54
		c0-1.2-0.2-2.1-0.5-2.7c-0.3-0.6-0.9-0.8-1.6-0.8c-0.7,0-1.3,0.3-1.6,0.8c-0.3,0.6-0.5,1.4-0.5,2.6v2.3c0,1.2,0.2,2.1,0.5,2.7
		c0.4,0.6,0.9,0.9,1.6,0.9c0.7,0,1.2-0.3,1.6-0.8c0.3-0.6,0.5-1.4,0.5-2.6V54z"/>
</g>
</svg>
