<?xml version="1.0" encoding="utf-8"?>
<!-- Generator: Adobe Illustrator 19.0.0, SVG Export Plug-In . SVG Version: 6.00 Build 0)  -->
<svg version="1.1" id="圖層_1" xmlns="http://www.w3.org/2000/svg" xmlns:xlink="http://www.w3.org/1999/xlink" x="0px" y="0px"
	 viewBox="0 0 48 48" style="enable-background:new 0 0 48 48;" xml:space="preserve">
<style type="text/css">
	.st0{fill:#4670BB;}
	.st1{fill:#A9C8ED;}
</style>
<polygon class="st0" points="2.1,40.9 2.1,20.7 48,20.7 48,18.6 0,18.6 0,43 48,43 48,40.9 "/>
<g>
	<path class="st0" d="M13.5,36h-2.2v-4.6H7.1V36H4.8V25.5h2.2v4.1h4.2v-4.1h2.2V36z"/>
	<path class="st0" d="M15.9,25.9c0-0.7,0.4-1.1,1.2-1.1s1.2,0.4,1.2,1.1c0,0.3-0.1,0.6-0.3,0.8c-0.2,0.2-0.5,0.3-0.9,0.3
		C16.3,26.9,15.9,26.6,15.9,25.9z M18.2,36H16v-8.1h2.2V36z"/>
</g>
<circle class="st1" cx="24" cy="31.2" r="2.6"/>
<circle class="st1" cx="31.9" cy="31.2" r="2.6"/>
<circle class="st1" cx="39.9" cy="31.2" r="2.6"/>
<circle class="st1" cx="47.8" cy="31.2" r="2.6"/>
<rect x="4.4" y="8.9" class="st0" width="18" height="2"/>
<rect x="27.4" y="8.9" class="st0" width="12.3" height="2"/>
<rect x="44" y="8.9" class="st0" width="4" height="2"/>
<polygon class="st0" points="7.8,14 0,9.5 7.8,5 "/>
</svg>
