<?xml version="1.0" encoding="utf-8"?>
<!-- Generator: Adobe Illustrator 19.0.0, SVG Export Plug-In . SVG Version: 6.00 Build 0)  -->
<svg version="1.1" xmlns="http://www.w3.org/2000/svg" xmlns:xlink="http://www.w3.org/1999/xlink" x="0px" y="0px"
	 viewBox="0 0 48 48" style="enable-background:new 0 0 48 48;" xml:space="preserve">
<style type="text/css">
	.st0{fill-rule:evenodd;clip-rule:evenodd;fill:#4670BB;}
	.st1{fill-rule:evenodd;clip-rule:evenodd;fill:#A9C8ED;}
</style>
<g id="圖層_1">
	<g id="car_repair_1_">
		<g>
			<path class="st0" d="M43.5,12.9l-7.4,7.9l-7-1.3l-2.4-6.7l8-8.5c-0.5-0.1-1-0.1-1.5-0.1c-5.8,0-10.4,4.7-10.4,10.4
				c0,1.5,0.3,2.9,0.9,4.2c-3.2,5.7-8,10.4-9.9,12.2c-0.6-0.2-1.2-0.3-1.9-0.3c-3.6,0-6.4,2.9-6.4,6.4c0,3.6,2.9,6.4,6.4,6.4
				c3.6,0,6.4-2.9,6.4-6.4c0-0.9-0.2-1.7-0.5-2.4c1.4-1.9,5.3-6.6,11.5-10.4c1.2,0.5,2.6,0.8,4,0.8c5.8,0,10.4-4.7,10.4-10.4
				C43.6,14.1,43.6,13.5,43.5,12.9z M11.8,40.6c-1.9,0-3.4-1.5-3.4-3.4c0-1.9,1.5-3.4,3.4-3.4s3.4,1.5,3.4,3.4
				C15.2,39.1,13.7,40.6,11.8,40.6z"/>
		</g>
	</g>
</g>
<g id="圖層_2">
	<path class="st1" d="M21.5,19.6l-2.9,2.9l-6.1-6.3L11,17.7L2.8,9.5l5.9-5.9l8.2,8.2l-1.5,1.5L21.5,19.6z"/>
	<path class="st1" d="M40.4,40.2l-2.3,2.3c-1.6,1.6-4.2,1.6-5.9,0c0,0-9.4-9.8-9.2-9.5c3.4-6,8.5-7.4,8.5-7.4l9,8.6
		C42,36,42,38.6,40.4,40.2z M26.5,31.9c-0.4,0.4-0.4,1.1,0,1.5l7.5,7.5c0.4,0.4,1.1,0.4,1.5,0c0.4-0.4,0.4-1.1,0-1.5l-7.5-7.5
		C27.5,31.5,26.9,31.5,26.5,31.9z M38.8,36.2l-7.5-7.5c-0.4-0.4-1.1-0.4-1.5,0c-0.4,0.4-0.4,1.1,0,1.5l7.5,7.5
		c0.4,0.4,1.1,0.4,1.5,0C39.2,37.2,39.2,36.6,38.8,36.2z"/>
</g>
</svg>
