<?xml version="1.0" encoding="utf-8"?>
<!-- Generator: Adobe Illustrator 19.0.0, SVG Export Plug-In . SVG Version: 6.00 Build 0)  -->
<svg version="1.1" id="圖層_1" xmlns="http://www.w3.org/2000/svg" xmlns:xlink="http://www.w3.org/1999/xlink" x="0px" y="0px"
	 viewBox="0 0 48 48" style="enable-background:new 0 0 48 48;" xml:space="preserve">
<style type="text/css">
	.st0{fill:#4670BB;}
	.st1{fill:#A9C8ED;}
</style>
<g>
	<path class="st0" d="M4.7,8c0-0.3,0.1-0.6,0.2-0.8C5,7,5.2,6.7,5.4,6.5c0.2-0.2,0.4-0.3,0.7-0.4C6.3,6,6.6,5.9,6.9,5.9
		c0.3,0,0.6,0.1,0.8,0.2C8,6.2,8.2,6.4,8.4,6.5C8.6,6.7,8.8,7,8.9,7.2C9,7.5,9.1,7.7,9.1,8c0,0.3-0.1,0.5-0.2,0.8
		C8.8,9,8.6,9.3,8.4,9.4C8.2,9.6,8,9.8,7.7,9.9c-0.3,0.1-0.5,0.2-0.8,0.2c-0.3,0-0.6-0.1-0.9-0.2C5.8,9.8,5.6,9.6,5.4,9.4
		C5.2,9.3,5,9,4.9,8.8C4.8,8.5,4.7,8.3,4.7,8z M6,8c0,0.2,0.1,0.4,0.3,0.6c0.2,0.2,0.4,0.2,0.6,0.2c0.3,0,0.5-0.1,0.6-0.2
		C7.7,8.5,7.8,8.3,7.8,8c0-0.2-0.1-0.4-0.2-0.6C7.4,7.2,7.2,7.1,6.9,7.1c-0.3,0-0.5,0.1-0.6,0.3C6.1,7.6,6,7.8,6,8z"/>
	<path class="st0" d="M10.3,9.4c0-0.5,0.1-0.9,0.2-1.4c0.1-0.4,0.4-0.8,0.7-1.1c0.3-0.3,0.7-0.6,1.1-0.8c0.4-0.2,0.9-0.3,1.5-0.3
		c0.4,0,0.7,0,1,0.1c0.3,0.1,0.6,0.2,0.8,0.3c0.2,0.1,0.4,0.3,0.6,0.5c0.1,0.2,0.2,0.4,0.2,0.6c0,0.2-0.1,0.3-0.2,0.5
		C16,8,15.9,8.1,15.8,8.1c-0.2,0-0.3,0-0.4-0.1c-0.1,0-0.3-0.1-0.4-0.2c-0.2-0.1-0.3-0.2-0.5-0.2c-0.2-0.1-0.4-0.1-0.7-0.1
		c-0.5,0-0.9,0.2-1.2,0.5C12.2,8.2,12,8.7,12,9.3v2.8c0,0.7,0.2,1.1,0.5,1.4c0.3,0.3,0.7,0.5,1.2,0.5c0.3,0,0.5,0,0.7-0.1
		c0.2,0,0.3-0.1,0.5-0.2c0.1-0.1,0.2-0.1,0.3-0.2c0.1,0,0.1-0.1,0.2-0.1c0.1,0,0.1,0,0.2-0.1c0.1,0,0.1,0,0.2,0
		c0.2,0,0.3,0.1,0.4,0.2c0.1,0.1,0.1,0.3,0.1,0.4c0,0.2-0.1,0.4-0.2,0.6c-0.1,0.2-0.3,0.3-0.6,0.5c-0.2,0.1-0.5,0.3-0.8,0.3
		c-0.3,0.1-0.7,0.1-1,0.1c-0.6,0-1-0.1-1.5-0.3c-0.4-0.2-0.8-0.4-1.1-0.8c-0.3-0.3-0.5-0.7-0.7-1.1c-0.1-0.4-0.2-0.9-0.2-1.4V9.4z"
		/>
</g>
<path class="st0" d="M47.1,14h-2.8c-0.1-0.5-0.2-1-0.4-1.5l2.4-1.4c0.4-0.3,0.6-0.8,0.3-1.3c-0.3-0.4-0.8-0.6-1.3-0.3l-2.4,1.4
	c-0.3-0.4-0.7-0.8-1.1-1.1l1.4-2.4c0.3-0.4,0.1-1-0.3-1.3c-0.5-0.3-1-0.1-1.3,0.3l-1.4,2.4c-0.5-0.2-1-0.3-1.5-0.4V5.6
	c0-0.5-0.4-0.9-0.9-0.9c-0.5,0-0.9,0.4-0.9,0.9v2.8c-0.5,0.1-1,0.2-1.5,0.4l-1.4-2.4C33.6,5.9,33,5.8,32.6,6
	c-0.4,0.3-0.6,0.8-0.3,1.3l1.4,2.4c-0.1,0.1-0.3,0.2-0.4,0.4c2.2,1.9,3.6,4.6,3.8,7.7c1.9,0.2,3.7,0.9,5.1,2.1
	c0.3-0.3,0.6-0.5,0.8-0.8l2.4,1.4c0.1,0.1,0.3,0.1,0.5,0.1c0.3,0,0.6-0.2,0.8-0.5c0.3-0.4,0.1-1-0.3-1.3l-2.4-1.4
	c0.2-0.5,0.3-1,0.4-1.5h2.8c0.5,0,0.9-0.4,0.9-0.9C48,14.4,47.6,14,47.1,14z"/>
<path class="st0" d="M36.2,19.5c-0.4,0-0.7,0-1.1,0.1c0.1-0.5,0.1-0.9,0.1-1.4c0-4.9-4-8.8-8.8-8.8c-4.7,0-8.6,3.8-8.8,8.5
	C14,18,11,20.4,10,23.7h12.7c0.6,0,1,0.5,1,1c0,0.6-0.5,1-1,1H9.6c0,0.2,0,0.3,0,0.5c0,0.2,0,0.3,0,0.5h9.2c0.6,0,1,0.5,1,1
	c0,0.6-0.5,1-1,1H10c1.1,3.4,4.2,5.9,8,5.9h18.2c4.2,0,7.5-3.4,7.5-7.5C43.7,22.9,40.3,19.5,36.2,19.5z"/>
<path class="st1" d="M19.5,36.2C18.9,36,18.2,36.4,18,37l-1.6,5.3c-0.2,0.6,0.2,1.3,0.8,1.5c0.1,0,0.2,0.1,0.4,0.1
	c0.5,0,1-0.3,1.1-0.8l1.6-5.3C20.5,37.1,20.1,36.4,19.5,36.2z"/>
<path class="st1" d="M26.9,36.2c-0.6-0.2-1.3,0.2-1.5,0.8l-1.6,5.3c-0.2,0.6,0.2,1.3,0.8,1.5c0.1,0,0.2,0.1,0.4,0.1
	c0.5,0,1-0.3,1.1-0.8l1.6-5.3C27.9,37.1,27.5,36.4,26.9,36.2z"/>
<path class="st1" d="M34.2,36.2c-0.6-0.2-1.3,0.2-1.5,0.8l-1.6,5.3c-0.2,0.6,0.2,1.3,0.8,1.5c0.1,0,0.2,0.1,0.4,0.1
	c0.5,0,1-0.3,1.1-0.8l1.6-5.3C35.2,37.1,34.8,36.4,34.2,36.2z"/>
<path class="st1" d="M6.8,26.7c-1.9,0-3.5,1.6-3.5,3.5c0,1.9,1.6,3.5,3.5,3.5c0.6,0,1-0.5,1-1c0-0.6-0.5-1-1-1
	c-0.8,0-1.5-0.7-1.5-1.5c0-0.8,0.7-1.5,1.5-1.5H10c-0.2-0.6-0.3-1.3-0.4-2H6.8z"/>
<path class="st1" d="M3.5,23.7C2.7,23.7,2,23,2,22.2s0.7-1.5,1.5-1.5c0.6,0,1-0.5,1-1c0-0.6-0.5-1-1-1c-1.9,0-3.5,1.6-3.5,3.5
	c0,1.9,1.6,3.5,3.5,3.5h6.1c0-0.7,0.2-1.4,0.4-2H3.5z"/>
</svg>
