<?xml version="1.0" encoding="utf-8"?>
<!-- Generator: Adobe Illustrator 19.0.0, SVG Export Plug-In . SVG Version: 6.00 Build 0)  -->
<svg version="1.1" id="圖層_1" xmlns="http://www.w3.org/2000/svg" xmlns:xlink="http://www.w3.org/1999/xlink" x="0px" y="0px"
	 viewBox="0 0 36.7 36.7" style="enable-background:new 0 0 36.7 36.7;" xml:space="preserve">
<style type="text/css">
	.st0{fill:#4670BB;}
	.st1{fill-rule:evenodd;clip-rule:evenodd;fill:#A9C8ED;}
</style>
<circle class="st0" cx="14.8" cy="13.2" r="2.3"/>
<path class="st0" d="M19.3,15.1C19.3,15.1,19.3,15.1,19.3,15.1l-4.4,4.2l-1-0.8c-1.3-1-3.4-0.9-4.7,0.1l-2.1,1.9v1.6v2.6h22.7v-3.4
	v-1.6L24.1,15C22.7,14.1,20.6,14.1,19.3,15.1z M23.6,18.9l-1.6-1c-0.2-0.1-0.5-0.1-0.7,0l-1.5,0.9l-1.5-0.9c0,0,0,0-0.1,0l2-1.9
	c0.8-0.6,2.3-0.7,3.1-0.1l2.5,2L23.6,18.9z"/>
<rect y="2.9" class="st1" width="36.7" height="4"/>
<rect y="29.8" class="st1" width="36.7" height="4"/>
<polygon class="st0" points="4.2,12.6 0,17.8 4.2,22.7 "/>
<polygon class="st0" points="32.5,12.6 36.7,17.8 32.5,22.7 "/>
</svg>
