<?xml version="1.0" encoding="utf-8"?>
<!-- Generator: Adobe Illustrator 19.0.0, SVG Export Plug-In . SVG Version: 6.00 Build 0)  -->
<svg version="1.1" id="圖層_1" xmlns="http://www.w3.org/2000/svg" xmlns:xlink="http://www.w3.org/1999/xlink" x="0px" y="0px"
	 viewBox="0 0 48 48" style="enable-background:new 0 0 48 48;" xml:space="preserve">
<style type="text/css">
	.st0{fill:#4670BB;}
	.st1{fill:#A9C8ED;}
</style>
<path class="st0" d="M47.1,11.2h-35V4.4c0-0.4-0.3-0.7-0.7-0.7H0.7C0.3,3.7,0,4,0,4.4v7.5v1.6v29.7c0,0.4,0.3,0.7,0.7,0.7h46.4
	c0.4,0,0.7-0.3,0.7-0.7V11.9C47.8,11.6,47.5,11.2,47.1,11.2z M9.8,39H5.3c-0.6,0-1.1-0.5-1.1-1.1c0-0.6,0.5-1.1,1.1-1.1h4.4
	c0.6,0,1.1,0.5,1.1,1.1C10.9,38.6,10.4,39,9.8,39z M9.8,32.5H5.3c-0.6,0-1.1-0.5-1.1-1.1c0-0.6,0.5-1.1,1.1-1.1h4.4
	c0.6,0,1.1,0.5,1.1,1.1C10.9,32,10.4,32.5,9.8,32.5z M9.8,26H5.3c-0.6,0-1.1-0.5-1.1-1.1c0-0.6,0.5-1.1,1.1-1.1h4.4
	c0.6,0,1.1,0.5,1.1,1.1C10.9,25.5,10.4,26,9.8,26z M9.8,19.9H5.3c-0.6,0-1.1-0.5-1.1-1.1c0-0.6,0.5-1.1,1.1-1.1h4.4
	c0.6,0,1.1,0.5,1.1,1.1C10.9,19.4,10.4,19.9,9.8,19.9z M41.9,39H15c-0.6,0-1.1-0.5-1.1-1.1c0-0.6,0.5-1.1,1.1-1.1h26.9
	c0.6,0,1.1,0.5,1.1,1.1C43,38.6,42.5,39,41.9,39z M41.9,32.5H15c-0.6,0-1.1-0.5-1.1-1.1c0-0.6,0.5-1.1,1.1-1.1h26.9
	c0.6,0,1.1,0.5,1.1,1.1C43,32,42.5,32.5,41.9,32.5z M41.9,26H15c-0.6,0-1.1-0.5-1.1-1.1c0-0.6,0.5-1.1,1.1-1.1h26.9
	c0.6,0,1.1,0.5,1.1,1.1C43,25.5,42.5,26,41.9,26z M41.9,19.9H15c-0.6,0-1.1-0.5-1.1-1.1c0-0.6,0.5-1.1,1.1-1.1h26.9
	c0.6,0,1.1,0.5,1.1,1.1C43,19.4,42.5,19.9,41.9,19.9z"/>
<path class="st1" d="M26.3,9.5V4.4c0-0.4-0.3-0.7-0.7-0.7H14.9c-0.4,0-0.7,0.3-0.7,0.7v5.1H26.3z"/>
<path class="st1" d="M40.1,9.5V4.4c0-0.4-0.3-0.7-0.7-0.7H28.7C28.3,3.7,28,4,28,4.4v5.1H40.1z"/>
</svg>
