<?xml version="1.0" encoding="utf-8"?>
<!-- Generator: Adobe Illustrator 19.0.0, SVG Export Plug-In . SVG Version: 6.00 Build 0)  -->
<svg version="1.1" id="圖層_1" xmlns="http://www.w3.org/2000/svg" xmlns:xlink="http://www.w3.org/1999/xlink" x="0px" y="0px"
	 viewBox="0 0 36.7 36.7" style="enable-background:new 0 0 36.7 36.7;" xml:space="preserve">
<style type="text/css">
	.st0{fill:#A9C8ED;}
	.st1{fill-rule:evenodd;clip-rule:evenodd;fill:#4670BB;}
	.st2{fill:#4670BB;}
</style>
<g>
	<path class="st0" d="M0.2,3.9v12.9h36.1V3.9H0.2z"/>
	<path class="st1" d="M30.8,7.6C29.7,6.9,28,6.9,27,7.7c0,0,0,0,0,0l-3.5,3.3l-0.8-0.6c-1-0.8-2.7-0.8-3.7,0.1l-1.1,1
		c-0.7-1-2.2-2.6-4.9-2.6c-3.3,0-5.2,3.8-5.2,3.8s-2.5-3.5-6.3,0c-0.1,0.1-0.2,0.2-0.3,0.3v2.4h16h0.7h17.3v-2.7v-1.2L30.8,7.6z
		 M30.4,10.7L29.1,10c-0.2-0.1-0.4-0.1-0.6,0l-1.2,0.8L26.1,10c0,0,0,0,0,0l1.6-1.5c0.7-0.5,1.8-0.5,2.5-0.1l2,1.6L30.4,10.7z"/>
	<circle class="st2" cx="7" cy="7.6" r="2.7"/>
</g>
<g>
	<rect x="0.1" y="20.7" class="st2" width="36.4" height="13.1"/>
	<path class="st0" d="M35.4,30v2.7H18.1h-0.7h-16v-2.4c0.1-0.1,0.2-0.2,0.3-0.3c3.8-3.5,6.3,0,6.3,0s1.8-3.8,5.2-3.8
		c2.6,0,4.2,1.6,4.9,2.6l1.1-1c1-0.8,2.7-0.9,3.7-0.1l0.8,0.6L27,25c0,0,0,0,0,0c1-0.8,2.7-0.8,3.8-0.1l4.6,3.8V30z"/>
	<path class="st0" d="M9.2,26.3c-1.5,0-2.7-1.2-2.7-2.7c0-0.5,0.1-1,0.4-1.4c-1.5,0-2.6,1.2-2.6,2.7c0,1.5,1.2,2.7,2.7,2.7
		C7.9,27.6,8.8,27,9.2,26.3C9.3,26.3,9.2,26.3,9.2,26.3z"/>
	<path class="st2" d="M27.7,25.7l-1.6,1.5c0,0,0,0,0,0l1.2,0.8l1.2-0.8c0.2-0.1,0.4-0.1,0.6,0l1.3,0.8l1.7-0.8l-2-1.6
		C29.5,25.1,28.3,25.2,27.7,25.7z"/>
</g>
</svg>
