<?xml version="1.0" encoding="utf-8"?>
<!-- Generator: Adobe Illustrator 19.0.0, SVG Export Plug-In . SVG Version: 6.00 Build 0)  -->
<svg version="1.1" id="圖層_1" xmlns="http://www.w3.org/2000/svg" xmlns:xlink="http://www.w3.org/1999/xlink" x="0px" y="0px"
	 viewBox="0 0 36.7 36.7" style="enable-background:new 0 0 36.7 36.7;" xml:space="preserve">
<style type="text/css">
	.st0{fill-rule:evenodd;clip-rule:evenodd;fill:#4670BB;}
	.st1{fill-rule:evenodd;clip-rule:evenodd;fill:#94B2DD;}
</style>
<g>
	<polyline class="st0" points="16.5,29.9 18.8,11.6 20.2,11.6 17.8,29.9 	"/>
	<polygon class="st0" points="27.7,22.3 21.1,27.6 21.1,24.2 25.7,20.8 21.1,17.6 21.1,14.2 27.7,19.4 	"/>
	<polygon class="st0" points="9,19.4 15.5,14.2 15.5,17.6 10.9,20.8 15.5,24.2 15.5,27.6 9,22.3 	"/>
</g>
<path class="st1" d="M35.9,3.1H0.8c-0.3,0-0.5,0.2-0.5,0.5v29.8c0,0.3,0.2,0.5,0.5,0.5h35.2c0.3,0,0.5-0.2,0.5-0.5V3.6
	C36.4,3.3,36.2,3.1,35.9,3.1z M13.9,6.1c0-0.3,0.2-0.5,0.5-0.5h1.7c0.3,0,0.5,0.2,0.5,0.5v1.7c0,0.3-0.2,0.5-0.5,0.5h-1.7
	c-0.3,0-0.5-0.2-0.5-0.5V6.1z M10.1,6.1c0-0.3,0.2-0.5,0.5-0.5h1.7c0.3,0,0.5,0.2,0.5,0.5v1.7c0,0.3-0.2,0.5-0.5,0.5h-1.7
	c-0.3,0-0.5-0.2-0.5-0.5V6.1z M6.4,6.1c0-0.3,0.2-0.5,0.5-0.5h1.7C8.8,5.6,9,5.8,9,6.1v1.7C9,8,8.8,8.3,8.5,8.3H6.9
	C6.6,8.3,6.4,8,6.4,7.8V6.1z M2.6,6.1c0-0.3,0.2-0.5,0.5-0.5h1.7c0.3,0,0.5,0.2,0.5,0.5v1.7C5.3,8,5,8.3,4.8,8.3H3.1
	C2.8,8.3,2.6,8,2.6,7.8V6.1z M34.1,31.2c0,0.3-0.2,0.5-0.5,0.5H3.1c-0.3,0-0.5-0.2-0.5-0.5v-21c0-0.3,0.2-0.5,0.5-0.5h30.5
	c0.3,0,0.5,0.2,0.5,0.5V31.2z"/>
</svg>
