<?xml version="1.0" encoding="utf-8"?>
<!-- Generator: Adobe Illustrator 19.0.0, SVG Export Plug-In . SVG Version: 6.00 Build 0)  -->
<svg version="1.1" id="圖層_1" xmlns="http://www.w3.org/2000/svg" xmlns:xlink="http://www.w3.org/1999/xlink" x="0px" y="0px"
	 viewBox="0 0 48 48" style="enable-background:new 0 0 48 48;" xml:space="preserve">
<style type="text/css">
	.st0{fill:#A9C8ED;}
	.st1{fill:#4670BB;}
</style>
<path class="st0" d="M0.5,3.5h47C47.8,3.5,48,3.7,48,4v39.3c0,0.3-0.2,0.5-0.5,0.5h-47c-0.3,0-0.5-0.2-0.5-0.5V4
	C0,3.7,0.2,3.5,0.5,3.5z"/>
<g>
	<path id="circle_2_" class="st1" d="M17.5,34.5c0,2.3-1.9,4.1-4.1,4.1c-2.3,0-4.1-1.8-4.1-4.1c0-2.3,1.9-4.1,4.1-4.1
		C15.6,30.3,17.5,32.2,17.5,34.5z"/>
	<path class="st1" d="M29.5,38.4H24c-0.1-3.9-1.6-7.5-4.4-10.3c-2.7-2.8-6.4-4.3-10.2-4.4v-5.4C20.4,18.4,29.3,27.4,29.5,38.4
		L29.5,38.4z"/>
	<path class="st1" d="M40.1,38.4h-5.4C34.5,24.5,23.3,13.3,9.5,13.1V7.7C26.3,7.8,39.9,21.5,40.1,38.4L40.1,38.4z"/>
</g>
</svg>
