<?xml version="1.0" encoding="utf-8"?>
<!-- Generator: Adobe Illustrator 19.0.0, SVG Export Plug-In . SVG Version: 6.00 Build 0)  -->
<svg version="1.1" id="圖層_1" xmlns="http://www.w3.org/2000/svg" xmlns:xlink="http://www.w3.org/1999/xlink" x="0px" y="0px"
	 viewBox="0 0 48 48" style="enable-background:new 0 0 48 48;" xml:space="preserve">
<style type="text/css">
	.st0{fill:#4670BB;}
	.st1{fill:#A9C8ED;}
</style>
<polygon class="st0" points="37.6,12.6 45.8,18.8 37.4,18.8 "/>
<path class="st0" d="M38.3,22H0.5C0.2,22,0,21.8,0,21.5v-18C0,3.2,0.2,3,0.5,3h37.8c0.3,0,0.5,0.2,0.5,0.5v18
	C38.8,21.8,38.6,22,38.3,22z"/>
<path class="st1" d="M31.7,8.3h-26c-0.3,0-0.5-0.2-0.5-0.5v-1c0-0.3,0.2-0.5,0.5-0.5h26c0.3,0,0.5,0.2,0.5,0.5v1
	C32.2,8.1,31.9,8.3,31.7,8.3z"/>
<path class="st1" d="M31.7,13.3h-26c-0.3,0-0.5-0.2-0.5-0.5v-1c0-0.3,0.2-0.5,0.5-0.5h26c0.3,0,0.5,0.2,0.5,0.5v1
	C32.2,13.1,31.9,13.3,31.7,13.3z"/>
<path class="st1" d="M31.7,18.3h-26c-0.3,0-0.5-0.2-0.5-0.5v-1c0-0.3,0.2-0.5,0.5-0.5h26c0.3,0,0.5,0.2,0.5,0.5v1
	C32.2,18.1,31.9,18.3,31.7,18.3z"/>
<polygon class="st1" points="10.4,34.9 2.2,41.2 10.6,41.2 "/>
<path class="st1" d="M9.7,44.3l37.8,0c0.3,0,0.5-0.2,0.5-0.5v-18c0-0.3-0.2-0.5-0.5-0.5H9.7c-0.3,0-0.5,0.2-0.5,0.5v18
	C9.2,44.1,9.4,44.3,9.7,44.3z"/>
<path class="st0" d="M16.3,30.7h26c0.3,0,0.5-0.2,0.5-0.5v-1c0-0.3-0.2-0.5-0.5-0.5h-26c-0.3,0-0.5,0.2-0.5,0.5v1
	C15.8,30.4,16.1,30.7,16.3,30.7z"/>
<path class="st0" d="M16.3,35.7h26c0.3,0,0.5-0.2,0.5-0.5v-1c0-0.3-0.2-0.5-0.5-0.5h-26c-0.3,0-0.5,0.2-0.5,0.5v1
	C15.8,35.4,16.1,35.7,16.3,35.7z"/>
<path class="st0" d="M16.3,40.7h26c0.3,0,0.5-0.2,0.5-0.5v-1c0-0.3-0.2-0.5-0.5-0.5h-26c-0.3,0-0.5,0.2-0.5,0.5v1
	C15.8,40.4,16.1,40.7,16.3,40.7z"/>
</svg>
