<?xml version="1.0" encoding="utf-8"?>
<!-- Generator: Adobe Illustrator 19.0.0, SVG Export Plug-In . SVG Version: 6.00 Build 0)  -->
<svg version="1.1" id="圖層_1" xmlns="http://www.w3.org/2000/svg" xmlns:xlink="http://www.w3.org/1999/xlink" x="0px" y="0px"
	 viewBox="0 0 36.7 36.7" style="enable-background:new 0 0 36.7 36.7;" xml:space="preserve">
<style type="text/css">
	.st0{fill:#4670BB;}
	.st1{fill-rule:evenodd;clip-rule:evenodd;fill:#A9C8ED;}
</style>
<circle class="st0" cx="11.5" cy="10.3" r="3.2"/>
<path class="st0" d="M19.2,12.1C19.2,12.1,19.2,12.1,19.2,12.1l-5.7,5.3l-1.3-1c-1.7-1.2-4.4-1.2-6,0.1l-2.7,2.4v2v3.3h29.2v-4.3
	v-1.9l-7.5-6C23.6,10.8,20.9,10.8,19.2,12.1z M24.7,16.8l-2-1.2c-0.3-0.2-0.6-0.2-0.9,0l-2,1.2l-2-1.2c0,0,0,0-0.1,0l2.6-2.4
	c1.1-0.8,2.9-0.8,4-0.1l3.2,2.5L24.7,16.8z"/>
<path class="st1" d="M36.2,3.2H0.5C0.2,3.2,0,3.4,0,3.7V33c0,0.3,0.2,0.5,0.5,0.5h35.7c0.3,0,0.5-0.2,0.5-0.5V3.7
	C36.7,3.4,36.4,3.2,36.2,3.2z M35.1,25.4c0,0.3-0.2,0.5-0.5,0.5H2.1c-0.3,0-0.5-0.2-0.5-0.5V5.7c0-0.3,0.2-0.5,0.5-0.5h32.5
	c0.3,0,0.5,0.2,0.5,0.5V25.4z"/>
</svg>
