<?xml version="1.0" encoding="utf-8"?>
<!-- Generator: Adobe Illustrator 19.0.0, SVG Export Plug-In . SVG Version: 6.00 Build 0)  -->
<svg version="1.1" id="圖層_1" xmlns="http://www.w3.org/2000/svg" xmlns:xlink="http://www.w3.org/1999/xlink" x="0px" y="0px"
	 viewBox="0 0 48 48" style="enable-background:new 0 0 48 48;" xml:space="preserve">
<style type="text/css">
	.st0{fill:#A9C8ED;}
	.st1{fill:#4670BB;}
</style>
<path class="st0" d="M26.3,9.5V4.4c0-0.4-0.3-0.7-0.7-0.7H14.9c-0.4,0-0.7,0.3-0.7,0.7v5.1H26.3z"/>
<path class="st0" d="M40.1,9.5V4.4c0-0.4-0.3-0.7-0.7-0.7H28.7C28.3,3.7,28,4,28,4.4v5.1H40.1z"/>
<path class="st1" d="M47.1,11.2h-35V4.4c0-0.4-0.3-0.7-0.7-0.7H0.7C0.3,3.7,0,4,0,4.4v7.5v1.6v29.7c0,0.4,0.3,0.7,0.7,0.7h46.4
	c0.4,0,0.7-0.3,0.7-0.7V11.9C47.8,11.6,47.5,11.2,47.1,11.2z M31.4,35.8c-2.1,2.2-5,3.4-8.1,3.4l-0.1,0c-3.9,0-7.5-2-9.6-5.2
	l-0.5,2.5c-0.1,0.5-0.5,0.8-1,0.8c0,0,0,0,0,0c-0.1,0-0.2,0-0.2,0c-0.3-0.1-0.5-0.2-0.6-0.4c-0.2-0.2-0.2-0.5-0.2-0.8l1-5
	c0.1-0.3,0.2-0.5,0.4-0.7c0.1-0.1,0.3-0.2,0.5-0.2c0,0,0.1,0,0.1,0c0.1,0,0.2,0,0.2,0l5,1c0.3,0.1,0.5,0.2,0.7,0.4s0.2,0.5,0.2,0.8
	c-0.1,0.5-0.5,0.8-1,0.8h0c-0.1,0-0.1,0-0.2,0l-2.5-0.5c1.7,2.6,4.7,4.3,7.9,4.3c2.6,0,4.9-1,6.7-2.8c1.8-1.8,2.7-4.2,2.7-6.7
	c0-0.3,0.1-0.5,0.3-0.7c0.2-0.2,0.5-0.3,0.7-0.3c0.6,0,1,0.5,1,1C34.7,30.8,33.6,33.6,31.4,35.8z M34.9,19l-1.1,5
	c-0.1,0.3-0.2,0.5-0.5,0.7c-0.1,0.1-0.3,0.1-0.5,0.2c0,0,0,0-0.1,0c-0.1,0-0.2,0-0.2,0l-5-1.1c-0.3-0.1-0.5-0.2-0.7-0.4
	c-0.2-0.2-0.2-0.5-0.1-0.8c0.1-0.5,0.5-0.8,1-0.8c0.1,0,0.1,0,0.2,0l2.5,0.5c-1.7-2.7-4.7-4.3-7.9-4.3c-5.2,0-9.4,4.2-9.4,9.4
	c0,0.6-0.5,1-1,1c-0.6,0-1-0.5-1-1c0-6.3,5.1-11.5,11.5-11.5c3.9,0,7.6,2,9.7,5.3l0.5-2.5c0.1-0.5,0.5-0.8,1-0.8c0.1,0,0.1,0,0.2,0
	c0.3,0.1,0.5,0.2,0.6,0.4C34.9,18.5,35,18.8,34.9,19z"/>
</svg>
