<?xml version="1.0" encoding="utf-8"?>
<!-- Generator: Adobe Illustrator 19.0.0, SVG Export Plug-In . SVG Version: 6.00 Build 0)  -->
<svg version="1.1" id="圖層_1" xmlns="http://www.w3.org/2000/svg" xmlns:xlink="http://www.w3.org/1999/xlink" x="0px" y="0px"
	 viewBox="0 0 48 48" style="enable-background:new 0 0 48 48;" xml:space="preserve">
<style type="text/css">
	.st0{fill:#A9C8ED;}
	.st1{fill:#4670BB;}
</style>
<path class="st0" d="M18.4,22.8c0-0.6,0.4-1,1-1H38c0.6,0,1,0.4,1,1s-0.4,1-1,1H19.4C18.9,23.8,18.4,23.3,18.4,22.8z"/>
<path class="st0" d="M18.4,17.4c0-0.6,0.4-1,1-1H38c0.6,0,1,0.4,1,1s-0.4,1-1,1H19.4C18.9,18.4,18.4,18,18.4,17.4z"/>
<path class="st0" d="M22.4,28.1c0-0.6,0.4-1,1-1H38c0.6,0,1,0.4,1,1s-0.4,1-1,1H23.4C22.9,29.1,22.4,28.6,22.4,28.1z"/>
<path class="st0" d="M22.4,33.4c0-0.6,0.4-1,1-1H38c0.6,0,1,0.4,1,1s-0.4,1-1,1H23.4C22.9,34.4,22.4,34,22.4,33.4z"/>
<path class="st1" d="M7.2,24.3c-2.8,1.5-4.8,4.4-4.8,7.8c0,7.9,9.6,11.7,15.1,6.1C24.5,30.9,15.9,19.8,7.2,24.3z M16.1,30.3
	l-5.5,5.5c-0.3,0.3-0.6,0.4-1,0.4c-0.4,0-0.7-0.1-1-0.4l-2.2-2.2c-0.5-0.5-0.5-1.4,0-2c0.5-0.5,1.4-0.5,2,0l1.3,1.3l4.5-4.5
	c0.5-0.5,1.4-0.5,2,0C16.6,28.9,16.6,29.8,16.1,30.3z"/>
<path class="st1" d="M19.9,12.7h16.6c1.4,0,2.5-1.1,2.5-2.5V6.3h-4.4V3.9h-13v2.3h-4.4v3.9C17.3,11.6,18.5,12.7,19.9,12.7z M24,5.2
	h9.4v1.1H24V5.2z"/>
<g>
	<path class="st1" d="M14.1,22.1V10c0-0.3,0.2-0.5,0.5-0.5h1.2v-2h-3.2c-0.3,0-0.5,0.2-0.5,0.5v13.7C12.8,21.8,13.4,21.9,14.1,22.1z
		"/>
	<path class="st1" d="M44.8,7.5h-4.2v2h2.2c0.3,0,0.5,0.2,0.5,0.5v27.7c0,0.3-0.2,0.5-0.5,0.5H19.6c-0.5,0.7-1.1,1.4-1.8,2h27
		c0.3,0,0.5-0.2,0.5-0.5V8C45.3,7.7,45.1,7.5,44.8,7.5z"/>
</g>
</svg>
