<?xml version="1.0" encoding="utf-8"?>
<!-- Generator: Adobe Illustrator 19.0.0, SVG Export Plug-In . SVG Version: 6.00 Build 0)  -->
<svg version="1.1" id="圖層_1" xmlns="http://www.w3.org/2000/svg" xmlns:xlink="http://www.w3.org/1999/xlink" x="0px" y="0px"
	 viewBox="0 0 48 48" style="enable-background:new 0 0 48 48;" xml:space="preserve">
<style type="text/css">
	.st0{fill:#A9C8ED;}
	.st1{fill:#4670BB;}
</style>
<path class="st0" d="M14.5,15.6c1.4,0,2.5-1.1,2.5-2.5V6.5c0-1.4-1.1-2.5-2.5-2.5C13.1,4,12,5.1,12,6.5v6.6
	C12,14.5,13.1,15.6,14.5,15.6z"/>
<path class="st0" d="M32.7,15.6c1.4,0,2.5-1.1,2.5-2.5V6.5c0-1.4-1.1-2.5-2.5-2.5c-1.4,0-2.5,1.1-2.5,2.5v6.6
	C30.2,14.5,31.3,15.6,32.7,15.6z"/>
<path class="st1" d="M47.2,9H36.9v4.1c0,2.3-1.9,4.1-4.2,4.1c-2.3,0-4.1-1.9-4.1-4.1V9h-10v4.1c0,2.3-1.9,4.1-4.1,4.1
	c-2.3,0-4.1-1.9-4.1-4.1V9H0.8C0.4,9,0,9.4,0,9.8V43c0,0.5,0.4,0.8,0.8,0.8h46.3c0.5,0,0.8-0.4,0.8-0.8V9.8C48,9.4,47.6,9,47.2,9z
	 M11.5,37.8c0,0.5-0.4,0.8-0.8,0.8h-5c-0.5,0-0.8-0.4-0.8-0.8v-5c0-0.5,0.4-0.8,0.8-0.8h5c0.5,0,0.8,0.4,0.8,0.8V37.8z M11.3,27.2
	c0.3,0.3,0.3,0.9,0,1.2c-0.2,0.2-0.4,0.2-0.6,0.2c-0.2,0-0.4-0.1-0.6-0.2l-1.9-1.9l-1.9,1.9c-0.2,0.2-0.4,0.2-0.6,0.2
	c-0.2,0-0.4-0.1-0.6-0.2c-0.3-0.3-0.3-0.9,0-1.2L7,25.3l-1.9-1.9c-0.3-0.3-0.3-0.9,0-1.2c0.3-0.3,0.9-0.3,1.2,0l1.9,1.9l1.9-1.9
	c0.3-0.3,0.9-0.3,1.2,0c0.3,0.3,0.3,0.9,0,1.2l-1.9,1.9L11.3,27.2z M22.3,37.8c0,0.5-0.4,0.8-0.8,0.8h-5c-0.5,0-0.8-0.4-0.8-0.8v-5
	c0-0.5,0.4-0.8,0.8-0.8h5c0.5,0,0.8,0.4,0.8,0.8V37.8z M22.1,27.2c0.3,0.3,0.3,0.9,0,1.2c-0.2,0.2-0.4,0.2-0.6,0.2
	c-0.2,0-0.4-0.1-0.6-0.2L19,26.5l-1.9,1.9c-0.2,0.2-0.4,0.2-0.6,0.2c-0.2,0-0.4-0.1-0.6-0.2c-0.3-0.3-0.3-0.9,0-1.2l1.9-1.9
	l-1.9-1.9c-0.3-0.3-0.3-0.9,0-1.2c0.3-0.3,0.9-0.3,1.2,0l1.9,1.9l1.9-1.9c0.3-0.3,0.9-0.3,1.2,0c0.3,0.3,0.3,0.9,0,1.2l-1.9,1.9
	L22.1,27.2z M26.5,22.8c0-0.5,0.4-0.8,0.8-0.8h5c0.5,0,0.8,0.4,0.8,0.8v5c0,0.5-0.4,0.8-0.8,0.8h-5c-0.5,0-0.8-0.4-0.8-0.8V22.8z
	 M33.1,37.8c0,0.5-0.4,0.8-0.8,0.8h-5c-0.5,0-0.8-0.4-0.8-0.8v-5c0-0.5,0.4-0.8,0.8-0.8h5c0.5,0,0.8,0.4,0.8,0.8V37.8z M43.9,37.8
	c0,0.5-0.4,0.8-0.8,0.8h-5c-0.5,0-0.8-0.4-0.8-0.8v-5c0-0.5,0.4-0.8,0.8-0.8h5c0.5,0,0.8,0.4,0.8,0.8V37.8z M43.9,27.8
	c0,0.5-0.4,0.8-0.8,0.8h-5c-0.5,0-0.8-0.4-0.8-0.8v-5c0-0.5,0.4-0.8,0.8-0.8h5c0.5,0,0.8,0.4,0.8,0.8V27.8z"/>
</svg>
