<?xml version="1.0" encoding="utf-8"?>
<!-- Generator: Adobe Illustrator 19.0.0, SVG Export Plug-In . SVG Version: 6.00 Build 0)  -->
<svg version="1.1" id="圖層_1" xmlns="http://www.w3.org/2000/svg" xmlns:xlink="http://www.w3.org/1999/xlink" x="0px" y="0px"
	 viewBox="0 0 90 80" style="enable-background:new 0 0 90 80;" xml:space="preserve">
<style type="text/css">
	.st0{clip-path:url(#XMLID_4_);fill:#00AF8D;}
	.st1{clip-path:url(#XMLID_5_);fill:#EE7A03;}
	.st2{clip-path:url(#XMLID_6_);fill:#8CEAD8;}
	.st3{clip-path:url(#XMLID_7_);fill:#9B9B9B;}
	.st4{clip-path:url(#XMLID_8_);fill:#FFFFFF;}
	.st5{clip-path:url(#XMLID_9_);fill:#FFDF01;}
	.st6{clip-path:url(#XMLID_11_);fill:#FFFFFF;}
	.st7{clip-path:url(#XMLID_20_);fill:#FFDF01;}
	.st8{fill:#FFCFA4;}
	.st9{fill:#FFFFFF;}
</style>
<g id="XMLID_128_">
	<defs>
		<path id="XMLID_129_" d="M6.5,59.7c0-1.4,1.1-2.5,2.5-2.5h60.7c1.4,0,2.5,1.1,2.5,2.5v7.6c0,1.4-1.1,2.5-2.5,2.5H9
			c-1.4,0-2.5-1.1-2.5-2.5V59.7L6.5,59.7z"/>
	</defs>
	<clipPath id="XMLID_4_">
		<use xlink:href="#XMLID_129_"  style="overflow:visible;"/>
	</clipPath>
	<rect id="XMLID_130_" x="0.2" y="50.9" class="st0" width="78.4" height="25.3"/>
</g>
<g id="XMLID_124_">
	<defs>
		<path id="XMLID_125_" d="M4,43.8c0-1.4,1.1-2.5,2.5-2.5h63.2c1.4,0,2.5,1.1,2.5,2.5v8.9c0,1.4-1.1,2.5-2.5,2.5H6.5
			c-1.4,0-2.5-1.1-2.5-2.5V43.8L4,43.8z"/>
	</defs>
	<clipPath id="XMLID_5_">
		<use xlink:href="#XMLID_125_"  style="overflow:visible;"/>
	</clipPath>
	<rect id="XMLID_126_" x="-2.3" y="35" class="st1" width="81" height="26.6"/>
</g>
<g id="XMLID_120_">
	<defs>
		<path id="XMLID_121_" d="M15.4,14.5c0-1.4,1.1-2.5,2.5-2.5h51.9c1.4,0,2.5,1.1,2.5,2.5v3.8c0,1.4-1.1,2.5-2.5,2.5H17.9
			c-1.4,0-2.5-1.1-2.5-2.5V14.5L15.4,14.5z"/>
	</defs>
	<use xlink:href="#XMLID_121_"  style="overflow:visible;fill-rule:evenodd;clip-rule:evenodd;fill:#8CEAD8;"/>
	<clipPath id="XMLID_6_">
		<use xlink:href="#XMLID_121_"  style="overflow:visible;"/>
	</clipPath>
	<rect id="XMLID_122_" x="9" y="5.7" class="st2" width="69.6" height="21.5"/>
</g>
<g id="XMLID_107_">
	<defs>
		<path id="XMLID_108_" d="M11.6,25.4c0-1.4,1.1-2.5,2.5-2.5h55.7c1.4,0,2.5,1.1,2.5,2.5v11.4c0,1.4-1.1,2.5-2.5,2.5H14.1
			c-1.4,0-2.5-1.1-2.5-2.5V25.4L11.6,25.4z"/>
	</defs>
	<use xlink:href="#XMLID_108_"  style="overflow:visible;fill-rule:evenodd;clip-rule:evenodd;fill:#9B9B9B;"/>
	<clipPath id="XMLID_7_">
		<use xlink:href="#XMLID_108_"  style="overflow:visible;"/>
	</clipPath>
	<rect id="XMLID_109_" x="5.2" y="16.5" class="st3" width="73.4" height="29.1"/>
</g>
<g id="XMLID_104_">
	<defs>
		<rect id="XMLID_105_" x="58.4" y="22.8" width="2.5" height="16.4"/>
	</defs>
	<use xlink:href="#XMLID_105_"  style="overflow:visible;fill:#FFFFFF;"/>
	<clipPath id="XMLID_8_">
		<use xlink:href="#XMLID_105_"  style="overflow:visible;"/>
	</clipPath>
	<rect id="XMLID_106_" x="52" y="16.5" class="st4" width="15.2" height="29.1"/>
</g>
<g id="XMLID_100_">
	<defs>
		<polygon id="XMLID_101_" points="19.2,21.6 29.3,21.6 29.3,34.2 24.2,30.1 19.2,34.2 19.2,21.6 		"/>
	</defs>
	<clipPath id="XMLID_9_">
		<use xlink:href="#XMLID_101_"  style="overflow:visible;"/>
	</clipPath>
	<rect id="XMLID_102_" x="12.8" y="15.3" class="st5" width="22.8" height="25.3"/>
</g>
<g id="XMLID_78_">
	<defs>
		<rect id="XMLID_79_" x="7.8" y="57.2" width="2.5" height="12.7"/>
	</defs>
	<clipPath id="XMLID_10_">
		<use xlink:href="#XMLID_79_"  style="overflow:visible;"/>
	</clipPath>
</g>
<g id="XMLID_75_">
	<defs>
		<rect id="XMLID_76_" x="14.1" y="57.2" width="2.5" height="12.7"/>
	</defs>
	<clipPath id="XMLID_11_">
		<use xlink:href="#XMLID_76_"  style="overflow:visible;"/>
	</clipPath>
	<rect id="XMLID_77_" x="7.8" y="50.9" class="st6" width="15.2" height="25.3"/>
</g>
<g id="XMLID_72_">
	<defs>
		<rect id="XMLID_73_" x="17.9" y="43.8" width="2.5" height="8.9"/>
	</defs>
	<clipPath id="XMLID_12_">
		<use xlink:href="#XMLID_73_"  style="overflow:visible;"/>
	</clipPath>
</g>
<g id="XMLID_69_">
	<defs>
		<rect id="XMLID_70_" x="21.7" y="43.8" width="2.5" height="8.9"/>
	</defs>
	<clipPath id="XMLID_13_">
		<use xlink:href="#XMLID_70_"  style="overflow:visible;"/>
	</clipPath>
</g>
<g id="XMLID_66_">
	<defs>
		<rect id="XMLID_67_" x="41.9" y="57.2" width="2.5" height="12.7"/>
	</defs>
	<clipPath id="XMLID_14_">
		<use xlink:href="#XMLID_67_"  style="overflow:visible;"/>
	</clipPath>
</g>
<g id="XMLID_62_">
	<defs>
		<rect id="XMLID_63_" x="64.7" y="42.3" width="2.5" height="13.9"/>
	</defs>
	<clipPath id="XMLID_15_">
		<use xlink:href="#XMLID_63_"  style="overflow:visible;"/>
	</clipPath>
</g>
<g id="XMLID_50_">
	<defs>
		<rect id="XMLID_59_" x="36.9" y="42.3" width="2.5" height="13.9"/>
	</defs>
	<clipPath id="XMLID_16_">
		<use xlink:href="#XMLID_59_"  style="overflow:visible;"/>
	</clipPath>
</g>
<g id="XMLID_35_">
	<defs>
		<rect id="XMLID_36_" x="17.9" y="62.3" width="22.8" height="2.5"/>
	</defs>
	<clipPath id="XMLID_17_">
		<use xlink:href="#XMLID_36_"  style="overflow:visible;"/>
	</clipPath>
</g>
<g id="XMLID_32_">
	<defs>
		<rect id="XMLID_33_" x="40.7" y="48.6" width="22.8" height="2.5"/>
	</defs>
	<clipPath id="XMLID_18_">
		<use xlink:href="#XMLID_33_"  style="overflow:visible;"/>
	</clipPath>
</g>
<g id="XMLID_19_">
	<defs>
		<path id="XMLID_27_" d="M74.2,7.9c0-1.4,1.1-2.5,2.5-2.5h6.3c1.4,0,2.5,1.1,2.5,2.5v59.5c0,1.4-1.1,2.5-2.5,2.5h-6.3
			c-1.4,0-2.5-1.1-2.5-2.5V7.9L74.2,7.9z"/>
	</defs>
	<use xlink:href="#XMLID_27_"  style="overflow:visible;fill-rule:evenodd;clip-rule:evenodd;fill:#FFDF01;"/>
	<clipPath id="XMLID_20_">
		<use xlink:href="#XMLID_27_"  style="overflow:visible;"/>
	</clipPath>
	<rect id="XMLID_28_" x="67.9" y="-1" class="st7" width="24" height="77.2"/>
</g>
<rect id="XMLID_2_" x="14.2" y="46.2" class="st8" width="36.4" height="3.5"/>
<rect id="XMLID_1_" x="77.8" y="21.5" class="st9" width="4.1" height="32.8"/>
</svg>
