<?xml version="1.0" encoding="utf-8"?>
<!-- Generator: Adobe Illustrator 19.0.0, SVG Export Plug-In . SVG Version: 6.00 Build 0)  -->
<svg version="1.1" id="Capa_1" xmlns="http://www.w3.org/2000/svg" xmlns:xlink="http://www.w3.org/1999/xlink" x="0px" y="0px"
	 viewBox="-1069 211.1 420.8 420.8" style="enable-background:new -1069 211.1 420.8 420.8;" xml:space="preserve">
<style type="text/css">
	.st0{fill:#B06E53;}
	.st1{fill:#FFD7A3;}
	.st2{fill:#E2CA66;}
	.st3{fill:#FFFFFF;}
	.st4{fill:#FDC88E;}
	.st5{fill:#FFE1B2;}
	.st6{fill:#FFE888;}
</style>
<g>
	<g>
		<path class="st0" d="M-760.8,239.9c-12.5-16.9-108.5-50.9-168-5c-60,59-51,158-11,196c0.1,0.1,167,4,167,4s8,7,21-39
			S-727.8,303.9-760.8,239.9z"/>
	</g>
	<g>
		<path class="st1" d="M-810,444.2h-0.4v-15.4h-92.1v15.4c0,15-0.1,31.4-13.2,41.3v147.4h59.2c0,0,31,0,59.2,0V485.2
			C-809.9,475.3-810,459.1-810,444.2z"/>
	</g>
	<g>
		<path class="st2" d="M-757.7,494.6h-2.2c-25.8,0-38.4-7-44.5-17.1l-13,50.5h-78l-13-50.5c-6.2,10-18.7,17.1-44.5,17.1h-2.2
			c-40,0-72.4,32.4-72.4,72.4v46.1c0,10.9,8.8,19.7,19.7,19.7h135h32.6h135c10.9,0,19.7-8.8,19.7-19.7V567
			C-685.3,527-717.7,494.6-757.7,494.6z"/>
	</g>
	<g>
		<circle class="st3" cx="-856.4" cy="580.1" r="6.6"/>
	</g>
	<g>
		<circle class="st3" cx="-856.4" cy="613" r="6.6"/>
	</g>
	<g>
		<path class="st0" d="M-797.2,224.8l-46,250.1l32.9-46.1C-740.7,377.8-710.8,224.8-797.2,224.8z"/>
	</g>
	<g>
		<path class="st4" d="M-803.7,514.3c2.4,0.7,4.6,1,6.6,1.2v-30.3c-12.8-9.9-12.8-26.1-12.8-41h-0.4v-15.4h-72.4l-19.7,6.6
			C-889.3,450.2-849,502-803.7,514.3z"/>
	</g>
	<g>
		<path class="st5" d="M-764.3,343.3c0,52.7-52.4,118.4-92.1,118.4s-92.1-65.8-92.1-118.4s41.2-72.4,92.1-72.4
			S-764.3,290.6-764.3,343.3z"/>
	</g>
	<g>
		<path class="st0" d="M-843.2,238c-3.7,0-15.7,4.2-25.5,7.8l-0.8-1.2c0,0-1.4,1.1-3.7,2.9c-5.5,2.1-9.5,3.7-9.5,3.7l1.5,2.6
			c-25,19.7-75.4,45-80.5,50.1c-6.6,6.6,19.7,81.4,19.7,79c0-68.3,64.1-75.8,105.3-85.5c18.6-4.4,43.9-15.4,46.1-26.3
			C-788.4,259.9-836.6,238-843.2,238z"/>
	</g>
	<g>
		<path class="st0" d="M-803.7,277.5c0,34,16.5,62.9,39.1,68.7c12.4,3.2,7-35.8,7-35.8s-17.5-45-19.7-46.1s-19.7-39.5-19.7-39.5
			l-39.5,32.9L-803.7,277.5z"/>
	</g>
	<g>
		<path class="st5" d="M-774.1,343.9c10.8-2.5,17.8,2.8,17.8,13.2c0,13.7-14.5,47.3-29.7,26.3C-801.2,362.4-774.1,343.9-774.1,343.9
			z"/>
	</g>
	<g>
		<path class="st6" d="M-856.4,526.3l-32.9,32.9l-46.1-65.1l15.3-15.3c2.5-2.5,6.5-2.6,9.1-0.2L-856.4,526.3z"/>
	</g>
	<g>
		<path class="st6" d="M-856.4,526.3l32.9,32.9l46.1-65.1l-15.3-15.3c-2.5-2.5-6.5-2.6-9.1-0.2L-856.4,526.3z"/>
	</g>
</g>
</svg>
