<?xml version="1.0" encoding="utf-8"?>
<!-- Generator: Adobe Illustrator 19.0.0, SVG Export Plug-In . SVG Version: 6.00 Build 0)  -->
<svg version="1.1" id="圖層_1" xmlns="http://www.w3.org/2000/svg" xmlns:xlink="http://www.w3.org/1999/xlink" x="0px" y="0px"
	 viewBox="0 0 132 129" style="enable-background:new 0 0 132 129;" xml:space="preserve">
<style type="text/css">
	.st0{fill:#0899F7;}
</style>
<path id="XMLID_58_" class="st0" d="M68.3,124.6c-32.5,0-59-26.5-59-59c0-32.5,26.5-59,59-59c32.5,0,59,26.5,59,59
	C127.3,98.1,100.8,124.6,68.3,124.6z M68.3,13.2c-28.8,0-52.3,23.5-52.3,52.3s23.5,52.3,52.3,52.3s52.3-23.5,52.3-52.3
	S97.1,13.2,68.3,13.2z"/>
<path id="XMLID_53_" class="st0" d="M63.9,94c-1.5,0-2.9-0.7-3.9-1.8L39.3,68.1c-1.9-2.2-1.6-5.4,0.6-7.3c2.2-1.9,5.4-1.6,7.3,0.6
	l16.1,18.8l25.6-40.6c1.5-2.4,4.7-3.1,7.1-1.6c2.4,1.5,3.1,4.7,1.6,7.1L68.3,91.6c-0.9,1.4-2.4,2.3-4,2.4C64.2,94,64.1,94,63.9,94z"
	/>
</svg>
