<?xml version="1.0" encoding="utf-8"?>
<!-- Generator: Adobe Illustrator 19.0.0, SVG Export Plug-In . SVG Version: 6.00 Build 0)  -->
<svg version="1.1" id="圖層_1" xmlns="http://www.w3.org/2000/svg" xmlns:xlink="http://www.w3.org/1999/xlink" x="0px" y="0px"
	 viewBox="-24 26 50 50" style="enable-background:new -24 26 50 50;" xml:space="preserve">
<style type="text/css">
	.st0{fill:none;stroke:#FFFFFF;stroke-width:2;stroke-linecap:round;stroke-linejoin:round;stroke-miterlimit:10;}
</style>
<path id="XMLID_79_" class="st0" d="M15.1,72.5h-26.6c-2.8,0-5-2.3-5-5V35.2c0-2.8,2.2-5,5-5h26.6c2.8,0,5,2.3,5,5v32.3
	C20.1,70.2,17.9,72.5,15.1,72.5z"/>
<line id="XMLID_80_" class="st0" x1="-20.4" y1="40.5" x2="-13.2" y2="40.5"/>
<line id="XMLID_81_" class="st0" x1="-20.4" y1="51.9" x2="-13.2" y2="51.9"/>
<line id="XMLID_82_" class="st0" x1="-20.4" y1="63.1" x2="-13.2" y2="63.1"/>
<path id="XMLID_83_" class="st0" d="M11.5,49.9H-6.3c-1.1,0-2-0.9-2-2v-9.4c0-1.1,0.9-2,2-2h17.8c1.1,0,2,0.9,2,2v9.4
	C13.5,49,12.6,49.9,11.5,49.9z"/>
<line id="XMLID_84_" class="st0" x1="-7.8" y1="56.4" x2="13.7" y2="56.4"/>
<line id="XMLID_85_" class="st0" x1="-7.8" y1="62.8" x2="13.7" y2="62.8"/>
</svg>
