<svg version="1.1" xmlns="http://www.w3.org/2000/svg" xmlns:xlink="http://www.w3.org/1999/xlink" x="0px" y="0px" viewBox="-67 108 30 30">
<path d="M-54.3,137.8c-0.5,0-0.9-0.4-0.9-0.9v-4.5c0-0.3,0.1-0.4,0.3-0.6l11.7-11.7c0.2-0.2,0.4-0.3,0.6-0.3s0.5,0.1,0.6,0.3
	l4.5,4.5c0.4,0.4,0.4,0.9,0,1.3l-11.7,11.7c-0.2,0.2-0.4,0.3-0.6,0.3H-54.3z M-50.2,136l10.8-10.8l-3.2-3.2l-10.8,10.8v3.2H-50.2z"></path>
<rect x="-45.2" y="123.4" transform="matrix(-0.6923 0.7216 -0.7216 -0.6923 16.4767 246.3914)" width="1.8" height="6.7"></rect>
<rect x="-47.1" y="126.3" transform="matrix(0.7216 0.6923 -0.6923 0.7216 75.3886 65.9347)" width="5.7" height="0.8"></rect>
<path d="M-65.6,119.3c-0.6,0-1-0.4-1-1s0.4-1,1-1h18.5c0.6,0,1,0.4,1,1s-0.4,1-1,1H-65.6z"></path>
<path d="M-65.6,111.6c-0.6,0-1-0.4-1-1s0.4-1,1-1h24.5c0.6,0,1,0.4,1,1s-0.4,1-1,1H-65.6z"></path>
<path d="M-65.6,126.9c-0.6,0-1-0.4-1-1c0-0.6,0.4-1,1-1h11.5c0.6,0,1,0.4,1,1c0,0.6-0.4,1-1,1H-65.6z"></path>
</svg>