<svg version="1.1" xmlns="http://www.w3.org/2000/svg" xmlns:xlink="http://www.w3.org/1999/xlink" x="0px" y="0px" viewBox="-67 108 30 30">
<path d="M-65.6,119.3c-0.6,0-1-0.4-1-1s0.4-1,1-1h24.5c0.6,0,1,0.4,1,1s-0.4,1-1,1H-65.6z"></path>
<path d="M-65.6,111.6c-0.6,0-1-0.4-1-1s0.4-1,1-1h24.5c0.6,0,1,0.4,1,1s-0.4,1-1,1H-65.6z"></path>
<path d="M-65.6,126.9c-0.6,0-1-0.4-1-1c0-0.6,0.4-1,1-1h6.5c0.6,0,1,0.4,1,1c0,0.6-0.4,1-1,1H-65.6z"></path>
<path d="M-46.9,137c-5.2,0-8.4-4.7-9.6-6.8l-0.1-0.1c-0.1-0.3-0.1-0.6,0-0.8c0.4-0.7,3.7-7,9.7-7c6.1,0,9.5,6.7,9.7,7
	c0.1,0.2,0.1,0.5,0,0.7C-37.4,130.3-40.9,137-46.9,137z M-54.7,129.8c2.3,3.6,5,5.4,7.8,5.4s5.5-1.9,7.8-5.4l0.1-0.1l-0.1-0.1
	c-2.3-3.6-5-5.4-7.8-5.4c-4.4,0-7.3,4.5-7.8,5.4l-0.1,0.1L-54.7,129.8z"></path>
<path d="M-46.9,133.6c-2.2,0-4-1.8-4-4s1.8-4,4-4c2.2,0,4,1.8,4,4S-44.8,133.6-46.9,133.6z M-46.9,127c-1.5,0-2.7,1.2-2.7,2.7
	s1.2,2.7,2.7,2.7s2.7-1.2,2.7-2.7S-45.5,127-46.9,127z"></path>
</svg>