<svg  xmlns="http://www.w3.org/2000/svg" xmlns:xlink="http://www.w3.org/1999/xlink" x="0px" y="0px" viewBox="-285 408.9 24 24" style="enable-background:new -285 408.9 24 24;" xml:space="preserve">
				<path d="M-269,429.3c-0.3,0-0.4-0.1-0.4-0.4v-2c0-2-1.6-3.6-3.6-3.6h-7c-2,0-3.6,1.6-3.6,3.6v2c0,0.3-0.1,0.4-0.4,0.4
						s-0.4-0.1-0.4-0.4v-2c0-2.5,1.9-4.4,4.4-4.4h7c2.5,0,4.4,1.9,4.4,4.4v2C-268.6,429.2-268.7,429.3-269,429.3z"/>
				<path d="M-276.5,420.3c-2.5,0-4.4-1.9-4.4-4.4s1.9-4.4,4.4-4.4s4.4,1.9,4.4,4.4S-274,420.3-276.5,420.3z M-276.5,412.3
						c-2,0-3.6,1.6-3.6,3.6s1.6,3.6,3.6,3.6s3.6-1.6,3.6-3.6S-274.5,412.3-276.5,412.3z" />
				<path d="M-266,421.3c-0.1,0-0.2,0-0.3-0.1l-2-2c-0.2-0.2-0.2-0.4,0-0.6c0.1-0.1,0.2-0.1,0.3-0.1s0.2,0,0.3,0.1l1.7,1.7l3.7-3.7
						c0.1-0.1,0.2-0.1,0.3-0.1s0.2,0,0.3,0.1c0.2,0.2,0.2,0.4,0,0.6l-4,4C-265.8,421.3-265.9,421.3-266,421.3z"/>	
				 </svg>