<svg version="1.1" xmlns="http://www.w3.org/2000/svg" xmlns:xlink="http://www.w3.org/1999/xlink" x="0px" y="0px" width="15px" height="15px" fill="#ffffff" viewBox="-10 -10 92 92" enable-background="new -10 -10 92 92" xml:space="preserve" class="m-r-xs"><path id="btn-svg3" d="M70.7,64.3c1.8,1.8,1.8,4.6,0,6.4c-0.9,0.9-2,1.3-3.2,1.3c-1.2,0-2.3-0.4-3.2-1.3L46,52.4L27.7,70.7c-0.9,0.9-2,1.3-3.2,1.3s-2.3-0.4-3.2-1.3c-1.8-1.8-1.8-4.6,0-6.4L39.6,46L21.3,27.7c-1.8-1.8-1.8-4.6,0-6.4c1.8-1.8,4.6-1.8,6.4,0L46,39.6l18.3-18.3c1.8-1.8,4.6-1.8,6.4,0c1.8,1.8,1.8,4.6,0,6.4L52.4,46L70.7,64.3z"></path></svg>