<?xml version="1.0" encoding="UTF-8"?>
<svg id="_圖層_1" data-name="圖層 1" xmlns="http://www.w3.org/2000/svg" xmlns:xlink="http://www.w3.org/1999/xlink" viewBox="0 0 909.95 55.47">
  <defs>
    <style>
      .cls-1 {
        fill: none;
      }

      .cls-2 {
        fill: #f2e91f;
      }

      .cls-3 {
        fill: #3078c8;
      }
    </style>
    <clipPath id="clippath">
      <rect class="cls-1" x="-4997.55" y="-388.6" width="2705.41" height="1803.61"/>
    </clipPath>
  </defs>
  <polygon class="cls-2" points="848.42 34.94 848.42 32.61 477.84 32.61 475.51 34.94 848.42 34.94"/>
  <polygon class="cls-2" points="63.54 32.61 63.54 34.94 434.44 34.94 432.11 32.61 63.54 32.61"/>
  <path class="cls-3" d="m908.04,23.4s-.02-.02-.03-.04c-.06-.07-.17-.2-.31-.34-.57-.57-1.14-1.14-1.71-1.71-1.62-1.63-3.3-3.31-4.96-4.95-.63-.63-1.37-1.11-2.2-1.45-.8-.32-1.65-.49-2.51-.49-.11,0-.22,0-.33,0,0-.09,0-.17,0-.26.01-.89-.15-1.75-.49-2.57-.34-.84-.84-1.6-1.49-2.25l-.74-.74c-1.82-1.82-3.7-3.7-5.55-5.56,0,0,0,0,0,0-.05-.07-.11-.16-.19-.26L885.46,0l-2.6,2.32s-.09.08-.12.11c-.09.08-.19.16-.3.28-.58.58-1.16,1.16-1.74,1.74-1.62,1.62-3.29,3.3-4.93,4.95-.56.56-1.01,1.22-1.33,1.97-.31.7-.49,1.45-.55,2.22-.02.28-.02.55-.01.83-.12,0-.24,0-.36,0-1.77,0-3.46.72-4.77,2.02-1.73,1.73-3.49,3.49-5.2,5.2H46.48c-.1-.1-.21-.21-.31-.31-1.62-1.63-3.3-3.31-4.96-4.95-.63-.63-1.37-1.11-2.2-1.45-.8-.32-1.65-.49-2.51-.49-.11,0-.22,0-.33,0,0-.09,0-.17,0-.26.01-.89-.15-1.75-.49-2.57-.34-.84-.84-1.6-1.49-2.25l-.74-.74c-1.82-1.82-3.7-3.7-5.55-5.56,0,0,0,0,0,0-.05-.07-.11-.16-.19-.26L25.63,0l-2.6,2.32s-.09.08-.12.11c-.09.08-.19.16-.3.28-.58.58-1.16,1.16-1.74,1.74-1.62,1.62-3.29,3.3-4.93,4.95-.56.56-1.01,1.22-1.33,1.97-.31.7-.49,1.45-.55,2.22-.02.28-.02.55-.01.83-.12,0-.24,0-.36,0-1.77,0-3.46.72-4.77,2.02-1.96,1.96-3.96,3.96-5.88,5.89l-.67.67c-.1.1-.18.19-.24.26-.02.02-.04.05-.07.07L0,25.49l2.04,2.18s.05.05.07.07c.07.08.16.17.26.28.89.89,1.77,1.77,2.66,2.66,1.28,1.27,2.6,2.59,3.9,3.89.64.64,1.38,1.14,2.2,1.48.81.34,1.67.51,2.54.51.12,0,.23,0,.35,0-.1,1.81.55,3.66,1.97,5.07,1.93,1.93,3.9,3.9,5.8,5.8l.78.77c.09.09.17.17.25.24.03.02.05.05.08.08l2.19,2.08,2.2-2.06s.05-.05.07-.07c.07-.07.16-.15.25-.24,2.09-2.09,4.33-4.33,6.57-6.57.53-.53.97-1.13,1.3-1.79.34-.67.56-1.39.66-2.12.05-.39.07-.78.05-1.17.11,0,.22,0,.34,0,.86,0,1.7-.16,2.5-.49.83-.34,1.57-.83,2.2-1.46,1.35-1.36,2.73-2.74,4.06-4.07.53-.53,1.06-1.06,1.59-1.59h381.59l3.65,3.65,2.33,2.33,20.53,20.53,20.53-20.53,2.33-2.33,3.65-3.65h381.66c.57.57,1.15,1.14,1.72,1.72,1.28,1.27,2.6,2.59,3.9,3.89.64.64,1.38,1.14,2.2,1.48.81.34,1.67.51,2.54.51.12,0,.23,0,.35,0-.1,1.81.55,3.66,1.97,5.07,1.93,1.93,3.9,3.9,5.8,5.8l.78.77c.09.09.17.17.25.24.03.02.05.05.08.08l2.19,2.08,2.2-2.06s.05-.05.07-.07c.07-.07.16-.15.26-.24,2.09-2.09,4.33-4.33,6.57-6.57.53-.53.97-1.13,1.3-1.79.34-.67.56-1.39.66-2.12.05-.39.07-.78.05-1.17.11,0,.22,0,.34,0,.86,0,1.7-.16,2.5-.49.83-.34,1.57-.83,2.2-1.46,1.35-1.36,2.73-2.74,4.06-4.07.83-.83,1.66-1.66,2.48-2.49.1-.1.18-.19.26-.27.03-.03.06-.06.09-.09l2.01-2.11-1.91-2.19Z"/>
</svg>